<?xml version="1.0" encoding="utf-8" standalone="no"?>
<!DOCTYPE svg PUBLIC "-//W3C//DTD SVG 1.1//EN"
  "http://www.w3.org/Graphics/SVG/1.1/DTD/svg11.dtd">
<svg xmlns:xlink="http://www.w3.org/1999/xlink" width="472.61625pt" height="620.50125pt" viewBox="0 0 472.61625 620.50125" xmlns="http://www.w3.org/2000/svg" version="1.1">
 <metadata>
  <rdf:RDF xmlns:dc="http://purl.org/dc/elements/1.1/" xmlns:cc="http://creativecommons.org/ns#" xmlns:rdf="http://www.w3.org/1999/02/22-rdf-syntax-ns#">
   <cc:Work>
    <dc:type rdf:resource="http://purl.org/dc/dcmitype/StillImage"/>
    <dc:date>2026-07-02T17:51:50.016517</dc:date>
    <dc:format>image/svg+xml</dc:format>
    <dc:creator>
     <cc:Agent>
      <dc:title>Matplotlib v3.10.9, https://matplotlib.org/</dc:title>
     </cc:Agent>
    </dc:creator>
   </cc:Work>
  </rdf:RDF>
 </metadata>
 <defs>
  <style type="text/css">*{stroke-linejoin: round; stroke-linecap: butt}</style>
 </defs>
 <g id="figure_1">
  <g id="patch_1">
   <path d="M 0 620.50125 
L 472.61625 620.50125 
L 472.61625 0 
L 0 0 
L 0 620.50125 
z
" style="fill: none"/>
  </g>
  <g id="axes_1">
   <g id="patch_2">
    <path d="M 62.21625 275.657143 
L 465.41625 275.657143 
L 465.41625 7.2 
L 62.21625 7.2 
L 62.21625 275.657143 
z
" style="fill: none"/>
   </g>
   <g id="matplotlib.axis_1">
    <g id="xtick_1">
     <g id="line2d_1">
      <defs>
       <path id="m9489f076df" d="M 0 0 
L 0 -5 
" style="stroke: #000000; stroke-width: 0.8"/>
      </defs>
      <g>
       <use xlink:href="#m9489f076df" x="80.543523" y="275.657143" style="stroke: #000000; stroke-width: 0.8"/>
      </g>
     </g>
    </g>
    <g id="xtick_2">
     <g id="line2d_2">
      <g>
       <use xlink:href="#m9489f076df" x="159.293523" y="275.657143" style="stroke: #000000; stroke-width: 0.8"/>
      </g>
     </g>
    </g>
    <g id="xtick_3">
     <g id="line2d_3">
      <g>
       <use xlink:href="#m9489f076df" x="238.043523" y="275.657143" style="stroke: #000000; stroke-width: 0.8"/>
      </g>
     </g>
    </g>
    <g id="xtick_4">
     <g id="line2d_4">
      <g>
       <use xlink:href="#m9489f076df" x="316.793523" y="275.657143" style="stroke: #000000; stroke-width: 0.8"/>
      </g>
     </g>
    </g>
    <g id="xtick_5">
     <g id="line2d_5">
      <g>
       <use xlink:href="#m9489f076df" x="395.543523" y="275.657143" style="stroke: #000000; stroke-width: 0.8"/>
      </g>
     </g>
    </g>
   </g>
   <g id="matplotlib.axis_2">
    <g id="ytick_1">
     <g id="line2d_6">
      <defs>
       <path id="mae5d03e4cb" d="M 0 0 
L 5 0 
" style="stroke: #000000; stroke-width: 0.8"/>
      </defs>
      <g>
       <use xlink:href="#mae5d03e4cb" x="62.21625" y="202.501198" style="stroke: #000000; stroke-width: 0.8"/>
      </g>
     </g>
     <g id="text_1">
      <!-- $\mathdefault{10^{0}}$ -->
      <g transform="translate(30.55625 208.579948)">
       <text>
        <tspan x="0" y="-0.5625" style="font-size: 16px; font-family: 'DejaVu Sans'">1</tspan>
        <tspan x="10.179688" y="-0.5625" style="font-size: 16px; font-family: 'DejaVu Sans'">0</tspan>
        <tspan x="20.5125" y="-6.6875" style="font-size: 11.2px; font-family: 'DejaVu Sans'">0</tspan>
       </text>
      </g>
     </g>
    </g>
    <g id="ytick_2">
     <g id="line2d_7">
      <g>
       <use xlink:href="#mae5d03e4cb" x="62.21625" y="87.255594" style="stroke: #000000; stroke-width: 0.8"/>
      </g>
     </g>
     <g id="text_2">
      <!-- $\mathdefault{10^{1}}$ -->
      <g transform="translate(30.55625 93.334344)">
       <text>
        <tspan x="0" y="-0.704688" style="font-size: 16px; font-family: 'DejaVu Sans'">1</tspan>
        <tspan x="10.179688" y="-0.704688" style="font-size: 16px; font-family: 'DejaVu Sans'">0</tspan>
        <tspan x="20.5125" y="-6.829688" style="font-size: 11.2px; font-family: 'DejaVu Sans'">1</tspan>
       </text>
      </g>
     </g>
    </g>
    <g id="ytick_3">
     <g id="line2d_8">
      <defs>
       <path id="me0ef018fbd" d="M 0 0 
L 2 0 
" style="stroke: #000000; stroke-width: 0.6"/>
      </defs>
      <g>
       <use xlink:href="#me0ef018fbd" x="62.21625" y="262.760675" style="stroke: #000000; stroke-width: 0.6"/>
      </g>
     </g>
    </g>
    <g id="ytick_4">
     <g id="line2d_9">
      <g>
       <use xlink:href="#me0ef018fbd" x="62.21625" y="248.362035" style="stroke: #000000; stroke-width: 0.6"/>
      </g>
     </g>
    </g>
    <g id="ytick_5">
     <g id="line2d_10">
      <g>
       <use xlink:href="#me0ef018fbd" x="62.21625" y="237.193582" style="stroke: #000000; stroke-width: 0.6"/>
      </g>
     </g>
    </g>
    <g id="ytick_6">
     <g id="line2d_11">
      <g>
       <use xlink:href="#me0ef018fbd" x="62.21625" y="228.068291" style="stroke: #000000; stroke-width: 0.6"/>
      </g>
     </g>
    </g>
    <g id="ytick_7">
     <g id="line2d_12">
      <g>
       <use xlink:href="#me0ef018fbd" x="62.21625" y="220.352968" style="stroke: #000000; stroke-width: 0.6"/>
      </g>
     </g>
    </g>
    <g id="ytick_8">
     <g id="line2d_13">
      <g>
       <use xlink:href="#me0ef018fbd" x="62.21625" y="213.669651" style="stroke: #000000; stroke-width: 0.6"/>
      </g>
     </g>
    </g>
    <g id="ytick_9">
     <g id="line2d_14">
      <g>
       <use xlink:href="#me0ef018fbd" x="62.21625" y="207.774548" style="stroke: #000000; stroke-width: 0.6"/>
      </g>
     </g>
    </g>
    <g id="ytick_10">
     <g id="line2d_15">
      <g>
       <use xlink:href="#me0ef018fbd" x="62.21625" y="167.808814" style="stroke: #000000; stroke-width: 0.6"/>
      </g>
     </g>
    </g>
    <g id="ytick_11">
     <g id="line2d_16">
      <g>
       <use xlink:href="#me0ef018fbd" x="62.21625" y="147.515071" style="stroke: #000000; stroke-width: 0.6"/>
      </g>
     </g>
    </g>
    <g id="ytick_12">
     <g id="line2d_17">
      <g>
       <use xlink:href="#me0ef018fbd" x="62.21625" y="133.116431" style="stroke: #000000; stroke-width: 0.6"/>
      </g>
     </g>
    </g>
    <g id="ytick_13">
     <g id="line2d_18">
      <g>
       <use xlink:href="#me0ef018fbd" x="62.21625" y="121.947978" style="stroke: #000000; stroke-width: 0.6"/>
      </g>
     </g>
    </g>
    <g id="ytick_14">
     <g id="line2d_19">
      <g>
       <use xlink:href="#me0ef018fbd" x="62.21625" y="112.822687" style="stroke: #000000; stroke-width: 0.6"/>
      </g>
     </g>
    </g>
    <g id="ytick_15">
     <g id="line2d_20">
      <g>
       <use xlink:href="#me0ef018fbd" x="62.21625" y="105.107364" style="stroke: #000000; stroke-width: 0.6"/>
      </g>
     </g>
    </g>
    <g id="ytick_16">
     <g id="line2d_21">
      <g>
       <use xlink:href="#me0ef018fbd" x="62.21625" y="98.424047" style="stroke: #000000; stroke-width: 0.6"/>
      </g>
     </g>
    </g>
    <g id="ytick_17">
     <g id="line2d_22">
      <g>
       <use xlink:href="#me0ef018fbd" x="62.21625" y="92.528943" style="stroke: #000000; stroke-width: 0.6"/>
      </g>
     </g>
    </g>
    <g id="ytick_18">
     <g id="line2d_23">
      <g>
       <use xlink:href="#me0ef018fbd" x="62.21625" y="52.56321" style="stroke: #000000; stroke-width: 0.6"/>
      </g>
     </g>
    </g>
    <g id="ytick_19">
     <g id="line2d_24">
      <g>
       <use xlink:href="#me0ef018fbd" x="62.21625" y="32.269466" style="stroke: #000000; stroke-width: 0.6"/>
      </g>
     </g>
    </g>
    <g id="ytick_20">
     <g id="line2d_25">
      <g>
       <use xlink:href="#me0ef018fbd" x="62.21625" y="17.870826" style="stroke: #000000; stroke-width: 0.6"/>
      </g>
     </g>
    </g>
    <g id="text_3">
     <!-- Critical rate  $\alpha_c$ -->
     <g transform="translate(22.396875 217.028571) rotate(-90)">
      <text>
       <tspan x="0" y="-0.796875" style="font-size: 20px; font-family: 'DejaVu Sans'">C</tspan>
       <tspan x="13.964844" y="-0.796875" style="font-size: 20px; font-family: 'DejaVu Sans'">r</tspan>
       <tspan x="22.1875" y="-0.796875" style="font-size: 20px; font-family: 'DejaVu Sans'">i</tspan>
       <tspan x="27.744141" y="-0.796875" style="font-size: 20px; font-family: 'DejaVu Sans'">t</tspan>
       <tspan x="35.585938" y="-0.796875" style="font-size: 20px; font-family: 'DejaVu Sans'">i</tspan>
       <tspan x="41.142578" y="-0.796875" style="font-size: 20px; font-family: 'DejaVu Sans'">c</tspan>
       <tspan x="52.138672" y="-0.796875" style="font-size: 20px; font-family: 'DejaVu Sans'">a</tspan>
       <tspan x="64.394531" y="-0.796875" style="font-size: 20px; font-family: 'DejaVu Sans'">l</tspan>
       <tspan x="69.951172" y="-0.796875" style="font-size: 20px; font-family: 'DejaVu Sans'"> </tspan>
       <tspan x="76.308594" y="-0.796875" style="font-size: 20px; font-family: 'DejaVu Sans'">r</tspan>
       <tspan x="84.53125" y="-0.796875" style="font-size: 20px; font-family: 'DejaVu Sans'">a</tspan>
       <tspan x="96.787109" y="-0.796875" style="font-size: 20px; font-family: 'DejaVu Sans'">t</tspan>
       <tspan x="104.628906" y="-0.796875" style="font-size: 20px; font-family: 'DejaVu Sans'">e</tspan>
       <tspan x="116.933594" y="-0.796875" style="font-size: 20px; font-family: 'DejaVu Sans'"> </tspan>
       <tspan x="123.291016" y="-0.796875" style="font-size: 20px; font-family: 'DejaVu Sans'"> </tspan>
       <tspan x="129.648438" y="-0.796875" style="font-style: oblique; font-size: 20px; font-family: 'DejaVu Sans'">α</tspan>
       <tspan x="142.832031" y="2.484375" style="font-style: oblique; font-size: 14px; font-family: 'DejaVu Sans'">c</tspan>
      </text>
     </g>
    </g>
   </g>
   <g id="line2d_26">
    <path d="M 80.543523 263.454545 
L 84.361705 262.137763 
L 88.179886 260.843381 
L 91.998068 259.570141 
L 95.81625 258.316868 
L 99.634432 257.082471 
L 103.452614 255.865929 
L 107.270795 254.666288 
L 111.088977 253.482652 
L 114.907159 252.314182 
L 118.725341 251.160084 
L 122.543523 250.019613 
L 126.361705 248.892062 
L 130.179886 247.776761 
L 133.998068 246.673075 
L 137.81625 245.580398 
L 141.634432 244.498153 
L 145.452614 243.425787 
L 149.270795 242.362768 
L 153.088977 241.308588 
L 156.907159 240.262754 
L 160.725341 239.22479 
L 164.543523 238.194235 
L 168.361705 237.170641 
L 172.179886 236.15357 
L 175.998068 235.142596 
L 179.81625 234.137297 
L 183.634432 233.137264 
L 187.452614 232.142087 
L 191.270795 231.151366 
L 195.088977 230.164702 
L 198.907159 229.181697 
L 202.725341 228.201956 
L 206.543523 227.225084 
L 210.361705 226.250682 
L 214.179886 225.278353 
L 217.998068 224.307694 
L 221.81625 223.338298 
L 225.634432 222.369752 
L 229.452614 221.401639 
L 233.270795 220.433531 
L 237.088977 219.464992 
L 240.907159 218.495576 
L 244.725341 217.524827 
L 248.543523 216.552272 
L 252.361705 215.577426 
L 256.179886 214.599789 
L 259.998068 213.618838 
L 263.81625 212.634035 
L 267.634432 211.644817 
L 271.452614 210.650598 
L 275.270795 209.650763 
L 279.088977 208.644669 
L 282.907159 207.631639 
L 286.725341 206.610961 
L 290.543523 205.58188 
L 294.361705 204.543598 
L 298.179886 203.495269 
L 301.998068 202.435989 
L 305.81625 201.364796 
L 309.634432 200.280658 
L 313.452614 199.182468 
L 317.270795 198.069034 
L 321.088977 196.939068 
L 324.907159 195.791175 
L 328.725341 194.62384 
L 332.543523 193.435408 
L 336.361705 192.224071 
L 340.179886 190.987841 
L 343.998068 189.724527 
L 347.81625 188.431702 
L 351.634432 187.106667 
L 355.452614 185.746409 
L 359.270795 184.347544 
L 363.088977 182.906252 
L 366.907159 181.4182 
L 370.725341 179.878437 
L 374.543523 178.281273 
L 378.361705 176.620121 
L 382.179886 174.887289 
L 385.998068 173.073721 
L 389.81625 171.168647 
L 393.634432 169.159118 
L 397.452614 167.029368 
L 401.270795 164.759932 
L 405.088977 162.326381 
L 408.907159 159.697466 
L 412.725341 156.832313 
L 416.543523 153.676002 
L 420.361705 150.152275 
L 424.179886 146.150796 
L 427.998068 141.503217 
L 431.81625 135.933654 
L 435.634432 128.941573 
L 439.452614 119.463206 
L 443.270795 104.480433 
L 447.088977 63.933223 
" clip-path="url(#pf7a09e970c)" style="fill: none; stroke: #c9882e; stroke-width: 2.2; stroke-linecap: square"/>
   </g>
   <g id="patch_3">
    <path d="M 62.21625 275.657143 
L 62.21625 7.2 
" style="fill: none; stroke: #000000; stroke-width: 1.1; stroke-linejoin: miter; stroke-linecap: square"/>
   </g>
   <g id="patch_4">
    <path d="M 465.41625 275.657143 
L 465.41625 7.2 
" style="fill: none; stroke: #000000; stroke-width: 1.1; stroke-linejoin: miter; stroke-linecap: square"/>
   </g>
   <g id="patch_5">
    <path d="M 62.21625 275.657143 
L 465.41625 275.657143 
" style="fill: none; stroke: #000000; stroke-width: 1.1; stroke-linejoin: miter; stroke-linecap: square"/>
   </g>
   <g id="patch_6">
    <path d="M 62.21625 7.2 
L 465.41625 7.2 
" style="fill: none; stroke: #000000; stroke-width: 1.1; stroke-linejoin: miter; stroke-linecap: square"/>
   </g>
   <g id="legend_1">
    <g id="line2d_27">
     <path d="M 78.41625 30.777187 
L 96.41625 30.777187 
L 114.41625 30.777187 
" style="fill: none; stroke: #c9882e; stroke-width: 2.2; stroke-linecap: square"/>
    </g>
    <g id="text_4">
     <text style="font-size: 18px; font-family: 'DejaVu Sans', 'Bitstream Vera Sans', 'Computer Modern Sans Serif', 'Lucida Grande', 'Verdana', 'Geneva', 'Lucid', 'Arial', 'Helvetica', 'Avant Garde', sans-serif; text-anchor: start" x="128.81625" y="37.077187" transform="rotate(-0 128.81625 37.077187)">Deterministic (equal-duty)</text>
    </g>
   </g>
  </g>
  <g id="axes_2">
   <g id="patch_7">
    <path d="M 62.21625 570.96 
L 465.41625 570.96 
L 465.41625 302.502857 
L 62.21625 302.502857 
L 62.21625 570.96 
z
" style="fill: none"/>
   </g>
   <g id="matplotlib.axis_3">
    <g id="xtick_6">
     <g id="line2d_28">
      <g>
       <use xlink:href="#m9489f076df" x="80.543523" y="570.96" style="stroke: #000000; stroke-width: 0.8"/>
      </g>
     </g>
     <g id="text_5">
      <text style="font-size: 16px; font-family: 'DejaVu Sans', 'Bitstream Vera Sans', 'Computer Modern Sans Serif', 'Lucida Grande', 'Verdana', 'Geneva', 'Lucid', 'Arial', 'Helvetica', 'Avant Garde', sans-serif; text-anchor: middle" x="80.543523" y="586.6175" transform="rotate(-0 80.543523 586.6175)">2.00</text>
     </g>
    </g>
    <g id="xtick_7">
     <g id="line2d_29">
      <g>
       <use xlink:href="#m9489f076df" x="159.293523" y="570.96" style="stroke: #000000; stroke-width: 0.8"/>
      </g>
     </g>
     <g id="text_6">
      <text style="font-size: 16px; font-family: 'DejaVu Sans', 'Bitstream Vera Sans', 'Computer Modern Sans Serif', 'Lucida Grande', 'Verdana', 'Geneva', 'Lucid', 'Arial', 'Helvetica', 'Avant Garde', sans-serif; text-anchor: middle" x="159.293523" y="586.6175" transform="rotate(-0 159.293523 586.6175)">2.05</text>
     </g>
    </g>
    <g id="xtick_8">
     <g id="line2d_30">
      <g>
       <use xlink:href="#m9489f076df" x="238.043523" y="570.96" style="stroke: #000000; stroke-width: 0.8"/>
      </g>
     </g>
     <g id="text_7">
      <text style="font-size: 16px; font-family: 'DejaVu Sans', 'Bitstream Vera Sans', 'Computer Modern Sans Serif', 'Lucida Grande', 'Verdana', 'Geneva', 'Lucid', 'Arial', 'Helvetica', 'Avant Garde', sans-serif; text-anchor: middle" x="238.043523" y="586.6175" transform="rotate(-0 238.043523 586.6175)">2.10</text>
     </g>
    </g>
    <g id="xtick_9">
     <g id="line2d_31">
      <g>
       <use xlink:href="#m9489f076df" x="316.793523" y="570.96" style="stroke: #000000; stroke-width: 0.8"/>
      </g>
     </g>
     <g id="text_8">
      <text style="font-size: 16px; font-family: 'DejaVu Sans', 'Bitstream Vera Sans', 'Computer Modern Sans Serif', 'Lucida Grande', 'Verdana', 'Geneva', 'Lucid', 'Arial', 'Helvetica', 'Avant Garde', sans-serif; text-anchor: middle" x="316.793523" y="586.6175" transform="rotate(-0 316.793523 586.6175)">2.15</text>
     </g>
    </g>
    <g id="xtick_10">
     <g id="line2d_32">
      <g>
       <use xlink:href="#m9489f076df" x="395.543523" y="570.96" style="stroke: #000000; stroke-width: 0.8"/>
      </g>
     </g>
     <g id="text_9">
      <text style="font-size: 16px; font-family: 'DejaVu Sans', 'Bitstream Vera Sans', 'Computer Modern Sans Serif', 'Lucida Grande', 'Verdana', 'Geneva', 'Lucid', 'Arial', 'Helvetica', 'Avant Garde', sans-serif; text-anchor: middle" x="395.543523" y="586.6175" transform="rotate(-0 395.543523 586.6175)">2.20</text>
     </g>
    </g>
    <g id="text_10">
     <!-- $\gamma_2$ -->
     <g transform="translate(253.11625 609.10125)">
      <text>
       <tspan x="0" y="-0.0625" style="font-style: oblique; font-size: 20px; font-family: 'DejaVu Sans'">γ</tspan>
       <tspan x="11.835938" y="3.21875" style="font-size: 14px; font-family: 'DejaVu Sans'">2</tspan>
      </text>
     </g>
    </g>
   </g>
   <g id="matplotlib.axis_4">
    <g id="ytick_21">
     <g id="line2d_33">
      <g>
       <use xlink:href="#mae5d03e4cb" x="62.21625" y="497.804055" style="stroke: #000000; stroke-width: 0.8"/>
      </g>
     </g>
     <g id="text_11">
      <!-- $\mathdefault{10^{0}}$ -->
      <g transform="translate(30.55625 503.882805)">
       <text>
        <tspan x="0" y="-0.5625" style="font-size: 16px; font-family: 'DejaVu Sans'">1</tspan>
        <tspan x="10.179688" y="-0.5625" style="font-size: 16px; font-family: 'DejaVu Sans'">0</tspan>
        <tspan x="20.5125" y="-6.6875" style="font-size: 11.2px; font-family: 'DejaVu Sans'">0</tspan>
       </text>
      </g>
     </g>
    </g>
    <g id="ytick_22">
     <g id="line2d_34">
      <g>
       <use xlink:href="#mae5d03e4cb" x="62.21625" y="382.558451" style="stroke: #000000; stroke-width: 0.8"/>
      </g>
     </g>
     <g id="text_12">
      <!-- $\mathdefault{10^{1}}$ -->
      <g transform="translate(30.55625 388.637201)">
       <text>
        <tspan x="0" y="-0.704688" style="font-size: 16px; font-family: 'DejaVu Sans'">1</tspan>
        <tspan x="10.179688" y="-0.704688" style="font-size: 16px; font-family: 'DejaVu Sans'">0</tspan>
        <tspan x="20.5125" y="-6.829688" style="font-size: 11.2px; font-family: 'DejaVu Sans'">1</tspan>
       </text>
      </g>
     </g>
    </g>
    <g id="ytick_23">
     <g id="line2d_35">
      <g>
       <use xlink:href="#me0ef018fbd" x="62.21625" y="558.063532" style="stroke: #000000; stroke-width: 0.6"/>
      </g>
     </g>
    </g>
    <g id="ytick_24">
     <g id="line2d_36">
      <g>
       <use xlink:href="#me0ef018fbd" x="62.21625" y="543.664892" style="stroke: #000000; stroke-width: 0.6"/>
      </g>
     </g>
    </g>
    <g id="ytick_25">
     <g id="line2d_37">
      <g>
       <use xlink:href="#me0ef018fbd" x="62.21625" y="532.496439" style="stroke: #000000; stroke-width: 0.6"/>
      </g>
     </g>
    </g>
    <g id="ytick_26">
     <g id="line2d_38">
      <g>
       <use xlink:href="#me0ef018fbd" x="62.21625" y="523.371148" style="stroke: #000000; stroke-width: 0.6"/>
      </g>
     </g>
    </g>
    <g id="ytick_27">
     <g id="line2d_39">
      <g>
       <use xlink:href="#me0ef018fbd" x="62.21625" y="515.655825" style="stroke: #000000; stroke-width: 0.6"/>
      </g>
     </g>
    </g>
    <g id="ytick_28">
     <g id="line2d_40">
      <g>
       <use xlink:href="#me0ef018fbd" x="62.21625" y="508.972508" style="stroke: #000000; stroke-width: 0.6"/>
      </g>
     </g>
    </g>
    <g id="ytick_29">
     <g id="line2d_41">
      <g>
       <use xlink:href="#me0ef018fbd" x="62.21625" y="503.077405" style="stroke: #000000; stroke-width: 0.6"/>
      </g>
     </g>
    </g>
    <g id="ytick_30">
     <g id="line2d_42">
      <g>
       <use xlink:href="#me0ef018fbd" x="62.21625" y="463.111671" style="stroke: #000000; stroke-width: 0.6"/>
      </g>
     </g>
    </g>
    <g id="ytick_31">
     <g id="line2d_43">
      <g>
       <use xlink:href="#me0ef018fbd" x="62.21625" y="442.817928" style="stroke: #000000; stroke-width: 0.6"/>
      </g>
     </g>
    </g>
    <g id="ytick_32">
     <g id="line2d_44">
      <g>
       <use xlink:href="#me0ef018fbd" x="62.21625" y="428.419288" style="stroke: #000000; stroke-width: 0.6"/>
      </g>
     </g>
    </g>
    <g id="ytick_33">
     <g id="line2d_45">
      <g>
       <use xlink:href="#me0ef018fbd" x="62.21625" y="417.250835" style="stroke: #000000; stroke-width: 0.6"/>
      </g>
     </g>
    </g>
    <g id="ytick_34">
     <g id="line2d_46">
      <g>
       <use xlink:href="#me0ef018fbd" x="62.21625" y="408.125544" style="stroke: #000000; stroke-width: 0.6"/>
      </g>
     </g>
    </g>
    <g id="ytick_35">
     <g id="line2d_47">
      <g>
       <use xlink:href="#me0ef018fbd" x="62.21625" y="400.410221" style="stroke: #000000; stroke-width: 0.6"/>
      </g>
     </g>
    </g>
    <g id="ytick_36">
     <g id="line2d_48">
      <g>
       <use xlink:href="#me0ef018fbd" x="62.21625" y="393.726904" style="stroke: #000000; stroke-width: 0.6"/>
      </g>
     </g>
    </g>
    <g id="ytick_37">
     <g id="line2d_49">
      <g>
       <use xlink:href="#me0ef018fbd" x="62.21625" y="387.831801" style="stroke: #000000; stroke-width: 0.6"/>
      </g>
     </g>
    </g>
    <g id="ytick_38">
     <g id="line2d_50">
      <g>
       <use xlink:href="#me0ef018fbd" x="62.21625" y="347.866067" style="stroke: #000000; stroke-width: 0.6"/>
      </g>
     </g>
    </g>
    <g id="ytick_39">
     <g id="line2d_51">
      <g>
       <use xlink:href="#me0ef018fbd" x="62.21625" y="327.572324" style="stroke: #000000; stroke-width: 0.6"/>
      </g>
     </g>
    </g>
    <g id="ytick_40">
     <g id="line2d_52">
      <g>
       <use xlink:href="#me0ef018fbd" x="62.21625" y="313.173683" style="stroke: #000000; stroke-width: 0.6"/>
      </g>
     </g>
    </g>
    <g id="text_13">
     <!-- Critical rate  $\alpha_c$ -->
     <g transform="translate(22.396875 512.331429) rotate(-90)">
      <text>
       <tspan x="0" y="-0.796875" style="font-size: 20px; font-family: 'DejaVu Sans'">C</tspan>
       <tspan x="13.964844" y="-0.796875" style="font-size: 20px; font-family: 'DejaVu Sans'">r</tspan>
       <tspan x="22.1875" y="-0.796875" style="font-size: 20px; font-family: 'DejaVu Sans'">i</tspan>
       <tspan x="27.744141" y="-0.796875" style="font-size: 20px; font-family: 'DejaVu Sans'">t</tspan>
       <tspan x="35.585938" y="-0.796875" style="font-size: 20px; font-family: 'DejaVu Sans'">i</tspan>
       <tspan x="41.142578" y="-0.796875" style="font-size: 20px; font-family: 'DejaVu Sans'">c</tspan>
       <tspan x="52.138672" y="-0.796875" style="font-size: 20px; font-family: 'DejaVu Sans'">a</tspan>
       <tspan x="64.394531" y="-0.796875" style="font-size: 20px; font-family: 'DejaVu Sans'">l</tspan>
       <tspan x="69.951172" y="-0.796875" style="font-size: 20px; font-family: 'DejaVu Sans'"> </tspan>
       <tspan x="76.308594" y="-0.796875" style="font-size: 20px; font-family: 'DejaVu Sans'">r</tspan>
       <tspan x="84.53125" y="-0.796875" style="font-size: 20px; font-family: 'DejaVu Sans'">a</tspan>
       <tspan x="96.787109" y="-0.796875" style="font-size: 20px; font-family: 'DejaVu Sans'">t</tspan>
       <tspan x="104.628906" y="-0.796875" style="font-size: 20px; font-family: 'DejaVu Sans'">e</tspan>
       <tspan x="116.933594" y="-0.796875" style="font-size: 20px; font-family: 'DejaVu Sans'"> </tspan>
       <tspan x="123.291016" y="-0.796875" style="font-size: 20px; font-family: 'DejaVu Sans'"> </tspan>
       <tspan x="129.648438" y="-0.796875" style="font-style: oblique; font-size: 20px; font-family: 'DejaVu Sans'">α</tspan>
       <tspan x="142.832031" y="2.484375" style="font-style: oblique; font-size: 14px; font-family: 'DejaVu Sans'">c</tspan>
      </text>
     </g>
    </g>
   </g>
   <g id="line2d_53">
    <path d="M 80.543523 537.983762 
L 84.361705 536.369591 
L 88.179886 534.774463 
L 91.998068 533.196871 
L 95.81625 531.635392 
L 99.634432 530.088676 
L 103.452614 528.555444 
L 107.270795 527.03448 
L 111.088977 525.524628 
L 114.907159 524.024788 
L 118.725341 522.53391 
L 122.543523 521.050995 
L 126.361705 519.575094 
L 130.179886 518.105107 
L 133.998068 516.640432 
L 137.81625 515.180124 
L 141.634432 513.723383 
L 145.452614 512.269451 
L 149.270795 510.817603 
L 153.088977 509.367153 
L 156.907159 507.917448 
L 160.725341 506.467575 
L 164.543523 505.017527 
L 168.361705 503.56637 
L 172.179886 502.113619 
L 175.998068 500.658798 
L 179.81625 499.201437 
L 183.634432 497.741093 
L 187.452614 496.277349 
L 191.270795 494.809775 
L 195.088977 493.338066 
L 198.907159 491.861831 
L 202.725341 490.380726 
L 206.543523 488.894417 
L 210.361705 487.402574 
L 214.179886 485.904869 
L 217.998068 484.400969 
L 221.81625 482.890536 
L 225.634432 481.373126 
L 229.452614 479.848624 
L 233.270795 478.316403 
L 237.088977 476.776099 
L 240.907159 475.227276 
L 244.725341 473.669457 
L 248.543523 472.102136 
L 252.361705 470.524607 
L 256.179886 468.936447 
L 259.998068 467.336939 
L 263.81625 465.725387 
L 267.634432 464.101049 
L 271.452614 462.463136 
L 275.270795 460.81081 
L 279.088977 459.143185 
L 282.907159 457.459327 
L 286.725341 455.758253 
L 290.543523 454.039035 
L 294.361705 452.300326 
L 298.179886 450.541231 
L 301.998068 448.760488 
L 305.81625 446.956841 
L 309.634432 445.128991 
L 313.452614 443.275585 
L 317.270795 441.395193 
L 321.088977 439.486291 
L 324.907159 437.547423 
L 328.725341 435.576818 
L 332.543523 433.572814 
L 336.361705 431.533601 
L 340.179886 429.45727 
L 343.998068 427.341877 
L 347.81625 425.1853 
L 351.634432 422.985401 
L 355.452614 420.739908 
L 359.270795 418.446484 
L 363.088977 416.102759 
L 366.907159 413.706176 
L 370.725341 411.254282 
L 374.543523 408.744532 
L 378.361705 406.174423 
L 382.179886 403.541518 
L 385.998068 400.843537 
L 389.81625 398.078391 
L 393.634432 395.244327 
L 397.452614 392.339983 
L 401.270795 389.364646 
L 405.088977 386.318302 
L 408.907159 383.201877 
L 412.725341 380.017426 
L 416.543523 376.768324 
L 420.361705 373.459466 
L 424.179886 370.097362 
L 427.998068 366.690257 
L 431.81625 363.24807 
L 435.634432 359.782279 
L 439.452614 356.305634 
L 443.270795 352.831774 
L 447.088977 349.374722 
" clip-path="url(#pe6bdf69b7d)" style="fill: none; stroke: #7d1d96; stroke-width: 2.2; stroke-linecap: square"/>
   </g>
   <g id="patch_8">
    <path d="M 62.21625 570.96 
L 62.21625 302.502857 
" style="fill: none; stroke: #000000; stroke-width: 1.1; stroke-linejoin: miter; stroke-linecap: square"/>
   </g>
   <g id="patch_9">
    <path d="M 465.41625 570.96 
L 465.41625 302.502857 
" style="fill: none; stroke: #000000; stroke-width: 1.1; stroke-linejoin: miter; stroke-linecap: square"/>
   </g>
   <g id="patch_10">
    <path d="M 62.21625 570.96 
L 465.41625 570.96 
" style="fill: none; stroke: #000000; stroke-width: 1.1; stroke-linejoin: miter; stroke-linecap: square"/>
   </g>
   <g id="patch_11">
    <path d="M 62.21625 302.502857 
L 465.41625 302.502857 
" style="fill: none; stroke: #000000; stroke-width: 1.1; stroke-linejoin: miter; stroke-linecap: square"/>
   </g>
   <g id="line2d_54">
    <defs>
     <path id="mcb0b1d054c" d="M -4.5 4.5 
L 4.5 -4.5 
M -4.5 -4.5 
L 4.5 4.5 
" style="stroke: #1a1a1a"/>
    </defs>
    <g clip-path="url(#pe6bdf69b7d)">
     <use xlink:href="#mcb0b1d054c" x="80.543523" y="540.628172" style="fill: #1a1a1a; stroke: #1a1a1a"/>
     <use xlink:href="#mcb0b1d054c" x="105.743523" y="529.338529" style="fill: #1a1a1a; stroke: #1a1a1a"/>
     <use xlink:href="#mcb0b1d054c" x="130.943523" y="518.728172" style="fill: #1a1a1a; stroke: #1a1a1a"/>
     <use xlink:href="#mcb0b1d054c" x="156.143523" y="508.520837" style="fill: #1a1a1a; stroke: #1a1a1a"/>
     <use xlink:href="#mcb0b1d054c" x="181.343523" y="498.52995" style="fill: #1a1a1a; stroke: #1a1a1a"/>
     <use xlink:href="#mcb0b1d054c" x="206.543523" y="488.545357" style="fill: #1a1a1a; stroke: #1a1a1a"/>
     <use xlink:href="#mcb0b1d054c" x="231.743523" y="478.400851" style="fill: #1a1a1a; stroke: #1a1a1a"/>
     <use xlink:href="#mcb0b1d054c" x="256.943523" y="467.894002" style="fill: #1a1a1a; stroke: #1a1a1a"/>
     <use xlink:href="#mcb0b1d054c" x="282.143523" y="456.784936" style="fill: #1a1a1a; stroke: #1a1a1a"/>
     <use xlink:href="#mcb0b1d054c" x="307.343523" y="444.735568" style="fill: #1a1a1a; stroke: #1a1a1a"/>
     <use xlink:href="#mcb0b1d054c" x="332.543523" y="431.258137" style="fill: #1a1a1a; stroke: #1a1a1a"/>
     <use xlink:href="#mcb0b1d054c" x="357.743523" y="415.512996" style="fill: #1a1a1a; stroke: #1a1a1a"/>
     <use xlink:href="#mcb0b1d054c" x="382.943523" y="395.858387" style="fill: #1a1a1a; stroke: #1a1a1a"/>
     <use xlink:href="#mcb0b1d054c" x="408.143523" y="368.171027" style="fill: #1a1a1a; stroke: #1a1a1a"/>
     <use xlink:href="#mcb0b1d054c" x="433.343523" y="314.705455" style="fill: #1a1a1a; stroke: #1a1a1a"/>
    </g>
   </g>
   <g id="legend_2">
    <g id="line2d_55">
     <path d="M 78.41625 326.080045 
L 96.41625 326.080045 
L 114.41625 326.080045 
" style="fill: none; stroke: #7d1d96; stroke-width: 2.2; stroke-linecap: square"/>
    </g>
    <g id="text_14">
     <text style="font-size: 18px; font-family: 'DejaVu Sans', 'Bitstream Vera Sans', 'Computer Modern Sans Serif', 'Lucida Grande', 'Verdana', 'Geneva', 'Lucid', 'Arial', 'Helvetica', 'Avant Garde', sans-serif; text-anchor: start" x="128.81625" y="332.380045" transform="rotate(-0 128.81625 332.380045)">Numerical (density iteration)</text>
    </g>
    <g id="line2d_56">
     <g>
      <use xlink:href="#mcb0b1d054c" x="96.41625" y="352.50067" style="fill: #1a1a1a; stroke: #1a1a1a"/>
     </g>
    </g>
    <g id="text_15">
     <text style="font-size: 18px; font-family: 'DejaVu Sans', 'Bitstream Vera Sans', 'Computer Modern Sans Serif', 'Lucida Grande', 'Verdana', 'Geneva', 'Lucid', 'Arial', 'Helvetica', 'Avant Garde', sans-serif; text-anchor: start" x="128.81625" y="358.80067" transform="rotate(-0 128.81625 358.80067)">Simulation (Monte Carlo)</text>
    </g>
   </g>
  </g>
 </g>
 <defs>
  <clipPath id="pf7a09e970c">
   <rect x="62.21625" y="7.2" width="403.2" height="268.457143"/>
  </clipPath>
  <clipPath id="pe6bdf69b7d">
   <rect x="62.21625" y="302.502857" width="403.2" height="268.457143"/>
  </clipPath>
 </defs>
</svg>
