<?xml version="1.0" encoding="utf-8" standalone="no"?>
<!DOCTYPE svg PUBLIC "-//W3C//DTD SVG 1.1//EN"
  "http://www.w3.org/Graphics/SVG/1.1/DTD/svg11.dtd">
<svg xmlns:xlink="http://www.w3.org/1999/xlink" width="681.938125pt" height="389.02825pt" viewBox="0 0 681.938125 389.02825" xmlns="http://www.w3.org/2000/svg" version="1.1">
 <metadata>
  <rdf:RDF xmlns:dc="http://purl.org/dc/elements/1.1/" xmlns:cc="http://creativecommons.org/ns#" xmlns:rdf="http://www.w3.org/1999/02/22-rdf-syntax-ns#">
   <cc:Work>
    <dc:type rdf:resource="http://purl.org/dc/dcmitype/StillImage"/>
    <dc:date>2026-06-02T15:11:17.215266</dc:date>
    <dc:format>image/svg+xml</dc:format>
    <dc:creator>
     <cc:Agent>
      <dc:title>Matplotlib v3.10.9, https://matplotlib.org/</dc:title>
     </cc:Agent>
    </dc:creator>
   </cc:Work>
  </rdf:RDF>
 </metadata>
 <defs>
  <style type="text/css">*{stroke-linejoin: round; stroke-linecap: butt}</style>
 </defs>
 <g id="figure_1">
  <g id="patch_1">
   <path d="M 0 389.02825 
L 681.938125 389.02825 
L 681.938125 0 
L 0 0 
L 0 389.02825 
z
" style="fill: none"/>
  </g>
  <g id="axes_1">
   <g id="patch_2">
    <path d="M 102.718125 328.192 
L 674.738125 328.192 
L 674.738125 7.2 
L 102.718125 7.2 
L 102.718125 328.192 
z
" style="fill: none"/>
   </g>
   <g id="matplotlib.axis_1">
    <g id="xtick_1">
     <g id="line2d_1">
      <path d="M 333.131966 328.192 
L 333.131966 7.2 
" clip-path="url(#pc1e595a90e)" style="fill: none; stroke-dasharray: 2.96,1.28; stroke-dashoffset: 0; stroke: #b0b0b0; stroke-opacity: 0.25; stroke-width: 0.8"/>
     </g>
     <g id="line2d_2">
      <defs>
       <path id="mf04200b6c5" d="M 0 0 
L 0 3.5 
" style="stroke: #000000; stroke-width: 0.8"/>
      </defs>
      <g>
       <use xlink:href="#mf04200b6c5" x="333.131966" y="328.192" style="stroke: #000000; stroke-width: 0.8"/>
      </g>
     </g>
     <g id="text_1">
      <!-- $\mathdefault{10^{0}}$ -->
      <g transform="translate(315.531966 350.388875) scale(0.2 -0.2)">
       <defs>
        <path id="DejaVuSans-31" d="M 794 531 
L 1825 531 
L 1825 4091 
L 703 3866 
L 703 4441 
L 1819 4666 
L 2450 4666 
L 2450 531 
L 3481 531 
L 3481 0 
L 794 0 
L 794 531 
z
" transform="scale(0.015625)"/>
        <path id="DejaVuSans-30" d="M 2034 4250 
Q 1547 4250 1301 3770 
Q 1056 3291 1056 2328 
Q 1056 1369 1301 889 
Q 1547 409 2034 409 
Q 2525 409 2770 889 
Q 3016 1369 3016 2328 
Q 3016 3291 2770 3770 
Q 2525 4250 2034 4250 
z
M 2034 4750 
Q 2819 4750 3233 4129 
Q 3647 3509 3647 2328 
Q 3647 1150 3233 529 
Q 2819 -91 2034 -91 
Q 1250 -91 836 529 
Q 422 1150 422 2328 
Q 422 3509 836 4129 
Q 1250 4750 2034 4750 
z
" transform="scale(0.015625)"/>
       </defs>
       <use xlink:href="#DejaVuSans-31" transform="translate(0 0.765625)"/>
       <use xlink:href="#DejaVuSans-30" transform="translate(63.623047 0.765625)"/>
       <use xlink:href="#DejaVuSans-30" transform="translate(128.203125 39.046875) scale(0.7)"/>
      </g>
     </g>
    </g>
    <g id="xtick_2">
     <g id="line2d_3">
      <path d="M 625.580756 328.192 
L 625.580756 7.2 
" clip-path="url(#pc1e595a90e)" style="fill: none; stroke-dasharray: 2.96,1.28; stroke-dashoffset: 0; stroke: #b0b0b0; stroke-opacity: 0.25; stroke-width: 0.8"/>
     </g>
     <g id="line2d_4">
      <g>
       <use xlink:href="#mf04200b6c5" x="625.580756" y="328.192" style="stroke: #000000; stroke-width: 0.8"/>
      </g>
     </g>
     <g id="text_2">
      <!-- $\mathdefault{10^{1}}$ -->
      <g transform="translate(607.980756 350.388875) scale(0.2 -0.2)">
       <use xlink:href="#DejaVuSans-31" transform="translate(0 0.684375)"/>
       <use xlink:href="#DejaVuSans-30" transform="translate(63.623047 0.684375)"/>
       <use xlink:href="#DejaVuSans-31" transform="translate(128.203125 38.965625) scale(0.7)"/>
      </g>
     </g>
    </g>
    <g id="xtick_3">
     <g id="line2d_5">
      <defs>
       <path id="meef4ca08c4" d="M 0 0 
L 0 2 
" style="stroke: #000000; stroke-width: 0.6"/>
      </defs>
      <g>
       <use xlink:href="#meef4ca08c4" x="128.719034" y="328.192" style="stroke: #000000; stroke-width: 0.6"/>
      </g>
     </g>
    </g>
    <g id="xtick_4">
     <g id="line2d_6">
      <g>
       <use xlink:href="#meef4ca08c4" x="180.21671" y="328.192" style="stroke: #000000; stroke-width: 0.6"/>
      </g>
     </g>
    </g>
    <g id="xtick_5">
     <g id="line2d_7">
      <g>
       <use xlink:href="#meef4ca08c4" x="216.754892" y="328.192" style="stroke: #000000; stroke-width: 0.6"/>
      </g>
     </g>
    </g>
    <g id="xtick_6">
     <g id="line2d_8">
      <g>
       <use xlink:href="#meef4ca08c4" x="245.096108" y="328.192" style="stroke: #000000; stroke-width: 0.6"/>
      </g>
     </g>
    </g>
    <g id="xtick_7">
     <g id="line2d_9">
      <g>
       <use xlink:href="#meef4ca08c4" x="268.252568" y="328.192" style="stroke: #000000; stroke-width: 0.6"/>
      </g>
     </g>
    </g>
    <g id="xtick_8">
     <g id="line2d_10">
      <g>
       <use xlink:href="#meef4ca08c4" x="287.831075" y="328.192" style="stroke: #000000; stroke-width: 0.6"/>
      </g>
     </g>
    </g>
    <g id="xtick_9">
     <g id="line2d_11">
      <g>
       <use xlink:href="#meef4ca08c4" x="304.79075" y="328.192" style="stroke: #000000; stroke-width: 0.6"/>
      </g>
     </g>
    </g>
    <g id="xtick_10">
     <g id="line2d_12">
      <g>
       <use xlink:href="#meef4ca08c4" x="319.750243" y="328.192" style="stroke: #000000; stroke-width: 0.6"/>
      </g>
     </g>
    </g>
    <g id="xtick_11">
     <g id="line2d_13">
      <g>
       <use xlink:href="#meef4ca08c4" x="421.167824" y="328.192" style="stroke: #000000; stroke-width: 0.6"/>
      </g>
     </g>
    </g>
    <g id="xtick_12">
     <g id="line2d_14">
      <g>
       <use xlink:href="#meef4ca08c4" x="472.6655" y="328.192" style="stroke: #000000; stroke-width: 0.6"/>
      </g>
     </g>
    </g>
    <g id="xtick_13">
     <g id="line2d_15">
      <g>
       <use xlink:href="#meef4ca08c4" x="509.203682" y="328.192" style="stroke: #000000; stroke-width: 0.6"/>
      </g>
     </g>
    </g>
    <g id="xtick_14">
     <g id="line2d_16">
      <g>
       <use xlink:href="#meef4ca08c4" x="537.544898" y="328.192" style="stroke: #000000; stroke-width: 0.6"/>
      </g>
     </g>
    </g>
    <g id="xtick_15">
     <g id="line2d_17">
      <g>
       <use xlink:href="#meef4ca08c4" x="560.701358" y="328.192" style="stroke: #000000; stroke-width: 0.6"/>
      </g>
     </g>
    </g>
    <g id="xtick_16">
     <g id="line2d_18">
      <g>
       <use xlink:href="#meef4ca08c4" x="580.279866" y="328.192" style="stroke: #000000; stroke-width: 0.6"/>
      </g>
     </g>
    </g>
    <g id="xtick_17">
     <g id="line2d_19">
      <g>
       <use xlink:href="#meef4ca08c4" x="597.23954" y="328.192" style="stroke: #000000; stroke-width: 0.6"/>
      </g>
     </g>
    </g>
    <g id="xtick_18">
     <g id="line2d_20">
      <g>
       <use xlink:href="#meef4ca08c4" x="612.199034" y="328.192" style="stroke: #000000; stroke-width: 0.6"/>
      </g>
     </g>
    </g>
    <g id="text_3">
     <!-- Switching period $T$ -->
     <g transform="translate(277.248125 376.78825) scale(0.24 -0.24)">
      <defs>
       <path id="DejaVuSans-53" d="M 3425 4513 
L 3425 3897 
Q 3066 4069 2747 4153 
Q 2428 4238 2131 4238 
Q 1616 4238 1336 4038 
Q 1056 3838 1056 3469 
Q 1056 3159 1242 3001 
Q 1428 2844 1947 2747 
L 2328 2669 
Q 3034 2534 3370 2195 
Q 3706 1856 3706 1288 
Q 3706 609 3251 259 
Q 2797 -91 1919 -91 
Q 1588 -91 1214 -16 
Q 841 59 441 206 
L 441 856 
Q 825 641 1194 531 
Q 1563 422 1919 422 
Q 2459 422 2753 634 
Q 3047 847 3047 1241 
Q 3047 1584 2836 1778 
Q 2625 1972 2144 2069 
L 1759 2144 
Q 1053 2284 737 2584 
Q 422 2884 422 3419 
Q 422 4038 858 4394 
Q 1294 4750 2059 4750 
Q 2388 4750 2728 4690 
Q 3069 4631 3425 4513 
z
" transform="scale(0.015625)"/>
       <path id="DejaVuSans-77" d="M 269 3500 
L 844 3500 
L 1563 769 
L 2278 3500 
L 2956 3500 
L 3675 769 
L 4391 3500 
L 4966 3500 
L 4050 0 
L 3372 0 
L 2619 2869 
L 1863 0 
L 1184 0 
L 269 3500 
z
" transform="scale(0.015625)"/>
       <path id="DejaVuSans-69" d="M 603 3500 
L 1178 3500 
L 1178 0 
L 603 0 
L 603 3500 
z
M 603 4863 
L 1178 4863 
L 1178 4134 
L 603 4134 
L 603 4863 
z
" transform="scale(0.015625)"/>
       <path id="DejaVuSans-74" d="M 1172 4494 
L 1172 3500 
L 2356 3500 
L 2356 3053 
L 1172 3053 
L 1172 1153 
Q 1172 725 1289 603 
Q 1406 481 1766 481 
L 2356 481 
L 2356 0 
L 1766 0 
Q 1100 0 847 248 
Q 594 497 594 1153 
L 594 3053 
L 172 3053 
L 172 3500 
L 594 3500 
L 594 4494 
L 1172 4494 
z
" transform="scale(0.015625)"/>
       <path id="DejaVuSans-63" d="M 3122 3366 
L 3122 2828 
Q 2878 2963 2633 3030 
Q 2388 3097 2138 3097 
Q 1578 3097 1268 2742 
Q 959 2388 959 1747 
Q 959 1106 1268 751 
Q 1578 397 2138 397 
Q 2388 397 2633 464 
Q 2878 531 3122 666 
L 3122 134 
Q 2881 22 2623 -34 
Q 2366 -91 2075 -91 
Q 1284 -91 818 406 
Q 353 903 353 1747 
Q 353 2603 823 3093 
Q 1294 3584 2113 3584 
Q 2378 3584 2631 3529 
Q 2884 3475 3122 3366 
z
" transform="scale(0.015625)"/>
       <path id="DejaVuSans-68" d="M 3513 2113 
L 3513 0 
L 2938 0 
L 2938 2094 
Q 2938 2591 2744 2837 
Q 2550 3084 2163 3084 
Q 1697 3084 1428 2787 
Q 1159 2491 1159 1978 
L 1159 0 
L 581 0 
L 581 4863 
L 1159 4863 
L 1159 2956 
Q 1366 3272 1645 3428 
Q 1925 3584 2291 3584 
Q 2894 3584 3203 3211 
Q 3513 2838 3513 2113 
z
" transform="scale(0.015625)"/>
       <path id="DejaVuSans-6e" d="M 3513 2113 
L 3513 0 
L 2938 0 
L 2938 2094 
Q 2938 2591 2744 2837 
Q 2550 3084 2163 3084 
Q 1697 3084 1428 2787 
Q 1159 2491 1159 1978 
L 1159 0 
L 581 0 
L 581 3500 
L 1159 3500 
L 1159 2956 
Q 1366 3272 1645 3428 
Q 1925 3584 2291 3584 
Q 2894 3584 3203 3211 
Q 3513 2838 3513 2113 
z
" transform="scale(0.015625)"/>
       <path id="DejaVuSans-67" d="M 2906 1791 
Q 2906 2416 2648 2759 
Q 2391 3103 1925 3103 
Q 1463 3103 1205 2759 
Q 947 2416 947 1791 
Q 947 1169 1205 825 
Q 1463 481 1925 481 
Q 2391 481 2648 825 
Q 2906 1169 2906 1791 
z
M 3481 434 
Q 3481 -459 3084 -895 
Q 2688 -1331 1869 -1331 
Q 1566 -1331 1297 -1286 
Q 1028 -1241 775 -1147 
L 775 -588 
Q 1028 -725 1275 -790 
Q 1522 -856 1778 -856 
Q 2344 -856 2625 -561 
Q 2906 -266 2906 331 
L 2906 616 
Q 2728 306 2450 153 
Q 2172 0 1784 0 
Q 1141 0 747 490 
Q 353 981 353 1791 
Q 353 2603 747 3093 
Q 1141 3584 1784 3584 
Q 2172 3584 2450 3431 
Q 2728 3278 2906 2969 
L 2906 3500 
L 3481 3500 
L 3481 434 
z
" transform="scale(0.015625)"/>
       <path id="DejaVuSans-20" transform="scale(0.015625)"/>
       <path id="DejaVuSans-70" d="M 1159 525 
L 1159 -1331 
L 581 -1331 
L 581 3500 
L 1159 3500 
L 1159 2969 
Q 1341 3281 1617 3432 
Q 1894 3584 2278 3584 
Q 2916 3584 3314 3078 
Q 3713 2572 3713 1747 
Q 3713 922 3314 415 
Q 2916 -91 2278 -91 
Q 1894 -91 1617 61 
Q 1341 213 1159 525 
z
M 3116 1747 
Q 3116 2381 2855 2742 
Q 2594 3103 2138 3103 
Q 1681 3103 1420 2742 
Q 1159 2381 1159 1747 
Q 1159 1113 1420 752 
Q 1681 391 2138 391 
Q 2594 391 2855 752 
Q 3116 1113 3116 1747 
z
" transform="scale(0.015625)"/>
       <path id="DejaVuSans-65" d="M 3597 1894 
L 3597 1613 
L 953 1613 
Q 991 1019 1311 708 
Q 1631 397 2203 397 
Q 2534 397 2845 478 
Q 3156 559 3463 722 
L 3463 178 
Q 3153 47 2828 -22 
Q 2503 -91 2169 -91 
Q 1331 -91 842 396 
Q 353 884 353 1716 
Q 353 2575 817 3079 
Q 1281 3584 2069 3584 
Q 2775 3584 3186 3129 
Q 3597 2675 3597 1894 
z
M 3022 2063 
Q 3016 2534 2758 2815 
Q 2500 3097 2075 3097 
Q 1594 3097 1305 2825 
Q 1016 2553 972 2059 
L 3022 2063 
z
" transform="scale(0.015625)"/>
       <path id="DejaVuSans-72" d="M 2631 2963 
Q 2534 3019 2420 3045 
Q 2306 3072 2169 3072 
Q 1681 3072 1420 2755 
Q 1159 2438 1159 1844 
L 1159 0 
L 581 0 
L 581 3500 
L 1159 3500 
L 1159 2956 
Q 1341 3275 1631 3429 
Q 1922 3584 2338 3584 
Q 2397 3584 2469 3576 
Q 2541 3569 2628 3553 
L 2631 2963 
z
" transform="scale(0.015625)"/>
       <path id="DejaVuSans-6f" d="M 1959 3097 
Q 1497 3097 1228 2736 
Q 959 2375 959 1747 
Q 959 1119 1226 758 
Q 1494 397 1959 397 
Q 2419 397 2687 759 
Q 2956 1122 2956 1747 
Q 2956 2369 2687 2733 
Q 2419 3097 1959 3097 
z
M 1959 3584 
Q 2709 3584 3137 3096 
Q 3566 2609 3566 1747 
Q 3566 888 3137 398 
Q 2709 -91 1959 -91 
Q 1206 -91 779 398 
Q 353 888 353 1747 
Q 353 2609 779 3096 
Q 1206 3584 1959 3584 
z
" transform="scale(0.015625)"/>
       <path id="DejaVuSans-64" d="M 2906 2969 
L 2906 4863 
L 3481 4863 
L 3481 0 
L 2906 0 
L 2906 525 
Q 2725 213 2448 61 
Q 2172 -91 1784 -91 
Q 1150 -91 751 415 
Q 353 922 353 1747 
Q 353 2572 751 3078 
Q 1150 3584 1784 3584 
Q 2172 3584 2448 3432 
Q 2725 3281 2906 2969 
z
M 947 1747 
Q 947 1113 1208 752 
Q 1469 391 1925 391 
Q 2381 391 2643 752 
Q 2906 1113 2906 1747 
Q 2906 2381 2643 2742 
Q 2381 3103 1925 3103 
Q 1469 3103 1208 2742 
Q 947 2381 947 1747 
z
" transform="scale(0.015625)"/>
       <path id="DejaVuSans-Oblique-54" d="M 378 4666 
L 4325 4666 
L 4225 4134 
L 2559 4134 
L 1759 0 
L 1125 0 
L 1925 4134 
L 275 4134 
L 378 4666 
z
" transform="scale(0.015625)"/>
      </defs>
      <use xlink:href="#DejaVuSans-53" transform="translate(0 0.015625)"/>
      <use xlink:href="#DejaVuSans-77" transform="translate(63.476562 0.015625)"/>
      <use xlink:href="#DejaVuSans-69" transform="translate(145.263672 0.015625)"/>
      <use xlink:href="#DejaVuSans-74" transform="translate(173.046875 0.015625)"/>
      <use xlink:href="#DejaVuSans-63" transform="translate(212.255859 0.015625)"/>
      <use xlink:href="#DejaVuSans-68" transform="translate(267.236328 0.015625)"/>
      <use xlink:href="#DejaVuSans-69" transform="translate(330.615234 0.015625)"/>
      <use xlink:href="#DejaVuSans-6e" transform="translate(358.398438 0.015625)"/>
      <use xlink:href="#DejaVuSans-67" transform="translate(421.777344 0.015625)"/>
      <use xlink:href="#DejaVuSans-20" transform="translate(485.253906 0.015625)"/>
      <use xlink:href="#DejaVuSans-70" transform="translate(517.041016 0.015625)"/>
      <use xlink:href="#DejaVuSans-65" transform="translate(580.517578 0.015625)"/>
      <use xlink:href="#DejaVuSans-72" transform="translate(642.041016 0.015625)"/>
      <use xlink:href="#DejaVuSans-69" transform="translate(683.154297 0.015625)"/>
      <use xlink:href="#DejaVuSans-6f" transform="translate(710.9375 0.015625)"/>
      <use xlink:href="#DejaVuSans-64" transform="translate(772.119141 0.015625)"/>
      <use xlink:href="#DejaVuSans-20" transform="translate(835.595703 0.015625)"/>
      <use xlink:href="#DejaVuSans-Oblique-54" transform="translate(867.382812 0.015625)"/>
     </g>
    </g>
   </g>
   <g id="matplotlib.axis_2">
    <g id="ytick_1">
     <g id="line2d_21">
      <path d="M 102.718125 289.820426 
L 674.738125 289.820426 
" clip-path="url(#pc1e595a90e)" style="fill: none; stroke-dasharray: 2.96,1.28; stroke-dashoffset: 0; stroke: #b0b0b0; stroke-opacity: 0.25; stroke-width: 0.8"/>
     </g>
     <g id="line2d_22">
      <defs>
       <path id="m5f00238722" d="M 0 0 
L -3.5 0 
" style="stroke: #000000; stroke-width: 0.8"/>
      </defs>
      <g>
       <use xlink:href="#m5f00238722" x="102.718125" y="289.820426" style="stroke: #000000; stroke-width: 0.8"/>
      </g>
     </g>
     <g id="text_4">
      <!-- −0.06 -->
      <g transform="translate(34.4275 297.418864) scale(0.2 -0.2)">
       <defs>
        <path id="DejaVuSans-2212" d="M 678 2272 
L 4684 2272 
L 4684 1741 
L 678 1741 
L 678 2272 
z
" transform="scale(0.015625)"/>
        <path id="DejaVuSans-2e" d="M 684 794 
L 1344 794 
L 1344 0 
L 684 0 
L 684 794 
z
" transform="scale(0.015625)"/>
        <path id="DejaVuSans-36" d="M 2113 2584 
Q 1688 2584 1439 2293 
Q 1191 2003 1191 1497 
Q 1191 994 1439 701 
Q 1688 409 2113 409 
Q 2538 409 2786 701 
Q 3034 994 3034 1497 
Q 3034 2003 2786 2293 
Q 2538 2584 2113 2584 
z
M 3366 4563 
L 3366 3988 
Q 3128 4100 2886 4159 
Q 2644 4219 2406 4219 
Q 1781 4219 1451 3797 
Q 1122 3375 1075 2522 
Q 1259 2794 1537 2939 
Q 1816 3084 2150 3084 
Q 2853 3084 3261 2657 
Q 3669 2231 3669 1497 
Q 3669 778 3244 343 
Q 2819 -91 2113 -91 
Q 1303 -91 875 529 
Q 447 1150 447 2328 
Q 447 3434 972 4092 
Q 1497 4750 2381 4750 
Q 2619 4750 2861 4703 
Q 3103 4656 3366 4563 
z
" transform="scale(0.015625)"/>
       </defs>
       <use xlink:href="#DejaVuSans-2212"/>
       <use xlink:href="#DejaVuSans-30" transform="translate(83.789062 0)"/>
       <use xlink:href="#DejaVuSans-2e" transform="translate(147.412109 0)"/>
       <use xlink:href="#DejaVuSans-30" transform="translate(179.199219 0)"/>
       <use xlink:href="#DejaVuSans-36" transform="translate(242.822266 0)"/>
      </g>
     </g>
    </g>
    <g id="ytick_2">
     <g id="line2d_23">
      <path d="M 102.718125 247.242309 
L 674.738125 247.242309 
" clip-path="url(#pc1e595a90e)" style="fill: none; stroke-dasharray: 2.96,1.28; stroke-dashoffset: 0; stroke: #b0b0b0; stroke-opacity: 0.25; stroke-width: 0.8"/>
     </g>
     <g id="line2d_24">
      <g>
       <use xlink:href="#m5f00238722" x="102.718125" y="247.242309" style="stroke: #000000; stroke-width: 0.8"/>
      </g>
     </g>
     <g id="text_5">
      <!-- −0.04 -->
      <g transform="translate(34.4275 254.840746) scale(0.2 -0.2)">
       <defs>
        <path id="DejaVuSans-34" d="M 2419 4116 
L 825 1625 
L 2419 1625 
L 2419 4116 
z
M 2253 4666 
L 3047 4666 
L 3047 1625 
L 3713 1625 
L 3713 1100 
L 3047 1100 
L 3047 0 
L 2419 0 
L 2419 1100 
L 313 1100 
L 313 1709 
L 2253 4666 
z
" transform="scale(0.015625)"/>
       </defs>
       <use xlink:href="#DejaVuSans-2212"/>
       <use xlink:href="#DejaVuSans-30" transform="translate(83.789062 0)"/>
       <use xlink:href="#DejaVuSans-2e" transform="translate(147.412109 0)"/>
       <use xlink:href="#DejaVuSans-30" transform="translate(179.199219 0)"/>
       <use xlink:href="#DejaVuSans-34" transform="translate(242.822266 0)"/>
      </g>
     </g>
    </g>
    <g id="ytick_3">
     <g id="line2d_25">
      <path d="M 102.718125 204.664191 
L 674.738125 204.664191 
" clip-path="url(#pc1e595a90e)" style="fill: none; stroke-dasharray: 2.96,1.28; stroke-dashoffset: 0; stroke: #b0b0b0; stroke-opacity: 0.25; stroke-width: 0.8"/>
     </g>
     <g id="line2d_26">
      <g>
       <use xlink:href="#m5f00238722" x="102.718125" y="204.664191" style="stroke: #000000; stroke-width: 0.8"/>
      </g>
     </g>
     <g id="text_6">
      <!-- −0.02 -->
      <g transform="translate(34.4275 212.262629) scale(0.2 -0.2)">
       <defs>
        <path id="DejaVuSans-32" d="M 1228 531 
L 3431 531 
L 3431 0 
L 469 0 
L 469 531 
Q 828 903 1448 1529 
Q 2069 2156 2228 2338 
Q 2531 2678 2651 2914 
Q 2772 3150 2772 3378 
Q 2772 3750 2511 3984 
Q 2250 4219 1831 4219 
Q 1534 4219 1204 4116 
Q 875 4013 500 3803 
L 500 4441 
Q 881 4594 1212 4672 
Q 1544 4750 1819 4750 
Q 2544 4750 2975 4387 
Q 3406 4025 3406 3419 
Q 3406 3131 3298 2873 
Q 3191 2616 2906 2266 
Q 2828 2175 2409 1742 
Q 1991 1309 1228 531 
z
" transform="scale(0.015625)"/>
       </defs>
       <use xlink:href="#DejaVuSans-2212"/>
       <use xlink:href="#DejaVuSans-30" transform="translate(83.789062 0)"/>
       <use xlink:href="#DejaVuSans-2e" transform="translate(147.412109 0)"/>
       <use xlink:href="#DejaVuSans-30" transform="translate(179.199219 0)"/>
       <use xlink:href="#DejaVuSans-32" transform="translate(242.822266 0)"/>
      </g>
     </g>
    </g>
    <g id="ytick_4">
     <g id="line2d_27">
      <path d="M 102.718125 162.086074 
L 674.738125 162.086074 
" clip-path="url(#pc1e595a90e)" style="fill: none; stroke-dasharray: 2.96,1.28; stroke-dashoffset: 0; stroke: #b0b0b0; stroke-opacity: 0.25; stroke-width: 0.8"/>
     </g>
     <g id="line2d_28">
      <g>
       <use xlink:href="#m5f00238722" x="102.718125" y="162.086074" style="stroke: #000000; stroke-width: 0.8"/>
      </g>
     </g>
     <g id="text_7">
      <!-- 0.00 -->
      <g transform="translate(51.186875 169.684512) scale(0.2 -0.2)">
       <use xlink:href="#DejaVuSans-30"/>
       <use xlink:href="#DejaVuSans-2e" transform="translate(63.623047 0)"/>
       <use xlink:href="#DejaVuSans-30" transform="translate(95.410156 0)"/>
       <use xlink:href="#DejaVuSans-30" transform="translate(159.033203 0)"/>
      </g>
     </g>
    </g>
    <g id="ytick_5">
     <g id="line2d_29">
      <path d="M 102.718125 119.507957 
L 674.738125 119.507957 
" clip-path="url(#pc1e595a90e)" style="fill: none; stroke-dasharray: 2.96,1.28; stroke-dashoffset: 0; stroke: #b0b0b0; stroke-opacity: 0.25; stroke-width: 0.8"/>
     </g>
     <g id="line2d_30">
      <g>
       <use xlink:href="#m5f00238722" x="102.718125" y="119.507957" style="stroke: #000000; stroke-width: 0.8"/>
      </g>
     </g>
     <g id="text_8">
      <!-- 0.02 -->
      <g transform="translate(51.186875 127.106394) scale(0.2 -0.2)">
       <use xlink:href="#DejaVuSans-30"/>
       <use xlink:href="#DejaVuSans-2e" transform="translate(63.623047 0)"/>
       <use xlink:href="#DejaVuSans-30" transform="translate(95.410156 0)"/>
       <use xlink:href="#DejaVuSans-32" transform="translate(159.033203 0)"/>
      </g>
     </g>
    </g>
    <g id="ytick_6">
     <g id="line2d_31">
      <path d="M 102.718125 76.929839 
L 674.738125 76.929839 
" clip-path="url(#pc1e595a90e)" style="fill: none; stroke-dasharray: 2.96,1.28; stroke-dashoffset: 0; stroke: #b0b0b0; stroke-opacity: 0.25; stroke-width: 0.8"/>
     </g>
     <g id="line2d_32">
      <g>
       <use xlink:href="#m5f00238722" x="102.718125" y="76.929839" style="stroke: #000000; stroke-width: 0.8"/>
      </g>
     </g>
     <g id="text_9">
      <!-- 0.04 -->
      <g transform="translate(51.186875 84.528277) scale(0.2 -0.2)">
       <use xlink:href="#DejaVuSans-30"/>
       <use xlink:href="#DejaVuSans-2e" transform="translate(63.623047 0)"/>
       <use xlink:href="#DejaVuSans-30" transform="translate(95.410156 0)"/>
       <use xlink:href="#DejaVuSans-34" transform="translate(159.033203 0)"/>
      </g>
     </g>
    </g>
    <g id="ytick_7">
     <g id="line2d_33">
      <path d="M 102.718125 34.351722 
L 674.738125 34.351722 
" clip-path="url(#pc1e595a90e)" style="fill: none; stroke-dasharray: 2.96,1.28; stroke-dashoffset: 0; stroke: #b0b0b0; stroke-opacity: 0.25; stroke-width: 0.8"/>
     </g>
     <g id="line2d_34">
      <g>
       <use xlink:href="#m5f00238722" x="102.718125" y="34.351722" style="stroke: #000000; stroke-width: 0.8"/>
      </g>
     </g>
     <g id="text_10">
      <!-- 0.06 -->
      <g transform="translate(51.186875 41.95016) scale(0.2 -0.2)">
       <use xlink:href="#DejaVuSans-30"/>
       <use xlink:href="#DejaVuSans-2e" transform="translate(63.623047 0)"/>
       <use xlink:href="#DejaVuSans-30" transform="translate(95.410156 0)"/>
       <use xlink:href="#DejaVuSans-36" transform="translate(159.033203 0)"/>
      </g>
     </g>
    </g>
    <g id="text_11">
     <!-- Invasion growth rate -->
     <g transform="translate(25.43625 291.579125) rotate(-90) scale(0.24 -0.24)">
      <defs>
       <path id="DejaVuSans-49" d="M 628 4666 
L 1259 4666 
L 1259 0 
L 628 0 
L 628 4666 
z
" transform="scale(0.015625)"/>
       <path id="DejaVuSans-76" d="M 191 3500 
L 800 3500 
L 1894 563 
L 2988 3500 
L 3597 3500 
L 2284 0 
L 1503 0 
L 191 3500 
z
" transform="scale(0.015625)"/>
       <path id="DejaVuSans-61" d="M 2194 1759 
Q 1497 1759 1228 1600 
Q 959 1441 959 1056 
Q 959 750 1161 570 
Q 1363 391 1709 391 
Q 2188 391 2477 730 
Q 2766 1069 2766 1631 
L 2766 1759 
L 2194 1759 
z
M 3341 1997 
L 3341 0 
L 2766 0 
L 2766 531 
Q 2569 213 2275 61 
Q 1981 -91 1556 -91 
Q 1019 -91 701 211 
Q 384 513 384 1019 
Q 384 1609 779 1909 
Q 1175 2209 1959 2209 
L 2766 2209 
L 2766 2266 
Q 2766 2663 2505 2880 
Q 2244 3097 1772 3097 
Q 1472 3097 1187 3025 
Q 903 2953 641 2809 
L 641 3341 
Q 956 3463 1253 3523 
Q 1550 3584 1831 3584 
Q 2591 3584 2966 3190 
Q 3341 2797 3341 1997 
z
" transform="scale(0.015625)"/>
       <path id="DejaVuSans-73" d="M 2834 3397 
L 2834 2853 
Q 2591 2978 2328 3040 
Q 2066 3103 1784 3103 
Q 1356 3103 1142 2972 
Q 928 2841 928 2578 
Q 928 2378 1081 2264 
Q 1234 2150 1697 2047 
L 1894 2003 
Q 2506 1872 2764 1633 
Q 3022 1394 3022 966 
Q 3022 478 2636 193 
Q 2250 -91 1575 -91 
Q 1294 -91 989 -36 
Q 684 19 347 128 
L 347 722 
Q 666 556 975 473 
Q 1284 391 1588 391 
Q 1994 391 2212 530 
Q 2431 669 2431 922 
Q 2431 1156 2273 1281 
Q 2116 1406 1581 1522 
L 1381 1569 
Q 847 1681 609 1914 
Q 372 2147 372 2553 
Q 372 3047 722 3315 
Q 1072 3584 1716 3584 
Q 2034 3584 2315 3537 
Q 2597 3491 2834 3397 
z
" transform="scale(0.015625)"/>
      </defs>
      <use xlink:href="#DejaVuSans-49"/>
      <use xlink:href="#DejaVuSans-6e" transform="translate(29.492188 0)"/>
      <use xlink:href="#DejaVuSans-76" transform="translate(92.871094 0)"/>
      <use xlink:href="#DejaVuSans-61" transform="translate(152.050781 0)"/>
      <use xlink:href="#DejaVuSans-73" transform="translate(213.330078 0)"/>
      <use xlink:href="#DejaVuSans-69" transform="translate(265.429688 0)"/>
      <use xlink:href="#DejaVuSans-6f" transform="translate(293.212891 0)"/>
      <use xlink:href="#DejaVuSans-6e" transform="translate(354.394531 0)"/>
      <use xlink:href="#DejaVuSans-20" transform="translate(417.773438 0)"/>
      <use xlink:href="#DejaVuSans-67" transform="translate(449.560547 0)"/>
      <use xlink:href="#DejaVuSans-72" transform="translate(513.037109 0)"/>
      <use xlink:href="#DejaVuSans-6f" transform="translate(551.900391 0)"/>
      <use xlink:href="#DejaVuSans-77" transform="translate(613.082031 0)"/>
      <use xlink:href="#DejaVuSans-74" transform="translate(694.869141 0)"/>
      <use xlink:href="#DejaVuSans-68" transform="translate(734.078125 0)"/>
      <use xlink:href="#DejaVuSans-20" transform="translate(797.457031 0)"/>
      <use xlink:href="#DejaVuSans-72" transform="translate(829.244141 0)"/>
      <use xlink:href="#DejaVuSans-61" transform="translate(870.357422 0)"/>
      <use xlink:href="#DejaVuSans-74" transform="translate(931.636719 0)"/>
      <use xlink:href="#DejaVuSans-65" transform="translate(970.845703 0)"/>
     </g>
    </g>
   </g>
   <g id="PathCollection_1">
    <defs>
     <path id="mec06b81b64" d="M 0 2.738613 
C 0.726289 2.738613 1.422928 2.450055 1.936492 1.936492 
C 2.450055 1.422928 2.738613 0.726289 2.738613 0 
C 2.738613 -0.726289 2.450055 -1.422928 1.936492 -1.936492 
C 1.422928 -2.450055 0.726289 -2.738613 0 -2.738613 
C -0.726289 -2.738613 -1.422928 -2.450055 -1.936492 -1.936492 
C -2.450055 -1.422928 -2.738613 -0.726289 -2.738613 0 
C -2.738613 0.726289 -2.450055 1.422928 -1.936492 1.936492 
C -1.422928 2.450055 -0.726289 2.738613 0 2.738613 
z
" style="stroke: #5299a8; stroke-opacity: 0.85"/>
    </defs>
    <g clip-path="url(#pc1e595a90e)">
     <use xlink:href="#mec06b81b64" x="128.719034" y="33.054414" style="fill: #5299a8; fill-opacity: 0.85; stroke: #5299a8; stroke-opacity: 0.85"/>
     <use xlink:href="#mec06b81b64" x="147.978967" y="27.926776" style="fill: #5299a8; fill-opacity: 0.85; stroke: #5299a8; stroke-opacity: 0.85"/>
     <use xlink:href="#mec06b81b64" x="167.238899" y="26.93796" style="fill: #5299a8; fill-opacity: 0.85; stroke: #5299a8; stroke-opacity: 0.85"/>
     <use xlink:href="#mec06b81b64" x="176.71707" y="23.702744" style="fill: #5299a8; fill-opacity: 0.85; stroke: #5299a8; stroke-opacity: 0.85"/>
     <use xlink:href="#mec06b81b64" x="186.498832" y="26.418551" style="fill: #5299a8; fill-opacity: 0.85; stroke: #5299a8; stroke-opacity: 0.85"/>
     <use xlink:href="#mec06b81b64" x="205.758765" y="27.71562" style="fill: #5299a8; fill-opacity: 0.85; stroke: #5299a8; stroke-opacity: 0.85"/>
     <use xlink:href="#mec06b81b64" x="224.715106" y="27.098281" style="fill: #5299a8; fill-opacity: 0.85; stroke: #5299a8; stroke-opacity: 0.85"/>
     <use xlink:href="#mec06b81b64" x="225.018697" y="29.528563" style="fill: #5299a8; fill-opacity: 0.85; stroke: #5299a8; stroke-opacity: 0.85"/>
     <use xlink:href="#mec06b81b64" x="244.27863" y="32.178692" style="fill: #5299a8; fill-opacity: 0.85; stroke: #5299a8; stroke-opacity: 0.85"/>
     <use xlink:href="#mec06b81b64" x="263.538563" y="35.597097" style="fill: #5299a8; fill-opacity: 0.85; stroke: #5299a8; stroke-opacity: 0.85"/>
     <use xlink:href="#mec06b81b64" x="272.713142" y="35.041783" style="fill: #5299a8; fill-opacity: 0.85; stroke: #5299a8; stroke-opacity: 0.85"/>
     <use xlink:href="#mec06b81b64" x="282.798495" y="40.109069" style="fill: #5299a8; fill-opacity: 0.85; stroke: #5299a8; stroke-opacity: 0.85"/>
     <use xlink:href="#mec06b81b64" x="302.058428" y="45.766776" style="fill: #5299a8; fill-opacity: 0.85; stroke: #5299a8; stroke-opacity: 0.85"/>
     <use xlink:href="#mec06b81b64" x="320.711178" y="49.798566" style="fill: #5299a8; fill-opacity: 0.85; stroke: #5299a8; stroke-opacity: 0.85"/>
     <use xlink:href="#mec06b81b64" x="321.318361" y="53.04129" style="fill: #5299a8; fill-opacity: 0.85; stroke: #5299a8; stroke-opacity: 0.85"/>
     <use xlink:href="#mec06b81b64" x="340.578293" y="62.11871" style="fill: #5299a8; fill-opacity: 0.85; stroke: #5299a8; stroke-opacity: 0.85"/>
     <use xlink:href="#mec06b81b64" x="359.838226" y="73.106734" style="fill: #5299a8; fill-opacity: 0.85; stroke: #5299a8; stroke-opacity: 0.85"/>
     <use xlink:href="#mec06b81b64" x="368.709214" y="75.703674" style="fill: #5299a8; fill-opacity: 0.85; stroke: #5299a8; stroke-opacity: 0.85"/>
     <use xlink:href="#mec06b81b64" x="379.098159" y="86.23251" style="fill: #5299a8; fill-opacity: 0.85; stroke: #5299a8; stroke-opacity: 0.85"/>
     <use xlink:href="#mec06b81b64" x="398.358091" y="101.464766" style="fill: #5299a8; fill-opacity: 0.85; stroke: #5299a8; stroke-opacity: 0.85"/>
     <use xlink:href="#mec06b81b64" x="416.70725" y="114.764589" style="fill: #5299a8; fill-opacity: 0.85; stroke: #5299a8; stroke-opacity: 0.85"/>
     <use xlink:href="#mec06b81b64" x="417.618024" y="118.440314" style="fill: #5299a8; fill-opacity: 0.85; stroke: #5299a8; stroke-opacity: 0.85"/>
     <use xlink:href="#mec06b81b64" x="436.877957" y="136.793191" style="fill: #5299a8; fill-opacity: 0.85; stroke: #5299a8; stroke-opacity: 0.85"/>
     <use xlink:href="#mec06b81b64" x="456.137889" y="156.016337" style="fill: #5299a8; fill-opacity: 0.85; stroke: #5299a8; stroke-opacity: 0.85"/>
     <use xlink:href="#mec06b81b64" x="464.705286" y="163.262879" style="fill: #5299a8; fill-opacity: 0.85; stroke: #5299a8; stroke-opacity: 0.85"/>
     <use xlink:href="#mec06b81b64" x="475.397822" y="175.644365" style="fill: #5299a8; fill-opacity: 0.85; stroke: #5299a8; stroke-opacity: 0.85"/>
     <use xlink:href="#mec06b81b64" x="494.657755" y="195.201159" style="fill: #5299a8; fill-opacity: 0.85; stroke: #5299a8; stroke-opacity: 0.85"/>
     <use xlink:href="#mec06b81b64" x="512.703322" y="212.733302" style="fill: #5299a8; fill-opacity: 0.85; stroke: #5299a8; stroke-opacity: 0.85"/>
     <use xlink:href="#mec06b81b64" x="513.917687" y="214.197454" style="fill: #5299a8; fill-opacity: 0.85; stroke: #5299a8; stroke-opacity: 0.85"/>
     <use xlink:href="#mec06b81b64" x="521.430238" y="221.234535" style="fill: #5299a8; fill-opacity: 0.85; stroke: #5299a8; stroke-opacity: 0.85"/>
     <use xlink:href="#mec06b81b64" x="533.17762" y="232.566295" style="fill: #5299a8; fill-opacity: 0.85; stroke: #5299a8; stroke-opacity: 0.85"/>
     <use xlink:href="#mec06b81b64" x="552.437553" y="249.66054" style="fill: #5299a8; fill-opacity: 0.85; stroke: #5299a8; stroke-opacity: 0.85"/>
     <use xlink:href="#mec06b81b64" x="560.701358" y="256.510809" style="fill: #5299a8; fill-opacity: 0.85; stroke: #5299a8; stroke-opacity: 0.85"/>
     <use xlink:href="#mec06b81b64" x="571.697485" y="265.343073" style="fill: #5299a8; fill-opacity: 0.85; stroke: #5299a8; stroke-opacity: 0.85"/>
     <use xlink:href="#mec06b81b64" x="590.957418" y="279.640618" style="fill: #5299a8; fill-opacity: 0.85; stroke: #5299a8; stroke-opacity: 0.85"/>
     <use xlink:href="#mec06b81b64" x="610.217351" y="292.427918" style="fill: #5299a8; fill-opacity: 0.85; stroke: #5299a8; stroke-opacity: 0.85"/>
     <use xlink:href="#mec06b81b64" x="629.477283" y="303.80317" style="fill: #5299a8; fill-opacity: 0.85; stroke: #5299a8; stroke-opacity: 0.85"/>
     <use xlink:href="#mec06b81b64" x="648.737216" y="313.525721" style="fill: #5299a8; fill-opacity: 0.85; stroke: #5299a8; stroke-opacity: 0.85"/>
    </g>
   </g>
   <g id="line2d_35">
    <path d="M 102.718125 162.086074 
L 674.738125 162.086074 
" clip-path="url(#pc1e595a90e)" style="fill: none; stroke-dasharray: 4.44,1.92; stroke-dashoffset: 0; stroke: #000000; stroke-opacity: 0.7; stroke-width: 1.2"/>
   </g>
   <g id="line2d_36">
    <path d="M 128.719034 21.790545 
L 147.978967 22.3633 
L 167.238899 23.134621 
L 176.71707 23.606731 
L 186.498832 24.171308 
L 205.758765 25.560981 
L 224.715106 27.383684 
L 225.018697 27.417263 
L 244.27863 29.885189 
L 263.538563 33.145914 
L 272.713142 35.04025 
L 282.798495 37.418986 
L 302.058428 42.95937 
L 320.711178 49.795554 
L 321.318361 50.045368 
L 340.578293 58.95318 
L 359.838226 69.915495 
L 368.709214 75.697962 
L 379.098159 83.066547 
L 398.358091 98.38493 
L 416.70725 114.799385 
L 417.618024 115.654668 
L 436.877957 134.467071 
L 456.137889 154.273332 
L 464.705286 163.245421 
L 475.397822 174.473332 
L 494.657755 194.505956 
L 512.703322 212.710271 
L 513.917687 213.907723 
L 521.430238 221.225516 
L 533.17762 232.329132 
L 552.437553 249.522447 
L 560.701358 256.479476 
L 571.697485 265.322552 
L 590.957418 279.633985 
L 610.217351 292.424793 
L 629.477283 303.721655 
L 648.737216 313.601455 
" clip-path="url(#pc1e595a90e)" style="fill: none; stroke: #9e1528; stroke-width: 2.5; stroke-linecap: square"/>
   </g>
   <g id="line2d_37">
    <path d="M 463.630207 328.192 
L 463.630207 7.2 
" clip-path="url(#pc1e595a90e)" style="fill: none; stroke-dasharray: 2,3.3; stroke-dashoffset: 0; stroke: #666666; stroke-opacity: 0.9; stroke-width: 2"/>
   </g>
   <g id="patch_3">
    <path d="M 102.718125 328.192 
L 102.718125 7.2 
" style="fill: none; stroke: #000000; stroke-width: 0.8; stroke-linejoin: miter; stroke-linecap: square"/>
   </g>
   <g id="patch_4">
    <path d="M 674.738125 328.192 
L 674.738125 7.2 
" style="fill: none; stroke: #000000; stroke-width: 0.8; stroke-linejoin: miter; stroke-linecap: square"/>
   </g>
   <g id="patch_5">
    <path d="M 102.718125 328.192 
L 674.738125 328.192 
" style="fill: none; stroke: #000000; stroke-width: 0.8; stroke-linejoin: miter; stroke-linecap: square"/>
   </g>
   <g id="patch_6">
    <path d="M 102.718125 7.2 
L 674.738125 7.2 
" style="fill: none; stroke: #000000; stroke-width: 0.8; stroke-linejoin: miter; stroke-linecap: square"/>
   </g>
   <g id="legend_1">
    <g id="line2d_38">
     <path d="M 124.318125 222.6445 
L 148.318125 222.6445 
L 172.318125 222.6445 
" style="fill: none; stroke: #9e1528; stroke-width: 2.5; stroke-linecap: square"/>
    </g>
    <g id="text_12">
     <!-- Analytical $\lambda(T)$ -->
     <g transform="translate(191.518125 231.0445) scale(0.24 -0.24)">
      <defs>
       <path id="DejaVuSans-41" d="M 2188 4044 
L 1331 1722 
L 3047 1722 
L 2188 4044 
z
M 1831 4666 
L 2547 4666 
L 4325 0 
L 3669 0 
L 3244 1197 
L 1141 1197 
L 716 0 
L 50 0 
L 1831 4666 
z
" transform="scale(0.015625)"/>
       <path id="DejaVuSans-6c" d="M 603 4863 
L 1178 4863 
L 1178 0 
L 603 0 
L 603 4863 
z
" transform="scale(0.015625)"/>
       <path id="DejaVuSans-79" d="M 2059 -325 
Q 1816 -950 1584 -1140 
Q 1353 -1331 966 -1331 
L 506 -1331 
L 506 -850 
L 844 -850 
Q 1081 -850 1212 -737 
Q 1344 -625 1503 -206 
L 1606 56 
L 191 3500 
L 800 3500 
L 1894 763 
L 2988 3500 
L 3597 3500 
L 2059 -325 
z
" transform="scale(0.015625)"/>
       <path id="DejaVuSans-Oblique-3bb" d="M 2350 4316 
L 3125 0 
L 2516 0 
L 2038 2588 
L 328 0 
L -281 0 
L 1903 3356 
L 1794 3975 
Q 1725 4369 1391 4369 
L 1091 4369 
L 1184 4863 
L 1550 4856 
Q 2253 4847 2350 4316 
z
" transform="scale(0.015625)"/>
       <path id="DejaVuSans-28" d="M 1984 4856 
Q 1566 4138 1362 3434 
Q 1159 2731 1159 2009 
Q 1159 1288 1364 580 
Q 1569 -128 1984 -844 
L 1484 -844 
Q 1016 -109 783 600 
Q 550 1309 550 2009 
Q 550 2706 781 3412 
Q 1013 4119 1484 4856 
L 1984 4856 
z
" transform="scale(0.015625)"/>
       <path id="DejaVuSans-29" d="M 513 4856 
L 1013 4856 
Q 1481 4119 1714 3412 
Q 1947 2706 1947 2009 
Q 1947 1309 1714 600 
Q 1481 -109 1013 -844 
L 513 -844 
Q 928 -128 1133 580 
Q 1338 1288 1338 2009 
Q 1338 2731 1133 3434 
Q 928 4138 513 4856 
z
" transform="scale(0.015625)"/>
      </defs>
      <use xlink:href="#DejaVuSans-41" transform="translate(0 0.015625)"/>
      <use xlink:href="#DejaVuSans-6e" transform="translate(68.408203 0.015625)"/>
      <use xlink:href="#DejaVuSans-61" transform="translate(131.787109 0.015625)"/>
      <use xlink:href="#DejaVuSans-6c" transform="translate(193.066406 0.015625)"/>
      <use xlink:href="#DejaVuSans-79" transform="translate(220.849609 0.015625)"/>
      <use xlink:href="#DejaVuSans-74" transform="translate(280.029297 0.015625)"/>
      <use xlink:href="#DejaVuSans-69" transform="translate(319.238281 0.015625)"/>
      <use xlink:href="#DejaVuSans-63" transform="translate(347.021484 0.015625)"/>
      <use xlink:href="#DejaVuSans-61" transform="translate(402.001953 0.015625)"/>
      <use xlink:href="#DejaVuSans-6c" transform="translate(463.28125 0.015625)"/>
      <use xlink:href="#DejaVuSans-20" transform="translate(491.064453 0.015625)"/>
      <use xlink:href="#DejaVuSans-Oblique-3bb" transform="translate(522.851562 0.015625)"/>
      <use xlink:href="#DejaVuSans-28" transform="translate(582.03125 0.015625)"/>
      <use xlink:href="#DejaVuSans-Oblique-54" transform="translate(621.044922 0.015625)"/>
      <use xlink:href="#DejaVuSans-29" transform="translate(682.128906 0.015625)"/>
     </g>
    </g>
    <g id="PathCollection_2">
     <g>
      <use xlink:href="#mec06b81b64" x="148.318125" y="260.02075" style="fill: #5299a8; fill-opacity: 0.85; stroke: #5299a8; stroke-opacity: 0.85"/>
     </g>
    </g>
    <g id="text_13">
     <!-- Numerical data -->
     <g transform="translate(191.518125 266.32075) scale(0.24 -0.24)">
      <defs>
       <path id="DejaVuSans-4e" d="M 628 4666 
L 1478 4666 
L 3547 763 
L 3547 4666 
L 4159 4666 
L 4159 0 
L 3309 0 
L 1241 3903 
L 1241 0 
L 628 0 
L 628 4666 
z
" transform="scale(0.015625)"/>
       <path id="DejaVuSans-75" d="M 544 1381 
L 544 3500 
L 1119 3500 
L 1119 1403 
Q 1119 906 1312 657 
Q 1506 409 1894 409 
Q 2359 409 2629 706 
Q 2900 1003 2900 1516 
L 2900 3500 
L 3475 3500 
L 3475 0 
L 2900 0 
L 2900 538 
Q 2691 219 2414 64 
Q 2138 -91 1772 -91 
Q 1169 -91 856 284 
Q 544 659 544 1381 
z
M 1991 3584 
L 1991 3584 
z
" transform="scale(0.015625)"/>
       <path id="DejaVuSans-6d" d="M 3328 2828 
Q 3544 3216 3844 3400 
Q 4144 3584 4550 3584 
Q 5097 3584 5394 3201 
Q 5691 2819 5691 2113 
L 5691 0 
L 5113 0 
L 5113 2094 
Q 5113 2597 4934 2840 
Q 4756 3084 4391 3084 
Q 3944 3084 3684 2787 
Q 3425 2491 3425 1978 
L 3425 0 
L 2847 0 
L 2847 2094 
Q 2847 2600 2669 2842 
Q 2491 3084 2119 3084 
Q 1678 3084 1418 2786 
Q 1159 2488 1159 1978 
L 1159 0 
L 581 0 
L 581 3500 
L 1159 3500 
L 1159 2956 
Q 1356 3278 1631 3431 
Q 1906 3584 2284 3584 
Q 2666 3584 2933 3390 
Q 3200 3197 3328 2828 
z
" transform="scale(0.015625)"/>
      </defs>
      <use xlink:href="#DejaVuSans-4e"/>
      <use xlink:href="#DejaVuSans-75" transform="translate(74.804688 0)"/>
      <use xlink:href="#DejaVuSans-6d" transform="translate(138.183594 0)"/>
      <use xlink:href="#DejaVuSans-65" transform="translate(235.595703 0)"/>
      <use xlink:href="#DejaVuSans-72" transform="translate(297.119141 0)"/>
      <use xlink:href="#DejaVuSans-69" transform="translate(338.232422 0)"/>
      <use xlink:href="#DejaVuSans-63" transform="translate(366.015625 0)"/>
      <use xlink:href="#DejaVuSans-61" transform="translate(420.996094 0)"/>
      <use xlink:href="#DejaVuSans-6c" transform="translate(482.275391 0)"/>
      <use xlink:href="#DejaVuSans-20" transform="translate(510.058594 0)"/>
      <use xlink:href="#DejaVuSans-64" transform="translate(541.845703 0)"/>
      <use xlink:href="#DejaVuSans-61" transform="translate(605.322266 0)"/>
      <use xlink:href="#DejaVuSans-74" transform="translate(666.601562 0)"/>
      <use xlink:href="#DejaVuSans-61" transform="translate(705.810547 0)"/>
     </g>
    </g>
    <g id="line2d_39">
     <path d="M 124.318125 293.152 
L 148.318125 293.152 
L 172.318125 293.152 
" style="fill: none; stroke-dasharray: 2,3.3; stroke-dashoffset: 0; stroke: #666666; stroke-opacity: 0.9; stroke-width: 2"/>
    </g>
    <g id="text_14">
     <!-- Analytical $T_c \approx 2.794$ -->
     <g transform="translate(191.518125 301.552) scale(0.24 -0.24)">
      <defs>
       <path id="DejaVuSans-Oblique-63" d="M 3431 3366 
L 3316 2797 
Q 3109 2947 2876 3022 
Q 2644 3097 2394 3097 
Q 2119 3097 1870 3000 
Q 1622 2903 1453 2725 
Q 1184 2453 1037 2087 
Q 891 1722 891 1331 
Q 891 859 1127 628 
Q 1363 397 1844 397 
Q 2081 397 2348 469 
Q 2616 541 2906 684 
L 2797 116 
Q 2547 13 2283 -39 
Q 2019 -91 1741 -91 
Q 1044 -91 669 257 
Q 294 606 294 1253 
Q 294 1797 489 2255 
Q 684 2713 1069 3078 
Q 1331 3328 1684 3456 
Q 2038 3584 2456 3584 
Q 2700 3584 2940 3529 
Q 3181 3475 3431 3366 
z
" transform="scale(0.015625)"/>
       <path id="DejaVuSans-2248" d="M 4684 1947 
L 4684 1388 
Q 4356 1144 4076 1036 
Q 3797 928 3494 928 
Q 3150 928 2694 1113 
Q 2663 1125 2641 1134 
Q 2622 1141 2575 1159 
Q 2091 1350 1797 1350 
Q 1522 1350 1253 1231 
Q 984 1113 678 850 
L 678 1409 
Q 1006 1653 1286 1761 
Q 1566 1869 1869 1869 
Q 2213 1869 2672 1684 
Q 2706 1669 2722 1663 
Q 2741 1656 2788 1638 
Q 3272 1447 3566 1447 
Q 3834 1447 4098 1564 
Q 4363 1681 4684 1947 
z
M 4684 3163 
L 4684 2606 
Q 4356 2359 4076 2251 
Q 3797 2144 3494 2144 
Q 3150 2144 2694 2328 
Q 2663 2341 2641 2350 
Q 2622 2356 2575 2375 
Q 2091 2566 1797 2566 
Q 1522 2566 1253 2447 
Q 984 2328 678 2069 
L 678 2625 
Q 1006 2869 1286 2976 
Q 1566 3084 1869 3084 
Q 2213 3084 2672 2900 
Q 2703 2888 2719 2881 
Q 2741 2872 2788 2853 
Q 3272 2663 3566 2663 
Q 3834 2663 4098 2780 
Q 4363 2897 4684 3163 
z
" transform="scale(0.015625)"/>
       <path id="DejaVuSans-37" d="M 525 4666 
L 3525 4666 
L 3525 4397 
L 1831 0 
L 1172 0 
L 2766 4134 
L 525 4134 
L 525 4666 
z
" transform="scale(0.015625)"/>
       <path id="DejaVuSans-39" d="M 703 97 
L 703 672 
Q 941 559 1184 500 
Q 1428 441 1663 441 
Q 2288 441 2617 861 
Q 2947 1281 2994 2138 
Q 2813 1869 2534 1725 
Q 2256 1581 1919 1581 
Q 1219 1581 811 2004 
Q 403 2428 403 3163 
Q 403 3881 828 4315 
Q 1253 4750 1959 4750 
Q 2769 4750 3195 4129 
Q 3622 3509 3622 2328 
Q 3622 1225 3098 567 
Q 2575 -91 1691 -91 
Q 1453 -91 1209 -44 
Q 966 3 703 97 
z
M 1959 2075 
Q 2384 2075 2632 2365 
Q 2881 2656 2881 3163 
Q 2881 3666 2632 3958 
Q 2384 4250 1959 4250 
Q 1534 4250 1286 3958 
Q 1038 3666 1038 3163 
Q 1038 2656 1286 2365 
Q 1534 2075 1959 2075 
z
" transform="scale(0.015625)"/>
      </defs>
      <use xlink:href="#DejaVuSans-41" transform="translate(0 0.015625)"/>
      <use xlink:href="#DejaVuSans-6e" transform="translate(68.408203 0.015625)"/>
      <use xlink:href="#DejaVuSans-61" transform="translate(131.787109 0.015625)"/>
      <use xlink:href="#DejaVuSans-6c" transform="translate(193.066406 0.015625)"/>
      <use xlink:href="#DejaVuSans-79" transform="translate(220.849609 0.015625)"/>
      <use xlink:href="#DejaVuSans-74" transform="translate(280.029297 0.015625)"/>
      <use xlink:href="#DejaVuSans-69" transform="translate(319.238281 0.015625)"/>
      <use xlink:href="#DejaVuSans-63" transform="translate(347.021484 0.015625)"/>
      <use xlink:href="#DejaVuSans-61" transform="translate(402.001953 0.015625)"/>
      <use xlink:href="#DejaVuSans-6c" transform="translate(463.28125 0.015625)"/>
      <use xlink:href="#DejaVuSans-20" transform="translate(491.064453 0.015625)"/>
      <use xlink:href="#DejaVuSans-Oblique-54" transform="translate(522.851562 0.015625)"/>
      <use xlink:href="#DejaVuSans-Oblique-63" transform="translate(583.935547 -16.390625) scale(0.7)"/>
      <use xlink:href="#DejaVuSans-2248" transform="translate(644.638672 0.015625)"/>
      <use xlink:href="#DejaVuSans-32" transform="translate(747.910156 0.015625)"/>
      <use xlink:href="#DejaVuSans-2e" transform="translate(811.533203 0.015625)"/>
      <use xlink:href="#DejaVuSans-37" transform="translate(835.570312 0.015625)"/>
      <use xlink:href="#DejaVuSans-39" transform="translate(899.193359 0.015625)"/>
      <use xlink:href="#DejaVuSans-34" transform="translate(962.816406 0.015625)"/>
     </g>
    </g>
   </g>
  </g>
 </g>
 <defs>
  <clipPath id="pc1e595a90e">
   <rect x="102.718125" y="7.2" width="572.02" height="320.992"/>
  </clipPath>
 </defs>
</svg>
