<?xml version="1.0" encoding="utf-8" standalone="no"?>
<!DOCTYPE svg PUBLIC "-//W3C//DTD SVG 1.1//EN"
  "http://www.w3.org/Graphics/SVG/1.1/DTD/svg11.dtd">
<svg xmlns:xlink="http://www.w3.org/1999/xlink" width="1080pt" height="417.6pt" viewBox="0 0 1080 417.6" xmlns="http://www.w3.org/2000/svg" version="1.1">
 <metadata>
  <rdf:RDF xmlns:dc="http://purl.org/dc/elements/1.1/" xmlns:cc="http://creativecommons.org/ns#" xmlns:rdf="http://www.w3.org/1999/02/22-rdf-syntax-ns#">
   <cc:Work>
    <dc:type rdf:resource="http://purl.org/dc/dcmitype/StillImage"/>
    <dc:date>2026-06-14T15:00:45.750221</dc:date>
    <dc:format>image/svg+xml</dc:format>
    <dc:creator>
     <cc:Agent>
      <dc:title>Matplotlib v3.10.9, https://matplotlib.org/</dc:title>
     </cc:Agent>
    </dc:creator>
   </cc:Work>
  </rdf:RDF>
 </metadata>
 <defs>
  <style type="text/css">*{stroke-linejoin: round; stroke-linecap: butt}</style>
 </defs>
 <g id="figure_1">
  <g id="patch_1">
   <path d="M 0 417.6 
L 1080 417.6 
L 1080 0 
L 0 0 
z
" style="fill: #ffffff"/>
  </g>
  <g id="axes_1">
   <g id="patch_2">
    <path d="M 85.898678 364.182572 
L 450.529688 364.182572 
L 450.529688 3.00024 
L 85.898678 3.00024 
z
" style="fill: #ffffff"/>
   </g>
   <g id="patch_3">
    <path d="M 102.472814 364.182572 
L 323.350756 364.182572 
L 323.350756 3.00024 
L 102.472814 3.00024 
z
" clip-path="url(#p68f969a9c8)" style="fill: #f5e6a3; opacity: 0.75"/>
   </g>
   <g id="line2d_1">
    <path d="M 323.51658 364.182572 
L 323.51658 3.00024 
" clip-path="url(#p68f969a9c8)" style="fill: none; stroke-dasharray: 8,4.8; stroke-dashoffset: 0; stroke: #cba810; stroke-opacity: 0.9; stroke-width: 1.6"/>
   </g>
   <g id="matplotlib.axis_1">
    <g id="xtick_1">
     <g id="line2d_2">
      <defs>
       <path id="m570a731a0b" d="M 0 0 
L 0 5 
" style="stroke: #000000; stroke-width: 1.1"/>
      </defs>
      <g>
       <use xlink:href="#m570a731a0b" x="102.638639" y="364.182572" style="stroke: #000000; stroke-width: 1.1"/>
      </g>
     </g>
     <g id="text_1">
      <!-- 2.00 -->
      <g transform="translate(85.93942 384.080229) scale(0.15 -0.15)">
       <defs>
        <path id="DejaVuSans-32" d="M 1228 531 
L 3431 531 
L 3431 0 
L 469 0 
L 469 531 
Q 828 903 1448 1529 
Q 2069 2156 2228 2338 
Q 2531 2678 2651 2914 
Q 2772 3150 2772 3378 
Q 2772 3750 2511 3984 
Q 2250 4219 1831 4219 
Q 1534 4219 1204 4116 
Q 875 4013 500 3803 
L 500 4441 
Q 881 4594 1212 4672 
Q 1544 4750 1819 4750 
Q 2544 4750 2975 4387 
Q 3406 4025 3406 3419 
Q 3406 3131 3298 2873 
Q 3191 2616 2906 2266 
Q 2828 2175 2409 1742 
Q 1991 1309 1228 531 
z
" transform="scale(0.015625)"/>
        <path id="DejaVuSans-2e" d="M 684 794 
L 1344 794 
L 1344 0 
L 684 0 
L 684 794 
z
" transform="scale(0.015625)"/>
        <path id="DejaVuSans-30" d="M 2034 4250 
Q 1547 4250 1301 3770 
Q 1056 3291 1056 2328 
Q 1056 1369 1301 889 
Q 1547 409 2034 409 
Q 2525 409 2770 889 
Q 3016 1369 3016 2328 
Q 3016 3291 2770 3770 
Q 2525 4250 2034 4250 
z
M 2034 4750 
Q 2819 4750 3233 4129 
Q 3647 3509 3647 2328 
Q 3647 1150 3233 529 
Q 2819 -91 2034 -91 
Q 1250 -91 836 529 
Q 422 1150 422 2328 
Q 422 3509 836 4129 
Q 1250 4750 2034 4750 
z
" transform="scale(0.015625)"/>
       </defs>
       <use xlink:href="#DejaVuSans-32"/>
       <use xlink:href="#DejaVuSans-2e" transform="translate(63.623047 0)"/>
       <use xlink:href="#DejaVuSans-30" transform="translate(95.410156 0)"/>
       <use xlink:href="#DejaVuSans-30" transform="translate(159.033203 0)"/>
      </g>
     </g>
    </g>
    <g id="xtick_2">
     <g id="line2d_3">
      <g>
       <use xlink:href="#m570a731a0b" x="157.858124" y="364.182572" style="stroke: #000000; stroke-width: 1.1"/>
      </g>
     </g>
     <g id="text_2">
      <!-- 2.25 -->
      <g transform="translate(141.158905 384.080229) scale(0.15 -0.15)">
       <defs>
        <path id="DejaVuSans-35" d="M 691 4666 
L 3169 4666 
L 3169 4134 
L 1269 4134 
L 1269 2991 
Q 1406 3038 1543 3061 
Q 1681 3084 1819 3084 
Q 2600 3084 3056 2656 
Q 3513 2228 3513 1497 
Q 3513 744 3044 326 
Q 2575 -91 1722 -91 
Q 1428 -91 1123 -41 
Q 819 9 494 109 
L 494 744 
Q 775 591 1075 516 
Q 1375 441 1709 441 
Q 2250 441 2565 725 
Q 2881 1009 2881 1497 
Q 2881 1984 2565 2268 
Q 2250 2553 1709 2553 
Q 1456 2553 1204 2497 
Q 953 2441 691 2322 
L 691 4666 
z
" transform="scale(0.015625)"/>
       </defs>
       <use xlink:href="#DejaVuSans-32"/>
       <use xlink:href="#DejaVuSans-2e" transform="translate(63.623047 0)"/>
       <use xlink:href="#DejaVuSans-32" transform="translate(95.410156 0)"/>
       <use xlink:href="#DejaVuSans-35" transform="translate(159.033203 0)"/>
      </g>
     </g>
    </g>
    <g id="xtick_3">
     <g id="line2d_4">
      <g>
       <use xlink:href="#m570a731a0b" x="213.077609" y="364.182572" style="stroke: #000000; stroke-width: 1.1"/>
      </g>
     </g>
     <g id="text_3">
      <!-- 2.50 -->
      <g transform="translate(196.378391 384.080229) scale(0.15 -0.15)">
       <use xlink:href="#DejaVuSans-32"/>
       <use xlink:href="#DejaVuSans-2e" transform="translate(63.623047 0)"/>
       <use xlink:href="#DejaVuSans-35" transform="translate(95.410156 0)"/>
       <use xlink:href="#DejaVuSans-30" transform="translate(159.033203 0)"/>
      </g>
     </g>
    </g>
    <g id="xtick_4">
     <g id="line2d_5">
      <g>
       <use xlink:href="#m570a731a0b" x="268.297095" y="364.182572" style="stroke: #000000; stroke-width: 1.1"/>
      </g>
     </g>
     <g id="text_4">
      <!-- 2.75 -->
      <g transform="translate(251.597876 384.080229) scale(0.15 -0.15)">
       <defs>
        <path id="DejaVuSans-37" d="M 525 4666 
L 3525 4666 
L 3525 4397 
L 1831 0 
L 1172 0 
L 2766 4134 
L 525 4134 
L 525 4666 
z
" transform="scale(0.015625)"/>
       </defs>
       <use xlink:href="#DejaVuSans-32"/>
       <use xlink:href="#DejaVuSans-2e" transform="translate(63.623047 0)"/>
       <use xlink:href="#DejaVuSans-37" transform="translate(95.410156 0)"/>
       <use xlink:href="#DejaVuSans-35" transform="translate(159.033203 0)"/>
      </g>
     </g>
    </g>
    <g id="xtick_5">
     <g id="line2d_6">
      <g>
       <use xlink:href="#m570a731a0b" x="323.51658" y="364.182572" style="stroke: #000000; stroke-width: 1.1"/>
      </g>
     </g>
     <g id="text_5">
      <!-- 3.00 -->
      <g transform="translate(306.817361 384.080229) scale(0.15 -0.15)">
       <defs>
        <path id="DejaVuSans-33" d="M 2597 2516 
Q 3050 2419 3304 2112 
Q 3559 1806 3559 1356 
Q 3559 666 3084 287 
Q 2609 -91 1734 -91 
Q 1441 -91 1130 -33 
Q 819 25 488 141 
L 488 750 
Q 750 597 1062 519 
Q 1375 441 1716 441 
Q 2309 441 2620 675 
Q 2931 909 2931 1356 
Q 2931 1769 2642 2001 
Q 2353 2234 1838 2234 
L 1294 2234 
L 1294 2753 
L 1863 2753 
Q 2328 2753 2575 2939 
Q 2822 3125 2822 3475 
Q 2822 3834 2567 4026 
Q 2313 4219 1838 4219 
Q 1578 4219 1281 4162 
Q 984 4106 628 3988 
L 628 4550 
Q 988 4650 1302 4700 
Q 1616 4750 1894 4750 
Q 2613 4750 3031 4423 
Q 3450 4097 3450 3541 
Q 3450 3153 3228 2886 
Q 3006 2619 2597 2516 
z
" transform="scale(0.015625)"/>
       </defs>
       <use xlink:href="#DejaVuSans-33"/>
       <use xlink:href="#DejaVuSans-2e" transform="translate(63.623047 0)"/>
       <use xlink:href="#DejaVuSans-30" transform="translate(95.410156 0)"/>
       <use xlink:href="#DejaVuSans-30" transform="translate(159.033203 0)"/>
      </g>
     </g>
    </g>
    <g id="xtick_6">
     <g id="line2d_7">
      <g>
       <use xlink:href="#m570a731a0b" x="378.736065" y="364.182572" style="stroke: #000000; stroke-width: 1.1"/>
      </g>
     </g>
     <g id="text_6">
      <!-- 3.25 -->
      <g transform="translate(362.036847 384.080229) scale(0.15 -0.15)">
       <use xlink:href="#DejaVuSans-33"/>
       <use xlink:href="#DejaVuSans-2e" transform="translate(63.623047 0)"/>
       <use xlink:href="#DejaVuSans-32" transform="translate(95.410156 0)"/>
       <use xlink:href="#DejaVuSans-35" transform="translate(159.033203 0)"/>
      </g>
     </g>
    </g>
    <g id="xtick_7">
     <g id="line2d_8">
      <g>
       <use xlink:href="#m570a731a0b" x="433.955551" y="364.182572" style="stroke: #000000; stroke-width: 1.1"/>
      </g>
     </g>
     <g id="text_7">
      <!-- 3.50 -->
      <g transform="translate(417.256332 384.080229) scale(0.15 -0.15)">
       <use xlink:href="#DejaVuSans-33"/>
       <use xlink:href="#DejaVuSans-2e" transform="translate(63.623047 0)"/>
       <use xlink:href="#DejaVuSans-35" transform="translate(95.410156 0)"/>
       <use xlink:href="#DejaVuSans-30" transform="translate(159.033203 0)"/>
      </g>
     </g>
    </g>
    <g id="text_8">
     <!-- Predator death rate  $\gamma_2$ -->
     <g transform="translate(152.714183 410.39976) scale(0.2 -0.2)">
      <defs>
       <path id="DejaVuSans-50" d="M 1259 4147 
L 1259 2394 
L 2053 2394 
Q 2494 2394 2734 2622 
Q 2975 2850 2975 3272 
Q 2975 3691 2734 3919 
Q 2494 4147 2053 4147 
L 1259 4147 
z
M 628 4666 
L 2053 4666 
Q 2838 4666 3239 4311 
Q 3641 3956 3641 3272 
Q 3641 2581 3239 2228 
Q 2838 1875 2053 1875 
L 1259 1875 
L 1259 0 
L 628 0 
L 628 4666 
z
" transform="scale(0.015625)"/>
       <path id="DejaVuSans-72" d="M 2631 2963 
Q 2534 3019 2420 3045 
Q 2306 3072 2169 3072 
Q 1681 3072 1420 2755 
Q 1159 2438 1159 1844 
L 1159 0 
L 581 0 
L 581 3500 
L 1159 3500 
L 1159 2956 
Q 1341 3275 1631 3429 
Q 1922 3584 2338 3584 
Q 2397 3584 2469 3576 
Q 2541 3569 2628 3553 
L 2631 2963 
z
" transform="scale(0.015625)"/>
       <path id="DejaVuSans-65" d="M 3597 1894 
L 3597 1613 
L 953 1613 
Q 991 1019 1311 708 
Q 1631 397 2203 397 
Q 2534 397 2845 478 
Q 3156 559 3463 722 
L 3463 178 
Q 3153 47 2828 -22 
Q 2503 -91 2169 -91 
Q 1331 -91 842 396 
Q 353 884 353 1716 
Q 353 2575 817 3079 
Q 1281 3584 2069 3584 
Q 2775 3584 3186 3129 
Q 3597 2675 3597 1894 
z
M 3022 2063 
Q 3016 2534 2758 2815 
Q 2500 3097 2075 3097 
Q 1594 3097 1305 2825 
Q 1016 2553 972 2059 
L 3022 2063 
z
" transform="scale(0.015625)"/>
       <path id="DejaVuSans-64" d="M 2906 2969 
L 2906 4863 
L 3481 4863 
L 3481 0 
L 2906 0 
L 2906 525 
Q 2725 213 2448 61 
Q 2172 -91 1784 -91 
Q 1150 -91 751 415 
Q 353 922 353 1747 
Q 353 2572 751 3078 
Q 1150 3584 1784 3584 
Q 2172 3584 2448 3432 
Q 2725 3281 2906 2969 
z
M 947 1747 
Q 947 1113 1208 752 
Q 1469 391 1925 391 
Q 2381 391 2643 752 
Q 2906 1113 2906 1747 
Q 2906 2381 2643 2742 
Q 2381 3103 1925 3103 
Q 1469 3103 1208 2742 
Q 947 2381 947 1747 
z
" transform="scale(0.015625)"/>
       <path id="DejaVuSans-61" d="M 2194 1759 
Q 1497 1759 1228 1600 
Q 959 1441 959 1056 
Q 959 750 1161 570 
Q 1363 391 1709 391 
Q 2188 391 2477 730 
Q 2766 1069 2766 1631 
L 2766 1759 
L 2194 1759 
z
M 3341 1997 
L 3341 0 
L 2766 0 
L 2766 531 
Q 2569 213 2275 61 
Q 1981 -91 1556 -91 
Q 1019 -91 701 211 
Q 384 513 384 1019 
Q 384 1609 779 1909 
Q 1175 2209 1959 2209 
L 2766 2209 
L 2766 2266 
Q 2766 2663 2505 2880 
Q 2244 3097 1772 3097 
Q 1472 3097 1187 3025 
Q 903 2953 641 2809 
L 641 3341 
Q 956 3463 1253 3523 
Q 1550 3584 1831 3584 
Q 2591 3584 2966 3190 
Q 3341 2797 3341 1997 
z
" transform="scale(0.015625)"/>
       <path id="DejaVuSans-74" d="M 1172 4494 
L 1172 3500 
L 2356 3500 
L 2356 3053 
L 1172 3053 
L 1172 1153 
Q 1172 725 1289 603 
Q 1406 481 1766 481 
L 2356 481 
L 2356 0 
L 1766 0 
Q 1100 0 847 248 
Q 594 497 594 1153 
L 594 3053 
L 172 3053 
L 172 3500 
L 594 3500 
L 594 4494 
L 1172 4494 
z
" transform="scale(0.015625)"/>
       <path id="DejaVuSans-6f" d="M 1959 3097 
Q 1497 3097 1228 2736 
Q 959 2375 959 1747 
Q 959 1119 1226 758 
Q 1494 397 1959 397 
Q 2419 397 2687 759 
Q 2956 1122 2956 1747 
Q 2956 2369 2687 2733 
Q 2419 3097 1959 3097 
z
M 1959 3584 
Q 2709 3584 3137 3096 
Q 3566 2609 3566 1747 
Q 3566 888 3137 398 
Q 2709 -91 1959 -91 
Q 1206 -91 779 398 
Q 353 888 353 1747 
Q 353 2609 779 3096 
Q 1206 3584 1959 3584 
z
" transform="scale(0.015625)"/>
       <path id="DejaVuSans-20" transform="scale(0.015625)"/>
       <path id="DejaVuSans-68" d="M 3513 2113 
L 3513 0 
L 2938 0 
L 2938 2094 
Q 2938 2591 2744 2837 
Q 2550 3084 2163 3084 
Q 1697 3084 1428 2787 
Q 1159 2491 1159 1978 
L 1159 0 
L 581 0 
L 581 4863 
L 1159 4863 
L 1159 2956 
Q 1366 3272 1645 3428 
Q 1925 3584 2291 3584 
Q 2894 3584 3203 3211 
Q 3513 2838 3513 2113 
z
" transform="scale(0.015625)"/>
       <path id="DejaVuSans-Oblique-3b3" d="M 1491 2950 
L 1838 788 
L 3456 3500 
L 4066 3500 
L 1972 0 
L 1713 -1331 
L 1138 -1331 
L 1397 0 
L 988 2613 
Q 925 3006 628 3006 
L 475 3006 
L 569 3500 
L 788 3500 
Q 1403 3500 1491 2950 
z
" transform="scale(0.015625)"/>
      </defs>
      <use xlink:href="#DejaVuSans-50" transform="translate(0 0.015625)"/>
      <use xlink:href="#DejaVuSans-72" transform="translate(60.302734 0.015625)"/>
      <use xlink:href="#DejaVuSans-65" transform="translate(101.416016 0.015625)"/>
      <use xlink:href="#DejaVuSans-64" transform="translate(162.939453 0.015625)"/>
      <use xlink:href="#DejaVuSans-61" transform="translate(226.416016 0.015625)"/>
      <use xlink:href="#DejaVuSans-74" transform="translate(287.695312 0.015625)"/>
      <use xlink:href="#DejaVuSans-6f" transform="translate(326.904297 0.015625)"/>
      <use xlink:href="#DejaVuSans-72" transform="translate(388.085938 0.015625)"/>
      <use xlink:href="#DejaVuSans-20" transform="translate(429.199219 0.015625)"/>
      <use xlink:href="#DejaVuSans-64" transform="translate(460.986328 0.015625)"/>
      <use xlink:href="#DejaVuSans-65" transform="translate(524.462891 0.015625)"/>
      <use xlink:href="#DejaVuSans-61" transform="translate(585.986328 0.015625)"/>
      <use xlink:href="#DejaVuSans-74" transform="translate(647.265625 0.015625)"/>
      <use xlink:href="#DejaVuSans-68" transform="translate(686.474609 0.015625)"/>
      <use xlink:href="#DejaVuSans-20" transform="translate(749.853516 0.015625)"/>
      <use xlink:href="#DejaVuSans-72" transform="translate(781.640625 0.015625)"/>
      <use xlink:href="#DejaVuSans-61" transform="translate(822.753906 0.015625)"/>
      <use xlink:href="#DejaVuSans-74" transform="translate(884.033203 0.015625)"/>
      <use xlink:href="#DejaVuSans-65" transform="translate(923.242188 0.015625)"/>
      <use xlink:href="#DejaVuSans-20" transform="translate(984.765625 0.015625)"/>
      <use xlink:href="#DejaVuSans-20" transform="translate(1016.552734 0.015625)"/>
      <use xlink:href="#DejaVuSans-Oblique-3b3" transform="translate(1048.339844 0.015625)"/>
      <use xlink:href="#DejaVuSans-32" transform="translate(1107.519531 -16.390625) scale(0.7)"/>
     </g>
    </g>
   </g>
   <g id="matplotlib.axis_2">
    <g id="ytick_1">
     <g id="line2d_9">
      <defs>
       <path id="mc9a7732ea7" d="M 0 0 
L -5 0 
" style="stroke: #2d4f73; stroke-width: 1.1"/>
      </defs>
      <g>
       <use xlink:href="#mc9a7732ea7" x="85.898678" y="364.182572" style="fill: #2d4f73; stroke: #2d4f73; stroke-width: 1.1"/>
      </g>
     </g>
     <g id="text_9">
      <!-- 0.00 -->
      <g style="fill: #2d4f73" transform="translate(44.00024 369.881401) scale(0.15 -0.15)">
       <use xlink:href="#DejaVuSans-30"/>
       <use xlink:href="#DejaVuSans-2e" transform="translate(63.623047 0)"/>
       <use xlink:href="#DejaVuSans-30" transform="translate(95.410156 0)"/>
       <use xlink:href="#DejaVuSans-30" transform="translate(159.033203 0)"/>
      </g>
     </g>
    </g>
    <g id="ytick_2">
     <g id="line2d_10">
      <g>
       <use xlink:href="#mc9a7732ea7" x="85.898678" y="295.385938" style="fill: #2d4f73; stroke: #2d4f73; stroke-width: 1.1"/>
      </g>
     </g>
     <g id="text_10">
      <!-- 0.05 -->
      <g style="fill: #2d4f73" transform="translate(44.00024 301.084766) scale(0.15 -0.15)">
       <use xlink:href="#DejaVuSans-30"/>
       <use xlink:href="#DejaVuSans-2e" transform="translate(63.623047 0)"/>
       <use xlink:href="#DejaVuSans-30" transform="translate(95.410156 0)"/>
       <use xlink:href="#DejaVuSans-35" transform="translate(159.033203 0)"/>
      </g>
     </g>
    </g>
    <g id="ytick_3">
     <g id="line2d_11">
      <g>
       <use xlink:href="#mc9a7732ea7" x="85.898678" y="226.589303" style="fill: #2d4f73; stroke: #2d4f73; stroke-width: 1.1"/>
      </g>
     </g>
     <g id="text_11">
      <!-- 0.10 -->
      <g style="fill: #2d4f73" transform="translate(44.00024 232.288131) scale(0.15 -0.15)">
       <defs>
        <path id="DejaVuSans-31" d="M 794 531 
L 1825 531 
L 1825 4091 
L 703 3866 
L 703 4441 
L 1819 4666 
L 2450 4666 
L 2450 531 
L 3481 531 
L 3481 0 
L 794 0 
L 794 531 
z
" transform="scale(0.015625)"/>
       </defs>
       <use xlink:href="#DejaVuSans-30"/>
       <use xlink:href="#DejaVuSans-2e" transform="translate(63.623047 0)"/>
       <use xlink:href="#DejaVuSans-31" transform="translate(95.410156 0)"/>
       <use xlink:href="#DejaVuSans-30" transform="translate(159.033203 0)"/>
      </g>
     </g>
    </g>
    <g id="ytick_4">
     <g id="line2d_12">
      <g>
       <use xlink:href="#mc9a7732ea7" x="85.898678" y="157.792668" style="fill: #2d4f73; stroke: #2d4f73; stroke-width: 1.1"/>
      </g>
     </g>
     <g id="text_12">
      <!-- 0.15 -->
      <g style="fill: #2d4f73" transform="translate(44.00024 163.491496) scale(0.15 -0.15)">
       <use xlink:href="#DejaVuSans-30"/>
       <use xlink:href="#DejaVuSans-2e" transform="translate(63.623047 0)"/>
       <use xlink:href="#DejaVuSans-31" transform="translate(95.410156 0)"/>
       <use xlink:href="#DejaVuSans-35" transform="translate(159.033203 0)"/>
      </g>
     </g>
    </g>
    <g id="ytick_5">
     <g id="line2d_13">
      <g>
       <use xlink:href="#mc9a7732ea7" x="85.898678" y="88.996033" style="fill: #2d4f73; stroke: #2d4f73; stroke-width: 1.1"/>
      </g>
     </g>
     <g id="text_13">
      <!-- 0.20 -->
      <g style="fill: #2d4f73" transform="translate(44.00024 94.694862) scale(0.15 -0.15)">
       <use xlink:href="#DejaVuSans-30"/>
       <use xlink:href="#DejaVuSans-2e" transform="translate(63.623047 0)"/>
       <use xlink:href="#DejaVuSans-32" transform="translate(95.410156 0)"/>
       <use xlink:href="#DejaVuSans-30" transform="translate(159.033203 0)"/>
      </g>
     </g>
    </g>
    <g id="ytick_6">
     <g id="line2d_14">
      <g>
       <use xlink:href="#mc9a7732ea7" x="85.898678" y="20.199399" style="fill: #2d4f73; stroke: #2d4f73; stroke-width: 1.1"/>
      </g>
     </g>
     <g id="text_14">
      <!-- 0.25 -->
      <g style="fill: #2d4f73" transform="translate(44.00024 25.898227) scale(0.15 -0.15)">
       <use xlink:href="#DejaVuSans-30"/>
       <use xlink:href="#DejaVuSans-2e" transform="translate(63.623047 0)"/>
       <use xlink:href="#DejaVuSans-32" transform="translate(95.410156 0)"/>
       <use xlink:href="#DejaVuSans-35" transform="translate(159.033203 0)"/>
      </g>
     </g>
    </g>
    <g id="text_15">
     <!-- $\max_p\, y^*$ -->
     <g style="fill: #2d4f73" transform="translate(21.20024 218.791406) rotate(-90) scale(0.2 -0.2)">
      <defs>
       <path id="DejaVuSans-6d" d="M 3328 2828 
Q 3544 3216 3844 3400 
Q 4144 3584 4550 3584 
Q 5097 3584 5394 3201 
Q 5691 2819 5691 2113 
L 5691 0 
L 5113 0 
L 5113 2094 
Q 5113 2597 4934 2840 
Q 4756 3084 4391 3084 
Q 3944 3084 3684 2787 
Q 3425 2491 3425 1978 
L 3425 0 
L 2847 0 
L 2847 2094 
Q 2847 2600 2669 2842 
Q 2491 3084 2119 3084 
Q 1678 3084 1418 2786 
Q 1159 2488 1159 1978 
L 1159 0 
L 581 0 
L 581 3500 
L 1159 3500 
L 1159 2956 
Q 1356 3278 1631 3431 
Q 1906 3584 2284 3584 
Q 2666 3584 2933 3390 
Q 3200 3197 3328 2828 
z
" transform="scale(0.015625)"/>
       <path id="DejaVuSans-78" d="M 3513 3500 
L 2247 1797 
L 3578 0 
L 2900 0 
L 1881 1375 
L 863 0 
L 184 0 
L 1544 1831 
L 300 3500 
L 978 3500 
L 1906 2253 
L 2834 3500 
L 3513 3500 
z
" transform="scale(0.015625)"/>
       <path id="DejaVuSans-Oblique-70" d="M 3175 2156 
Q 3175 2616 2975 2859 
Q 2775 3103 2400 3103 
Q 2144 3103 1911 2972 
Q 1678 2841 1497 2591 
Q 1319 2344 1212 1994 
Q 1106 1644 1106 1300 
Q 1106 863 1306 627 
Q 1506 391 1875 391 
Q 2147 391 2380 519 
Q 2613 647 2778 891 
Q 2956 1147 3065 1494 
Q 3175 1841 3175 2156 
z
M 1394 2969 
Q 1625 3272 1939 3428 
Q 2253 3584 2638 3584 
Q 3175 3584 3472 3232 
Q 3769 2881 3769 2247 
Q 3769 1728 3584 1258 
Q 3400 788 3053 416 
Q 2822 169 2531 39 
Q 2241 -91 1919 -91 
Q 1547 -91 1294 64 
Q 1041 219 916 525 
L 556 -1331 
L -19 -1331 
L 922 3500 
L 1497 3500 
L 1394 2969 
z
" transform="scale(0.015625)"/>
       <path id="DejaVuSans-Oblique-79" d="M 1588 -325 
Q 1188 -997 936 -1164 
Q 684 -1331 294 -1331 
L -159 -1331 
L -63 -850 
L 269 -850 
Q 509 -850 678 -719 
Q 847 -588 1056 -206 
L 1234 128 
L 459 3500 
L 1069 3500 
L 1650 819 
L 3256 3500 
L 3859 3500 
L 1588 -325 
z
" transform="scale(0.015625)"/>
       <path id="DejaVuSans-2a" d="M 3009 3897 
L 1888 3291 
L 3009 2681 
L 2828 2375 
L 1778 3009 
L 1778 1831 
L 1422 1831 
L 1422 3009 
L 372 2375 
L 191 2681 
L 1313 3291 
L 191 3897 
L 372 4206 
L 1422 3572 
L 1422 4750 
L 1778 4750 
L 1778 3572 
L 2828 4206 
L 3009 3897 
z
" transform="scale(0.015625)"/>
      </defs>
      <use xlink:href="#DejaVuSans-6d" transform="translate(0 0.765625)"/>
      <use xlink:href="#DejaVuSans-61" transform="translate(97.412109 0.765625)"/>
      <use xlink:href="#DejaVuSans-78" transform="translate(158.691406 0.765625)"/>
      <use xlink:href="#DejaVuSans-Oblique-70" transform="translate(88 -58.60625) scale(0.7)"/>
      <use xlink:href="#DejaVuSans-Oblique-79" transform="translate(234.10677 0.765625)"/>
      <use xlink:href="#DejaVuSans-2a" transform="translate(297.752603 39.046875) scale(0.7)"/>
     </g>
    </g>
   </g>
   <g id="patch_4">
    <path d="M 85.898678 364.182572 
L 85.898678 3.00024 
" style="fill: none; stroke: #2d4f73; stroke-width: 1.2; stroke-linejoin: miter; stroke-linecap: square"/>
   </g>
   <g id="patch_5">
    <path d="M 450.529688 364.182572 
L 450.529688 3.00024 
" style="fill: none; stroke: #000000; stroke-width: 1.2; stroke-linejoin: miter; stroke-linecap: square"/>
   </g>
   <g id="patch_6">
    <path d="M 85.898678 364.182572 
L 450.529688 364.182572 
" style="fill: none; stroke: #000000; stroke-width: 1.2; stroke-linejoin: miter; stroke-linecap: square"/>
   </g>
   <g id="line2d_15">
    <path d="M 323.51658 364.182572 
L 323.51658 3.00024 
" clip-path="url(#p68f969a9c8)" style="fill: none; stroke-dasharray: 1.2,1.98; stroke-dashoffset: 0; stroke: #888888; stroke-width: 1.2"/>
   </g>
   <g id="patch_7">
    <path d="M 257.253198 365.626779 
L 356.648271 365.626779 
L 356.648271 342.880531 
L 257.253198 342.880531 
L 257.253198 365.626779 
z
M 282.799423 335.287986 
Q 270.02631 350.457382 257.253198 365.626779 
M 439.590757 179.979583 
Q 398.119514 261.430057 356.648271 342.880531 
" style="fill: none; opacity: 0.6; stroke: #aaaaaa; stroke-width: 0.8; stroke-linejoin: miter"/>
   </g>
   <g id="line2d_16">
    <path d="M 102.638639 20.199399 
L 106.95007 39.828348 
L 111.261501 58.467519 
L 115.572932 76.171666 
L 119.884364 92.991575 
L 124.195795 108.974424 
L 128.507226 124.164089 
L 132.818658 138.601436 
L 137.461737 153.351647 
L 142.104817 167.31782 
L 146.747897 180.541167 
L 151.390977 193.060063 
L 156.034057 204.910285 
L 160.677137 216.125227 
L 165.320217 226.736095 
L 169.963296 236.772086 
L 174.606376 246.260542 
L 179.249456 255.227102 
L 183.892536 263.695826 
L 188.535616 271.689319 
L 193.178696 279.228837 
L 197.821776 286.334388 
L 202.464855 293.02482 
L 207.107935 299.317905 
L 211.751015 305.230417 
L 216.394095 310.778196 
L 221.037175 315.976217 
L 225.680255 320.838647 
L 230.323334 325.378894 
L 234.966414 329.609667 
L 239.609494 333.543009 
L 244.252574 337.190352 
L 248.895654 340.562546 
L 253.538734 343.669899 
L 258.181814 346.522212 
L 262.824893 349.128808 
L 267.799622 351.658991 
L 272.77435 353.927658 
L 277.749079 355.944667 
L 282.723807 357.719383 
L 287.698535 359.260715 
L 292.673264 360.577138 
L 297.979641 361.742511 
L 303.286018 362.670484 
L 308.592395 363.369911 
L 313.898772 363.849212 
L 319.536797 364.126228 
L 325.506471 364.182572 
L 433.955551 364.182572 
L 433.955551 364.182572 
" clip-path="url(#p68f969a9c8)" style="fill: none; stroke: #2d4f73; stroke-width: 2.4; stroke-linecap: square"/>
   </g>
   <g id="axes_2">
    <g id="patch_8">
     <path d="M 282.799423 335.287986 
L 439.590757 335.287986 
L 439.590757 179.979583 
L 282.799423 179.979583 
z
" style="fill: #ffffff"/>
    </g>
    <g id="patch_9">
     <path d="M 282.956371 335.287986 
L 387.065399 335.287986 
L 387.065399 179.979583 
L 282.956371 179.979583 
z
" clip-path="url(#p93c2bf72ef)" style="fill: #f5e6a3; opacity: 0.75"/>
    </g>
    <g id="line2d_17">
     <path d="M 387.326979 335.287986 
L 387.326979 179.979583 
" clip-path="url(#p93c2bf72ef)" style="fill: none; stroke-dasharray: 8,4.8; stroke-dashoffset: 0; stroke: #cba810; stroke-opacity: 0.9; stroke-width: 1.6"/>
    </g>
    <g id="matplotlib.axis_3">
     <g id="xtick_8">
      <g id="line2d_18">
       <defs>
        <path id="mca1c6cf063" d="M 0 0 
L 0 5 
" style="stroke: #2d4f73; stroke-width: 1.1"/>
       </defs>
       <g>
        <use xlink:href="#mca1c6cf063" x="317.641942" y="335.287986" style="fill: #2d4f73; stroke: #2d4f73; stroke-width: 1.1"/>
       </g>
      </g>
      <g id="text_16">
       <!-- 2.8 -->
       <g style="fill: #2d4f73" transform="translate(310.485535 350.62658) scale(0.09 -0.09)">
        <defs>
         <path id="DejaVuSans-38" d="M 2034 2216 
Q 1584 2216 1326 1975 
Q 1069 1734 1069 1313 
Q 1069 891 1326 650 
Q 1584 409 2034 409 
Q 2484 409 2743 651 
Q 3003 894 3003 1313 
Q 3003 1734 2745 1975 
Q 2488 2216 2034 2216 
z
M 1403 2484 
Q 997 2584 770 2862 
Q 544 3141 544 3541 
Q 544 4100 942 4425 
Q 1341 4750 2034 4750 
Q 2731 4750 3128 4425 
Q 3525 4100 3525 3541 
Q 3525 3141 3298 2862 
Q 3072 2584 2669 2484 
Q 3125 2378 3379 2068 
Q 3634 1759 3634 1313 
Q 3634 634 3220 271 
Q 2806 -91 2034 -91 
Q 1263 -91 848 271 
Q 434 634 434 1313 
Q 434 1759 690 2068 
Q 947 2378 1403 2484 
z
M 1172 3481 
Q 1172 3119 1398 2916 
Q 1625 2713 2034 2713 
Q 2441 2713 2670 2916 
Q 2900 3119 2900 3481 
Q 2900 3844 2670 4047 
Q 2441 4250 2034 4250 
Q 1625 4250 1398 4047 
Q 1172 3844 1172 3481 
z
" transform="scale(0.015625)"/>
        </defs>
        <use xlink:href="#DejaVuSans-32"/>
        <use xlink:href="#DejaVuSans-2e" transform="translate(63.623047 0)"/>
        <use xlink:href="#DejaVuSans-38" transform="translate(95.410156 0)"/>
       </g>
      </g>
     </g>
     <g id="xtick_9">
      <g id="line2d_19">
       <g>
        <use xlink:href="#mca1c6cf063" x="387.326979" y="335.287986" style="fill: #2d4f73; stroke: #2d4f73; stroke-width: 1.1"/>
       </g>
      </g>
      <g id="text_17">
       <!-- 3.0 -->
       <g style="fill: #2d4f73" transform="translate(380.170573 350.62658) scale(0.09 -0.09)">
        <use xlink:href="#DejaVuSans-33"/>
        <use xlink:href="#DejaVuSans-2e" transform="translate(63.623047 0)"/>
        <use xlink:href="#DejaVuSans-30" transform="translate(95.410156 0)"/>
       </g>
      </g>
     </g>
    </g>
    <g id="matplotlib.axis_4">
     <g id="ytick_7">
      <g id="line2d_20">
       <g>
        <use xlink:href="#mc9a7732ea7" x="282.799423" y="325.427135" style="fill: #2d4f73; stroke: #2d4f73; stroke-width: 1.1"/>
       </g>
      </g>
      <g id="text_18">
       <!-- 0.000 -->
       <g style="fill: #2d4f73" transform="translate(248.53411 328.846432) scale(0.09 -0.09)">
        <use xlink:href="#DejaVuSans-30"/>
        <use xlink:href="#DejaVuSans-2e" transform="translate(63.623047 0)"/>
        <use xlink:href="#DejaVuSans-30" transform="translate(95.410156 0)"/>
        <use xlink:href="#DejaVuSans-30" transform="translate(159.033203 0)"/>
        <use xlink:href="#DejaVuSans-30" transform="translate(222.65625 0)"/>
       </g>
      </g>
     </g>
     <g id="ytick_8">
      <g id="line2d_21">
       <g>
        <use xlink:href="#mc9a7732ea7" x="282.799423" y="269.059004" style="fill: #2d4f73; stroke: #2d4f73; stroke-width: 1.1"/>
       </g>
      </g>
      <g id="text_19">
       <!-- 0.006 -->
       <g style="fill: #2d4f73" transform="translate(248.53411 272.478301) scale(0.09 -0.09)">
        <defs>
         <path id="DejaVuSans-36" d="M 2113 2584 
Q 1688 2584 1439 2293 
Q 1191 2003 1191 1497 
Q 1191 994 1439 701 
Q 1688 409 2113 409 
Q 2538 409 2786 701 
Q 3034 994 3034 1497 
Q 3034 2003 2786 2293 
Q 2538 2584 2113 2584 
z
M 3366 4563 
L 3366 3988 
Q 3128 4100 2886 4159 
Q 2644 4219 2406 4219 
Q 1781 4219 1451 3797 
Q 1122 3375 1075 2522 
Q 1259 2794 1537 2939 
Q 1816 3084 2150 3084 
Q 2853 3084 3261 2657 
Q 3669 2231 3669 1497 
Q 3669 778 3244 343 
Q 2819 -91 2113 -91 
Q 1303 -91 875 529 
Q 447 1150 447 2328 
Q 447 3434 972 4092 
Q 1497 4750 2381 4750 
Q 2619 4750 2861 4703 
Q 3103 4656 3366 4563 
z
" transform="scale(0.015625)"/>
        </defs>
        <use xlink:href="#DejaVuSans-30"/>
        <use xlink:href="#DejaVuSans-2e" transform="translate(63.623047 0)"/>
        <use xlink:href="#DejaVuSans-30" transform="translate(95.410156 0)"/>
        <use xlink:href="#DejaVuSans-30" transform="translate(159.033203 0)"/>
        <use xlink:href="#DejaVuSans-36" transform="translate(222.65625 0)"/>
       </g>
      </g>
     </g>
     <g id="ytick_9">
      <g id="line2d_22">
       <g>
        <use xlink:href="#mc9a7732ea7" x="282.799423" y="212.690873" style="fill: #2d4f73; stroke: #2d4f73; stroke-width: 1.1"/>
       </g>
      </g>
      <g id="text_20">
       <!-- 0.012 -->
       <g style="fill: #2d4f73" transform="translate(248.53411 216.110169) scale(0.09 -0.09)">
        <use xlink:href="#DejaVuSans-30"/>
        <use xlink:href="#DejaVuSans-2e" transform="translate(63.623047 0)"/>
        <use xlink:href="#DejaVuSans-30" transform="translate(95.410156 0)"/>
        <use xlink:href="#DejaVuSans-31" transform="translate(159.033203 0)"/>
        <use xlink:href="#DejaVuSans-32" transform="translate(222.65625 0)"/>
       </g>
      </g>
     </g>
    </g>
    <g id="patch_10">
     <path d="M 282.799423 335.287986 
L 282.799423 179.979583 
" style="fill: none; stroke: #2d4f73; stroke-width: 1.2; stroke-linejoin: miter; stroke-linecap: square"/>
    </g>
    <g id="patch_11">
     <path d="M 439.590757 335.287986 
L 439.590757 179.979583 
" style="fill: none; stroke: #000000; stroke-width: 1.2; stroke-linejoin: miter; stroke-linecap: square"/>
    </g>
    <g id="patch_12">
     <path d="M 282.799423 335.287986 
L 439.590757 335.287986 
" style="fill: none; stroke: #000000; stroke-width: 1.2; stroke-linejoin: miter; stroke-linecap: square"/>
    </g>
    <g id="line2d_23">
     <path d="M 387.326979 335.287986 
L 387.326979 179.979583 
" clip-path="url(#p93c2bf72ef)" style="fill: none; stroke-dasharray: 1,1.65; stroke-dashoffset: 0; stroke: #888888"/>
    </g>
    <g id="text_21">
     <!-- near threshold -->
     <g style="fill: #444444" transform="translate(328.346496 176.979583) scale(0.09 -0.09)">
      <defs>
       <path id="DejaVuSans-6e" d="M 3513 2113 
L 3513 0 
L 2938 0 
L 2938 2094 
Q 2938 2591 2744 2837 
Q 2550 3084 2163 3084 
Q 1697 3084 1428 2787 
Q 1159 2491 1159 1978 
L 1159 0 
L 581 0 
L 581 3500 
L 1159 3500 
L 1159 2956 
Q 1366 3272 1645 3428 
Q 1925 3584 2291 3584 
Q 2894 3584 3203 3211 
Q 3513 2838 3513 2113 
z
" transform="scale(0.015625)"/>
       <path id="DejaVuSans-73" d="M 2834 3397 
L 2834 2853 
Q 2591 2978 2328 3040 
Q 2066 3103 1784 3103 
Q 1356 3103 1142 2972 
Q 928 2841 928 2578 
Q 928 2378 1081 2264 
Q 1234 2150 1697 2047 
L 1894 2003 
Q 2506 1872 2764 1633 
Q 3022 1394 3022 966 
Q 3022 478 2636 193 
Q 2250 -91 1575 -91 
Q 1294 -91 989 -36 
Q 684 19 347 128 
L 347 722 
Q 666 556 975 473 
Q 1284 391 1588 391 
Q 1994 391 2212 530 
Q 2431 669 2431 922 
Q 2431 1156 2273 1281 
Q 2116 1406 1581 1522 
L 1381 1569 
Q 847 1681 609 1914 
Q 372 2147 372 2553 
Q 372 3047 722 3315 
Q 1072 3584 1716 3584 
Q 2034 3584 2315 3537 
Q 2597 3491 2834 3397 
z
" transform="scale(0.015625)"/>
       <path id="DejaVuSans-6c" d="M 603 4863 
L 1178 4863 
L 1178 0 
L 603 0 
L 603 4863 
z
" transform="scale(0.015625)"/>
      </defs>
      <use xlink:href="#DejaVuSans-6e"/>
      <use xlink:href="#DejaVuSans-65" transform="translate(63.378906 0)"/>
      <use xlink:href="#DejaVuSans-61" transform="translate(124.902344 0)"/>
      <use xlink:href="#DejaVuSans-72" transform="translate(186.181641 0)"/>
      <use xlink:href="#DejaVuSans-20" transform="translate(227.294922 0)"/>
      <use xlink:href="#DejaVuSans-74" transform="translate(259.082031 0)"/>
      <use xlink:href="#DejaVuSans-68" transform="translate(298.291016 0)"/>
      <use xlink:href="#DejaVuSans-72" transform="translate(361.669922 0)"/>
      <use xlink:href="#DejaVuSans-65" transform="translate(400.533203 0)"/>
      <use xlink:href="#DejaVuSans-73" transform="translate(462.056641 0)"/>
      <use xlink:href="#DejaVuSans-68" transform="translate(514.15625 0)"/>
      <use xlink:href="#DejaVuSans-6f" transform="translate(577.535156 0)"/>
      <use xlink:href="#DejaVuSans-6c" transform="translate(638.716797 0)"/>
      <use xlink:href="#DejaVuSans-64" transform="translate(666.5 0)"/>
     </g>
    </g>
    <g id="line2d_24">
     <path d="M 283.217952 202.166498 
L 287.403239 212.673836 
L 291.588527 222.641999 
L 295.773814 232.082168 
L 299.959102 241.005223 
L 304.144389 249.421743 
L 308.329677 257.342022 
L 312.514964 264.776076 
L 316.700252 271.733655 
L 320.885539 278.224248 
L 325.070827 284.257095 
L 328.732954 289.16742 
L 332.39508 293.740056 
L 336.057207 297.98075 
L 339.719333 301.895117 
L 343.38146 305.48865 
L 347.043587 308.766717 
L 350.705713 311.734567 
L 354.36784 314.397335 
L 358.029966 316.76004 
L 361.692093 318.827595 
L 365.35422 320.604804 
L 368.493185 321.9006 
L 371.632151 322.989438 
L 374.771116 323.874165 
L 377.910082 324.557578 
L 381.049048 325.042422 
L 384.188013 325.331392 
L 387.85014 325.427135 
L 439.119912 325.427135 
L 439.119912 325.427135 
" clip-path="url(#p93c2bf72ef)" style="fill: none; stroke: #2d4f73; stroke-width: 1.8; stroke-linecap: square"/>
    </g>
   </g>
   <g id="legend_1">
    <g id="patch_13">
     <path d="M 243.649688 105.68274 
L 439.329688 105.68274 
Q 442.529688 105.68274 442.529688 102.48274 
L 442.529688 14.20024 
Q 442.529688 11.00024 439.329688 11.00024 
L 243.649688 11.00024 
Q 240.449688 11.00024 240.449688 14.20024 
L 240.449688 102.48274 
Q 240.449688 105.68274 243.649688 105.68274 
z
" style="fill: #ffffff; opacity: 0.92; stroke: #dddddd; stroke-linejoin: miter"/>
    </g>
    <g id="patch_14">
     <path d="M 246.849688 29.55774 
L 278.849688 29.55774 
L 278.849688 18.35774 
L 246.849688 18.35774 
z
" style="fill: #f5e6a3; stroke-dasharray: 7,4.2; stroke-dashoffset: 0; stroke: #cba810; stroke-width: 1.4; stroke-linejoin: miter"/>
    </g>
    <g id="text_22">
     <!-- $R(x) &gt; 0$ in $(K_1, K_2)$ -->
     <g transform="translate(291.649688 29.55774) scale(0.16 -0.16)">
      <defs>
       <path id="DejaVuSans-Oblique-52" d="M 1613 4147 
L 1294 2491 
L 2106 2491 
Q 2584 2491 2879 2755 
Q 3175 3019 3175 3444 
Q 3175 3784 2976 3965 
Q 2778 4147 2406 4147 
L 1613 4147 
z
M 2772 2241 
Q 2972 2194 3105 2009 
Q 3238 1825 3413 1275 
L 3809 0 
L 3144 0 
L 2778 1197 
Q 2638 1659 2453 1815 
Q 2269 1972 1888 1972 
L 1191 1972 
L 806 0 
L 172 0 
L 1081 4666 
L 2503 4666 
Q 3150 4666 3495 4373 
Q 3841 4081 3841 3531 
Q 3841 3044 3547 2687 
Q 3253 2331 2772 2241 
z
" transform="scale(0.015625)"/>
       <path id="DejaVuSans-28" d="M 1984 4856 
Q 1566 4138 1362 3434 
Q 1159 2731 1159 2009 
Q 1159 1288 1364 580 
Q 1569 -128 1984 -844 
L 1484 -844 
Q 1016 -109 783 600 
Q 550 1309 550 2009 
Q 550 2706 781 3412 
Q 1013 4119 1484 4856 
L 1984 4856 
z
" transform="scale(0.015625)"/>
       <path id="DejaVuSans-Oblique-78" d="M 3841 3500 
L 2234 1784 
L 3219 0 
L 2559 0 
L 1819 1388 
L 531 0 
L -166 0 
L 1556 1844 
L 641 3500 
L 1300 3500 
L 1972 2234 
L 3144 3500 
L 3841 3500 
z
" transform="scale(0.015625)"/>
       <path id="DejaVuSans-29" d="M 513 4856 
L 1013 4856 
Q 1481 4119 1714 3412 
Q 1947 2706 1947 2009 
Q 1947 1309 1714 600 
Q 1481 -109 1013 -844 
L 513 -844 
Q 928 -128 1133 580 
Q 1338 1288 1338 2009 
Q 1338 2731 1133 3434 
Q 928 4138 513 4856 
z
" transform="scale(0.015625)"/>
       <path id="DejaVuSans-3e" d="M 678 3150 
L 678 3719 
L 4684 2266 
L 4684 1747 
L 678 294 
L 678 863 
L 3897 2003 
L 678 3150 
z
" transform="scale(0.015625)"/>
       <path id="DejaVuSans-69" d="M 603 3500 
L 1178 3500 
L 1178 0 
L 603 0 
L 603 3500 
z
M 603 4863 
L 1178 4863 
L 1178 4134 
L 603 4134 
L 603 4863 
z
" transform="scale(0.015625)"/>
       <path id="DejaVuSans-Oblique-4b" d="M 1081 4666 
L 1716 4666 
L 1331 2700 
L 3781 4666 
L 4622 4666 
L 1850 2438 
L 3878 0 
L 3109 0 
L 1247 2272 
L 806 0 
L 172 0 
L 1081 4666 
z
" transform="scale(0.015625)"/>
       <path id="DejaVuSans-2c" d="M 750 794 
L 1409 794 
L 1409 256 
L 897 -744 
L 494 -744 
L 750 256 
L 750 794 
z
" transform="scale(0.015625)"/>
      </defs>
      <use xlink:href="#DejaVuSans-Oblique-52" transform="translate(0 0.015625)"/>
      <use xlink:href="#DejaVuSans-28" transform="translate(69.482422 0.015625)"/>
      <use xlink:href="#DejaVuSans-Oblique-78" transform="translate(108.496094 0.015625)"/>
      <use xlink:href="#DejaVuSans-29" transform="translate(167.675781 0.015625)"/>
      <use xlink:href="#DejaVuSans-3e" transform="translate(226.171875 0.015625)"/>
      <use xlink:href="#DejaVuSans-30" transform="translate(329.443359 0.015625)"/>
      <use xlink:href="#DejaVuSans-20" transform="translate(393.066406 0.015625)"/>
      <use xlink:href="#DejaVuSans-69" transform="translate(424.853516 0.015625)"/>
      <use xlink:href="#DejaVuSans-6e" transform="translate(452.636719 0.015625)"/>
      <use xlink:href="#DejaVuSans-20" transform="translate(516.015625 0.015625)"/>
      <use xlink:href="#DejaVuSans-28" transform="translate(547.802734 0.015625)"/>
      <use xlink:href="#DejaVuSans-Oblique-4b" transform="translate(586.816406 0.015625)"/>
      <use xlink:href="#DejaVuSans-31" transform="translate(652.392578 -16.390625) scale(0.7)"/>
      <use xlink:href="#DejaVuSans-2c" transform="translate(699.663086 0.015625)"/>
      <use xlink:href="#DejaVuSans-Oblique-4b" transform="translate(750.932617 0.015625)"/>
      <use xlink:href="#DejaVuSans-32" transform="translate(816.508789 -16.390625) scale(0.7)"/>
      <use xlink:href="#DejaVuSans-29" transform="translate(863.779297 0.015625)"/>
     </g>
    </g>
    <g id="line2d_25">
     <path d="M 246.849688 49.84524 
L 262.849688 49.84524 
L 278.849688 49.84524 
" style="fill: none; stroke: #2d4f73; stroke-width: 2.4; stroke-linecap: square"/>
    </g>
    <g id="text_23">
     <!-- $\max_p\, y^*$ -->
     <g transform="translate(291.649688 55.44524) scale(0.16 -0.16)">
      <use xlink:href="#DejaVuSans-6d" transform="translate(0 0.765625)"/>
      <use xlink:href="#DejaVuSans-61" transform="translate(97.412109 0.765625)"/>
      <use xlink:href="#DejaVuSans-78" transform="translate(158.691406 0.765625)"/>
      <use xlink:href="#DejaVuSans-Oblique-70" transform="translate(88 -58.60625) scale(0.7)"/>
      <use xlink:href="#DejaVuSans-Oblique-79" transform="translate(234.10677 0.765625)"/>
      <use xlink:href="#DejaVuSans-2a" transform="translate(297.752603 39.046875) scale(0.7)"/>
     </g>
    </g>
    <g id="line2d_26">
     <path d="M 246.849688 81.84274 
L 262.849688 81.84274 
L 278.849688 81.84274 
" style="fill: none; stroke: #901a1e; stroke-width: 2.4; stroke-linecap: square"/>
    </g>
    <g id="text_24">
     <!-- $\max_p\, \Lambda_{\rm inv}$ -->
     <g transform="translate(291.649688 87.44274) scale(0.16 -0.16)">
      <defs>
       <path id="DejaVuSans-39b" d="M 716 0 
L 50 0 
L 1831 4666 
L 2547 4666 
L 4325 0 
L 3669 0 
L 2188 4044 
L 716 0 
z
" transform="scale(0.015625)"/>
       <path id="DejaVuSans-76" d="M 191 3500 
L 800 3500 
L 1894 563 
L 2988 3500 
L 3597 3500 
L 2284 0 
L 1503 0 
L 191 3500 
z
" transform="scale(0.015625)"/>
      </defs>
      <use xlink:href="#DejaVuSans-6d" transform="translate(0 0.09375)"/>
      <use xlink:href="#DejaVuSans-61" transform="translate(97.412109 0.09375)"/>
      <use xlink:href="#DejaVuSans-78" transform="translate(158.691406 0.09375)"/>
      <use xlink:href="#DejaVuSans-Oblique-70" transform="translate(88 -59.278125) scale(0.7)"/>
      <use xlink:href="#DejaVuSans-39b" transform="translate(234.10677 0.09375)"/>
      <use xlink:href="#DejaVuSans-69" transform="translate(303.472004 -16.3125) scale(0.7)"/>
      <use xlink:href="#DejaVuSans-6e" transform="translate(322.920247 -16.3125) scale(0.7)"/>
      <use xlink:href="#DejaVuSans-76" transform="translate(367.285481 -16.3125) scale(0.7)"/>
     </g>
    </g>
   </g>
  </g>
  <g id="axes_3">
   <g id="patch_15">
    <path d="M 633.070312 364.182572 
L 997.701323 364.182572 
L 997.701323 3.00024 
L 633.070312 3.00024 
z
" style="fill: #ffffff"/>
   </g>
   <g id="patch_16">
    <path d="M 649.644449 364.182572 
L 754.113746 364.182572 
L 754.113746 3.00024 
L 649.644449 3.00024 
z
" clip-path="url(#pcf5fef7d7b)" style="fill: #f5e6a3; opacity: 0.75"/>
   </g>
   <g id="line2d_27">
    <path d="M 754.27957 364.182572 
L 754.27957 3.00024 
" clip-path="url(#pcf5fef7d7b)" style="fill: none; stroke-dasharray: 8,4.8; stroke-dashoffset: 0; stroke: #cba810; stroke-opacity: 0.9; stroke-width: 1.6"/>
   </g>
   <g id="matplotlib.axis_5">
    <g id="xtick_10">
     <g id="line2d_28">
      <g>
       <use xlink:href="#m570a731a0b" x="660.121166" y="364.182572" style="stroke: #000000; stroke-width: 1.1"/>
      </g>
     </g>
     <g id="text_25">
      <!-- 0.4 -->
      <g transform="translate(648.193823 384.080229) scale(0.15 -0.15)">
       <defs>
        <path id="DejaVuSans-34" d="M 2419 4116 
L 825 1625 
L 2419 1625 
L 2419 4116 
z
M 2253 4666 
L 3047 4666 
L 3047 1625 
L 3713 1625 
L 3713 1100 
L 3047 1100 
L 3047 0 
L 2419 0 
L 2419 1100 
L 313 1100 
L 313 1709 
L 2253 4666 
z
" transform="scale(0.015625)"/>
       </defs>
       <use xlink:href="#DejaVuSans-30"/>
       <use xlink:href="#DejaVuSans-2e" transform="translate(63.623047 0)"/>
       <use xlink:href="#DejaVuSans-34" transform="translate(95.410156 0)"/>
      </g>
     </g>
    </g>
    <g id="xtick_11">
     <g id="line2d_29">
      <g>
       <use xlink:href="#m570a731a0b" x="724.32237" y="364.182572" style="stroke: #000000; stroke-width: 1.1"/>
      </g>
     </g>
     <g id="text_26">
      <!-- 0.6 -->
      <g transform="translate(712.395026 384.080229) scale(0.15 -0.15)">
       <use xlink:href="#DejaVuSans-30"/>
       <use xlink:href="#DejaVuSans-2e" transform="translate(63.623047 0)"/>
       <use xlink:href="#DejaVuSans-36" transform="translate(95.410156 0)"/>
      </g>
     </g>
    </g>
    <g id="xtick_12">
     <g id="line2d_30">
      <g>
       <use xlink:href="#m570a731a0b" x="788.523574" y="364.182572" style="stroke: #000000; stroke-width: 1.1"/>
      </g>
     </g>
     <g id="text_27">
      <!-- 0.8 -->
      <g transform="translate(776.59623 384.080229) scale(0.15 -0.15)">
       <use xlink:href="#DejaVuSans-30"/>
       <use xlink:href="#DejaVuSans-2e" transform="translate(63.623047 0)"/>
       <use xlink:href="#DejaVuSans-38" transform="translate(95.410156 0)"/>
      </g>
     </g>
    </g>
    <g id="xtick_13">
     <g id="line2d_31">
      <g>
       <use xlink:href="#m570a731a0b" x="852.724778" y="364.182572" style="stroke: #000000; stroke-width: 1.1"/>
      </g>
     </g>
     <g id="text_28">
      <!-- 1.0 -->
      <g transform="translate(840.797434 384.080229) scale(0.15 -0.15)">
       <use xlink:href="#DejaVuSans-31"/>
       <use xlink:href="#DejaVuSans-2e" transform="translate(63.623047 0)"/>
       <use xlink:href="#DejaVuSans-30" transform="translate(95.410156 0)"/>
      </g>
     </g>
    </g>
    <g id="xtick_14">
     <g id="line2d_32">
      <g>
       <use xlink:href="#m570a731a0b" x="916.925982" y="364.182572" style="stroke: #000000; stroke-width: 1.1"/>
      </g>
     </g>
     <g id="text_29">
      <!-- 1.2 -->
      <g transform="translate(904.998638 384.080229) scale(0.15 -0.15)">
       <use xlink:href="#DejaVuSans-31"/>
       <use xlink:href="#DejaVuSans-2e" transform="translate(63.623047 0)"/>
       <use xlink:href="#DejaVuSans-32" transform="translate(95.410156 0)"/>
      </g>
     </g>
    </g>
    <g id="xtick_15">
     <g id="line2d_33">
      <g>
       <use xlink:href="#m570a731a0b" x="981.127186" y="364.182572" style="stroke: #000000; stroke-width: 1.1"/>
      </g>
     </g>
     <g id="text_30">
      <!-- 1.4 -->
      <g transform="translate(969.199842 384.080229) scale(0.15 -0.15)">
       <use xlink:href="#DejaVuSans-31"/>
       <use xlink:href="#DejaVuSans-2e" transform="translate(63.623047 0)"/>
       <use xlink:href="#DejaVuSans-34" transform="translate(95.410156 0)"/>
      </g>
     </g>
    </g>
    <g id="text_31">
     <!-- Shielding strength  $\alpha_B$ -->
     <g transform="translate(705.585818 410.39976) scale(0.2 -0.2)">
      <defs>
       <path id="DejaVuSans-53" d="M 3425 4513 
L 3425 3897 
Q 3066 4069 2747 4153 
Q 2428 4238 2131 4238 
Q 1616 4238 1336 4038 
Q 1056 3838 1056 3469 
Q 1056 3159 1242 3001 
Q 1428 2844 1947 2747 
L 2328 2669 
Q 3034 2534 3370 2195 
Q 3706 1856 3706 1288 
Q 3706 609 3251 259 
Q 2797 -91 1919 -91 
Q 1588 -91 1214 -16 
Q 841 59 441 206 
L 441 856 
Q 825 641 1194 531 
Q 1563 422 1919 422 
Q 2459 422 2753 634 
Q 3047 847 3047 1241 
Q 3047 1584 2836 1778 
Q 2625 1972 2144 2069 
L 1759 2144 
Q 1053 2284 737 2584 
Q 422 2884 422 3419 
Q 422 4038 858 4394 
Q 1294 4750 2059 4750 
Q 2388 4750 2728 4690 
Q 3069 4631 3425 4513 
z
" transform="scale(0.015625)"/>
       <path id="DejaVuSans-67" d="M 2906 1791 
Q 2906 2416 2648 2759 
Q 2391 3103 1925 3103 
Q 1463 3103 1205 2759 
Q 947 2416 947 1791 
Q 947 1169 1205 825 
Q 1463 481 1925 481 
Q 2391 481 2648 825 
Q 2906 1169 2906 1791 
z
M 3481 434 
Q 3481 -459 3084 -895 
Q 2688 -1331 1869 -1331 
Q 1566 -1331 1297 -1286 
Q 1028 -1241 775 -1147 
L 775 -588 
Q 1028 -725 1275 -790 
Q 1522 -856 1778 -856 
Q 2344 -856 2625 -561 
Q 2906 -266 2906 331 
L 2906 616 
Q 2728 306 2450 153 
Q 2172 0 1784 0 
Q 1141 0 747 490 
Q 353 981 353 1791 
Q 353 2603 747 3093 
Q 1141 3584 1784 3584 
Q 2172 3584 2450 3431 
Q 2728 3278 2906 2969 
L 2906 3500 
L 3481 3500 
L 3481 434 
z
" transform="scale(0.015625)"/>
       <path id="DejaVuSans-Oblique-3b1" d="M 2619 1628 
L 2622 2350 
Q 2625 3088 2069 3091 
Q 1653 3094 1394 2747 
Q 1069 2319 959 1747 
Q 825 1059 994 731 
Q 1169 397 1547 397 
Q 1966 397 2319 1063 
L 2619 1628 
z
M 2166 3578 
Q 3141 3594 3128 2584 
Q 3128 2584 3616 3500 
L 4128 3500 
L 3119 1603 
L 3109 919 
Q 3109 766 3194 638 
Q 3291 488 3391 488 
L 3669 488 
L 3575 0 
L 3228 0 
Q 2934 0 2722 263 
Q 2622 394 2619 669 
Q 2416 334 2066 50 
Q 1900 -81 1453 -78 
Q 722 -72 456 397 
Q 184 884 353 1747 
Q 534 2675 1009 3097 
Q 1544 3569 2166 3578 
z
" transform="scale(0.015625)"/>
       <path id="DejaVuSans-Oblique-42" d="M 1081 4666 
L 2694 4666 
Q 3350 4666 3675 4422 
Q 4000 4178 4000 3688 
Q 4000 3238 3720 2911 
Q 3441 2584 2988 2516 
Q 3375 2428 3569 2181 
Q 3763 1934 3763 1522 
Q 3763 819 3242 409 
Q 2722 0 1819 0 
L 172 0 
L 1081 4666 
z
M 1234 2228 
L 903 519 
L 1919 519 
Q 2491 519 2800 781 
Q 3109 1044 3109 1522 
Q 3109 1891 2904 2059 
Q 2700 2228 2247 2228 
L 1234 2228 
z
M 1606 4147 
L 1331 2741 
L 2272 2741 
Q 2775 2741 3058 2959 
Q 3341 3178 3341 3566 
Q 3341 3869 3150 4008 
Q 2959 4147 2541 4147 
L 1606 4147 
z
" transform="scale(0.015625)"/>
      </defs>
      <use xlink:href="#DejaVuSans-53" transform="translate(0 0.015625)"/>
      <use xlink:href="#DejaVuSans-68" transform="translate(63.476562 0.015625)"/>
      <use xlink:href="#DejaVuSans-69" transform="translate(126.855469 0.015625)"/>
      <use xlink:href="#DejaVuSans-65" transform="translate(154.638672 0.015625)"/>
      <use xlink:href="#DejaVuSans-6c" transform="translate(216.162109 0.015625)"/>
      <use xlink:href="#DejaVuSans-64" transform="translate(243.945312 0.015625)"/>
      <use xlink:href="#DejaVuSans-69" transform="translate(307.421875 0.015625)"/>
      <use xlink:href="#DejaVuSans-6e" transform="translate(335.205078 0.015625)"/>
      <use xlink:href="#DejaVuSans-67" transform="translate(398.583984 0.015625)"/>
      <use xlink:href="#DejaVuSans-20" transform="translate(462.060547 0.015625)"/>
      <use xlink:href="#DejaVuSans-73" transform="translate(493.847656 0.015625)"/>
      <use xlink:href="#DejaVuSans-74" transform="translate(545.947266 0.015625)"/>
      <use xlink:href="#DejaVuSans-72" transform="translate(585.15625 0.015625)"/>
      <use xlink:href="#DejaVuSans-65" transform="translate(626.269531 0.015625)"/>
      <use xlink:href="#DejaVuSans-6e" transform="translate(687.792969 0.015625)"/>
      <use xlink:href="#DejaVuSans-67" transform="translate(751.171875 0.015625)"/>
      <use xlink:href="#DejaVuSans-74" transform="translate(814.648438 0.015625)"/>
      <use xlink:href="#DejaVuSans-68" transform="translate(853.857422 0.015625)"/>
      <use xlink:href="#DejaVuSans-20" transform="translate(917.236328 0.015625)"/>
      <use xlink:href="#DejaVuSans-20" transform="translate(949.023438 0.015625)"/>
      <use xlink:href="#DejaVuSans-Oblique-3b1" transform="translate(980.810547 0.015625)"/>
      <use xlink:href="#DejaVuSans-Oblique-42" transform="translate(1046.728516 -16.390625) scale(0.7)"/>
     </g>
    </g>
   </g>
   <g id="matplotlib.axis_6">
    <g id="ytick_10">
     <g id="line2d_34">
      <g>
       <use xlink:href="#mc9a7732ea7" x="633.070312" y="364.182572" style="fill: #2d4f73; stroke: #2d4f73; stroke-width: 1.1"/>
      </g>
     </g>
     <g id="text_32">
      <!-- 0.00 -->
      <g style="fill: #2d4f73" transform="translate(591.171875 369.881401) scale(0.15 -0.15)">
       <use xlink:href="#DejaVuSans-30"/>
       <use xlink:href="#DejaVuSans-2e" transform="translate(63.623047 0)"/>
       <use xlink:href="#DejaVuSans-30" transform="translate(95.410156 0)"/>
       <use xlink:href="#DejaVuSans-30" transform="translate(159.033203 0)"/>
      </g>
     </g>
    </g>
    <g id="ytick_11">
     <g id="line2d_35">
      <g>
       <use xlink:href="#mc9a7732ea7" x="633.070312" y="313.871379" style="fill: #2d4f73; stroke: #2d4f73; stroke-width: 1.1"/>
      </g>
     </g>
     <g id="text_33">
      <!-- 0.02 -->
      <g style="fill: #2d4f73" transform="translate(591.171875 319.570207) scale(0.15 -0.15)">
       <use xlink:href="#DejaVuSans-30"/>
       <use xlink:href="#DejaVuSans-2e" transform="translate(63.623047 0)"/>
       <use xlink:href="#DejaVuSans-30" transform="translate(95.410156 0)"/>
       <use xlink:href="#DejaVuSans-32" transform="translate(159.033203 0)"/>
      </g>
     </g>
    </g>
    <g id="ytick_12">
     <g id="line2d_36">
      <g>
       <use xlink:href="#mc9a7732ea7" x="633.070312" y="263.560185" style="fill: #2d4f73; stroke: #2d4f73; stroke-width: 1.1"/>
      </g>
     </g>
     <g id="text_34">
      <!-- 0.04 -->
      <g style="fill: #2d4f73" transform="translate(591.171875 269.259013) scale(0.15 -0.15)">
       <use xlink:href="#DejaVuSans-30"/>
       <use xlink:href="#DejaVuSans-2e" transform="translate(63.623047 0)"/>
       <use xlink:href="#DejaVuSans-30" transform="translate(95.410156 0)"/>
       <use xlink:href="#DejaVuSans-34" transform="translate(159.033203 0)"/>
      </g>
     </g>
    </g>
    <g id="ytick_13">
     <g id="line2d_37">
      <g>
       <use xlink:href="#mc9a7732ea7" x="633.070312" y="213.248991" style="fill: #2d4f73; stroke: #2d4f73; stroke-width: 1.1"/>
      </g>
     </g>
     <g id="text_35">
      <!-- 0.06 -->
      <g style="fill: #2d4f73" transform="translate(591.171875 218.947819) scale(0.15 -0.15)">
       <use xlink:href="#DejaVuSans-30"/>
       <use xlink:href="#DejaVuSans-2e" transform="translate(63.623047 0)"/>
       <use xlink:href="#DejaVuSans-30" transform="translate(95.410156 0)"/>
       <use xlink:href="#DejaVuSans-36" transform="translate(159.033203 0)"/>
      </g>
     </g>
    </g>
    <g id="ytick_14">
     <g id="line2d_38">
      <g>
       <use xlink:href="#mc9a7732ea7" x="633.070312" y="162.937797" style="fill: #2d4f73; stroke: #2d4f73; stroke-width: 1.1"/>
      </g>
     </g>
     <g id="text_36">
      <!-- 0.08 -->
      <g style="fill: #2d4f73" transform="translate(591.171875 168.636625) scale(0.15 -0.15)">
       <use xlink:href="#DejaVuSans-30"/>
       <use xlink:href="#DejaVuSans-2e" transform="translate(63.623047 0)"/>
       <use xlink:href="#DejaVuSans-30" transform="translate(95.410156 0)"/>
       <use xlink:href="#DejaVuSans-38" transform="translate(159.033203 0)"/>
      </g>
     </g>
    </g>
    <g id="ytick_15">
     <g id="line2d_39">
      <g>
       <use xlink:href="#mc9a7732ea7" x="633.070312" y="112.626603" style="fill: #2d4f73; stroke: #2d4f73; stroke-width: 1.1"/>
      </g>
     </g>
     <g id="text_37">
      <!-- 0.10 -->
      <g style="fill: #2d4f73" transform="translate(591.171875 118.325431) scale(0.15 -0.15)">
       <use xlink:href="#DejaVuSans-30"/>
       <use xlink:href="#DejaVuSans-2e" transform="translate(63.623047 0)"/>
       <use xlink:href="#DejaVuSans-31" transform="translate(95.410156 0)"/>
       <use xlink:href="#DejaVuSans-30" transform="translate(159.033203 0)"/>
      </g>
     </g>
    </g>
    <g id="ytick_16">
     <g id="line2d_40">
      <g>
       <use xlink:href="#mc9a7732ea7" x="633.070312" y="62.315409" style="fill: #2d4f73; stroke: #2d4f73; stroke-width: 1.1"/>
      </g>
     </g>
     <g id="text_38">
      <!-- 0.12 -->
      <g style="fill: #2d4f73" transform="translate(591.171875 68.014237) scale(0.15 -0.15)">
       <use xlink:href="#DejaVuSans-30"/>
       <use xlink:href="#DejaVuSans-2e" transform="translate(63.623047 0)"/>
       <use xlink:href="#DejaVuSans-31" transform="translate(95.410156 0)"/>
       <use xlink:href="#DejaVuSans-32" transform="translate(159.033203 0)"/>
      </g>
     </g>
    </g>
    <g id="ytick_17">
     <g id="line2d_41">
      <g>
       <use xlink:href="#mc9a7732ea7" x="633.070312" y="12.004215" style="fill: #2d4f73; stroke: #2d4f73; stroke-width: 1.1"/>
      </g>
     </g>
     <g id="text_39">
      <!-- 0.14 -->
      <g style="fill: #2d4f73" transform="translate(591.171875 17.703043) scale(0.15 -0.15)">
       <use xlink:href="#DejaVuSans-30"/>
       <use xlink:href="#DejaVuSans-2e" transform="translate(63.623047 0)"/>
       <use xlink:href="#DejaVuSans-31" transform="translate(95.410156 0)"/>
       <use xlink:href="#DejaVuSans-34" transform="translate(159.033203 0)"/>
      </g>
     </g>
    </g>
    <g id="text_40">
     <!-- $\max_p\, y^*$ -->
     <g style="fill: #2d4f73" transform="translate(568.371875 218.791406) rotate(-90) scale(0.2 -0.2)">
      <use xlink:href="#DejaVuSans-6d" transform="translate(0 0.765625)"/>
      <use xlink:href="#DejaVuSans-61" transform="translate(97.412109 0.765625)"/>
      <use xlink:href="#DejaVuSans-78" transform="translate(158.691406 0.765625)"/>
      <use xlink:href="#DejaVuSans-Oblique-70" transform="translate(88 -58.60625) scale(0.7)"/>
      <use xlink:href="#DejaVuSans-Oblique-79" transform="translate(234.10677 0.765625)"/>
      <use xlink:href="#DejaVuSans-2a" transform="translate(297.752603 39.046875) scale(0.7)"/>
     </g>
    </g>
   </g>
   <g id="patch_17">
    <path d="M 633.070312 364.182572 
L 633.070312 3.00024 
" style="fill: none; stroke: #2d4f73; stroke-width: 1.2; stroke-linejoin: miter; stroke-linecap: square"/>
   </g>
   <g id="patch_18">
    <path d="M 997.701323 364.182572 
L 997.701323 3.00024 
" style="fill: none; stroke: #000000; stroke-width: 1.2; stroke-linejoin: miter; stroke-linecap: square"/>
   </g>
   <g id="patch_19">
    <path d="M 633.070312 364.182572 
L 997.701323 364.182572 
" style="fill: none; stroke: #000000; stroke-width: 1.2; stroke-linejoin: miter; stroke-linecap: square"/>
   </g>
   <g id="line2d_42">
    <path d="M 754.223176 364.182572 
L 754.223176 3.00024 
" clip-path="url(#pcf5fef7d7b)" style="fill: none; stroke-dasharray: 1.2,1.98; stroke-dashoffset: 0; stroke: #888888; stroke-width: 1.2"/>
   </g>
   <g id="patch_20">
    <path d="M 731.972734 364.61024 
L 765.348397 364.61024 
L 765.348397 357.874475 
L 731.972734 357.874475 
L 731.972734 364.61024 
z
M 829.971058 179.979583 
Q 780.971896 268.927029 731.972734 357.874475 
M 986.762392 335.287986 
Q 876.055394 349.949113 765.348397 364.61024 
" style="fill: none; opacity: 0.6; stroke: #aaaaaa; stroke-width: 0.8; stroke-linejoin: miter"/>
   </g>
   <g id="line2d_43">
    <path d="M 649.810274 20.199399 
L 652.463462 51.73406 
L 655.116651 80.490134 
L 657.769839 106.730605 
L 660.423028 130.690541 
L 663.076216 152.579079 
L 665.729405 172.584862 
L 668.382593 190.87486 
L 671.035781 207.599902 
L 673.68897 222.896527 
L 676.342158 236.886197 
L 678.995347 249.67993 
L 681.648535 261.376951 
L 684.301724 272.068098 
L 686.954912 281.835124 
L 689.608101 290.752469 
L 692.261289 298.887963 
L 694.914478 306.303071 
L 697.567666 313.054355 
L 700.220855 319.193051 
L 702.874043 324.766231 
L 705.527232 329.81627 
L 708.18042 334.38296 
L 710.833609 338.502796 
L 713.486797 342.208549 
L 716.139986 345.530641 
L 718.793174 348.497739 
L 721.446363 351.134582 
L 724.099551 353.465903 
L 726.75274 355.513532 
L 729.405928 357.297663 
L 732.059117 358.836727 
L 735.043954 360.297287 
L 738.028791 361.492845 
L 741.013628 362.44452 
L 743.998465 363.170339 
L 747.31495 363.734737 
L 750.631436 364.065248 
L 753.947922 364.182171 
L 845.814573 364.182572 
L 981.127186 364.182572 
L 981.127186 364.182572 
" clip-path="url(#pcf5fef7d7b)" style="fill: none; stroke: #2d4f73; stroke-width: 2.4; stroke-linecap: square"/>
   </g>
   <g id="axes_4">
    <g id="patch_21">
     <path d="M 829.971058 335.287986 
L 986.762392 335.287986 
L 986.762392 179.979583 
L 829.971058 179.979583 
z
" style="fill: #ffffff"/>
    </g>
    <g id="patch_22">
     <path d="M 829.597858 335.287986 
L 933.984537 335.287986 
L 933.984537 179.979583 
L 829.597858 179.979583 
z
" clip-path="url(#pe876ab0977)" style="fill: #f5e6a3; opacity: 0.75"/>
    </g>
    <g id="line2d_44">
     <path d="M 934.763542 335.287986 
L 934.763542 179.979583 
" clip-path="url(#pe876ab0977)" style="fill: none; stroke-dasharray: 8,4.8; stroke-dashoffset: 0; stroke: #cba810; stroke-opacity: 0.9; stroke-width: 1.6"/>
    </g>
    <g id="matplotlib.axis_7">
     <g id="xtick_16">
      <g id="line2d_45">
       <g>
        <use xlink:href="#mca1c6cf063" x="854.351929" y="335.287986" style="fill: #2d4f73; stroke: #2d4f73; stroke-width: 1.1"/>
       </g>
      </g>
      <g id="text_41">
       <!-- 0.64 -->
       <g style="fill: #2d4f73" transform="translate(844.332397 350.62658) scale(0.09 -0.09)">
        <use xlink:href="#DejaVuSans-30"/>
        <use xlink:href="#DejaVuSans-2e" transform="translate(63.623047 0)"/>
        <use xlink:href="#DejaVuSans-36" transform="translate(95.410156 0)"/>
        <use xlink:href="#DejaVuSans-34" transform="translate(159.033203 0)"/>
       </g>
      </g>
     </g>
     <g id="xtick_17">
      <g id="line2d_46">
       <g>
        <use xlink:href="#mca1c6cf063" x="914.672483" y="335.287986" style="fill: #2d4f73; stroke: #2d4f73; stroke-width: 1.1"/>
       </g>
      </g>
      <g id="text_42">
       <!-- 0.68 -->
       <g style="fill: #2d4f73" transform="translate(904.652952 350.62658) scale(0.09 -0.09)">
        <use xlink:href="#DejaVuSans-30"/>
        <use xlink:href="#DejaVuSans-2e" transform="translate(63.623047 0)"/>
        <use xlink:href="#DejaVuSans-36" transform="translate(95.410156 0)"/>
        <use xlink:href="#DejaVuSans-38" transform="translate(159.033203 0)"/>
       </g>
      </g>
     </g>
     <g id="xtick_18">
      <g id="line2d_47">
       <g>
        <use xlink:href="#mca1c6cf063" x="974.993038" y="335.287986" style="fill: #2d4f73; stroke: #2d4f73; stroke-width: 1.1"/>
       </g>
      </g>
      <g id="text_43">
       <!-- 0.72 -->
       <g style="fill: #2d4f73" transform="translate(964.973507 350.62658) scale(0.09 -0.09)">
        <use xlink:href="#DejaVuSans-30"/>
        <use xlink:href="#DejaVuSans-2e" transform="translate(63.623047 0)"/>
        <use xlink:href="#DejaVuSans-37" transform="translate(95.410156 0)"/>
        <use xlink:href="#DejaVuSans-32" transform="translate(159.033203 0)"/>
       </g>
      </g>
     </g>
    </g>
    <g id="matplotlib.axis_8">
     <g id="ytick_18">
      <g id="line2d_48">
       <g>
        <use xlink:href="#mc9a7732ea7" x="829.971058" y="325.427135" style="fill: #2d4f73; stroke: #2d4f73; stroke-width: 1.1"/>
       </g>
      </g>
      <g id="text_44">
       <!-- 0.000 -->
       <g style="fill: #2d4f73" transform="translate(795.705745 328.846432) scale(0.09 -0.09)">
        <use xlink:href="#DejaVuSans-30"/>
        <use xlink:href="#DejaVuSans-2e" transform="translate(63.623047 0)"/>
        <use xlink:href="#DejaVuSans-30" transform="translate(95.410156 0)"/>
        <use xlink:href="#DejaVuSans-30" transform="translate(159.033203 0)"/>
        <use xlink:href="#DejaVuSans-30" transform="translate(222.65625 0)"/>
       </g>
      </g>
     </g>
     <g id="ytick_19">
      <g id="line2d_49">
       <g>
        <use xlink:href="#mc9a7732ea7" x="829.971058" y="267.425177" style="fill: #2d4f73; stroke: #2d4f73; stroke-width: 1.1"/>
       </g>
      </g>
      <g id="text_45">
       <!-- 0.001 -->
       <g style="fill: #2d4f73" transform="translate(795.705745 270.844474) scale(0.09 -0.09)">
        <use xlink:href="#DejaVuSans-30"/>
        <use xlink:href="#DejaVuSans-2e" transform="translate(63.623047 0)"/>
        <use xlink:href="#DejaVuSans-30" transform="translate(95.410156 0)"/>
        <use xlink:href="#DejaVuSans-30" transform="translate(159.033203 0)"/>
        <use xlink:href="#DejaVuSans-31" transform="translate(222.65625 0)"/>
       </g>
      </g>
     </g>
     <g id="ytick_20">
      <g id="line2d_50">
       <g>
        <use xlink:href="#mc9a7732ea7" x="829.971058" y="209.423218" style="fill: #2d4f73; stroke: #2d4f73; stroke-width: 1.1"/>
       </g>
      </g>
      <g id="text_46">
       <!-- 0.002 -->
       <g style="fill: #2d4f73" transform="translate(795.705745 212.842515) scale(0.09 -0.09)">
        <use xlink:href="#DejaVuSans-30"/>
        <use xlink:href="#DejaVuSans-2e" transform="translate(63.623047 0)"/>
        <use xlink:href="#DejaVuSans-30" transform="translate(95.410156 0)"/>
        <use xlink:href="#DejaVuSans-30" transform="translate(159.033203 0)"/>
        <use xlink:href="#DejaVuSans-32" transform="translate(222.65625 0)"/>
       </g>
      </g>
     </g>
    </g>
    <g id="patch_23">
     <path d="M 829.971058 335.287986 
L 829.971058 179.979583 
" style="fill: none; stroke: #2d4f73; stroke-width: 1.2; stroke-linejoin: miter; stroke-linecap: square"/>
    </g>
    <g id="patch_24">
     <path d="M 986.762392 335.287986 
L 986.762392 179.979583 
" style="fill: none; stroke: #000000; stroke-width: 1.2; stroke-linejoin: miter; stroke-linecap: square"/>
    </g>
    <g id="patch_25">
     <path d="M 829.971058 335.287986 
L 986.762392 335.287986 
" style="fill: none; stroke: #000000; stroke-width: 1.2; stroke-linejoin: miter; stroke-linecap: square"/>
    </g>
    <g id="line2d_51">
     <path d="M 934.498614 335.287986 
L 934.498614 179.979583 
" clip-path="url(#pe876ab0977)" style="fill: none; stroke-dasharray: 1,1.65; stroke-dashoffset: 0; stroke: #888888"/>
    </g>
    <g id="text_47">
     <!-- near threshold -->
     <g style="fill: #444444" transform="translate(875.518131 176.979583) scale(0.09 -0.09)">
      <use xlink:href="#DejaVuSans-6e"/>
      <use xlink:href="#DejaVuSans-65" transform="translate(63.378906 0)"/>
      <use xlink:href="#DejaVuSans-61" transform="translate(124.902344 0)"/>
      <use xlink:href="#DejaVuSans-72" transform="translate(186.181641 0)"/>
      <use xlink:href="#DejaVuSans-20" transform="translate(227.294922 0)"/>
      <use xlink:href="#DejaVuSans-74" transform="translate(259.082031 0)"/>
      <use xlink:href="#DejaVuSans-68" transform="translate(298.291016 0)"/>
      <use xlink:href="#DejaVuSans-72" transform="translate(361.669922 0)"/>
      <use xlink:href="#DejaVuSans-65" transform="translate(400.533203 0)"/>
      <use xlink:href="#DejaVuSans-73" transform="translate(462.056641 0)"/>
      <use xlink:href="#DejaVuSans-68" transform="translate(514.15625 0)"/>
      <use xlink:href="#DejaVuSans-6f" transform="translate(577.535156 0)"/>
      <use xlink:href="#DejaVuSans-6c" transform="translate(638.716797 0)"/>
      <use xlink:href="#DejaVuSans-64" transform="translate(666.5 0)"/>
     </g>
    </g>
    <g id="line2d_52">
     <path d="M 830.376863 202.166498 
L 831.934874 206.227906 
L 833.492884 210.208838 
L 835.050894 214.110097 
L 836.608904 217.928088 
L 838.166914 221.66458 
L 839.724924 225.323538 
L 841.282934 228.905747 
L 842.840945 232.411985 
L 844.398955 235.843025 
L 845.956965 239.199634 
L 847.514975 242.482574 
L 849.072985 245.692604 
L 850.630995 248.828087 
L 852.189005 251.884651 
L 853.747015 254.870321 
L 855.305026 257.785836 
L 856.863036 260.63193 
L 858.421046 263.409333 
L 859.979056 266.118769 
L 861.537066 268.760958 
L 863.095076 271.329448 
L 864.653086 273.827604 
L 866.211096 276.260428 
L 867.769107 278.62862 
L 869.327117 280.93288 
L 870.885127 283.1739 
L 872.443137 285.352369 
L 874.001147 287.456182 
L 875.559157 289.498417 
L 877.117167 291.47993 
L 878.675177 293.401395 
L 880.233188 295.263479 
L 881.791198 297.066705 
L 883.349208 298.79779 
L 884.907218 300.471267 
L 886.465228 302.087788 
L 888.023238 303.648002 
L 889.581248 305.152552 
L 891.139258 306.594167 
L 892.697269 307.973861 
L 894.255279 309.299599 
L 895.813289 310.57201 
L 897.371299 311.791718 
L 898.929309 312.952855 
L 900.487319 314.052583 
L 902.045329 315.101264 
L 903.60334 316.099508 
L 905.16135 317.047922 
L 906.71936 317.937126 
L 908.27737 318.770283 
L 909.83538 319.555215 
L 911.39339 320.292514 
L 912.9514 320.982654 
L 914.50941 321.608294 
L 916.067421 322.187869 
L 917.625431 322.721958 
L 919.183441 323.211135 
L 920.741451 323.643804 
L 922.299461 324.025786 
L 923.857471 324.364379 
L 925.415481 324.660144 
L 926.973491 324.904623 
L 928.531502 325.096593 
L 930.089512 325.24722 
L 931.647522 325.357054 
L 933.205532 325.417883 
L 934.763542 325.427135 
L 936.321552 325.427135 
L 937.879562 325.427135 
L 939.437572 325.427135 
L 940.995583 325.427135 
L 942.553593 325.427135 
L 944.111603 325.427135 
L 945.669613 325.427135 
L 947.227623 325.427135 
L 948.785633 325.427135 
L 950.343643 325.427135 
L 951.901653 325.427135 
L 953.459664 325.427135 
L 955.017674 325.427135 
L 956.575684 325.427135 
L 958.133694 325.427135 
L 959.691704 325.427135 
L 961.249714 325.427135 
L 962.807724 325.427135 
L 964.365735 325.427135 
L 965.923745 325.427135 
L 967.481755 325.427135 
L 969.039765 325.427135 
L 970.597775 325.427135 
L 972.155785 325.427135 
L 973.713795 325.427135 
L 975.271805 325.427135 
L 976.829816 325.427135 
L 978.387826 325.427135 
L 979.945836 325.427135 
L 981.503846 325.427135 
L 983.061856 325.427135 
L 984.619866 325.427135 
L 986.177876 325.427135 
" clip-path="url(#pe876ab0977)" style="fill: none; stroke: #2d4f73; stroke-width: 1.8; stroke-linecap: square"/>
    </g>
   </g>
   <g id="legend_2">
    <g id="patch_26">
     <path d="M 790.821323 105.68274 
L 986.501323 105.68274 
Q 989.701323 105.68274 989.701323 102.48274 
L 989.701323 14.20024 
Q 989.701323 11.00024 986.501323 11.00024 
L 790.821323 11.00024 
Q 787.621323 11.00024 787.621323 14.20024 
L 787.621323 102.48274 
Q 787.621323 105.68274 790.821323 105.68274 
z
" style="fill: #ffffff; opacity: 0.92; stroke: #dddddd; stroke-linejoin: miter"/>
    </g>
    <g id="patch_27">
     <path d="M 794.021323 29.55774 
L 826.021323 29.55774 
L 826.021323 18.35774 
L 794.021323 18.35774 
z
" style="fill: #f5e6a3; stroke-dasharray: 7,4.2; stroke-dashoffset: 0; stroke: #cba810; stroke-width: 1.4; stroke-linejoin: miter"/>
    </g>
    <g id="text_48">
     <!-- $R(x) &gt; 0$ in $(K_1, K_2)$ -->
     <g transform="translate(838.821323 29.55774) scale(0.16 -0.16)">
      <use xlink:href="#DejaVuSans-Oblique-52" transform="translate(0 0.015625)"/>
      <use xlink:href="#DejaVuSans-28" transform="translate(69.482422 0.015625)"/>
      <use xlink:href="#DejaVuSans-Oblique-78" transform="translate(108.496094 0.015625)"/>
      <use xlink:href="#DejaVuSans-29" transform="translate(167.675781 0.015625)"/>
      <use xlink:href="#DejaVuSans-3e" transform="translate(226.171875 0.015625)"/>
      <use xlink:href="#DejaVuSans-30" transform="translate(329.443359 0.015625)"/>
      <use xlink:href="#DejaVuSans-20" transform="translate(393.066406 0.015625)"/>
      <use xlink:href="#DejaVuSans-69" transform="translate(424.853516 0.015625)"/>
      <use xlink:href="#DejaVuSans-6e" transform="translate(452.636719 0.015625)"/>
      <use xlink:href="#DejaVuSans-20" transform="translate(516.015625 0.015625)"/>
      <use xlink:href="#DejaVuSans-28" transform="translate(547.802734 0.015625)"/>
      <use xlink:href="#DejaVuSans-Oblique-4b" transform="translate(586.816406 0.015625)"/>
      <use xlink:href="#DejaVuSans-31" transform="translate(652.392578 -16.390625) scale(0.7)"/>
      <use xlink:href="#DejaVuSans-2c" transform="translate(699.663086 0.015625)"/>
      <use xlink:href="#DejaVuSans-Oblique-4b" transform="translate(750.932617 0.015625)"/>
      <use xlink:href="#DejaVuSans-32" transform="translate(816.508789 -16.390625) scale(0.7)"/>
      <use xlink:href="#DejaVuSans-29" transform="translate(863.779297 0.015625)"/>
     </g>
    </g>
    <g id="line2d_53">
     <path d="M 794.021323 49.84524 
L 810.021323 49.84524 
L 826.021323 49.84524 
" style="fill: none; stroke: #2d4f73; stroke-width: 2.4; stroke-linecap: square"/>
    </g>
    <g id="text_49">
     <!-- $\max_p\, y^*$ -->
     <g transform="translate(838.821323 55.44524) scale(0.16 -0.16)">
      <use xlink:href="#DejaVuSans-6d" transform="translate(0 0.765625)"/>
      <use xlink:href="#DejaVuSans-61" transform="translate(97.412109 0.765625)"/>
      <use xlink:href="#DejaVuSans-78" transform="translate(158.691406 0.765625)"/>
      <use xlink:href="#DejaVuSans-Oblique-70" transform="translate(88 -58.60625) scale(0.7)"/>
      <use xlink:href="#DejaVuSans-Oblique-79" transform="translate(234.10677 0.765625)"/>
      <use xlink:href="#DejaVuSans-2a" transform="translate(297.752603 39.046875) scale(0.7)"/>
     </g>
    </g>
    <g id="line2d_54">
     <path d="M 794.021323 81.84274 
L 810.021323 81.84274 
L 826.021323 81.84274 
" style="fill: none; stroke: #901a1e; stroke-width: 2.4; stroke-linecap: square"/>
    </g>
    <g id="text_50">
     <!-- $\max_p\, \Lambda_{\rm inv}$ -->
     <g transform="translate(838.821323 87.44274) scale(0.16 -0.16)">
      <use xlink:href="#DejaVuSans-6d" transform="translate(0 0.09375)"/>
      <use xlink:href="#DejaVuSans-61" transform="translate(97.412109 0.09375)"/>
      <use xlink:href="#DejaVuSans-78" transform="translate(158.691406 0.09375)"/>
      <use xlink:href="#DejaVuSans-Oblique-70" transform="translate(88 -59.278125) scale(0.7)"/>
      <use xlink:href="#DejaVuSans-39b" transform="translate(234.10677 0.09375)"/>
      <use xlink:href="#DejaVuSans-69" transform="translate(303.472004 -16.3125) scale(0.7)"/>
      <use xlink:href="#DejaVuSans-6e" transform="translate(322.920247 -16.3125) scale(0.7)"/>
      <use xlink:href="#DejaVuSans-76" transform="translate(367.285481 -16.3125) scale(0.7)"/>
     </g>
    </g>
   </g>
  </g>
  <g id="axes_5">
   <g id="matplotlib.axis_9">
    <g id="ytick_21">
     <g id="line2d_55">
      <defs>
       <path id="m64dba5a4e1" d="M 0 0 
L 5 0 
" style="stroke: #901a1e; stroke-width: 1.1"/>
      </defs>
      <g>
       <use xlink:href="#m64dba5a4e1" x="450.529688" y="364.182572" style="fill: #901a1e; stroke: #901a1e; stroke-width: 1.1"/>
      </g>
     </g>
     <g id="text_51">
      <!-- 0.000 -->
      <g style="fill: #901a1e" transform="translate(459.029688 369.881401) scale(0.15 -0.15)">
       <use xlink:href="#DejaVuSans-30"/>
       <use xlink:href="#DejaVuSans-2e" transform="translate(63.623047 0)"/>
       <use xlink:href="#DejaVuSans-30" transform="translate(95.410156 0)"/>
       <use xlink:href="#DejaVuSans-30" transform="translate(159.033203 0)"/>
       <use xlink:href="#DejaVuSans-30" transform="translate(222.65625 0)"/>
      </g>
     </g>
    </g>
    <g id="ytick_22">
     <g id="line2d_56">
      <g>
       <use xlink:href="#m64dba5a4e1" x="450.529688" y="314.132731" style="fill: #901a1e; stroke: #901a1e; stroke-width: 1.1"/>
      </g>
     </g>
     <g id="text_52">
      <!-- 0.025 -->
      <g style="fill: #901a1e" transform="translate(459.029688 319.831559) scale(0.15 -0.15)">
       <use xlink:href="#DejaVuSans-30"/>
       <use xlink:href="#DejaVuSans-2e" transform="translate(63.623047 0)"/>
       <use xlink:href="#DejaVuSans-30" transform="translate(95.410156 0)"/>
       <use xlink:href="#DejaVuSans-32" transform="translate(159.033203 0)"/>
       <use xlink:href="#DejaVuSans-35" transform="translate(222.65625 0)"/>
      </g>
     </g>
    </g>
    <g id="ytick_23">
     <g id="line2d_57">
      <g>
       <use xlink:href="#m64dba5a4e1" x="450.529688" y="264.082889" style="fill: #901a1e; stroke: #901a1e; stroke-width: 1.1"/>
      </g>
     </g>
     <g id="text_53">
      <!-- 0.050 -->
      <g style="fill: #901a1e" transform="translate(459.029688 269.781717) scale(0.15 -0.15)">
       <use xlink:href="#DejaVuSans-30"/>
       <use xlink:href="#DejaVuSans-2e" transform="translate(63.623047 0)"/>
       <use xlink:href="#DejaVuSans-30" transform="translate(95.410156 0)"/>
       <use xlink:href="#DejaVuSans-35" transform="translate(159.033203 0)"/>
       <use xlink:href="#DejaVuSans-30" transform="translate(222.65625 0)"/>
      </g>
     </g>
    </g>
    <g id="ytick_24">
     <g id="line2d_58">
      <g>
       <use xlink:href="#m64dba5a4e1" x="450.529688" y="214.033047" style="fill: #901a1e; stroke: #901a1e; stroke-width: 1.1"/>
      </g>
     </g>
     <g id="text_54">
      <!-- 0.075 -->
      <g style="fill: #901a1e" transform="translate(459.029688 219.731876) scale(0.15 -0.15)">
       <use xlink:href="#DejaVuSans-30"/>
       <use xlink:href="#DejaVuSans-2e" transform="translate(63.623047 0)"/>
       <use xlink:href="#DejaVuSans-30" transform="translate(95.410156 0)"/>
       <use xlink:href="#DejaVuSans-37" transform="translate(159.033203 0)"/>
       <use xlink:href="#DejaVuSans-35" transform="translate(222.65625 0)"/>
      </g>
     </g>
    </g>
    <g id="ytick_25">
     <g id="line2d_59">
      <g>
       <use xlink:href="#m64dba5a4e1" x="450.529688" y="163.983206" style="fill: #901a1e; stroke: #901a1e; stroke-width: 1.1"/>
      </g>
     </g>
     <g id="text_55">
      <!-- 0.100 -->
      <g style="fill: #901a1e" transform="translate(459.029688 169.682034) scale(0.15 -0.15)">
       <use xlink:href="#DejaVuSans-30"/>
       <use xlink:href="#DejaVuSans-2e" transform="translate(63.623047 0)"/>
       <use xlink:href="#DejaVuSans-31" transform="translate(95.410156 0)"/>
       <use xlink:href="#DejaVuSans-30" transform="translate(159.033203 0)"/>
       <use xlink:href="#DejaVuSans-30" transform="translate(222.65625 0)"/>
      </g>
     </g>
    </g>
    <g id="ytick_26">
     <g id="line2d_60">
      <g>
       <use xlink:href="#m64dba5a4e1" x="450.529688" y="113.933364" style="fill: #901a1e; stroke: #901a1e; stroke-width: 1.1"/>
      </g>
     </g>
     <g id="text_56">
      <!-- 0.125 -->
      <g style="fill: #901a1e" transform="translate(459.029688 119.632192) scale(0.15 -0.15)">
       <use xlink:href="#DejaVuSans-30"/>
       <use xlink:href="#DejaVuSans-2e" transform="translate(63.623047 0)"/>
       <use xlink:href="#DejaVuSans-31" transform="translate(95.410156 0)"/>
       <use xlink:href="#DejaVuSans-32" transform="translate(159.033203 0)"/>
       <use xlink:href="#DejaVuSans-35" transform="translate(222.65625 0)"/>
      </g>
     </g>
    </g>
    <g id="ytick_27">
     <g id="line2d_61">
      <g>
       <use xlink:href="#m64dba5a4e1" x="450.529688" y="63.883522" style="fill: #901a1e; stroke: #901a1e; stroke-width: 1.1"/>
      </g>
     </g>
     <g id="text_57">
      <!-- 0.150 -->
      <g style="fill: #901a1e" transform="translate(459.029688 69.582351) scale(0.15 -0.15)">
       <use xlink:href="#DejaVuSans-30"/>
       <use xlink:href="#DejaVuSans-2e" transform="translate(63.623047 0)"/>
       <use xlink:href="#DejaVuSans-31" transform="translate(95.410156 0)"/>
       <use xlink:href="#DejaVuSans-35" transform="translate(159.033203 0)"/>
       <use xlink:href="#DejaVuSans-30" transform="translate(222.65625 0)"/>
      </g>
     </g>
    </g>
    <g id="ytick_28">
     <g id="line2d_62">
      <g>
       <use xlink:href="#m64dba5a4e1" x="450.529688" y="13.833681" style="fill: #901a1e; stroke: #901a1e; stroke-width: 1.1"/>
      </g>
     </g>
     <g id="text_58">
      <!-- 0.175 -->
      <g style="fill: #901a1e" transform="translate(459.029688 19.532509) scale(0.15 -0.15)">
       <use xlink:href="#DejaVuSans-30"/>
       <use xlink:href="#DejaVuSans-2e" transform="translate(63.623047 0)"/>
       <use xlink:href="#DejaVuSans-31" transform="translate(95.410156 0)"/>
       <use xlink:href="#DejaVuSans-37" transform="translate(159.033203 0)"/>
       <use xlink:href="#DejaVuSans-35" transform="translate(222.65625 0)"/>
      </g>
     </g>
    </g>
    <g id="text_59">
     <!-- $\max_p\, \Lambda_{\rm inv}$ -->
     <g style="fill: #901a1e" transform="translate(524.571875 226.391406) rotate(-90) scale(0.2 -0.2)">
      <use xlink:href="#DejaVuSans-6d" transform="translate(0 0.09375)"/>
      <use xlink:href="#DejaVuSans-61" transform="translate(97.412109 0.09375)"/>
      <use xlink:href="#DejaVuSans-78" transform="translate(158.691406 0.09375)"/>
      <use xlink:href="#DejaVuSans-Oblique-70" transform="translate(88 -59.278125) scale(0.7)"/>
      <use xlink:href="#DejaVuSans-39b" transform="translate(234.10677 0.09375)"/>
      <use xlink:href="#DejaVuSans-69" transform="translate(303.472004 -16.3125) scale(0.7)"/>
      <use xlink:href="#DejaVuSans-6e" transform="translate(322.920247 -16.3125) scale(0.7)"/>
      <use xlink:href="#DejaVuSans-76" transform="translate(367.285481 -16.3125) scale(0.7)"/>
     </g>
    </g>
   </g>
   <g id="patch_28">
    <path d="M 85.898678 364.182572 
L 85.898678 3.00024 
" style="fill: none; stroke: #000000; stroke-width: 1.2; stroke-linejoin: miter; stroke-linecap: square"/>
   </g>
   <g id="patch_29">
    <path d="M 450.529688 364.182572 
L 450.529688 3.00024 
" style="fill: none; stroke: #901a1e; stroke-width: 1.2; stroke-linejoin: miter; stroke-linecap: square"/>
   </g>
   <g id="patch_30">
    <path d="M 85.898678 364.182572 
L 450.529688 364.182572 
" style="fill: none; stroke: #000000; stroke-width: 1.2; stroke-linejoin: miter; stroke-linecap: square"/>
   </g>
   <g id="line2d_63">
    <path d="M 102.638639 20.694942 
L 107.945016 40.21366 
L 113.583041 60.088715 
L 119.221067 79.104946 
L 124.527444 96.247358 
L 130.165469 113.68319 
L 135.471846 129.387561 
L 141.109872 145.345465 
L 146.416249 159.703232 
L 152.054274 174.274743 
L 157.360651 187.367035 
L 162.667028 199.872194 
L 167.973405 211.808434 
L 173.279782 223.191497 
L 178.917808 234.694598 
L 184.224185 244.979244 
L 189.198913 254.159271 
L 194.173641 262.90229 
L 199.14837 271.21951 
L 204.454747 279.630764 
L 209.761124 287.577891 
L 214.735852 294.618178 
L 219.710581 301.270951 
L 224.35366 307.137894 
L 228.99674 312.681029 
L 233.63982 317.907457 
L 238.614548 323.161521 
L 243.589277 328.066456 
L 248.564005 332.629631 
L 253.870382 337.125861 
L 258.845111 340.999022 
L 263.156542 344.097954 
L 267.467973 346.959076 
L 271.779405 349.586082 
L 276.422484 352.158636 
L 281.397213 354.621317 
L 286.040293 356.655641 
L 290.351724 358.318811 
L 294.994804 359.869924 
L 299.637884 361.176914 
L 304.280963 362.244137 
L 309.255692 363.123818 
L 314.23042 363.737328 
L 433.955551 374.588975 
L 433.955551 374.588975 
" clip-path="url(#p68f969a9c8)" style="fill: none; stroke: #901a1e; stroke-width: 2.4; stroke-linecap: square"/>
   </g>
  </g>
  <g id="axes_6">
   <g id="matplotlib.axis_10">
    <g id="ytick_29">
     <g id="line2d_64">
      <g>
       <use xlink:href="#m64dba5a4e1" x="997.701323" y="364.182572" style="fill: #901a1e; stroke: #901a1e; stroke-width: 1.1"/>
      </g>
     </g>
     <g id="text_60">
      <!-- 0.00 -->
      <g style="fill: #901a1e" transform="translate(1006.201323 369.881401) scale(0.15 -0.15)">
       <use xlink:href="#DejaVuSans-30"/>
       <use xlink:href="#DejaVuSans-2e" transform="translate(63.623047 0)"/>
       <use xlink:href="#DejaVuSans-30" transform="translate(95.410156 0)"/>
       <use xlink:href="#DejaVuSans-30" transform="translate(159.033203 0)"/>
      </g>
     </g>
    </g>
    <g id="ytick_30">
     <g id="line2d_65">
      <g>
       <use xlink:href="#m64dba5a4e1" x="997.701323" y="320.269714" style="fill: #901a1e; stroke: #901a1e; stroke-width: 1.1"/>
      </g>
     </g>
     <g id="text_61">
      <!-- 0.01 -->
      <g style="fill: #901a1e" transform="translate(1006.201323 325.968542) scale(0.15 -0.15)">
       <use xlink:href="#DejaVuSans-30"/>
       <use xlink:href="#DejaVuSans-2e" transform="translate(63.623047 0)"/>
       <use xlink:href="#DejaVuSans-30" transform="translate(95.410156 0)"/>
       <use xlink:href="#DejaVuSans-31" transform="translate(159.033203 0)"/>
      </g>
     </g>
    </g>
    <g id="ytick_31">
     <g id="line2d_66">
      <g>
       <use xlink:href="#m64dba5a4e1" x="997.701323" y="276.356855" style="fill: #901a1e; stroke: #901a1e; stroke-width: 1.1"/>
      </g>
     </g>
     <g id="text_62">
      <!-- 0.02 -->
      <g style="fill: #901a1e" transform="translate(1006.201323 282.055683) scale(0.15 -0.15)">
       <use xlink:href="#DejaVuSans-30"/>
       <use xlink:href="#DejaVuSans-2e" transform="translate(63.623047 0)"/>
       <use xlink:href="#DejaVuSans-30" transform="translate(95.410156 0)"/>
       <use xlink:href="#DejaVuSans-32" transform="translate(159.033203 0)"/>
      </g>
     </g>
    </g>
    <g id="ytick_32">
     <g id="line2d_67">
      <g>
       <use xlink:href="#m64dba5a4e1" x="997.701323" y="232.443996" style="fill: #901a1e; stroke: #901a1e; stroke-width: 1.1"/>
      </g>
     </g>
     <g id="text_63">
      <!-- 0.03 -->
      <g style="fill: #901a1e" transform="translate(1006.201323 238.142824) scale(0.15 -0.15)">
       <use xlink:href="#DejaVuSans-30"/>
       <use xlink:href="#DejaVuSans-2e" transform="translate(63.623047 0)"/>
       <use xlink:href="#DejaVuSans-30" transform="translate(95.410156 0)"/>
       <use xlink:href="#DejaVuSans-33" transform="translate(159.033203 0)"/>
      </g>
     </g>
    </g>
    <g id="ytick_33">
     <g id="line2d_68">
      <g>
       <use xlink:href="#m64dba5a4e1" x="997.701323" y="188.531137" style="fill: #901a1e; stroke: #901a1e; stroke-width: 1.1"/>
      </g>
     </g>
     <g id="text_64">
      <!-- 0.04 -->
      <g style="fill: #901a1e" transform="translate(1006.201323 194.229966) scale(0.15 -0.15)">
       <use xlink:href="#DejaVuSans-30"/>
       <use xlink:href="#DejaVuSans-2e" transform="translate(63.623047 0)"/>
       <use xlink:href="#DejaVuSans-30" transform="translate(95.410156 0)"/>
       <use xlink:href="#DejaVuSans-34" transform="translate(159.033203 0)"/>
      </g>
     </g>
    </g>
    <g id="ytick_34">
     <g id="line2d_69">
      <g>
       <use xlink:href="#m64dba5a4e1" x="997.701323" y="144.618279" style="fill: #901a1e; stroke: #901a1e; stroke-width: 1.1"/>
      </g>
     </g>
     <g id="text_65">
      <!-- 0.05 -->
      <g style="fill: #901a1e" transform="translate(1006.201323 150.317107) scale(0.15 -0.15)">
       <use xlink:href="#DejaVuSans-30"/>
       <use xlink:href="#DejaVuSans-2e" transform="translate(63.623047 0)"/>
       <use xlink:href="#DejaVuSans-30" transform="translate(95.410156 0)"/>
       <use xlink:href="#DejaVuSans-35" transform="translate(159.033203 0)"/>
      </g>
     </g>
    </g>
    <g id="ytick_35">
     <g id="line2d_70">
      <g>
       <use xlink:href="#m64dba5a4e1" x="997.701323" y="100.70542" style="fill: #901a1e; stroke: #901a1e; stroke-width: 1.1"/>
      </g>
     </g>
     <g id="text_66">
      <!-- 0.06 -->
      <g style="fill: #901a1e" transform="translate(1006.201323 106.404248) scale(0.15 -0.15)">
       <use xlink:href="#DejaVuSans-30"/>
       <use xlink:href="#DejaVuSans-2e" transform="translate(63.623047 0)"/>
       <use xlink:href="#DejaVuSans-30" transform="translate(95.410156 0)"/>
       <use xlink:href="#DejaVuSans-36" transform="translate(159.033203 0)"/>
      </g>
     </g>
    </g>
    <g id="ytick_36">
     <g id="line2d_71">
      <g>
       <use xlink:href="#m64dba5a4e1" x="997.701323" y="56.792561" style="fill: #901a1e; stroke: #901a1e; stroke-width: 1.1"/>
      </g>
     </g>
     <g id="text_67">
      <!-- 0.07 -->
      <g style="fill: #901a1e" transform="translate(1006.201323 62.491389) scale(0.15 -0.15)">
       <use xlink:href="#DejaVuSans-30"/>
       <use xlink:href="#DejaVuSans-2e" transform="translate(63.623047 0)"/>
       <use xlink:href="#DejaVuSans-30" transform="translate(95.410156 0)"/>
       <use xlink:href="#DejaVuSans-37" transform="translate(159.033203 0)"/>
      </g>
     </g>
    </g>
    <g id="ytick_37">
     <g id="line2d_72">
      <g>
       <use xlink:href="#m64dba5a4e1" x="997.701323" y="12.879702" style="fill: #901a1e; stroke: #901a1e; stroke-width: 1.1"/>
      </g>
     </g>
     <g id="text_68">
      <!-- 0.08 -->
      <g style="fill: #901a1e" transform="translate(1006.201323 18.57853) scale(0.15 -0.15)">
       <use xlink:href="#DejaVuSans-30"/>
       <use xlink:href="#DejaVuSans-2e" transform="translate(63.623047 0)"/>
       <use xlink:href="#DejaVuSans-30" transform="translate(95.410156 0)"/>
       <use xlink:href="#DejaVuSans-38" transform="translate(159.033203 0)"/>
      </g>
     </g>
    </g>
    <g id="text_69">
     <!-- $\max_p\, \Lambda_{\rm inv}$ -->
     <g style="fill: #901a1e" transform="translate(1062.19976 226.391406) rotate(-90) scale(0.2 -0.2)">
      <use xlink:href="#DejaVuSans-6d" transform="translate(0 0.09375)"/>
      <use xlink:href="#DejaVuSans-61" transform="translate(97.412109 0.09375)"/>
      <use xlink:href="#DejaVuSans-78" transform="translate(158.691406 0.09375)"/>
      <use xlink:href="#DejaVuSans-Oblique-70" transform="translate(88 -59.278125) scale(0.7)"/>
      <use xlink:href="#DejaVuSans-39b" transform="translate(234.10677 0.09375)"/>
      <use xlink:href="#DejaVuSans-69" transform="translate(303.472004 -16.3125) scale(0.7)"/>
      <use xlink:href="#DejaVuSans-6e" transform="translate(322.920247 -16.3125) scale(0.7)"/>
      <use xlink:href="#DejaVuSans-76" transform="translate(367.285481 -16.3125) scale(0.7)"/>
     </g>
    </g>
   </g>
   <g id="patch_31">
    <path d="M 633.070312 364.182572 
L 633.070312 3.00024 
" style="fill: none; stroke: #000000; stroke-width: 1.2; stroke-linejoin: miter; stroke-linecap: square"/>
   </g>
   <g id="patch_32">
    <path d="M 997.701323 364.182572 
L 997.701323 3.00024 
" style="fill: none; stroke: #901a1e; stroke-width: 1.2; stroke-linejoin: miter; stroke-linecap: square"/>
   </g>
   <g id="patch_33">
    <path d="M 633.070312 364.182572 
L 997.701323 364.182572 
" style="fill: none; stroke: #000000; stroke-width: 1.2; stroke-linejoin: miter; stroke-linecap: square"/>
   </g>
   <g id="line2d_73">
    <path d="M 649.810274 20.735583 
L 652.795111 48.866179 
L 655.779948 75.016473 
L 658.764785 99.331215 
L 661.749622 121.940565 
L 664.734459 142.963633 
L 667.719296 162.508239 
L 670.704133 180.674763 
L 673.68897 197.553812 
L 676.673807 213.228561 
L 679.658644 227.773797 
L 682.643481 241.263131 
L 685.628318 253.758882 
L 688.613155 265.321808 
L 691.597992 276.007867 
L 694.582829 285.868417 
L 697.567666 294.950459 
L 700.552503 303.29792 
L 703.53734 310.954109 
L 706.522177 317.95404 
L 709.507015 324.336016 
L 712.160203 329.51691 
L 714.813391 334.257087 
L 717.46658 338.576784 
L 720.119768 342.496357 
L 722.772957 346.034196 
L 725.426145 349.206929 
L 728.079334 352.03138 
L 730.732522 354.523673 
L 733.385711 356.698636 
L 736.038899 358.568392 
L 738.692088 360.148832 
L 741.345276 361.44963 
L 743.998465 362.484964 
L 746.651653 363.265696 
L 749.304842 363.801117 
L 751.95803 364.102796 
L 784.459589 366.245513 
L 818.619391 368.274481 
L 854.769084 370.197966 
L 893.240317 372.019426 
L 934.03309 373.725551 
L 977.479052 375.318297 
L 981.127186 375.442439 
L 981.127186 375.442439 
" clip-path="url(#pcf5fef7d7b)" style="fill: none; stroke: #901a1e; stroke-width: 2.4; stroke-linecap: square"/>
   </g>
  </g>
  <g id="axes_7">
   <g id="matplotlib.axis_11">
    <g id="ytick_38">
     <g id="line2d_74">
      <g>
       <use xlink:href="#m64dba5a4e1" x="439.590757" y="325.427135" style="fill: #901a1e; stroke: #901a1e; stroke-width: 1.1"/>
      </g>
     </g>
     <g id="text_70">
      <!-- 0.000 -->
      <g style="fill: #901a1e" transform="translate(448.090757 328.846432) scale(0.09 -0.09)">
       <use xlink:href="#DejaVuSans-30"/>
       <use xlink:href="#DejaVuSans-2e" transform="translate(63.623047 0)"/>
       <use xlink:href="#DejaVuSans-30" transform="translate(95.410156 0)"/>
       <use xlink:href="#DejaVuSans-30" transform="translate(159.033203 0)"/>
       <use xlink:href="#DejaVuSans-30" transform="translate(222.65625 0)"/>
      </g>
     </g>
    </g>
    <g id="ytick_39">
     <g id="line2d_75">
      <g>
       <use xlink:href="#m64dba5a4e1" x="439.590757" y="264.207799" style="fill: #901a1e; stroke: #901a1e; stroke-width: 1.1"/>
      </g>
     </g>
     <g id="text_71">
      <!-- 0.006 -->
      <g style="fill: #901a1e" transform="translate(448.090757 267.627096) scale(0.09 -0.09)">
       <use xlink:href="#DejaVuSans-30"/>
       <use xlink:href="#DejaVuSans-2e" transform="translate(63.623047 0)"/>
       <use xlink:href="#DejaVuSans-30" transform="translate(95.410156 0)"/>
       <use xlink:href="#DejaVuSans-30" transform="translate(159.033203 0)"/>
       <use xlink:href="#DejaVuSans-36" transform="translate(222.65625 0)"/>
      </g>
     </g>
    </g>
    <g id="ytick_40">
     <g id="line2d_76">
      <g>
       <use xlink:href="#m64dba5a4e1" x="439.590757" y="202.988464" style="fill: #901a1e; stroke: #901a1e; stroke-width: 1.1"/>
      </g>
     </g>
     <g id="text_72">
      <!-- 0.012 -->
      <g style="fill: #901a1e" transform="translate(448.090757 206.407761) scale(0.09 -0.09)">
       <use xlink:href="#DejaVuSans-30"/>
       <use xlink:href="#DejaVuSans-2e" transform="translate(63.623047 0)"/>
       <use xlink:href="#DejaVuSans-30" transform="translate(95.410156 0)"/>
       <use xlink:href="#DejaVuSans-31" transform="translate(159.033203 0)"/>
       <use xlink:href="#DejaVuSans-32" transform="translate(222.65625 0)"/>
      </g>
     </g>
    </g>
   </g>
   <g id="patch_34">
    <path d="M 282.799423 335.287986 
L 282.799423 179.979583 
" style="fill: none; stroke: #000000; stroke-width: 1.2; stroke-linejoin: miter; stroke-linecap: square"/>
   </g>
   <g id="patch_35">
    <path d="M 439.590757 335.287986 
L 439.590757 179.979583 
" style="fill: none; stroke: #901a1e; stroke-width: 1.2; stroke-linejoin: miter; stroke-linecap: square"/>
   </g>
   <g id="patch_36">
    <path d="M 282.799423 335.287986 
L 439.590757 335.287986 
" style="fill: none; stroke: #000000; stroke-width: 1.2; stroke-linejoin: miter; stroke-linecap: square"/>
   </g>
   <g id="line2d_77">
    <path d="M 283.217952 202.166498 
L 287.403239 212.259748 
L 291.588527 221.889074 
L 295.773814 231.059954 
L 299.959102 239.777949 
L 304.66755 249.044358 
L 308.852838 256.813417 
L 313.561286 265.022075 
L 317.746574 271.865442 
L 322.455022 279.03994 
L 327.163471 285.676339 
L 331.871919 291.780806 
L 336.580368 297.355843 
L 341.288816 302.403391 
L 344.950943 305.966506 
L 348.613069 309.236091 
L 351.752035 311.793812 
L 356.460484 315.203167 
L 360.12261 317.498093 
L 363.784737 319.509264 
L 366.400541 320.761556 
L 369.016346 321.863114 
L 371.632151 322.814814 
L 374.247956 323.617537 
L 439.119912 342.614528 
L 439.119912 342.614528 
" clip-path="url(#p93c2bf72ef)" style="fill: none; stroke: #901a1e; stroke-width: 1.8; stroke-linecap: square"/>
   </g>
  </g>
  <g id="axes_8">
   <g id="matplotlib.axis_12">
    <g id="ytick_41">
     <g id="line2d_78">
      <g>
       <use xlink:href="#m64dba5a4e1" x="986.762392" y="325.427135" style="fill: #901a1e; stroke: #901a1e; stroke-width: 1.1"/>
      </g>
     </g>
     <g id="text_73">
      <!-- 0.000 -->
      <g style="fill: #901a1e" transform="translate(995.262392 328.846432) scale(0.09 -0.09)">
       <use xlink:href="#DejaVuSans-30"/>
       <use xlink:href="#DejaVuSans-2e" transform="translate(63.623047 0)"/>
       <use xlink:href="#DejaVuSans-30" transform="translate(95.410156 0)"/>
       <use xlink:href="#DejaVuSans-30" transform="translate(159.033203 0)"/>
       <use xlink:href="#DejaVuSans-30" transform="translate(222.65625 0)"/>
      </g>
     </g>
    </g>
    <g id="ytick_42">
     <g id="line2d_79">
      <g>
       <use xlink:href="#m64dba5a4e1" x="986.762392" y="261.993368" style="fill: #901a1e; stroke: #901a1e; stroke-width: 1.1"/>
      </g>
     </g>
     <g id="text_74">
      <!-- 0.001 -->
      <g style="fill: #901a1e" transform="translate(995.262392 265.412665) scale(0.09 -0.09)">
       <use xlink:href="#DejaVuSans-30"/>
       <use xlink:href="#DejaVuSans-2e" transform="translate(63.623047 0)"/>
       <use xlink:href="#DejaVuSans-30" transform="translate(95.410156 0)"/>
       <use xlink:href="#DejaVuSans-30" transform="translate(159.033203 0)"/>
       <use xlink:href="#DejaVuSans-31" transform="translate(222.65625 0)"/>
      </g>
     </g>
    </g>
    <g id="ytick_43">
     <g id="line2d_80">
      <g>
       <use xlink:href="#m64dba5a4e1" x="986.762392" y="198.559601" style="fill: #901a1e; stroke: #901a1e; stroke-width: 1.1"/>
      </g>
     </g>
     <g id="text_75">
      <!-- 0.002 -->
      <g style="fill: #901a1e" transform="translate(995.262392 201.978898) scale(0.09 -0.09)">
       <use xlink:href="#DejaVuSans-30"/>
       <use xlink:href="#DejaVuSans-2e" transform="translate(63.623047 0)"/>
       <use xlink:href="#DejaVuSans-30" transform="translate(95.410156 0)"/>
       <use xlink:href="#DejaVuSans-30" transform="translate(159.033203 0)"/>
       <use xlink:href="#DejaVuSans-32" transform="translate(222.65625 0)"/>
      </g>
     </g>
    </g>
   </g>
   <g id="patch_37">
    <path d="M 829.971058 335.287986 
L 829.971058 179.979583 
" style="fill: none; stroke: #000000; stroke-width: 1.2; stroke-linejoin: miter; stroke-linecap: square"/>
   </g>
   <g id="patch_38">
    <path d="M 986.762392 335.287986 
L 986.762392 179.979583 
" style="fill: none; stroke: #901a1e; stroke-width: 1.2; stroke-linejoin: miter; stroke-linecap: square"/>
   </g>
   <g id="patch_39">
    <path d="M 829.971058 335.287986 
L 986.762392 335.287986 
" style="fill: none; stroke: #000000; stroke-width: 1.2; stroke-linejoin: miter; stroke-linecap: square"/>
   </g>
   <g id="line2d_81">
    <path d="M 830.376863 202.166498 
L 831.934874 206.055573 
L 833.492884 209.877795 
L 835.050894 213.633588 
L 836.608904 217.318876 
L 838.166914 220.926186 
L 839.724924 224.468302 
L 841.282934 227.945639 
L 842.840945 231.358609 
L 844.398955 234.70762 
L 845.956965 237.980913 
L 847.514975 241.185939 
L 849.072985 244.328198 
L 850.630995 247.408091 
L 852.189005 250.426013 
L 853.747015 253.376688 
L 855.305026 256.254209 
L 856.863036 259.070918 
L 858.421046 261.827201 
L 859.979056 264.523443 
L 861.537066 267.158238 
L 863.095076 269.717569 
L 864.653086 272.217983 
L 866.211096 274.659856 
L 867.769107 277.043559 
L 869.327117 279.369057 
L 870.885127 281.619246 
L 872.443137 283.81236 
L 874.001147 285.94876 
L 875.559157 288.028808 
L 877.117167 290.051438 
L 878.675177 292.001278 
L 880.233188 293.895829 
L 881.791198 295.735443 
L 883.349208 297.520468 
L 884.907218 299.246509 
L 886.465228 300.904546 
L 888.023238 302.509028 
L 889.581248 304.060295 
L 891.139258 305.558685 
L 892.697269 306.994272 
L 894.255279 308.368811 
L 895.813289 309.691477 
L 897.371299 310.962601 
L 898.929309 312.182512 
L 900.487319 313.333638 
L 902.045329 314.432749 
L 903.60334 315.481623 
L 905.16135 316.480578 
L 906.71936 317.421964 
L 908.27737 318.302456 
L 909.83538 319.133986 
L 911.39339 319.916864 
L 912.9514 320.651401 
L 914.50941 321.31856 
L 916.067421 321.937547 
L 917.625431 322.509122 
L 919.183441 323.033586 
L 920.741451 323.498651 
L 922.299461 323.909795 
L 923.857471 324.274737 
L 925.415481 324.606747 
L 926.973491 324.938412 
L 928.531502 325.269733 
L 930.089512 325.600711 
L 931.647522 325.931345 
L 933.205532 326.261635 
L 934.763542 326.591583 
L 936.321552 326.921189 
L 937.879562 327.250452 
L 939.437572 327.579374 
L 940.995583 327.907954 
L 942.553593 328.236193 
L 944.111603 328.564092 
L 945.669613 328.891651 
L 947.227623 329.218869 
L 948.785633 329.545748 
L 950.343643 329.872288 
L 951.901653 330.198488 
L 953.459664 330.524351 
L 955.017674 330.849875 
L 956.575684 331.175061 
L 958.133694 331.49991 
L 959.691704 331.824421 
L 961.249714 332.148596 
L 962.807724 332.472434 
L 964.365735 332.795937 
L 965.923745 333.119103 
L 967.481755 333.441934 
L 969.039765 333.764431 
L 970.597775 334.086592 
L 972.155785 334.408419 
L 973.713795 334.729912 
L 975.271805 335.051072 
L 976.829816 335.371898 
L 978.387826 335.692391 
L 979.945836 336.012552 
L 981.503846 336.33238 
L 983.061856 336.651876 
L 984.619866 336.971041 
L 986.177876 337.289875 
" clip-path="url(#pe876ab0977)" style="fill: none; stroke: #901a1e; stroke-width: 1.8; stroke-linecap: square"/>
   </g>
  </g>
 </g>
 <defs>
  <clipPath id="p68f969a9c8">
   <rect x="85.898678" y="3.00024" width="364.63101" height="361.182332"/>
  </clipPath>
  <clipPath id="p93c2bf72ef">
   <rect x="282.799423" y="179.979583" width="156.791334" height="155.308403"/>
  </clipPath>
  <clipPath id="pcf5fef7d7b">
   <rect x="633.070312" y="3.00024" width="364.63101" height="361.182332"/>
  </clipPath>
  <clipPath id="pe876ab0977">
   <rect x="829.971058" y="179.979583" width="156.791334" height="155.308403"/>
  </clipPath>
 </defs>
</svg>
