<?xml version="1.0" encoding="utf-8" standalone="no"?>
<!DOCTYPE svg PUBLIC "-//W3C//DTD SVG 1.1//EN"
  "http://www.w3.org/Graphics/SVG/1.1/DTD/svg11.dtd">
<svg xmlns:xlink="http://www.w3.org/1999/xlink" width="1448.39952pt" height="440.39952pt" viewBox="0 0 1448.39952 440.39952" xmlns="http://www.w3.org/2000/svg" version="1.1">
 <metadata>
  <rdf:RDF xmlns:dc="http://purl.org/dc/elements/1.1/" xmlns:cc="http://creativecommons.org/ns#" xmlns:rdf="http://www.w3.org/1999/02/22-rdf-syntax-ns#">
   <cc:Work>
    <dc:type rdf:resource="http://purl.org/dc/dcmitype/StillImage"/>
    <dc:date>2026-06-06T16:17:05.313368</dc:date>
    <dc:format>image/svg+xml</dc:format>
    <dc:creator>
     <cc:Agent>
      <dc:title>Matplotlib v3.10.9, https://matplotlib.org/</dc:title>
     </cc:Agent>
    </dc:creator>
   </cc:Work>
  </rdf:RDF>
 </metadata>
 <defs>
  <style type="text/css">*{stroke-linejoin: round; stroke-linecap: butt}</style>
 </defs>
 <g id="figure_1">
  <g id="patch_1">
   <path d="M 0 440.39952 
L 1448.39952 440.39952 
L 1448.39952 0 
L 0 0 
L 0 440.39952 
z
" style="fill: none"/>
  </g>
  <g id="axes_1">
   <g id="patch_2">
    <path d="M 83.249063 383.438895 
L 464.679215 383.438895 
L 464.679215 7.2 
L 83.249063 7.2 
L 83.249063 383.438895 
z
" style="fill: none"/>
   </g>
   <g id="matplotlib.axis_1">
    <g id="xtick_1">
     <g id="line2d_1">
      <path d="M 83.249063 383.438895 
L 83.249063 7.2 
" clip-path="url(#p5d7916a061)" style="fill: none; stroke-dasharray: 2.96,1.28; stroke-dashoffset: 0; stroke: #b0b0b0; stroke-opacity: 0.25; stroke-width: 0.8"/>
     </g>
     <g id="line2d_2">
      <defs>
       <path id="m945a92386a" d="M 0 0 
L 0 3.5 
" style="stroke: #000000; stroke-width: 0.8"/>
      </defs>
      <g>
       <use xlink:href="#m945a92386a" x="83.249063" y="383.438895" style="stroke: #000000; stroke-width: 0.8"/>
      </g>
     </g>
     <g id="text_1">
      <!-- 0.0 -->
      <g transform="translate(68.93625 404.116082) scale(0.18 -0.18)">
       <defs>
        <path id="DejaVuSans-30" d="M 2034 4250 
Q 1547 4250 1301 3770 
Q 1056 3291 1056 2328 
Q 1056 1369 1301 889 
Q 1547 409 2034 409 
Q 2525 409 2770 889 
Q 3016 1369 3016 2328 
Q 3016 3291 2770 3770 
Q 2525 4250 2034 4250 
z
M 2034 4750 
Q 2819 4750 3233 4129 
Q 3647 3509 3647 2328 
Q 3647 1150 3233 529 
Q 2819 -91 2034 -91 
Q 1250 -91 836 529 
Q 422 1150 422 2328 
Q 422 3509 836 4129 
Q 1250 4750 2034 4750 
z
" transform="scale(0.015625)"/>
        <path id="DejaVuSans-2e" d="M 684 794 
L 1344 794 
L 1344 0 
L 684 0 
L 684 794 
z
" transform="scale(0.015625)"/>
       </defs>
       <use xlink:href="#DejaVuSans-30"/>
       <use xlink:href="#DejaVuSans-2e" transform="translate(63.623047 0)"/>
       <use xlink:href="#DejaVuSans-30" transform="translate(95.410156 0)"/>
      </g>
     </g>
    </g>
    <g id="xtick_2">
     <g id="line2d_3">
      <path d="M 159.535093 383.438895 
L 159.535093 7.2 
" clip-path="url(#p5d7916a061)" style="fill: none; stroke-dasharray: 2.96,1.28; stroke-dashoffset: 0; stroke: #b0b0b0; stroke-opacity: 0.25; stroke-width: 0.8"/>
     </g>
     <g id="line2d_4">
      <g>
       <use xlink:href="#m945a92386a" x="159.535093" y="383.438895" style="stroke: #000000; stroke-width: 0.8"/>
      </g>
     </g>
     <g id="text_2">
      <!-- 0.2 -->
      <g transform="translate(145.222281 404.116082) scale(0.18 -0.18)">
       <defs>
        <path id="DejaVuSans-32" d="M 1228 531 
L 3431 531 
L 3431 0 
L 469 0 
L 469 531 
Q 828 903 1448 1529 
Q 2069 2156 2228 2338 
Q 2531 2678 2651 2914 
Q 2772 3150 2772 3378 
Q 2772 3750 2511 3984 
Q 2250 4219 1831 4219 
Q 1534 4219 1204 4116 
Q 875 4013 500 3803 
L 500 4441 
Q 881 4594 1212 4672 
Q 1544 4750 1819 4750 
Q 2544 4750 2975 4387 
Q 3406 4025 3406 3419 
Q 3406 3131 3298 2873 
Q 3191 2616 2906 2266 
Q 2828 2175 2409 1742 
Q 1991 1309 1228 531 
z
" transform="scale(0.015625)"/>
       </defs>
       <use xlink:href="#DejaVuSans-30"/>
       <use xlink:href="#DejaVuSans-2e" transform="translate(63.623047 0)"/>
       <use xlink:href="#DejaVuSans-32" transform="translate(95.410156 0)"/>
      </g>
     </g>
    </g>
    <g id="xtick_3">
     <g id="line2d_5">
      <path d="M 235.821123 383.438895 
L 235.821123 7.2 
" clip-path="url(#p5d7916a061)" style="fill: none; stroke-dasharray: 2.96,1.28; stroke-dashoffset: 0; stroke: #b0b0b0; stroke-opacity: 0.25; stroke-width: 0.8"/>
     </g>
     <g id="line2d_6">
      <g>
       <use xlink:href="#m945a92386a" x="235.821123" y="383.438895" style="stroke: #000000; stroke-width: 0.8"/>
      </g>
     </g>
     <g id="text_3">
      <!-- 0.4 -->
      <g transform="translate(221.508311 404.116082) scale(0.18 -0.18)">
       <defs>
        <path id="DejaVuSans-34" d="M 2419 4116 
L 825 1625 
L 2419 1625 
L 2419 4116 
z
M 2253 4666 
L 3047 4666 
L 3047 1625 
L 3713 1625 
L 3713 1100 
L 3047 1100 
L 3047 0 
L 2419 0 
L 2419 1100 
L 313 1100 
L 313 1709 
L 2253 4666 
z
" transform="scale(0.015625)"/>
       </defs>
       <use xlink:href="#DejaVuSans-30"/>
       <use xlink:href="#DejaVuSans-2e" transform="translate(63.623047 0)"/>
       <use xlink:href="#DejaVuSans-34" transform="translate(95.410156 0)"/>
      </g>
     </g>
    </g>
    <g id="xtick_4">
     <g id="line2d_7">
      <path d="M 312.107154 383.438895 
L 312.107154 7.2 
" clip-path="url(#p5d7916a061)" style="fill: none; stroke-dasharray: 2.96,1.28; stroke-dashoffset: 0; stroke: #b0b0b0; stroke-opacity: 0.25; stroke-width: 0.8"/>
     </g>
     <g id="line2d_8">
      <g>
       <use xlink:href="#m945a92386a" x="312.107154" y="383.438895" style="stroke: #000000; stroke-width: 0.8"/>
      </g>
     </g>
     <g id="text_4">
      <!-- 0.6 -->
      <g transform="translate(297.794342 404.116082) scale(0.18 -0.18)">
       <defs>
        <path id="DejaVuSans-36" d="M 2113 2584 
Q 1688 2584 1439 2293 
Q 1191 2003 1191 1497 
Q 1191 994 1439 701 
Q 1688 409 2113 409 
Q 2538 409 2786 701 
Q 3034 994 3034 1497 
Q 3034 2003 2786 2293 
Q 2538 2584 2113 2584 
z
M 3366 4563 
L 3366 3988 
Q 3128 4100 2886 4159 
Q 2644 4219 2406 4219 
Q 1781 4219 1451 3797 
Q 1122 3375 1075 2522 
Q 1259 2794 1537 2939 
Q 1816 3084 2150 3084 
Q 2853 3084 3261 2657 
Q 3669 2231 3669 1497 
Q 3669 778 3244 343 
Q 2819 -91 2113 -91 
Q 1303 -91 875 529 
Q 447 1150 447 2328 
Q 447 3434 972 4092 
Q 1497 4750 2381 4750 
Q 2619 4750 2861 4703 
Q 3103 4656 3366 4563 
z
" transform="scale(0.015625)"/>
       </defs>
       <use xlink:href="#DejaVuSans-30"/>
       <use xlink:href="#DejaVuSans-2e" transform="translate(63.623047 0)"/>
       <use xlink:href="#DejaVuSans-36" transform="translate(95.410156 0)"/>
      </g>
     </g>
    </g>
    <g id="xtick_5">
     <g id="line2d_9">
      <path d="M 388.393184 383.438895 
L 388.393184 7.2 
" clip-path="url(#p5d7916a061)" style="fill: none; stroke-dasharray: 2.96,1.28; stroke-dashoffset: 0; stroke: #b0b0b0; stroke-opacity: 0.25; stroke-width: 0.8"/>
     </g>
     <g id="line2d_10">
      <g>
       <use xlink:href="#m945a92386a" x="388.393184" y="383.438895" style="stroke: #000000; stroke-width: 0.8"/>
      </g>
     </g>
     <g id="text_5">
      <!-- 0.8 -->
      <g transform="translate(374.080372 404.116082) scale(0.18 -0.18)">
       <defs>
        <path id="DejaVuSans-38" d="M 2034 2216 
Q 1584 2216 1326 1975 
Q 1069 1734 1069 1313 
Q 1069 891 1326 650 
Q 1584 409 2034 409 
Q 2484 409 2743 651 
Q 3003 894 3003 1313 
Q 3003 1734 2745 1975 
Q 2488 2216 2034 2216 
z
M 1403 2484 
Q 997 2584 770 2862 
Q 544 3141 544 3541 
Q 544 4100 942 4425 
Q 1341 4750 2034 4750 
Q 2731 4750 3128 4425 
Q 3525 4100 3525 3541 
Q 3525 3141 3298 2862 
Q 3072 2584 2669 2484 
Q 3125 2378 3379 2068 
Q 3634 1759 3634 1313 
Q 3634 634 3220 271 
Q 2806 -91 2034 -91 
Q 1263 -91 848 271 
Q 434 634 434 1313 
Q 434 1759 690 2068 
Q 947 2378 1403 2484 
z
M 1172 3481 
Q 1172 3119 1398 2916 
Q 1625 2713 2034 2713 
Q 2441 2713 2670 2916 
Q 2900 3119 2900 3481 
Q 2900 3844 2670 4047 
Q 2441 4250 2034 4250 
Q 1625 4250 1398 4047 
Q 1172 3844 1172 3481 
z
" transform="scale(0.015625)"/>
       </defs>
       <use xlink:href="#DejaVuSans-30"/>
       <use xlink:href="#DejaVuSans-2e" transform="translate(63.623047 0)"/>
       <use xlink:href="#DejaVuSans-38" transform="translate(95.410156 0)"/>
      </g>
     </g>
    </g>
    <g id="xtick_6">
     <g id="line2d_11">
      <path d="M 464.679215 383.438895 
L 464.679215 7.2 
" clip-path="url(#p5d7916a061)" style="fill: none; stroke-dasharray: 2.96,1.28; stroke-dashoffset: 0; stroke: #b0b0b0; stroke-opacity: 0.25; stroke-width: 0.8"/>
     </g>
     <g id="line2d_12">
      <g>
       <use xlink:href="#m945a92386a" x="464.679215" y="383.438895" style="stroke: #000000; stroke-width: 0.8"/>
      </g>
     </g>
     <g id="text_6">
      <!-- 1.0 -->
      <g transform="translate(450.366402 404.116082) scale(0.18 -0.18)">
       <defs>
        <path id="DejaVuSans-31" d="M 794 531 
L 1825 531 
L 1825 4091 
L 703 3866 
L 703 4441 
L 1819 4666 
L 2450 4666 
L 2450 531 
L 3481 531 
L 3481 0 
L 794 0 
L 794 531 
z
" transform="scale(0.015625)"/>
       </defs>
       <use xlink:href="#DejaVuSans-31"/>
       <use xlink:href="#DejaVuSans-2e" transform="translate(63.623047 0)"/>
       <use xlink:href="#DejaVuSans-30" transform="translate(95.410156 0)"/>
      </g>
     </g>
    </g>
    <g id="text_7">
     <!-- Duty cycle $p$ -->
     <g transform="translate(205.214139 428.57952) scale(0.22 -0.22)">
      <defs>
       <path id="DejaVuSans-44" d="M 1259 4147 
L 1259 519 
L 2022 519 
Q 2988 519 3436 956 
Q 3884 1394 3884 2338 
Q 3884 3275 3436 3711 
Q 2988 4147 2022 4147 
L 1259 4147 
z
M 628 4666 
L 1925 4666 
Q 3281 4666 3915 4102 
Q 4550 3538 4550 2338 
Q 4550 1131 3912 565 
Q 3275 0 1925 0 
L 628 0 
L 628 4666 
z
" transform="scale(0.015625)"/>
       <path id="DejaVuSans-75" d="M 544 1381 
L 544 3500 
L 1119 3500 
L 1119 1403 
Q 1119 906 1312 657 
Q 1506 409 1894 409 
Q 2359 409 2629 706 
Q 2900 1003 2900 1516 
L 2900 3500 
L 3475 3500 
L 3475 0 
L 2900 0 
L 2900 538 
Q 2691 219 2414 64 
Q 2138 -91 1772 -91 
Q 1169 -91 856 284 
Q 544 659 544 1381 
z
M 1991 3584 
L 1991 3584 
z
" transform="scale(0.015625)"/>
       <path id="DejaVuSans-74" d="M 1172 4494 
L 1172 3500 
L 2356 3500 
L 2356 3053 
L 1172 3053 
L 1172 1153 
Q 1172 725 1289 603 
Q 1406 481 1766 481 
L 2356 481 
L 2356 0 
L 1766 0 
Q 1100 0 847 248 
Q 594 497 594 1153 
L 594 3053 
L 172 3053 
L 172 3500 
L 594 3500 
L 594 4494 
L 1172 4494 
z
" transform="scale(0.015625)"/>
       <path id="DejaVuSans-79" d="M 2059 -325 
Q 1816 -950 1584 -1140 
Q 1353 -1331 966 -1331 
L 506 -1331 
L 506 -850 
L 844 -850 
Q 1081 -850 1212 -737 
Q 1344 -625 1503 -206 
L 1606 56 
L 191 3500 
L 800 3500 
L 1894 763 
L 2988 3500 
L 3597 3500 
L 2059 -325 
z
" transform="scale(0.015625)"/>
       <path id="DejaVuSans-20" transform="scale(0.015625)"/>
       <path id="DejaVuSans-63" d="M 3122 3366 
L 3122 2828 
Q 2878 2963 2633 3030 
Q 2388 3097 2138 3097 
Q 1578 3097 1268 2742 
Q 959 2388 959 1747 
Q 959 1106 1268 751 
Q 1578 397 2138 397 
Q 2388 397 2633 464 
Q 2878 531 3122 666 
L 3122 134 
Q 2881 22 2623 -34 
Q 2366 -91 2075 -91 
Q 1284 -91 818 406 
Q 353 903 353 1747 
Q 353 2603 823 3093 
Q 1294 3584 2113 3584 
Q 2378 3584 2631 3529 
Q 2884 3475 3122 3366 
z
" transform="scale(0.015625)"/>
       <path id="DejaVuSans-6c" d="M 603 4863 
L 1178 4863 
L 1178 0 
L 603 0 
L 603 4863 
z
" transform="scale(0.015625)"/>
       <path id="DejaVuSans-65" d="M 3597 1894 
L 3597 1613 
L 953 1613 
Q 991 1019 1311 708 
Q 1631 397 2203 397 
Q 2534 397 2845 478 
Q 3156 559 3463 722 
L 3463 178 
Q 3153 47 2828 -22 
Q 2503 -91 2169 -91 
Q 1331 -91 842 396 
Q 353 884 353 1716 
Q 353 2575 817 3079 
Q 1281 3584 2069 3584 
Q 2775 3584 3186 3129 
Q 3597 2675 3597 1894 
z
M 3022 2063 
Q 3016 2534 2758 2815 
Q 2500 3097 2075 3097 
Q 1594 3097 1305 2825 
Q 1016 2553 972 2059 
L 3022 2063 
z
" transform="scale(0.015625)"/>
       <path id="DejaVuSans-Oblique-70" d="M 3175 2156 
Q 3175 2616 2975 2859 
Q 2775 3103 2400 3103 
Q 2144 3103 1911 2972 
Q 1678 2841 1497 2591 
Q 1319 2344 1212 1994 
Q 1106 1644 1106 1300 
Q 1106 863 1306 627 
Q 1506 391 1875 391 
Q 2147 391 2380 519 
Q 2613 647 2778 891 
Q 2956 1147 3065 1494 
Q 3175 1841 3175 2156 
z
M 1394 2969 
Q 1625 3272 1939 3428 
Q 2253 3584 2638 3584 
Q 3175 3584 3472 3232 
Q 3769 2881 3769 2247 
Q 3769 1728 3584 1258 
Q 3400 788 3053 416 
Q 2822 169 2531 39 
Q 2241 -91 1919 -91 
Q 1547 -91 1294 64 
Q 1041 219 916 525 
L 556 -1331 
L -19 -1331 
L 922 3500 
L 1497 3500 
L 1394 2969 
z
" transform="scale(0.015625)"/>
      </defs>
      <use xlink:href="#DejaVuSans-44" transform="translate(0 0.015625)"/>
      <use xlink:href="#DejaVuSans-75" transform="translate(77.001953 0.015625)"/>
      <use xlink:href="#DejaVuSans-74" transform="translate(140.380859 0.015625)"/>
      <use xlink:href="#DejaVuSans-79" transform="translate(179.589844 0.015625)"/>
      <use xlink:href="#DejaVuSans-20" transform="translate(238.769531 0.015625)"/>
      <use xlink:href="#DejaVuSans-63" transform="translate(270.556641 0.015625)"/>
      <use xlink:href="#DejaVuSans-79" transform="translate(325.537109 0.015625)"/>
      <use xlink:href="#DejaVuSans-63" transform="translate(384.716797 0.015625)"/>
      <use xlink:href="#DejaVuSans-6c" transform="translate(439.697266 0.015625)"/>
      <use xlink:href="#DejaVuSans-65" transform="translate(467.480469 0.015625)"/>
      <use xlink:href="#DejaVuSans-20" transform="translate(529.003906 0.015625)"/>
      <use xlink:href="#DejaVuSans-Oblique-70" transform="translate(560.791016 0.015625)"/>
     </g>
    </g>
   </g>
   <g id="matplotlib.axis_2">
    <g id="ytick_1">
     <g id="line2d_13">
      <path d="M 83.249063 377.345704 
L 464.679215 377.345704 
" clip-path="url(#p5d7916a061)" style="fill: none; stroke-dasharray: 2.96,1.28; stroke-dashoffset: 0; stroke: #b0b0b0; stroke-opacity: 0.25; stroke-width: 0.8"/>
     </g>
     <g id="line2d_14">
      <defs>
       <path id="m9c79941e0f" d="M 0 0 
L -3.5 0 
" style="stroke: #000000; stroke-width: 0.8"/>
      </defs>
      <g>
       <use xlink:href="#m9c79941e0f" x="83.249063" y="377.345704" style="stroke: #000000; stroke-width: 0.8"/>
      </g>
     </g>
     <g id="text_8">
      <!-- −0.4 -->
      <g transform="translate(32.54 384.184298) scale(0.18 -0.18)">
       <defs>
        <path id="DejaVuSans-2212" d="M 678 2272 
L 4684 2272 
L 4684 1741 
L 678 1741 
L 678 2272 
z
" transform="scale(0.015625)"/>
       </defs>
       <use xlink:href="#DejaVuSans-2212"/>
       <use xlink:href="#DejaVuSans-30" transform="translate(83.789062 0)"/>
       <use xlink:href="#DejaVuSans-2e" transform="translate(147.412109 0)"/>
       <use xlink:href="#DejaVuSans-34" transform="translate(179.199219 0)"/>
      </g>
     </g>
    </g>
    <g id="ytick_2">
     <g id="line2d_15">
      <path d="M 83.249063 298.090288 
L 464.679215 298.090288 
" clip-path="url(#p5d7916a061)" style="fill: none; stroke-dasharray: 2.96,1.28; stroke-dashoffset: 0; stroke: #b0b0b0; stroke-opacity: 0.25; stroke-width: 0.8"/>
     </g>
     <g id="line2d_16">
      <g>
       <use xlink:href="#m9c79941e0f" x="83.249063" y="298.090288" style="stroke: #000000; stroke-width: 0.8"/>
      </g>
     </g>
     <g id="text_9">
      <!-- −0.3 -->
      <g transform="translate(32.54 304.928882) scale(0.18 -0.18)">
       <defs>
        <path id="DejaVuSans-33" d="M 2597 2516 
Q 3050 2419 3304 2112 
Q 3559 1806 3559 1356 
Q 3559 666 3084 287 
Q 2609 -91 1734 -91 
Q 1441 -91 1130 -33 
Q 819 25 488 141 
L 488 750 
Q 750 597 1062 519 
Q 1375 441 1716 441 
Q 2309 441 2620 675 
Q 2931 909 2931 1356 
Q 2931 1769 2642 2001 
Q 2353 2234 1838 2234 
L 1294 2234 
L 1294 2753 
L 1863 2753 
Q 2328 2753 2575 2939 
Q 2822 3125 2822 3475 
Q 2822 3834 2567 4026 
Q 2313 4219 1838 4219 
Q 1578 4219 1281 4162 
Q 984 4106 628 3988 
L 628 4550 
Q 988 4650 1302 4700 
Q 1616 4750 1894 4750 
Q 2613 4750 3031 4423 
Q 3450 4097 3450 3541 
Q 3450 3153 3228 2886 
Q 3006 2619 2597 2516 
z
" transform="scale(0.015625)"/>
       </defs>
       <use xlink:href="#DejaVuSans-2212"/>
       <use xlink:href="#DejaVuSans-30" transform="translate(83.789062 0)"/>
       <use xlink:href="#DejaVuSans-2e" transform="translate(147.412109 0)"/>
       <use xlink:href="#DejaVuSans-33" transform="translate(179.199219 0)"/>
      </g>
     </g>
    </g>
    <g id="ytick_3">
     <g id="line2d_17">
      <path d="M 83.249063 218.834872 
L 464.679215 218.834872 
" clip-path="url(#p5d7916a061)" style="fill: none; stroke-dasharray: 2.96,1.28; stroke-dashoffset: 0; stroke: #b0b0b0; stroke-opacity: 0.25; stroke-width: 0.8"/>
     </g>
     <g id="line2d_18">
      <g>
       <use xlink:href="#m9c79941e0f" x="83.249063" y="218.834872" style="stroke: #000000; stroke-width: 0.8"/>
      </g>
     </g>
     <g id="text_10">
      <!-- −0.2 -->
      <g transform="translate(32.54 225.673466) scale(0.18 -0.18)">
       <use xlink:href="#DejaVuSans-2212"/>
       <use xlink:href="#DejaVuSans-30" transform="translate(83.789062 0)"/>
       <use xlink:href="#DejaVuSans-2e" transform="translate(147.412109 0)"/>
       <use xlink:href="#DejaVuSans-32" transform="translate(179.199219 0)"/>
      </g>
     </g>
    </g>
    <g id="ytick_4">
     <g id="line2d_19">
      <path d="M 83.249063 139.579456 
L 464.679215 139.579456 
" clip-path="url(#p5d7916a061)" style="fill: none; stroke-dasharray: 2.96,1.28; stroke-dashoffset: 0; stroke: #b0b0b0; stroke-opacity: 0.25; stroke-width: 0.8"/>
     </g>
     <g id="line2d_20">
      <g>
       <use xlink:href="#m9c79941e0f" x="83.249063" y="139.579456" style="stroke: #000000; stroke-width: 0.8"/>
      </g>
     </g>
     <g id="text_11">
      <!-- −0.1 -->
      <g transform="translate(32.54 146.41805) scale(0.18 -0.18)">
       <use xlink:href="#DejaVuSans-2212"/>
       <use xlink:href="#DejaVuSans-30" transform="translate(83.789062 0)"/>
       <use xlink:href="#DejaVuSans-2e" transform="translate(147.412109 0)"/>
       <use xlink:href="#DejaVuSans-31" transform="translate(179.199219 0)"/>
      </g>
     </g>
    </g>
    <g id="ytick_5">
     <g id="line2d_21">
      <path d="M 83.249063 60.32404 
L 464.679215 60.32404 
" clip-path="url(#p5d7916a061)" style="fill: none; stroke-dasharray: 2.96,1.28; stroke-dashoffset: 0; stroke: #b0b0b0; stroke-opacity: 0.25; stroke-width: 0.8"/>
     </g>
     <g id="line2d_22">
      <g>
       <use xlink:href="#m9c79941e0f" x="83.249063" y="60.32404" style="stroke: #000000; stroke-width: 0.8"/>
      </g>
     </g>
     <g id="text_12">
      <!-- 0.0 -->
      <g transform="translate(47.623438 67.162634) scale(0.18 -0.18)">
       <use xlink:href="#DejaVuSans-30"/>
       <use xlink:href="#DejaVuSans-2e" transform="translate(63.623047 0)"/>
       <use xlink:href="#DejaVuSans-30" transform="translate(95.410156 0)"/>
      </g>
     </g>
    </g>
    <g id="text_13">
     <!-- Peak predator $y_{\max}$ on limit cycle -->
     <g transform="translate(23.92 376.819447) rotate(-90) scale(0.22 -0.22)">
      <defs>
       <path id="DejaVuSans-50" d="M 1259 4147 
L 1259 2394 
L 2053 2394 
Q 2494 2394 2734 2622 
Q 2975 2850 2975 3272 
Q 2975 3691 2734 3919 
Q 2494 4147 2053 4147 
L 1259 4147 
z
M 628 4666 
L 2053 4666 
Q 2838 4666 3239 4311 
Q 3641 3956 3641 3272 
Q 3641 2581 3239 2228 
Q 2838 1875 2053 1875 
L 1259 1875 
L 1259 0 
L 628 0 
L 628 4666 
z
" transform="scale(0.015625)"/>
       <path id="DejaVuSans-61" d="M 2194 1759 
Q 1497 1759 1228 1600 
Q 959 1441 959 1056 
Q 959 750 1161 570 
Q 1363 391 1709 391 
Q 2188 391 2477 730 
Q 2766 1069 2766 1631 
L 2766 1759 
L 2194 1759 
z
M 3341 1997 
L 3341 0 
L 2766 0 
L 2766 531 
Q 2569 213 2275 61 
Q 1981 -91 1556 -91 
Q 1019 -91 701 211 
Q 384 513 384 1019 
Q 384 1609 779 1909 
Q 1175 2209 1959 2209 
L 2766 2209 
L 2766 2266 
Q 2766 2663 2505 2880 
Q 2244 3097 1772 3097 
Q 1472 3097 1187 3025 
Q 903 2953 641 2809 
L 641 3341 
Q 956 3463 1253 3523 
Q 1550 3584 1831 3584 
Q 2591 3584 2966 3190 
Q 3341 2797 3341 1997 
z
" transform="scale(0.015625)"/>
       <path id="DejaVuSans-6b" d="M 581 4863 
L 1159 4863 
L 1159 1991 
L 2875 3500 
L 3609 3500 
L 1753 1863 
L 3688 0 
L 2938 0 
L 1159 1709 
L 1159 0 
L 581 0 
L 581 4863 
z
" transform="scale(0.015625)"/>
       <path id="DejaVuSans-70" d="M 1159 525 
L 1159 -1331 
L 581 -1331 
L 581 3500 
L 1159 3500 
L 1159 2969 
Q 1341 3281 1617 3432 
Q 1894 3584 2278 3584 
Q 2916 3584 3314 3078 
Q 3713 2572 3713 1747 
Q 3713 922 3314 415 
Q 2916 -91 2278 -91 
Q 1894 -91 1617 61 
Q 1341 213 1159 525 
z
M 3116 1747 
Q 3116 2381 2855 2742 
Q 2594 3103 2138 3103 
Q 1681 3103 1420 2742 
Q 1159 2381 1159 1747 
Q 1159 1113 1420 752 
Q 1681 391 2138 391 
Q 2594 391 2855 752 
Q 3116 1113 3116 1747 
z
" transform="scale(0.015625)"/>
       <path id="DejaVuSans-72" d="M 2631 2963 
Q 2534 3019 2420 3045 
Q 2306 3072 2169 3072 
Q 1681 3072 1420 2755 
Q 1159 2438 1159 1844 
L 1159 0 
L 581 0 
L 581 3500 
L 1159 3500 
L 1159 2956 
Q 1341 3275 1631 3429 
Q 1922 3584 2338 3584 
Q 2397 3584 2469 3576 
Q 2541 3569 2628 3553 
L 2631 2963 
z
" transform="scale(0.015625)"/>
       <path id="DejaVuSans-64" d="M 2906 2969 
L 2906 4863 
L 3481 4863 
L 3481 0 
L 2906 0 
L 2906 525 
Q 2725 213 2448 61 
Q 2172 -91 1784 -91 
Q 1150 -91 751 415 
Q 353 922 353 1747 
Q 353 2572 751 3078 
Q 1150 3584 1784 3584 
Q 2172 3584 2448 3432 
Q 2725 3281 2906 2969 
z
M 947 1747 
Q 947 1113 1208 752 
Q 1469 391 1925 391 
Q 2381 391 2643 752 
Q 2906 1113 2906 1747 
Q 2906 2381 2643 2742 
Q 2381 3103 1925 3103 
Q 1469 3103 1208 2742 
Q 947 2381 947 1747 
z
" transform="scale(0.015625)"/>
       <path id="DejaVuSans-6f" d="M 1959 3097 
Q 1497 3097 1228 2736 
Q 959 2375 959 1747 
Q 959 1119 1226 758 
Q 1494 397 1959 397 
Q 2419 397 2687 759 
Q 2956 1122 2956 1747 
Q 2956 2369 2687 2733 
Q 2419 3097 1959 3097 
z
M 1959 3584 
Q 2709 3584 3137 3096 
Q 3566 2609 3566 1747 
Q 3566 888 3137 398 
Q 2709 -91 1959 -91 
Q 1206 -91 779 398 
Q 353 888 353 1747 
Q 353 2609 779 3096 
Q 1206 3584 1959 3584 
z
" transform="scale(0.015625)"/>
       <path id="DejaVuSans-Oblique-79" d="M 1588 -325 
Q 1188 -997 936 -1164 
Q 684 -1331 294 -1331 
L -159 -1331 
L -63 -850 
L 269 -850 
Q 509 -850 678 -719 
Q 847 -588 1056 -206 
L 1234 128 
L 459 3500 
L 1069 3500 
L 1650 819 
L 3256 3500 
L 3859 3500 
L 1588 -325 
z
" transform="scale(0.015625)"/>
       <path id="DejaVuSans-6d" d="M 3328 2828 
Q 3544 3216 3844 3400 
Q 4144 3584 4550 3584 
Q 5097 3584 5394 3201 
Q 5691 2819 5691 2113 
L 5691 0 
L 5113 0 
L 5113 2094 
Q 5113 2597 4934 2840 
Q 4756 3084 4391 3084 
Q 3944 3084 3684 2787 
Q 3425 2491 3425 1978 
L 3425 0 
L 2847 0 
L 2847 2094 
Q 2847 2600 2669 2842 
Q 2491 3084 2119 3084 
Q 1678 3084 1418 2786 
Q 1159 2488 1159 1978 
L 1159 0 
L 581 0 
L 581 3500 
L 1159 3500 
L 1159 2956 
Q 1356 3278 1631 3431 
Q 1906 3584 2284 3584 
Q 2666 3584 2933 3390 
Q 3200 3197 3328 2828 
z
" transform="scale(0.015625)"/>
       <path id="DejaVuSans-78" d="M 3513 3500 
L 2247 1797 
L 3578 0 
L 2900 0 
L 1881 1375 
L 863 0 
L 184 0 
L 1544 1831 
L 300 3500 
L 978 3500 
L 1906 2253 
L 2834 3500 
L 3513 3500 
z
" transform="scale(0.015625)"/>
       <path id="DejaVuSans-6e" d="M 3513 2113 
L 3513 0 
L 2938 0 
L 2938 2094 
Q 2938 2591 2744 2837 
Q 2550 3084 2163 3084 
Q 1697 3084 1428 2787 
Q 1159 2491 1159 1978 
L 1159 0 
L 581 0 
L 581 3500 
L 1159 3500 
L 1159 2956 
Q 1366 3272 1645 3428 
Q 1925 3584 2291 3584 
Q 2894 3584 3203 3211 
Q 3513 2838 3513 2113 
z
" transform="scale(0.015625)"/>
       <path id="DejaVuSans-69" d="M 603 3500 
L 1178 3500 
L 1178 0 
L 603 0 
L 603 3500 
z
M 603 4863 
L 1178 4863 
L 1178 4134 
L 603 4134 
L 603 4863 
z
" transform="scale(0.015625)"/>
      </defs>
      <use xlink:href="#DejaVuSans-50" transform="translate(0 0.015625)"/>
      <use xlink:href="#DejaVuSans-65" transform="translate(60.302734 0.015625)"/>
      <use xlink:href="#DejaVuSans-61" transform="translate(121.826172 0.015625)"/>
      <use xlink:href="#DejaVuSans-6b" transform="translate(183.105469 0.015625)"/>
      <use xlink:href="#DejaVuSans-20" transform="translate(241.015625 0.015625)"/>
      <use xlink:href="#DejaVuSans-70" transform="translate(272.802734 0.015625)"/>
      <use xlink:href="#DejaVuSans-72" transform="translate(336.279297 0.015625)"/>
      <use xlink:href="#DejaVuSans-65" transform="translate(377.392578 0.015625)"/>
      <use xlink:href="#DejaVuSans-64" transform="translate(438.916016 0.015625)"/>
      <use xlink:href="#DejaVuSans-61" transform="translate(502.392578 0.015625)"/>
      <use xlink:href="#DejaVuSans-74" transform="translate(563.671875 0.015625)"/>
      <use xlink:href="#DejaVuSans-6f" transform="translate(602.880859 0.015625)"/>
      <use xlink:href="#DejaVuSans-72" transform="translate(664.0625 0.015625)"/>
      <use xlink:href="#DejaVuSans-20" transform="translate(705.175781 0.015625)"/>
      <use xlink:href="#DejaVuSans-Oblique-79" transform="translate(736.962891 0.015625)"/>
      <use xlink:href="#DejaVuSans-6d" transform="translate(796.142578 -16.390625) scale(0.7)"/>
      <use xlink:href="#DejaVuSans-61" transform="translate(864.331055 -16.390625) scale(0.7)"/>
      <use xlink:href="#DejaVuSans-78" transform="translate(907.226562 -16.390625) scale(0.7)"/>
      <use xlink:href="#DejaVuSans-20" transform="translate(951.386719 0.015625)"/>
      <use xlink:href="#DejaVuSans-6f" transform="translate(983.173828 0.015625)"/>
      <use xlink:href="#DejaVuSans-6e" transform="translate(1044.355469 0.015625)"/>
      <use xlink:href="#DejaVuSans-20" transform="translate(1107.734375 0.015625)"/>
      <use xlink:href="#DejaVuSans-6c" transform="translate(1139.521484 0.015625)"/>
      <use xlink:href="#DejaVuSans-69" transform="translate(1167.304688 0.015625)"/>
      <use xlink:href="#DejaVuSans-6d" transform="translate(1195.087891 0.015625)"/>
      <use xlink:href="#DejaVuSans-69" transform="translate(1292.5 0.015625)"/>
      <use xlink:href="#DejaVuSans-74" transform="translate(1320.283203 0.015625)"/>
      <use xlink:href="#DejaVuSans-20" transform="translate(1359.492188 0.015625)"/>
      <use xlink:href="#DejaVuSans-63" transform="translate(1391.279297 0.015625)"/>
      <use xlink:href="#DejaVuSans-79" transform="translate(1446.259766 0.015625)"/>
      <use xlink:href="#DejaVuSans-63" transform="translate(1505.439453 0.015625)"/>
      <use xlink:href="#DejaVuSans-6c" transform="translate(1560.419922 0.015625)"/>
      <use xlink:href="#DejaVuSans-65" transform="translate(1588.203125 0.015625)"/>
     </g>
    </g>
   </g>
   <g id="line2d_23">
    <path d="M 83.249063 60.32404 
L 464.679215 60.32404 
" clip-path="url(#p5d7916a061)" style="fill: none; stroke-dasharray: 3.7,1.6; stroke-dashoffset: 0; stroke: #000000; stroke-opacity: 0.45"/>
   </g>
   <g id="line2d_24">
    <path d="M 179.571665 60.32404 
L 235.683257 60.22409 
L 243.265905 59.911813 
L 247.815493 59.452193 
L 253.881611 58.272073 
L 258.4312 56.421485 
L 259.94773 55.506524 
L 261.464259 55.171704 
L 264.497318 52.941324 
L 266.013848 52.125401 
L 267.530377 50.839398 
L 269.046907 50.392285 
L 272.079966 47.685286 
L 273.596495 46.784204 
L 275.113025 45.428233 
L 276.629554 44.970121 
L 278.146084 43.645536 
L 279.662613 42.793453 
L 282.695672 40.317394 
L 284.212202 39.90989 
L 285.728731 38.760332 
L 287.245261 38.036918 
L 290.27832 35.966313 
L 291.794849 35.626718 
L 293.311379 34.688393 
L 294.827909 34.107891 
L 297.860968 32.45872 
L 299.377497 32.187569 
L 300.894027 31.456779 
L 302.410556 31.014238 
L 305.443615 29.76993 
L 306.960145 29.564909 
L 308.476674 29.032821 
L 309.993204 28.721965 
L 311.509733 28.270638 
L 313.026263 28.114054 
L 316.059322 27.387142 
L 323.641969 26.501931 
L 329.708088 26.331182 
L 335.774206 26.580726 
L 340.323794 27.168134 
L 341.840324 27.468347 
L 343.356853 27.565705 
L 347.906442 28.64862 
L 349.422971 29.135422 
L 350.939501 29.296622 
L 352.45603 29.846293 
L 353.97256 30.249588 
L 357.005619 31.552063 
L 358.522148 31.777816 
L 360.038678 32.516445 
L 361.555208 33.044387 
L 364.588267 34.72877 
L 366.104796 35.020448 
L 367.621326 35.952353 
L 369.137855 36.608145 
L 370.654385 37.622016 
L 372.170914 37.964526 
L 375.203973 40.177003 
L 376.720503 40.964533 
L 378.237032 42.178931 
L 379.753562 42.589933 
L 382.786621 45.193755 
L 384.30315 46.102924 
L 385.81968 47.48937 
L 387.336209 47.954611 
L 390.369268 50.789358 
L 391.885798 51.727457 
L 393.402327 53.096861 
L 394.918857 53.538162 
L 397.951916 55.968091 
L 399.468446 56.665908 
L 400.984975 57.582767 
L 402.501505 57.851937 
L 404.018034 58.552064 
L 408.567623 59.703409 
L 410.084152 59.788096 
L 413.117211 60.079052 
L 416.15027 60.237263 
L 435.865154 60.323917 
L 451.030449 60.32404 
L 451.030449 60.32404 
" clip-path="url(#p5d7916a061)" style="fill: none; stroke: #ff00ff; stroke-opacity: 0.85; stroke-width: 1.6; stroke-linecap: square"/>
   </g>
   <g id="line2d_25">
    <path d="M 223.551021 60.32404 
L 261.464259 60.2502 
L 266.013848 60.021985 
L 270.563436 59.438174 
L 273.596495 58.624606 
L 275.113025 57.936687 
L 276.629554 57.671118 
L 278.146084 56.787557 
L 279.662613 56.133393 
L 282.695672 53.935806 
L 284.212202 53.544039 
L 285.728731 52.376438 
L 287.245261 51.606578 
L 290.27832 49.335608 
L 291.794849 48.960506 
L 293.311379 47.891161 
L 294.827909 47.213401 
L 297.860968 45.270293 
L 299.377497 44.952141 
L 300.894027 44.064896 
L 302.410556 43.512095 
L 305.443615 41.937578 
L 306.960145 41.679041 
L 308.476674 40.974832 
L 309.993204 40.544695 
L 311.509733 39.915928 
L 313.026263 39.70191 
L 316.059322 38.609134 
L 317.575851 38.299517 
L 319.092381 37.850693 
L 320.60891 37.696478 
L 323.641969 36.964355 
L 331.224617 36.044504 
L 337.290735 35.834203 
L 341.840324 36.007131 
L 343.356853 36.038144 
L 347.906442 36.580453 
L 349.422971 36.864564 
L 350.939501 36.959081 
L 355.489089 37.99715 
L 357.005619 38.468383 
L 358.522148 38.627053 
L 360.038678 39.161408 
L 361.555208 39.551923 
L 364.588267 40.824194 
L 366.104796 41.047596 
L 367.621326 41.771073 
L 369.137855 42.28613 
L 370.654385 43.088617 
L 372.170914 43.361063 
L 375.203973 45.143321 
L 376.720503 45.785066 
L 378.237032 46.781321 
L 379.753562 47.120427 
L 382.786621 49.294565 
L 384.30315 50.065365 
L 385.81968 51.255215 
L 387.336209 51.658972 
L 390.369268 54.162263 
L 391.885798 55.002305 
L 393.402327 56.224164 
L 394.918857 56.612655 
L 396.435387 57.693297 
L 397.951916 58.594948 
L 400.984975 59.61004 
L 402.501505 59.742154 
L 404.018034 60.025428 
L 408.567623 60.288047 
L 429.799036 60.32404 
L 429.799036 60.32404 
" clip-path="url(#p5d7916a061)" style="fill: none; stroke: #cf30ff; stroke-opacity: 0.85; stroke-width: 1.6; stroke-linecap: square"/>
   </g>
   <g id="line2d_26">
    <path d="M 302.410556 60.32404 
L 407.051093 60.32404 
L 407.051093 60.32404 
" clip-path="url(#p5d7916a061)" style="fill: none; stroke: #9f60ff; stroke-opacity: 0.85; stroke-width: 1.6; stroke-linecap: square"/>
   </g>
   <g id="line2d_27">
    <path d="M 0 0 
" clip-path="url(#p5d7916a061)" style="fill: none; stroke: #6f90ff; stroke-opacity: 0.85; stroke-width: 1.6; stroke-linecap: square"/>
   </g>
   <g id="line2d_28">
    <path d="M 0 0 
" clip-path="url(#p5d7916a061)" style="fill: none; stroke: #30cfff; stroke-opacity: 0.85; stroke-width: 1.6; stroke-linecap: square"/>
   </g>
   <g id="line2d_29">
    <path d="M 0 0 
" clip-path="url(#p5d7916a061)" style="fill: none; stroke: #00ffff; stroke-opacity: 0.85; stroke-width: 1.6; stroke-linecap: square"/>
   </g>
   <g id="patch_3">
    <path d="M 83.249063 383.438895 
L 83.249063 7.2 
" style="fill: none; stroke: #000000; stroke-width: 0.8; stroke-linejoin: miter; stroke-linecap: square"/>
   </g>
   <g id="patch_4">
    <path d="M 464.679215 383.438895 
L 464.679215 7.2 
" style="fill: none; stroke: #000000; stroke-width: 0.8; stroke-linejoin: miter; stroke-linecap: square"/>
   </g>
   <g id="patch_5">
    <path d="M 83.249063 383.438895 
L 464.679215 383.438895 
" style="fill: none; stroke: #000000; stroke-width: 0.8; stroke-linejoin: miter; stroke-linecap: square"/>
   </g>
   <g id="patch_6">
    <path d="M 83.249063 7.2 
L 464.679215 7.2 
" style="fill: none; stroke: #000000; stroke-width: 0.8; stroke-linejoin: miter; stroke-linecap: square"/>
   </g>
   <g id="line2d_30">
    <path d="M 87.063364 366.337127 
L 94.646012 344.970452 
L 102.228659 324.292848 
L 109.811307 304.304313 
L 117.393954 285.004849 
L 124.976602 266.394454 
L 132.55925 248.473129 
L 140.141897 231.240875 
L 146.208015 217.951201 
L 152.274133 205.102533 
L 158.340252 192.694869 
L 164.40637 180.72821 
L 170.472488 169.202556 
L 176.538606 158.117907 
L 182.604724 147.474262 
L 188.670842 137.271622 
L 194.73696 127.509987 
L 200.803078 118.189357 
L 206.869196 109.309732 
L 212.935314 100.871111 
L 219.001432 92.873495 
L 225.067551 85.316884 
L 231.133669 78.201278 
L 237.199787 71.526676 
L 241.749375 66.810135 
L 246.298964 62.341658 
L 250.848552 58.121247 
L 255.398141 54.148901 
L 259.94773 50.42462 
L 264.497318 46.948404 
L 269.046907 43.720254 
L 273.596495 40.740168 
L 278.146084 38.008148 
L 282.695672 35.524193 
L 287.245261 33.288304 
L 291.794849 31.300479 
L 296.344438 29.56072 
L 300.894027 28.069026 
L 305.443615 26.825397 
L 309.993204 25.829833 
L 314.542792 25.082334 
L 319.092381 24.582901 
L 323.641969 24.331533 
L 328.191558 24.32823 
L 332.741147 24.572992 
L 337.290735 25.065819 
L 341.840324 25.806712 
L 346.389912 26.79567 
L 350.939501 28.032693 
L 355.489089 29.517781 
L 360.038678 31.250934 
L 364.588267 33.232153 
L 369.137855 35.461437 
L 373.687444 37.938786 
L 378.237032 40.6642 
L 382.786621 43.637679 
L 387.336209 46.859224 
L 391.885798 50.328834 
L 396.435387 54.046509 
L 400.984975 58.012249 
L 405.534564 62.226054 
L 410.084152 66.687925 
L 414.633741 71.39786 
L 419.183329 76.355861 
L 425.249447 83.352408 
L 431.315566 90.78996 
L 437.381684 98.668517 
L 443.447802 106.988078 
L 449.51392 115.748645 
L 455.580038 124.950216 
L 461.646156 134.592792 
L 464.679215 139.579456 
L 464.679215 139.579456 
" clip-path="url(#p5d7916a061)" style="fill: none; stroke: #910a2c; stroke-width: 2.8; stroke-linecap: square"/>
   </g>
   <g id="legend_1">
    <g id="line2d_31">
     <path d="M 137.959215 288.023895 
L 149.159215 288.023895 
L 160.359215 288.023895 
" style="fill: none; stroke: #910a2c; stroke-width: 2.8; stroke-linecap: square"/>
    </g>
    <g id="text_14">
     <!-- $T\to 0$ (analytical) -->
     <g transform="translate(173.159215 293.623895) scale(0.16 -0.16)">
      <defs>
       <path id="DejaVuSans-Oblique-54" d="M 378 4666 
L 4325 4666 
L 4225 4134 
L 2559 4134 
L 1759 0 
L 1125 0 
L 1925 4134 
L 275 4134 
L 378 4666 
z
" transform="scale(0.015625)"/>
       <path id="DejaVuSans-2192" d="M 5050 2147 
L 5050 1866 
L 3822 638 
L 3447 1013 
L 4175 1741 
L 366 1741 
L 366 2272 
L 4175 2272 
L 3447 3000 
L 3822 3375 
L 5050 2147 
z
" transform="scale(0.015625)"/>
       <path id="DejaVuSans-28" d="M 1984 4856 
Q 1566 4138 1362 3434 
Q 1159 2731 1159 2009 
Q 1159 1288 1364 580 
Q 1569 -128 1984 -844 
L 1484 -844 
Q 1016 -109 783 600 
Q 550 1309 550 2009 
Q 550 2706 781 3412 
Q 1013 4119 1484 4856 
L 1984 4856 
z
" transform="scale(0.015625)"/>
       <path id="DejaVuSans-29" d="M 513 4856 
L 1013 4856 
Q 1481 4119 1714 3412 
Q 1947 2706 1947 2009 
Q 1947 1309 1714 600 
Q 1481 -109 1013 -844 
L 513 -844 
Q 928 -128 1133 580 
Q 1338 1288 1338 2009 
Q 1338 2731 1133 3434 
Q 928 4138 513 4856 
z
" transform="scale(0.015625)"/>
      </defs>
      <use xlink:href="#DejaVuSans-Oblique-54" transform="translate(0 0.015625)"/>
      <use xlink:href="#DejaVuSans-2192" transform="translate(80.566406 0.015625)"/>
      <use xlink:href="#DejaVuSans-30" transform="translate(183.837891 0.015625)"/>
      <use xlink:href="#DejaVuSans-20" transform="translate(247.460938 0.015625)"/>
      <use xlink:href="#DejaVuSans-28" transform="translate(279.248047 0.015625)"/>
      <use xlink:href="#DejaVuSans-61" transform="translate(318.261719 0.015625)"/>
      <use xlink:href="#DejaVuSans-6e" transform="translate(379.541016 0.015625)"/>
      <use xlink:href="#DejaVuSans-61" transform="translate(442.919922 0.015625)"/>
      <use xlink:href="#DejaVuSans-6c" transform="translate(504.199219 0.015625)"/>
      <use xlink:href="#DejaVuSans-79" transform="translate(531.982422 0.015625)"/>
      <use xlink:href="#DejaVuSans-74" transform="translate(591.162109 0.015625)"/>
      <use xlink:href="#DejaVuSans-69" transform="translate(630.371094 0.015625)"/>
      <use xlink:href="#DejaVuSans-63" transform="translate(658.154297 0.015625)"/>
      <use xlink:href="#DejaVuSans-61" transform="translate(713.134766 0.015625)"/>
      <use xlink:href="#DejaVuSans-6c" transform="translate(774.414062 0.015625)"/>
      <use xlink:href="#DejaVuSans-29" transform="translate(802.197266 0.015625)"/>
     </g>
    </g>
    <g id="line2d_32">
     <path d="M 137.959215 311.541395 
L 149.159215 311.541395 
L 160.359215 311.541395 
" style="fill: none; stroke: #ff00ff; stroke-opacity: 0.85; stroke-width: 1.6; stroke-linecap: square"/>
    </g>
    <g id="text_15">
     <!-- $T=0.5$ -->
     <g transform="translate(173.159215 317.141395) scale(0.16 -0.16)">
      <defs>
       <path id="DejaVuSans-3d" d="M 678 2906 
L 4684 2906 
L 4684 2381 
L 678 2381 
L 678 2906 
z
M 678 1631 
L 4684 1631 
L 4684 1100 
L 678 1100 
L 678 1631 
z
" transform="scale(0.015625)"/>
       <path id="DejaVuSans-35" d="M 691 4666 
L 3169 4666 
L 3169 4134 
L 1269 4134 
L 1269 2991 
Q 1406 3038 1543 3061 
Q 1681 3084 1819 3084 
Q 2600 3084 3056 2656 
Q 3513 2228 3513 1497 
Q 3513 744 3044 326 
Q 2575 -91 1722 -91 
Q 1428 -91 1123 -41 
Q 819 9 494 109 
L 494 744 
Q 775 591 1075 516 
Q 1375 441 1709 441 
Q 2250 441 2565 725 
Q 2881 1009 2881 1497 
Q 2881 1984 2565 2268 
Q 2250 2553 1709 2553 
Q 1456 2553 1204 2497 
Q 953 2441 691 2322 
L 691 4666 
z
" transform="scale(0.015625)"/>
      </defs>
      <use xlink:href="#DejaVuSans-Oblique-54" transform="translate(0 0.78125)"/>
      <use xlink:href="#DejaVuSans-3d" transform="translate(80.566406 0.78125)"/>
      <use xlink:href="#DejaVuSans-30" transform="translate(183.837891 0.78125)"/>
      <use xlink:href="#DejaVuSans-2e" transform="translate(247.460938 0.78125)"/>
      <use xlink:href="#DejaVuSans-35" transform="translate(279.248047 0.78125)"/>
     </g>
    </g>
    <g id="line2d_33">
     <path d="M 137.959215 335.026395 
L 149.159215 335.026395 
L 160.359215 335.026395 
" style="fill: none; stroke: #cf30ff; stroke-opacity: 0.85; stroke-width: 1.6; stroke-linecap: square"/>
    </g>
    <g id="text_16">
     <!-- $T=1.0$ -->
     <g transform="translate(173.159215 340.626395) scale(0.16 -0.16)">
      <use xlink:href="#DejaVuSans-Oblique-54" transform="translate(0 0.78125)"/>
      <use xlink:href="#DejaVuSans-3d" transform="translate(80.566406 0.78125)"/>
      <use xlink:href="#DejaVuSans-31" transform="translate(183.837891 0.78125)"/>
      <use xlink:href="#DejaVuSans-2e" transform="translate(247.460938 0.78125)"/>
      <use xlink:href="#DejaVuSans-30" transform="translate(279.248047 0.78125)"/>
     </g>
    </g>
    <g id="line2d_34">
     <path d="M 137.959215 358.511395 
L 149.159215 358.511395 
L 160.359215 358.511395 
" style="fill: none; stroke: #9f60ff; stroke-opacity: 0.85; stroke-width: 1.6; stroke-linecap: square"/>
    </g>
    <g id="text_17">
     <!-- $T=2.0$ -->
     <g transform="translate(173.159215 364.111395) scale(0.16 -0.16)">
      <use xlink:href="#DejaVuSans-Oblique-54" transform="translate(0 0.78125)"/>
      <use xlink:href="#DejaVuSans-3d" transform="translate(80.566406 0.78125)"/>
      <use xlink:href="#DejaVuSans-32" transform="translate(183.837891 0.78125)"/>
      <use xlink:href="#DejaVuSans-2e" transform="translate(247.460938 0.78125)"/>
      <use xlink:href="#DejaVuSans-30" transform="translate(279.248047 0.78125)"/>
     </g>
    </g>
    <g id="line2d_35">
     <path d="M 320.679215 288.023895 
L 331.879215 288.023895 
L 343.079215 288.023895 
" style="fill: none; stroke: #6f90ff; stroke-opacity: 0.85; stroke-width: 1.6; stroke-linecap: square"/>
    </g>
    <g id="text_18">
     <!-- $T=4.0$ -->
     <g transform="translate(355.879215 293.623895) scale(0.16 -0.16)">
      <use xlink:href="#DejaVuSans-Oblique-54" transform="translate(0 0.78125)"/>
      <use xlink:href="#DejaVuSans-3d" transform="translate(80.566406 0.78125)"/>
      <use xlink:href="#DejaVuSans-34" transform="translate(183.837891 0.78125)"/>
      <use xlink:href="#DejaVuSans-2e" transform="translate(247.460938 0.78125)"/>
      <use xlink:href="#DejaVuSans-30" transform="translate(279.248047 0.78125)"/>
     </g>
    </g>
    <g id="line2d_36">
     <path d="M 320.679215 311.508895 
L 331.879215 311.508895 
L 343.079215 311.508895 
" style="fill: none; stroke: #30cfff; stroke-opacity: 0.85; stroke-width: 1.6; stroke-linecap: square"/>
    </g>
    <g id="text_19">
     <!-- $T=10.0$ -->
     <g transform="translate(355.879215 317.108895) scale(0.16 -0.16)">
      <use xlink:href="#DejaVuSans-Oblique-54" transform="translate(0 0.78125)"/>
      <use xlink:href="#DejaVuSans-3d" transform="translate(80.566406 0.78125)"/>
      <use xlink:href="#DejaVuSans-31" transform="translate(183.837891 0.78125)"/>
      <use xlink:href="#DejaVuSans-30" transform="translate(247.460938 0.78125)"/>
      <use xlink:href="#DejaVuSans-2e" transform="translate(311.083984 0.78125)"/>
      <use xlink:href="#DejaVuSans-30" transform="translate(342.871094 0.78125)"/>
     </g>
    </g>
    <g id="line2d_37">
     <path d="M 320.679215 334.993895 
L 331.879215 334.993895 
L 343.079215 334.993895 
" style="fill: none; stroke: #00ffff; stroke-opacity: 0.85; stroke-width: 1.6; stroke-linecap: square"/>
    </g>
    <g id="text_20">
     <!-- $T=20.0$ -->
     <g transform="translate(355.879215 340.593895) scale(0.16 -0.16)">
      <use xlink:href="#DejaVuSans-Oblique-54" transform="translate(0 0.78125)"/>
      <use xlink:href="#DejaVuSans-3d" transform="translate(80.566406 0.78125)"/>
      <use xlink:href="#DejaVuSans-32" transform="translate(183.837891 0.78125)"/>
      <use xlink:href="#DejaVuSans-30" transform="translate(247.460938 0.78125)"/>
      <use xlink:href="#DejaVuSans-2e" transform="translate(311.083984 0.78125)"/>
      <use xlink:href="#DejaVuSans-30" transform="translate(342.871094 0.78125)"/>
     </g>
    </g>
    <g id="PathCollection_1">
     <defs>
      <path id="m9d6c33f1c3" d="M 0 4.472136 
C 1.186024 4.472136 2.323632 4.000923 3.162278 3.162278 
C 4.000923 2.323632 4.472136 1.186024 4.472136 0 
C 4.472136 -1.186024 4.000923 -2.323632 3.162278 -3.162278 
C 2.323632 -4.000923 1.186024 -4.472136 0 -4.472136 
C -1.186024 -4.472136 -2.323632 -4.000923 -3.162278 -3.162278 
C -4.000923 -2.323632 -4.472136 -1.186024 -4.472136 0 
C -4.472136 1.186024 -4.000923 2.323632 -3.162278 3.162278 
C -2.323632 4.000923 -1.186024 4.472136 0 4.472136 
z
" style="stroke: #2a2a2a"/>
     </defs>
     <g>
      <use xlink:href="#m9d6c33f1c3" x="331.879215" y="359.878895" style="fill: #2a2a2a; stroke: #2a2a2a"/>
     </g>
    </g>
    <g id="text_21">
     <!-- $p_{\rm opt} \approx 0.636$ -->
     <g transform="translate(355.879215 364.078895) scale(0.16 -0.16)">
      <defs>
       <path id="DejaVuSans-2248" d="M 4684 1947 
L 4684 1388 
Q 4356 1144 4076 1036 
Q 3797 928 3494 928 
Q 3150 928 2694 1113 
Q 2663 1125 2641 1134 
Q 2622 1141 2575 1159 
Q 2091 1350 1797 1350 
Q 1522 1350 1253 1231 
Q 984 1113 678 850 
L 678 1409 
Q 1006 1653 1286 1761 
Q 1566 1869 1869 1869 
Q 2213 1869 2672 1684 
Q 2706 1669 2722 1663 
Q 2741 1656 2788 1638 
Q 3272 1447 3566 1447 
Q 3834 1447 4098 1564 
Q 4363 1681 4684 1947 
z
M 4684 3163 
L 4684 2606 
Q 4356 2359 4076 2251 
Q 3797 2144 3494 2144 
Q 3150 2144 2694 2328 
Q 2663 2341 2641 2350 
Q 2622 2356 2575 2375 
Q 2091 2566 1797 2566 
Q 1522 2566 1253 2447 
Q 984 2328 678 2069 
L 678 2625 
Q 1006 2869 1286 2976 
Q 1566 3084 1869 3084 
Q 2213 3084 2672 2900 
Q 2703 2888 2719 2881 
Q 2741 2872 2788 2853 
Q 3272 2663 3566 2663 
Q 3834 2663 4098 2780 
Q 4363 2897 4684 3163 
z
" transform="scale(0.015625)"/>
      </defs>
      <use xlink:href="#DejaVuSans-Oblique-70" transform="translate(0 0.78125)"/>
      <use xlink:href="#DejaVuSans-6f" transform="translate(63.476562 -15.625) scale(0.7)"/>
      <use xlink:href="#DejaVuSans-70" transform="translate(106.303711 -15.625) scale(0.7)"/>
      <use xlink:href="#DejaVuSans-74" transform="translate(150.737305 -15.625) scale(0.7)"/>
      <use xlink:href="#DejaVuSans-2248" transform="translate(200.400391 0.78125)"/>
      <use xlink:href="#DejaVuSans-30" transform="translate(303.671875 0.78125)"/>
      <use xlink:href="#DejaVuSans-2e" transform="translate(367.294922 0.78125)"/>
      <use xlink:href="#DejaVuSans-36" transform="translate(399.082031 0.78125)"/>
      <use xlink:href="#DejaVuSans-33" transform="translate(462.705078 0.78125)"/>
      <use xlink:href="#DejaVuSans-36" transform="translate(526.328125 0.78125)"/>
     </g>
    </g>
   </g>
   <g id="line2d_38">
    <path d="M 325.977341 383.438895 
L 325.977341 7.2 
" clip-path="url(#p5d7916a061)" style="fill: none; stroke-dasharray: 2,3.3; stroke-dashoffset: 0; stroke: #2a2a2a; stroke-opacity: 0.9; stroke-width: 2"/>
   </g>
   <g id="PathCollection_2">
    <g clip-path="url(#p5d7916a061)">
     <use xlink:href="#m9d6c33f1c3" x="325.977341" y="24.302274" style="fill: #2a2a2a; stroke: #2a2a2a"/>
    </g>
   </g>
  </g>
  <g id="axes_2">
   <g id="patch_7">
    <path d="M 576.09359 383.438895 
L 957.523743 383.438895 
L 957.523743 7.2 
L 576.09359 7.2 
L 576.09359 383.438895 
z
" style="fill: none"/>
   </g>
   <g id="matplotlib.axis_3">
    <g id="xtick_7">
     <g id="line2d_39">
      <path d="M 576.09359 383.438895 
L 576.09359 7.2 
" clip-path="url(#pf0d80e2ebd)" style="fill: none; stroke-dasharray: 2.96,1.28; stroke-dashoffset: 0; stroke: #b0b0b0; stroke-opacity: 0.25; stroke-width: 0.8"/>
     </g>
     <g id="line2d_40">
      <g>
       <use xlink:href="#m945a92386a" x="576.09359" y="383.438895" style="stroke: #000000; stroke-width: 0.8"/>
      </g>
     </g>
     <g id="text_22">
      <!-- 0.0 -->
      <g transform="translate(561.780778 404.116082) scale(0.18 -0.18)">
       <use xlink:href="#DejaVuSans-30"/>
       <use xlink:href="#DejaVuSans-2e" transform="translate(63.623047 0)"/>
       <use xlink:href="#DejaVuSans-30" transform="translate(95.410156 0)"/>
      </g>
     </g>
    </g>
    <g id="xtick_8">
     <g id="line2d_41">
      <path d="M 652.379621 383.438895 
L 652.379621 7.2 
" clip-path="url(#pf0d80e2ebd)" style="fill: none; stroke-dasharray: 2.96,1.28; stroke-dashoffset: 0; stroke: #b0b0b0; stroke-opacity: 0.25; stroke-width: 0.8"/>
     </g>
     <g id="line2d_42">
      <g>
       <use xlink:href="#m945a92386a" x="652.379621" y="383.438895" style="stroke: #000000; stroke-width: 0.8"/>
      </g>
     </g>
     <g id="text_23">
      <!-- 0.2 -->
      <g transform="translate(638.066808 404.116082) scale(0.18 -0.18)">
       <use xlink:href="#DejaVuSans-30"/>
       <use xlink:href="#DejaVuSans-2e" transform="translate(63.623047 0)"/>
       <use xlink:href="#DejaVuSans-32" transform="translate(95.410156 0)"/>
      </g>
     </g>
    </g>
    <g id="xtick_9">
     <g id="line2d_43">
      <path d="M 728.665651 383.438895 
L 728.665651 7.2 
" clip-path="url(#pf0d80e2ebd)" style="fill: none; stroke-dasharray: 2.96,1.28; stroke-dashoffset: 0; stroke: #b0b0b0; stroke-opacity: 0.25; stroke-width: 0.8"/>
     </g>
     <g id="line2d_44">
      <g>
       <use xlink:href="#m945a92386a" x="728.665651" y="383.438895" style="stroke: #000000; stroke-width: 0.8"/>
      </g>
     </g>
     <g id="text_24">
      <!-- 0.4 -->
      <g transform="translate(714.352839 404.116082) scale(0.18 -0.18)">
       <use xlink:href="#DejaVuSans-30"/>
       <use xlink:href="#DejaVuSans-2e" transform="translate(63.623047 0)"/>
       <use xlink:href="#DejaVuSans-34" transform="translate(95.410156 0)"/>
      </g>
     </g>
    </g>
    <g id="xtick_10">
     <g id="line2d_45">
      <path d="M 804.951682 383.438895 
L 804.951682 7.2 
" clip-path="url(#pf0d80e2ebd)" style="fill: none; stroke-dasharray: 2.96,1.28; stroke-dashoffset: 0; stroke: #b0b0b0; stroke-opacity: 0.25; stroke-width: 0.8"/>
     </g>
     <g id="line2d_46">
      <g>
       <use xlink:href="#m945a92386a" x="804.951682" y="383.438895" style="stroke: #000000; stroke-width: 0.8"/>
      </g>
     </g>
     <g id="text_25">
      <!-- 0.6 -->
      <g transform="translate(790.638869 404.116082) scale(0.18 -0.18)">
       <use xlink:href="#DejaVuSans-30"/>
       <use xlink:href="#DejaVuSans-2e" transform="translate(63.623047 0)"/>
       <use xlink:href="#DejaVuSans-36" transform="translate(95.410156 0)"/>
      </g>
     </g>
    </g>
    <g id="xtick_11">
     <g id="line2d_47">
      <path d="M 881.237712 383.438895 
L 881.237712 7.2 
" clip-path="url(#pf0d80e2ebd)" style="fill: none; stroke-dasharray: 2.96,1.28; stroke-dashoffset: 0; stroke: #b0b0b0; stroke-opacity: 0.25; stroke-width: 0.8"/>
     </g>
     <g id="line2d_48">
      <g>
       <use xlink:href="#m945a92386a" x="881.237712" y="383.438895" style="stroke: #000000; stroke-width: 0.8"/>
      </g>
     </g>
     <g id="text_26">
      <!-- 0.8 -->
      <g transform="translate(866.9249 404.116082) scale(0.18 -0.18)">
       <use xlink:href="#DejaVuSans-30"/>
       <use xlink:href="#DejaVuSans-2e" transform="translate(63.623047 0)"/>
       <use xlink:href="#DejaVuSans-38" transform="translate(95.410156 0)"/>
      </g>
     </g>
    </g>
    <g id="xtick_12">
     <g id="line2d_49">
      <path d="M 957.523743 383.438895 
L 957.523743 7.2 
" clip-path="url(#pf0d80e2ebd)" style="fill: none; stroke-dasharray: 2.96,1.28; stroke-dashoffset: 0; stroke: #b0b0b0; stroke-opacity: 0.25; stroke-width: 0.8"/>
     </g>
     <g id="line2d_50">
      <g>
       <use xlink:href="#m945a92386a" x="957.523743" y="383.438895" style="stroke: #000000; stroke-width: 0.8"/>
      </g>
     </g>
     <g id="text_27">
      <!-- 1.0 -->
      <g transform="translate(943.21093 404.116082) scale(0.18 -0.18)">
       <use xlink:href="#DejaVuSans-31"/>
       <use xlink:href="#DejaVuSans-2e" transform="translate(63.623047 0)"/>
       <use xlink:href="#DejaVuSans-30" transform="translate(95.410156 0)"/>
      </g>
     </g>
    </g>
    <g id="text_28">
     <!-- Duty cycle $p$ -->
     <g transform="translate(698.058666 428.57952) scale(0.22 -0.22)">
      <use xlink:href="#DejaVuSans-44" transform="translate(0 0.015625)"/>
      <use xlink:href="#DejaVuSans-75" transform="translate(77.001953 0.015625)"/>
      <use xlink:href="#DejaVuSans-74" transform="translate(140.380859 0.015625)"/>
      <use xlink:href="#DejaVuSans-79" transform="translate(179.589844 0.015625)"/>
      <use xlink:href="#DejaVuSans-20" transform="translate(238.769531 0.015625)"/>
      <use xlink:href="#DejaVuSans-63" transform="translate(270.556641 0.015625)"/>
      <use xlink:href="#DejaVuSans-79" transform="translate(325.537109 0.015625)"/>
      <use xlink:href="#DejaVuSans-63" transform="translate(384.716797 0.015625)"/>
      <use xlink:href="#DejaVuSans-6c" transform="translate(439.697266 0.015625)"/>
      <use xlink:href="#DejaVuSans-65" transform="translate(467.480469 0.015625)"/>
      <use xlink:href="#DejaVuSans-20" transform="translate(529.003906 0.015625)"/>
      <use xlink:href="#DejaVuSans-Oblique-70" transform="translate(560.791016 0.015625)"/>
     </g>
    </g>
   </g>
   <g id="matplotlib.axis_4">
    <g id="ytick_6">
     <g id="line2d_51">
      <path d="M 576.09359 375.205774 
L 957.523743 375.205774 
" clip-path="url(#pf0d80e2ebd)" style="fill: none; stroke-dasharray: 2.96,1.28; stroke-dashoffset: 0; stroke: #b0b0b0; stroke-opacity: 0.25; stroke-width: 0.8"/>
     </g>
     <g id="line2d_52">
      <g>
       <use xlink:href="#m9c79941e0f" x="576.09359" y="375.205774" style="stroke: #000000; stroke-width: 0.8"/>
      </g>
     </g>
     <g id="text_29">
      <!-- −0.20 -->
      <g transform="translate(513.932028 382.044368) scale(0.18 -0.18)">
       <use xlink:href="#DejaVuSans-2212"/>
       <use xlink:href="#DejaVuSans-30" transform="translate(83.789062 0)"/>
       <use xlink:href="#DejaVuSans-2e" transform="translate(147.412109 0)"/>
       <use xlink:href="#DejaVuSans-32" transform="translate(179.199219 0)"/>
       <use xlink:href="#DejaVuSans-30" transform="translate(242.822266 0)"/>
      </g>
     </g>
    </g>
    <g id="ytick_7">
     <g id="line2d_53">
      <path d="M 576.09359 300.071786 
L 957.523743 300.071786 
" clip-path="url(#pf0d80e2ebd)" style="fill: none; stroke-dasharray: 2.96,1.28; stroke-dashoffset: 0; stroke: #b0b0b0; stroke-opacity: 0.25; stroke-width: 0.8"/>
     </g>
     <g id="line2d_54">
      <g>
       <use xlink:href="#m9c79941e0f" x="576.09359" y="300.071786" style="stroke: #000000; stroke-width: 0.8"/>
      </g>
     </g>
     <g id="text_30">
      <!-- −0.15 -->
      <g transform="translate(513.932028 306.91038) scale(0.18 -0.18)">
       <use xlink:href="#DejaVuSans-2212"/>
       <use xlink:href="#DejaVuSans-30" transform="translate(83.789062 0)"/>
       <use xlink:href="#DejaVuSans-2e" transform="translate(147.412109 0)"/>
       <use xlink:href="#DejaVuSans-31" transform="translate(179.199219 0)"/>
       <use xlink:href="#DejaVuSans-35" transform="translate(242.822266 0)"/>
      </g>
     </g>
    </g>
    <g id="ytick_8">
     <g id="line2d_55">
      <path d="M 576.09359 224.937798 
L 957.523743 224.937798 
" clip-path="url(#pf0d80e2ebd)" style="fill: none; stroke-dasharray: 2.96,1.28; stroke-dashoffset: 0; stroke: #b0b0b0; stroke-opacity: 0.25; stroke-width: 0.8"/>
     </g>
     <g id="line2d_56">
      <g>
       <use xlink:href="#m9c79941e0f" x="576.09359" y="224.937798" style="stroke: #000000; stroke-width: 0.8"/>
      </g>
     </g>
     <g id="text_31">
      <!-- −0.10 -->
      <g transform="translate(513.932028 231.776392) scale(0.18 -0.18)">
       <use xlink:href="#DejaVuSans-2212"/>
       <use xlink:href="#DejaVuSans-30" transform="translate(83.789062 0)"/>
       <use xlink:href="#DejaVuSans-2e" transform="translate(147.412109 0)"/>
       <use xlink:href="#DejaVuSans-31" transform="translate(179.199219 0)"/>
       <use xlink:href="#DejaVuSans-30" transform="translate(242.822266 0)"/>
      </g>
     </g>
    </g>
    <g id="ytick_9">
     <g id="line2d_57">
      <path d="M 576.09359 149.80381 
L 957.523743 149.80381 
" clip-path="url(#pf0d80e2ebd)" style="fill: none; stroke-dasharray: 2.96,1.28; stroke-dashoffset: 0; stroke: #b0b0b0; stroke-opacity: 0.25; stroke-width: 0.8"/>
     </g>
     <g id="line2d_58">
      <g>
       <use xlink:href="#m9c79941e0f" x="576.09359" y="149.80381" style="stroke: #000000; stroke-width: 0.8"/>
      </g>
     </g>
     <g id="text_32">
      <!-- −0.05 -->
      <g transform="translate(513.932028 156.642404) scale(0.18 -0.18)">
       <use xlink:href="#DejaVuSans-2212"/>
       <use xlink:href="#DejaVuSans-30" transform="translate(83.789062 0)"/>
       <use xlink:href="#DejaVuSans-2e" transform="translate(147.412109 0)"/>
       <use xlink:href="#DejaVuSans-30" transform="translate(179.199219 0)"/>
       <use xlink:href="#DejaVuSans-35" transform="translate(242.822266 0)"/>
      </g>
     </g>
    </g>
    <g id="ytick_10">
     <g id="line2d_59">
      <path d="M 576.09359 74.669822 
L 957.523743 74.669822 
" clip-path="url(#pf0d80e2ebd)" style="fill: none; stroke-dasharray: 2.96,1.28; stroke-dashoffset: 0; stroke: #b0b0b0; stroke-opacity: 0.25; stroke-width: 0.8"/>
     </g>
     <g id="line2d_60">
      <g>
       <use xlink:href="#m9c79941e0f" x="576.09359" y="74.669822" style="stroke: #000000; stroke-width: 0.8"/>
      </g>
     </g>
     <g id="text_33">
      <!-- 0.00 -->
      <g transform="translate(529.015465 81.508415) scale(0.18 -0.18)">
       <use xlink:href="#DejaVuSans-30"/>
       <use xlink:href="#DejaVuSans-2e" transform="translate(63.623047 0)"/>
       <use xlink:href="#DejaVuSans-30" transform="translate(95.410156 0)"/>
       <use xlink:href="#DejaVuSans-30" transform="translate(159.033203 0)"/>
      </g>
     </g>
    </g>
    <g id="text_34">
     <!-- Invasion exponent $\lambda$ -->
     <g transform="translate(505.312028 306.859447) rotate(-90) scale(0.22 -0.22)">
      <defs>
       <path id="DejaVuSans-49" d="M 628 4666 
L 1259 4666 
L 1259 0 
L 628 0 
L 628 4666 
z
" transform="scale(0.015625)"/>
       <path id="DejaVuSans-76" d="M 191 3500 
L 800 3500 
L 1894 563 
L 2988 3500 
L 3597 3500 
L 2284 0 
L 1503 0 
L 191 3500 
z
" transform="scale(0.015625)"/>
       <path id="DejaVuSans-73" d="M 2834 3397 
L 2834 2853 
Q 2591 2978 2328 3040 
Q 2066 3103 1784 3103 
Q 1356 3103 1142 2972 
Q 928 2841 928 2578 
Q 928 2378 1081 2264 
Q 1234 2150 1697 2047 
L 1894 2003 
Q 2506 1872 2764 1633 
Q 3022 1394 3022 966 
Q 3022 478 2636 193 
Q 2250 -91 1575 -91 
Q 1294 -91 989 -36 
Q 684 19 347 128 
L 347 722 
Q 666 556 975 473 
Q 1284 391 1588 391 
Q 1994 391 2212 530 
Q 2431 669 2431 922 
Q 2431 1156 2273 1281 
Q 2116 1406 1581 1522 
L 1381 1569 
Q 847 1681 609 1914 
Q 372 2147 372 2553 
Q 372 3047 722 3315 
Q 1072 3584 1716 3584 
Q 2034 3584 2315 3537 
Q 2597 3491 2834 3397 
z
" transform="scale(0.015625)"/>
       <path id="DejaVuSans-Oblique-3bb" d="M 2350 4316 
L 3125 0 
L 2516 0 
L 2038 2588 
L 328 0 
L -281 0 
L 1903 3356 
L 1794 3975 
Q 1725 4369 1391 4369 
L 1091 4369 
L 1184 4863 
L 1550 4856 
Q 2253 4847 2350 4316 
z
" transform="scale(0.015625)"/>
      </defs>
      <use xlink:href="#DejaVuSans-49" transform="translate(0 0.015625)"/>
      <use xlink:href="#DejaVuSans-6e" transform="translate(29.492188 0.015625)"/>
      <use xlink:href="#DejaVuSans-76" transform="translate(92.871094 0.015625)"/>
      <use xlink:href="#DejaVuSans-61" transform="translate(152.050781 0.015625)"/>
      <use xlink:href="#DejaVuSans-73" transform="translate(213.330078 0.015625)"/>
      <use xlink:href="#DejaVuSans-69" transform="translate(265.429688 0.015625)"/>
      <use xlink:href="#DejaVuSans-6f" transform="translate(293.212891 0.015625)"/>
      <use xlink:href="#DejaVuSans-6e" transform="translate(354.394531 0.015625)"/>
      <use xlink:href="#DejaVuSans-20" transform="translate(417.773438 0.015625)"/>
      <use xlink:href="#DejaVuSans-65" transform="translate(449.560547 0.015625)"/>
      <use xlink:href="#DejaVuSans-78" transform="translate(511.083984 0.015625)"/>
      <use xlink:href="#DejaVuSans-70" transform="translate(570.263672 0.015625)"/>
      <use xlink:href="#DejaVuSans-6f" transform="translate(633.740234 0.015625)"/>
      <use xlink:href="#DejaVuSans-6e" transform="translate(694.921875 0.015625)"/>
      <use xlink:href="#DejaVuSans-65" transform="translate(758.300781 0.015625)"/>
      <use xlink:href="#DejaVuSans-6e" transform="translate(819.824219 0.015625)"/>
      <use xlink:href="#DejaVuSans-74" transform="translate(883.203125 0.015625)"/>
      <use xlink:href="#DejaVuSans-20" transform="translate(922.412109 0.015625)"/>
      <use xlink:href="#DejaVuSans-Oblique-3bb" transform="translate(954.199219 0.015625)"/>
     </g>
    </g>
   </g>
   <g id="line2d_61">
    <path d="M 576.09359 74.669822 
L 957.523743 74.669822 
" clip-path="url(#pf0d80e2ebd)" style="fill: none; stroke-dasharray: 3.7,1.6; stroke-dashoffset: 0; stroke: #000000; stroke-opacity: 0.45"/>
   </g>
   <g id="line2d_62">
    <path d="M 579.907892 366.238973 
L 589.007069 345.245121 
L 598.106246 324.808592 
L 607.205423 304.928518 
L 616.3046 285.605813 
L 625.403777 266.843206 
L 634.502954 248.645289 
L 643.602131 231.018572 
L 651.184779 216.772038 
L 658.767427 202.934031 
L 666.350074 189.511578 
L 673.932722 176.512767 
L 681.515369 163.946788 
L 689.098017 151.823981 
L 696.680665 140.155878 
L 704.263312 128.955262 
L 710.32943 120.340778 
L 716.395549 112.04231 
L 722.461667 104.068273 
L 728.527785 96.427683 
L 734.593903 89.130182 
L 740.660021 82.186059 
L 746.726139 75.606278 
L 752.792257 69.402506 
L 758.858375 63.587136 
L 763.407964 59.488381 
L 767.957552 55.621325 
L 772.507141 51.992063 
L 777.056729 48.606959 
L 781.606318 45.472647 
L 786.155907 42.596045 
L 790.705495 39.98436 
L 795.255084 37.6451 
L 799.804672 35.586081 
L 804.354261 33.815436 
L 808.903849 32.341628 
L 813.453438 31.173457 
L 818.003026 30.320073 
L 822.552615 29.790983 
L 825.585674 29.623284 
L 828.618733 29.607119 
L 831.651792 29.745588 
L 834.684851 30.041867 
L 837.71791 30.499213 
L 840.750969 31.120965 
L 843.784028 31.910546 
L 846.817087 32.871464 
L 849.850146 34.007314 
L 852.883205 35.321781 
L 855.916265 36.818641 
L 858.949324 38.501761 
L 861.982383 40.375104 
L 865.015442 42.442731 
L 868.048501 44.7088 
L 871.08156 47.177572 
L 874.114619 49.85341 
L 877.147678 52.740784 
L 880.180737 55.844269 
L 883.213796 59.168556 
L 886.246855 62.718443 
L 890.796444 68.477062 
L 895.346032 74.771467 
L 899.895621 81.619373 
L 904.445209 89.039138 
L 908.994798 97.049789 
L 913.544386 105.671045 
L 918.093975 114.923348 
L 922.643563 124.827888 
L 927.193152 135.406641 
L 931.742741 146.682398 
L 936.292329 158.678806 
L 940.841918 171.420407 
L 945.391506 184.932683 
L 949.941095 199.242105 
L 954.490683 214.376185 
L 957.523743 224.937798 
L 957.523743 224.937798 
" clip-path="url(#pf0d80e2ebd)" style="fill: none; stroke: #ff00ff; stroke-opacity: 0.8; stroke-width: 1.6; stroke-linecap: square"/>
   </g>
   <g id="line2d_63">
    <path d="M 579.907892 366.266948 
L 587.490539 348.944163 
L 595.073187 332.192105 
L 602.655834 315.984227 
L 610.238482 300.296717 
L 617.82113 285.108307 
L 625.403777 270.40011 
L 632.986425 256.15549 
L 640.569072 242.359956 
L 648.15172 229.001078 
L 655.734368 216.068427 
L 663.317015 203.55353 
L 670.899663 191.44985 
L 678.48231 179.752776 
L 686.064958 168.459635 
L 693.647606 157.569714 
L 701.230253 147.084303 
L 708.812901 137.00675 
L 716.395549 127.342529 
L 723.978196 118.099326 
L 730.044314 111.014531 
L 736.110432 104.211762 
L 742.17655 97.698276 
L 748.242668 91.482405 
L 754.308787 85.573601 
L 760.374905 79.98249 
L 766.441023 74.720923 
L 772.507141 69.802031 
L 778.573259 65.240284 
L 783.122847 62.062841 
L 787.672436 59.102421 
L 792.222025 56.366732 
L 796.771613 53.863975 
L 801.321202 51.602858 
L 805.87079 49.592613 
L 810.420379 47.843009 
L 814.969967 46.364366 
L 819.519556 45.167572 
L 824.069145 44.264096 
L 828.618733 43.665998 
L 833.168322 43.385946 
L 836.201381 43.382471 
L 839.23444 43.530332 
L 842.267499 43.833744 
L 845.300558 44.297049 
L 848.333617 44.924717 
L 851.366676 45.721343 
L 854.399735 46.691654 
L 857.432794 47.840504 
L 860.465853 49.172877 
L 863.498912 50.693886 
L 866.531971 52.408773 
L 869.56503 54.322911 
L 872.598089 56.441799 
L 875.631148 58.771064 
L 878.664207 61.316462 
L 881.697266 64.083873 
L 884.730325 67.0793 
L 887.763384 70.308871 
L 890.796444 73.778834 
L 893.829503 77.495555 
L 896.862562 81.465517 
L 899.895621 85.695317 
L 902.92868 90.191662 
L 905.961739 94.961369 
L 908.994798 100.01136 
L 913.544386 108.127271 
L 918.093975 116.913769 
L 922.643563 126.395451 
L 927.193152 136.597367 
L 931.742741 147.544994 
L 936.292329 159.264213 
L 940.841918 171.781294 
L 945.391506 185.122876 
L 949.941095 199.315959 
L 954.490683 214.387903 
L 957.523743 224.937798 
L 957.523743 224.937798 
" clip-path="url(#pf0d80e2ebd)" style="fill: none; stroke: #cf30ff; stroke-opacity: 0.8; stroke-width: 1.6; stroke-linecap: square"/>
   </g>
   <g id="line2d_64">
    <path d="M 579.907892 366.337127 
L 585.97401 352.810449 
L 592.040128 339.939136 
L 598.106246 327.668373 
L 604.172364 315.949744 
L 610.238482 304.740295 
L 616.3046 294.001759 
L 622.370718 283.699917 
L 628.436836 273.804072 
L 634.502954 264.286605 
L 640.569072 255.122605 
L 646.63519 246.28956 
L 654.217838 235.682797 
L 661.800486 225.525803 
L 669.383133 215.787048 
L 676.965781 206.438674 
L 684.548429 197.456131 
L 692.131076 188.817897 
L 699.713724 180.505262 
L 707.296371 172.502178 
L 714.879019 164.795165 
L 722.461667 157.37326 
L 730.044314 150.228038 
L 737.626962 143.353665 
L 745.209609 136.747019 
L 752.792257 130.407863 
L 760.374905 124.339077 
L 767.957552 118.546956 
L 775.5402 113.041582 
L 783.122847 107.837267 
L 790.705495 102.953083 
L 796.771613 99.29246 
L 802.837731 95.86753 
L 808.903849 92.696327 
L 814.969967 89.799912 
L 821.036086 87.202689 
L 825.585674 85.467855 
L 830.135263 83.93033 
L 834.684851 82.604777 
L 839.23444 81.507295 
L 843.784028 80.655511 
L 848.333617 80.068657 
L 852.883205 79.767654 
L 857.432794 79.775181 
L 860.465853 79.963629 
L 863.498912 80.307773 
L 866.531971 80.815712 
L 869.56503 81.49592 
L 872.598089 82.357255 
L 875.631148 83.408951 
L 878.664207 84.660622 
L 881.697266 86.122252 
L 884.730325 87.804187 
L 887.763384 89.717125 
L 890.796444 91.872099 
L 893.829503 94.280457 
L 896.862562 96.953843 
L 899.895621 99.904167 
L 902.92868 103.143572 
L 905.961739 106.684406 
L 908.994798 110.539174 
L 912.027857 114.720499 
L 915.060916 119.241073 
L 918.093975 124.113606 
L 921.127034 129.350771 
L 924.160093 134.965146 
L 927.193152 140.969153 
L 930.226211 147.374997 
L 933.25927 154.194604 
L 936.292329 161.439558 
L 939.325388 169.121037 
L 942.358447 177.249758 
L 945.391506 185.835914 
L 948.424565 194.889127 
L 952.974154 209.364193 
L 957.523743 224.937798 
L 957.523743 224.937798 
" clip-path="url(#pf0d80e2ebd)" style="fill: none; stroke: #9f60ff; stroke-opacity: 0.8; stroke-width: 1.6; stroke-linecap: square"/>
   </g>
   <g id="line2d_65">
    <path d="M 645.118661 269.968317 
L 651.184779 263.909719 
L 657.250897 258.141241 
L 663.317015 252.635371 
L 670.899663 246.085681 
L 678.48231 239.867355 
L 686.064958 233.944727 
L 693.647606 228.286826 
L 702.746783 221.808975 
L 711.84596 215.633148 
L 720.945137 209.724664 
L 731.560844 203.129749 
L 742.17655 196.817914 
L 752.792257 190.755359 
L 764.924493 184.096333 
L 777.056729 177.69355 
L 789.188966 171.523666 
L 802.837731 164.846346 
L 814.969967 159.149543 
L 827.102204 153.70461 
L 837.71791 149.193779 
L 846.817087 145.572237 
L 854.399735 142.781043 
L 860.465853 140.738966 
L 866.531971 138.910845 
L 872.598089 137.34991 
L 877.147678 136.39469 
L 881.697266 135.662547 
L 886.246855 135.195005 
L 889.279914 135.054153 
L 892.312973 135.069022 
L 895.346032 135.257924 
L 898.379091 135.641062 
L 901.41215 136.240632 
L 904.445209 137.080903 
L 907.478268 138.188272 
L 910.511327 139.591278 
L 913.544386 141.32057 
L 916.577445 143.408813 
L 919.610504 145.890528 
L 922.643563 148.801841 
L 925.676623 152.180152 
L 928.709682 156.063701 
L 931.742741 160.491037 
L 934.7758 165.500388 
L 937.808859 171.128956 
L 940.841918 177.412142 
L 943.874977 184.382734 
L 946.908036 192.070092 
L 949.941095 200.49937 
L 952.974154 209.690824 
L 956.007213 219.659227 
L 957.523743 224.937798 
L 957.523743 224.937798 
" clip-path="url(#pf0d80e2ebd)" style="fill: none; stroke: #6f90ff; stroke-opacity: 0.8; stroke-width: 1.6; stroke-linecap: square"/>
   </g>
   <g id="line2d_66">
    <path d="M 827.102204 224.291875 
L 890.796444 199.225159 
L 904.445209 194.063271 
L 912.027857 191.42169 
L 916.577445 190.013535 
L 921.127034 188.836632 
L 924.160093 188.244464 
L 927.193152 187.870345 
L 930.226211 187.789296 
L 931.742741 187.888198 
L 933.25927 188.099032 
L 934.7758 188.438284 
L 936.292329 188.924366 
L 937.808859 189.57767 
L 939.325388 190.420574 
L 940.841918 191.477364 
L 942.358447 192.774067 
L 943.874977 194.338158 
L 945.391506 196.198147 
L 946.908036 198.383011 
L 948.424565 200.921497 
L 949.941095 203.84129 
L 951.457624 207.168096 
L 952.974154 210.924684 
L 954.490683 215.129944 
L 956.007213 219.798051 
L 957.523743 224.937798 
L 957.523743 224.937798 
" clip-path="url(#pf0d80e2ebd)" style="fill: none; stroke: #30cfff; stroke-opacity: 0.8; stroke-width: 1.6; stroke-linecap: square"/>
   </g>
   <g id="line2d_67">
    <path d="M 892.312973 224.588779 
L 928.709682 210.338972 
L 934.7758 208.177004 
L 937.808859 207.261653 
L 940.841918 206.589264 
L 942.358447 206.402406 
L 943.874977 206.36208 
L 945.391506 206.517146 
L 946.908036 206.930013 
L 948.424565 207.678318 
L 949.941095 208.855264 
L 951.457624 210.567498 
L 952.974154 212.929352 
L 954.490683 216.052802 
L 956.007213 220.033831 
L 957.523743 224.937798 
L 957.523743 224.937798 
" clip-path="url(#pf0d80e2ebd)" style="fill: none; stroke: #00ffff; stroke-opacity: 0.8; stroke-width: 1.6; stroke-linecap: square"/>
   </g>
   <g id="patch_8">
    <path d="M 576.09359 383.438895 
L 576.09359 7.2 
" style="fill: none; stroke: #000000; stroke-width: 0.8; stroke-linejoin: miter; stroke-linecap: square"/>
   </g>
   <g id="patch_9">
    <path d="M 957.523743 383.438895 
L 957.523743 7.2 
" style="fill: none; stroke: #000000; stroke-width: 0.8; stroke-linejoin: miter; stroke-linecap: square"/>
   </g>
   <g id="patch_10">
    <path d="M 576.09359 383.438895 
L 957.523743 383.438895 
" style="fill: none; stroke: #000000; stroke-width: 0.8; stroke-linejoin: miter; stroke-linecap: square"/>
   </g>
   <g id="patch_11">
    <path d="M 576.09359 7.2 
L 957.523743 7.2 
" style="fill: none; stroke: #000000; stroke-width: 0.8; stroke-linejoin: miter; stroke-linecap: square"/>
   </g>
   <g id="line2d_68">
    <path d="M 579.907892 366.227452 
L 590.523598 341.644783 
L 601.139305 317.678528 
L 610.238482 297.64706 
L 619.337659 278.106205 
L 628.436836 259.074813 
L 637.536013 240.57271 
L 646.63519 222.620767 
L 655.734368 205.240964 
L 663.317015 191.211523 
L 670.899663 177.609545 
L 678.48231 164.449751 
L 686.064958 151.747549 
L 693.647606 139.51907 
L 701.230253 127.781211 
L 707.296371 118.756043 
L 713.362489 110.065655 
L 719.428608 101.71988 
L 725.494726 93.72894 
L 731.560844 86.103468 
L 737.626962 78.854524 
L 743.69308 71.993619 
L 749.759198 65.532738 
L 755.825316 59.484366 
L 760.374905 55.2266 
L 764.924493 51.213868 
L 769.474082 47.452041 
L 774.02367 43.947182 
L 778.573259 40.705549 
L 783.122847 37.733606 
L 787.672436 35.038031 
L 792.222025 32.625721 
L 796.771613 30.503809 
L 801.321202 28.679667 
L 805.87079 27.160918 
L 810.420379 25.955449 
L 814.969967 25.071421 
L 819.519556 24.517279 
L 822.552615 24.335427 
L 825.585674 24.306738 
L 828.618733 24.433945 
L 831.651792 24.719842 
L 834.684851 25.167294 
L 837.71791 25.779233 
L 840.750969 26.558663 
L 843.784028 27.508663 
L 846.817087 28.632385 
L 849.850146 29.933062 
L 852.883205 31.414006 
L 855.916265 33.078613 
L 858.949324 34.930365 
L 861.982383 36.972832 
L 865.015442 39.209675 
L 868.048501 41.64465 
L 871.08156 44.281611 
L 874.114619 47.124511 
L 877.147678 50.177408 
L 880.180737 53.444467 
L 884.730325 58.755995 
L 889.279914 64.573954 
L 893.829503 70.913872 
L 898.379091 77.791919 
L 902.92868 85.224942 
L 907.478268 93.230494 
L 912.027857 101.82688 
L 916.577445 111.033191 
L 921.127034 120.869353 
L 925.676623 131.356165 
L 930.226211 142.515356 
L 934.7758 154.369631 
L 939.325388 166.94273 
L 943.874977 180.259486 
L 948.424565 194.345889 
L 952.974154 209.229155 
L 957.523743 224.937798 
L 957.523743 224.937798 
" clip-path="url(#pf0d80e2ebd)" style="fill: none; stroke: #910a2c; stroke-width: 2.8; stroke-linecap: square"/>
   </g>
   <g id="legend_2">
    <g id="line2d_69">
     <path d="M 630.803743 283.701395 
L 642.003743 283.701395 
L 653.203743 283.701395 
" style="fill: none; stroke: #910a2c; stroke-width: 2.8; stroke-linecap: square"/>
    </g>
    <g id="text_35">
     <!-- $T\to 0$ (analytical) -->
     <g transform="translate(666.003743 289.301395) scale(0.16 -0.16)">
      <use xlink:href="#DejaVuSans-Oblique-54" transform="translate(0 0.015625)"/>
      <use xlink:href="#DejaVuSans-2192" transform="translate(80.566406 0.015625)"/>
      <use xlink:href="#DejaVuSans-30" transform="translate(183.837891 0.015625)"/>
      <use xlink:href="#DejaVuSans-20" transform="translate(247.460938 0.015625)"/>
      <use xlink:href="#DejaVuSans-28" transform="translate(279.248047 0.015625)"/>
      <use xlink:href="#DejaVuSans-61" transform="translate(318.261719 0.015625)"/>
      <use xlink:href="#DejaVuSans-6e" transform="translate(379.541016 0.015625)"/>
      <use xlink:href="#DejaVuSans-61" transform="translate(442.919922 0.015625)"/>
      <use xlink:href="#DejaVuSans-6c" transform="translate(504.199219 0.015625)"/>
      <use xlink:href="#DejaVuSans-79" transform="translate(531.982422 0.015625)"/>
      <use xlink:href="#DejaVuSans-74" transform="translate(591.162109 0.015625)"/>
      <use xlink:href="#DejaVuSans-69" transform="translate(630.371094 0.015625)"/>
      <use xlink:href="#DejaVuSans-63" transform="translate(658.154297 0.015625)"/>
      <use xlink:href="#DejaVuSans-61" transform="translate(713.134766 0.015625)"/>
      <use xlink:href="#DejaVuSans-6c" transform="translate(774.414062 0.015625)"/>
      <use xlink:href="#DejaVuSans-29" transform="translate(802.197266 0.015625)"/>
     </g>
    </g>
    <g id="line2d_70">
     <path d="M 630.803743 307.218895 
L 642.003743 307.218895 
L 653.203743 307.218895 
" style="fill: none; stroke: #ff00ff; stroke-opacity: 0.8; stroke-width: 1.6; stroke-linecap: square"/>
    </g>
    <g id="text_36">
     <!-- $T=0.5$ -->
     <g transform="translate(666.003743 312.818895) scale(0.16 -0.16)">
      <use xlink:href="#DejaVuSans-Oblique-54" transform="translate(0 0.78125)"/>
      <use xlink:href="#DejaVuSans-3d" transform="translate(80.566406 0.78125)"/>
      <use xlink:href="#DejaVuSans-30" transform="translate(183.837891 0.78125)"/>
      <use xlink:href="#DejaVuSans-2e" transform="translate(247.460938 0.78125)"/>
      <use xlink:href="#DejaVuSans-35" transform="translate(279.248047 0.78125)"/>
     </g>
    </g>
    <g id="line2d_71">
     <path d="M 630.803743 330.703895 
L 642.003743 330.703895 
L 653.203743 330.703895 
" style="fill: none; stroke: #cf30ff; stroke-opacity: 0.8; stroke-width: 1.6; stroke-linecap: square"/>
    </g>
    <g id="text_37">
     <!-- $T=1.0$ -->
     <g transform="translate(666.003743 336.303895) scale(0.16 -0.16)">
      <use xlink:href="#DejaVuSans-Oblique-54" transform="translate(0 0.78125)"/>
      <use xlink:href="#DejaVuSans-3d" transform="translate(80.566406 0.78125)"/>
      <use xlink:href="#DejaVuSans-31" transform="translate(183.837891 0.78125)"/>
      <use xlink:href="#DejaVuSans-2e" transform="translate(247.460938 0.78125)"/>
      <use xlink:href="#DejaVuSans-30" transform="translate(279.248047 0.78125)"/>
     </g>
    </g>
    <g id="line2d_72">
     <path d="M 630.803743 354.188895 
L 642.003743 354.188895 
L 653.203743 354.188895 
" style="fill: none; stroke: #9f60ff; stroke-opacity: 0.8; stroke-width: 1.6; stroke-linecap: square"/>
    </g>
    <g id="text_38">
     <!-- $T=2.0$ -->
     <g transform="translate(666.003743 359.788895) scale(0.16 -0.16)">
      <use xlink:href="#DejaVuSans-Oblique-54" transform="translate(0 0.78125)"/>
      <use xlink:href="#DejaVuSans-3d" transform="translate(80.566406 0.78125)"/>
      <use xlink:href="#DejaVuSans-32" transform="translate(183.837891 0.78125)"/>
      <use xlink:href="#DejaVuSans-2e" transform="translate(247.460938 0.78125)"/>
      <use xlink:href="#DejaVuSans-30" transform="translate(279.248047 0.78125)"/>
     </g>
    </g>
    <g id="line2d_73">
     <path d="M 813.523743 283.701395 
L 824.723743 283.701395 
L 835.923743 283.701395 
" style="fill: none; stroke: #6f90ff; stroke-opacity: 0.8; stroke-width: 1.6; stroke-linecap: square"/>
    </g>
    <g id="text_39">
     <!-- $T=4.0$ -->
     <g transform="translate(848.723743 289.301395) scale(0.16 -0.16)">
      <use xlink:href="#DejaVuSans-Oblique-54" transform="translate(0 0.78125)"/>
      <use xlink:href="#DejaVuSans-3d" transform="translate(80.566406 0.78125)"/>
      <use xlink:href="#DejaVuSans-34" transform="translate(183.837891 0.78125)"/>
      <use xlink:href="#DejaVuSans-2e" transform="translate(247.460938 0.78125)"/>
      <use xlink:href="#DejaVuSans-30" transform="translate(279.248047 0.78125)"/>
     </g>
    </g>
    <g id="line2d_74">
     <path d="M 813.523743 307.186395 
L 824.723743 307.186395 
L 835.923743 307.186395 
" style="fill: none; stroke: #30cfff; stroke-opacity: 0.8; stroke-width: 1.6; stroke-linecap: square"/>
    </g>
    <g id="text_40">
     <!-- $T=10.0$ -->
     <g transform="translate(848.723743 312.786395) scale(0.16 -0.16)">
      <use xlink:href="#DejaVuSans-Oblique-54" transform="translate(0 0.78125)"/>
      <use xlink:href="#DejaVuSans-3d" transform="translate(80.566406 0.78125)"/>
      <use xlink:href="#DejaVuSans-31" transform="translate(183.837891 0.78125)"/>
      <use xlink:href="#DejaVuSans-30" transform="translate(247.460938 0.78125)"/>
      <use xlink:href="#DejaVuSans-2e" transform="translate(311.083984 0.78125)"/>
      <use xlink:href="#DejaVuSans-30" transform="translate(342.871094 0.78125)"/>
     </g>
    </g>
    <g id="line2d_75">
     <path d="M 813.523743 330.671395 
L 824.723743 330.671395 
L 835.923743 330.671395 
" style="fill: none; stroke: #00ffff; stroke-opacity: 0.8; stroke-width: 1.6; stroke-linecap: square"/>
    </g>
    <g id="text_41">
     <!-- $T=20.0$ -->
     <g transform="translate(848.723743 336.271395) scale(0.16 -0.16)">
      <use xlink:href="#DejaVuSans-Oblique-54" transform="translate(0 0.78125)"/>
      <use xlink:href="#DejaVuSans-3d" transform="translate(80.566406 0.78125)"/>
      <use xlink:href="#DejaVuSans-32" transform="translate(183.837891 0.78125)"/>
      <use xlink:href="#DejaVuSans-30" transform="translate(247.460938 0.78125)"/>
      <use xlink:href="#DejaVuSans-2e" transform="translate(311.083984 0.78125)"/>
      <use xlink:href="#DejaVuSans-30" transform="translate(342.871094 0.78125)"/>
     </g>
    </g>
    <g id="PathCollection_3">
     <g>
      <use xlink:href="#m9d6c33f1c3" x="824.723743" y="358.118895" style="fill: #2a2a2a; stroke: #2a2a2a"/>
     </g>
    </g>
    <g id="text_42">
     <!-- $p_{\rm opt}^\lambda \approx 0.652$ -->
     <g transform="translate(848.723743 362.318895) scale(0.16 -0.16)">
      <use xlink:href="#DejaVuSans-Oblique-70" transform="translate(0 0.529687)"/>
      <use xlink:href="#DejaVuSans-Oblique-3bb" transform="translate(68.126458 38.810938) scale(0.7)"/>
      <use xlink:href="#DejaVuSans-6f" transform="translate(63.476562 -26.814063) scale(0.7)"/>
      <use xlink:href="#DejaVuSans-70" transform="translate(106.303711 -26.814063) scale(0.7)"/>
      <use xlink:href="#DejaVuSans-74" transform="translate(150.737305 -26.814063) scale(0.7)"/>
      <use xlink:href="#DejaVuSans-2248" transform="translate(200.400391 0.529687)"/>
      <use xlink:href="#DejaVuSans-30" transform="translate(303.671875 0.529687)"/>
      <use xlink:href="#DejaVuSans-2e" transform="translate(367.294922 0.529687)"/>
      <use xlink:href="#DejaVuSans-36" transform="translate(399.082031 0.529687)"/>
      <use xlink:href="#DejaVuSans-35" transform="translate(462.705078 0.529687)"/>
      <use xlink:href="#DejaVuSans-32" transform="translate(526.328125 0.529687)"/>
     </g>
    </g>
   </g>
   <g id="line2d_76">
    <path d="M 824.633582 383.438895 
L 824.633582 7.2 
" clip-path="url(#pf0d80e2ebd)" style="fill: none; stroke-dasharray: 2,3.3; stroke-dashoffset: 0; stroke: #2a2a2a; stroke-opacity: 0.9; stroke-width: 2"/>
   </g>
   <g id="PathCollection_4">
    <g clip-path="url(#pf0d80e2ebd)">
     <use xlink:href="#m9d6c33f1c3" x="824.633582" y="24.303618" style="fill: #2a2a2a; stroke: #2a2a2a"/>
    </g>
   </g>
  </g>
  <g id="axes_3">
   <g id="patch_12">
    <path d="M 1045.456555 383.438895 
L 1426.886707 383.438895 
L 1426.886707 7.2 
L 1045.456555 7.2 
L 1045.456555 383.438895 
z
" style="fill: none"/>
   </g>
   <g id="matplotlib.axis_5">
    <g id="xtick_13">
     <g id="line2d_77">
      <path d="M 1045.456555 383.438895 
L 1045.456555 7.2 
" clip-path="url(#p48f3cfe67a)" style="fill: none; stroke-dasharray: 2.96,1.28; stroke-dashoffset: 0; stroke: #b0b0b0; stroke-opacity: 0.25; stroke-width: 0.8"/>
     </g>
     <g id="line2d_78">
      <g>
       <use xlink:href="#m945a92386a" x="1045.456555" y="383.438895" style="stroke: #000000; stroke-width: 0.8"/>
      </g>
     </g>
     <g id="text_43">
      <!-- 0.0 -->
      <g transform="translate(1031.143742 404.116082) scale(0.18 -0.18)">
       <use xlink:href="#DejaVuSans-30"/>
       <use xlink:href="#DejaVuSans-2e" transform="translate(63.623047 0)"/>
       <use xlink:href="#DejaVuSans-30" transform="translate(95.410156 0)"/>
      </g>
     </g>
    </g>
    <g id="xtick_14">
     <g id="line2d_79">
      <path d="M 1121.742585 383.438895 
L 1121.742585 7.2 
" clip-path="url(#p48f3cfe67a)" style="fill: none; stroke-dasharray: 2.96,1.28; stroke-dashoffset: 0; stroke: #b0b0b0; stroke-opacity: 0.25; stroke-width: 0.8"/>
     </g>
     <g id="line2d_80">
      <g>
       <use xlink:href="#m945a92386a" x="1121.742585" y="383.438895" style="stroke: #000000; stroke-width: 0.8"/>
      </g>
     </g>
     <g id="text_44">
      <!-- 0.2 -->
      <g transform="translate(1107.429773 404.116082) scale(0.18 -0.18)">
       <use xlink:href="#DejaVuSans-30"/>
       <use xlink:href="#DejaVuSans-2e" transform="translate(63.623047 0)"/>
       <use xlink:href="#DejaVuSans-32" transform="translate(95.410156 0)"/>
      </g>
     </g>
    </g>
    <g id="xtick_15">
     <g id="line2d_81">
      <path d="M 1198.028616 383.438895 
L 1198.028616 7.2 
" clip-path="url(#p48f3cfe67a)" style="fill: none; stroke-dasharray: 2.96,1.28; stroke-dashoffset: 0; stroke: #b0b0b0; stroke-opacity: 0.25; stroke-width: 0.8"/>
     </g>
     <g id="line2d_82">
      <g>
       <use xlink:href="#m945a92386a" x="1198.028616" y="383.438895" style="stroke: #000000; stroke-width: 0.8"/>
      </g>
     </g>
     <g id="text_45">
      <!-- 0.4 -->
      <g transform="translate(1183.715803 404.116082) scale(0.18 -0.18)">
       <use xlink:href="#DejaVuSans-30"/>
       <use xlink:href="#DejaVuSans-2e" transform="translate(63.623047 0)"/>
       <use xlink:href="#DejaVuSans-34" transform="translate(95.410156 0)"/>
      </g>
     </g>
    </g>
    <g id="xtick_16">
     <g id="line2d_83">
      <path d="M 1274.314646 383.438895 
L 1274.314646 7.2 
" clip-path="url(#p48f3cfe67a)" style="fill: none; stroke-dasharray: 2.96,1.28; stroke-dashoffset: 0; stroke: #b0b0b0; stroke-opacity: 0.25; stroke-width: 0.8"/>
     </g>
     <g id="line2d_84">
      <g>
       <use xlink:href="#m945a92386a" x="1274.314646" y="383.438895" style="stroke: #000000; stroke-width: 0.8"/>
      </g>
     </g>
     <g id="text_46">
      <!-- 0.6 -->
      <g transform="translate(1260.001834 404.116082) scale(0.18 -0.18)">
       <use xlink:href="#DejaVuSans-30"/>
       <use xlink:href="#DejaVuSans-2e" transform="translate(63.623047 0)"/>
       <use xlink:href="#DejaVuSans-36" transform="translate(95.410156 0)"/>
      </g>
     </g>
    </g>
    <g id="xtick_17">
     <g id="line2d_85">
      <path d="M 1350.600677 383.438895 
L 1350.600677 7.2 
" clip-path="url(#p48f3cfe67a)" style="fill: none; stroke-dasharray: 2.96,1.28; stroke-dashoffset: 0; stroke: #b0b0b0; stroke-opacity: 0.25; stroke-width: 0.8"/>
     </g>
     <g id="line2d_86">
      <g>
       <use xlink:href="#m945a92386a" x="1350.600677" y="383.438895" style="stroke: #000000; stroke-width: 0.8"/>
      </g>
     </g>
     <g id="text_47">
      <!-- 0.8 -->
      <g transform="translate(1336.287864 404.116082) scale(0.18 -0.18)">
       <use xlink:href="#DejaVuSans-30"/>
       <use xlink:href="#DejaVuSans-2e" transform="translate(63.623047 0)"/>
       <use xlink:href="#DejaVuSans-38" transform="translate(95.410156 0)"/>
      </g>
     </g>
    </g>
    <g id="xtick_18">
     <g id="line2d_87">
      <path d="M 1426.886707 383.438895 
L 1426.886707 7.2 
" clip-path="url(#p48f3cfe67a)" style="fill: none; stroke-dasharray: 2.96,1.28; stroke-dashoffset: 0; stroke: #b0b0b0; stroke-opacity: 0.25; stroke-width: 0.8"/>
     </g>
     <g id="line2d_88">
      <g>
       <use xlink:href="#m945a92386a" x="1426.886707" y="383.438895" style="stroke: #000000; stroke-width: 0.8"/>
      </g>
     </g>
     <g id="text_48">
      <!-- 1.0 -->
      <g transform="translate(1412.573895 404.116082) scale(0.18 -0.18)">
       <use xlink:href="#DejaVuSans-31"/>
       <use xlink:href="#DejaVuSans-2e" transform="translate(63.623047 0)"/>
       <use xlink:href="#DejaVuSans-30" transform="translate(95.410156 0)"/>
      </g>
     </g>
    </g>
    <g id="text_49">
     <!-- Duty cycle $p$ -->
     <g transform="translate(1167.421631 428.57952) scale(0.22 -0.22)">
      <use xlink:href="#DejaVuSans-44" transform="translate(0 0.015625)"/>
      <use xlink:href="#DejaVuSans-75" transform="translate(77.001953 0.015625)"/>
      <use xlink:href="#DejaVuSans-74" transform="translate(140.380859 0.015625)"/>
      <use xlink:href="#DejaVuSans-79" transform="translate(179.589844 0.015625)"/>
      <use xlink:href="#DejaVuSans-20" transform="translate(238.769531 0.015625)"/>
      <use xlink:href="#DejaVuSans-63" transform="translate(270.556641 0.015625)"/>
      <use xlink:href="#DejaVuSans-79" transform="translate(325.537109 0.015625)"/>
      <use xlink:href="#DejaVuSans-63" transform="translate(384.716797 0.015625)"/>
      <use xlink:href="#DejaVuSans-6c" transform="translate(439.697266 0.015625)"/>
      <use xlink:href="#DejaVuSans-65" transform="translate(467.480469 0.015625)"/>
      <use xlink:href="#DejaVuSans-20" transform="translate(529.003906 0.015625)"/>
      <use xlink:href="#DejaVuSans-Oblique-70" transform="translate(560.791016 0.015625)"/>
     </g>
    </g>
   </g>
   <g id="matplotlib.axis_6">
    <g id="ytick_11">
     <g id="line2d_89">
      <path d="M 1045.456555 116.768228 
L 1426.886707 116.768228 
" clip-path="url(#p48f3cfe67a)" style="fill: none; stroke-dasharray: 2.96,1.28; stroke-dashoffset: 0; stroke: #b0b0b0; stroke-opacity: 0.25; stroke-width: 0.8"/>
     </g>
     <g id="line2d_90">
      <g>
       <use xlink:href="#m9c79941e0f" x="1045.456555" y="116.768228" style="stroke: #000000; stroke-width: 0.8"/>
      </g>
     </g>
     <g id="text_50">
      <!-- $\mathdefault{10^{0}}$ -->
      <g transform="translate(1006.776555 123.606822) scale(0.18 -0.18)">
       <use xlink:href="#DejaVuSans-31" transform="translate(0 0.765625)"/>
       <use xlink:href="#DejaVuSans-30" transform="translate(63.623047 0.765625)"/>
       <use xlink:href="#DejaVuSans-30" transform="translate(128.203125 39.046875) scale(0.7)"/>
      </g>
     </g>
    </g>
    <g id="ytick_12">
     <g id="line2d_91">
      <defs>
       <path id="m942932a325" d="M 0 0 
L -2 0 
" style="stroke: #000000; stroke-width: 0.6"/>
      </defs>
      <g>
       <use xlink:href="#m942932a325" x="1045.456555" y="356.484585" style="stroke: #000000; stroke-width: 0.6"/>
      </g>
     </g>
    </g>
    <g id="ytick_13">
     <g id="line2d_92">
      <g>
       <use xlink:href="#m942932a325" x="1045.456555" y="296.09293" style="stroke: #000000; stroke-width: 0.6"/>
      </g>
     </g>
    </g>
    <g id="ytick_14">
     <g id="line2d_93">
      <g>
       <use xlink:href="#m942932a325" x="1045.456555" y="253.24437" style="stroke: #000000; stroke-width: 0.6"/>
      </g>
     </g>
    </g>
    <g id="ytick_15">
     <g id="line2d_94">
      <g>
       <use xlink:href="#m942932a325" x="1045.456555" y="220.008444" style="stroke: #000000; stroke-width: 0.6"/>
      </g>
     </g>
    </g>
    <g id="ytick_16">
     <g id="line2d_95">
      <g>
       <use xlink:href="#m942932a325" x="1045.456555" y="192.852715" style="stroke: #000000; stroke-width: 0.6"/>
      </g>
     </g>
    </g>
    <g id="ytick_17">
     <g id="line2d_96">
      <g>
       <use xlink:href="#m942932a325" x="1045.456555" y="169.892873" style="stroke: #000000; stroke-width: 0.6"/>
      </g>
     </g>
    </g>
    <g id="ytick_18">
     <g id="line2d_97">
      <g>
       <use xlink:href="#m942932a325" x="1045.456555" y="150.004154" style="stroke: #000000; stroke-width: 0.6"/>
      </g>
     </g>
    </g>
    <g id="ytick_19">
     <g id="line2d_98">
      <g>
       <use xlink:href="#m942932a325" x="1045.456555" y="132.46106" style="stroke: #000000; stroke-width: 0.6"/>
      </g>
     </g>
    </g>
    <g id="ytick_20">
     <g id="line2d_99">
      <g>
       <use xlink:href="#m942932a325" x="1045.456555" y="13.528012" style="stroke: #000000; stroke-width: 0.6"/>
      </g>
     </g>
    </g>
    <g id="text_51">
     <!-- Critical period $T_c$ -->
     <g transform="translate(998.156555 287.169447) rotate(-90) scale(0.22 -0.22)">
      <defs>
       <path id="DejaVuSans-43" d="M 4122 4306 
L 4122 3641 
Q 3803 3938 3442 4084 
Q 3081 4231 2675 4231 
Q 1875 4231 1450 3742 
Q 1025 3253 1025 2328 
Q 1025 1406 1450 917 
Q 1875 428 2675 428 
Q 3081 428 3442 575 
Q 3803 722 4122 1019 
L 4122 359 
Q 3791 134 3420 21 
Q 3050 -91 2638 -91 
Q 1578 -91 968 557 
Q 359 1206 359 2328 
Q 359 3453 968 4101 
Q 1578 4750 2638 4750 
Q 3056 4750 3426 4639 
Q 3797 4528 4122 4306 
z
" transform="scale(0.015625)"/>
       <path id="DejaVuSans-Oblique-63" d="M 3431 3366 
L 3316 2797 
Q 3109 2947 2876 3022 
Q 2644 3097 2394 3097 
Q 2119 3097 1870 3000 
Q 1622 2903 1453 2725 
Q 1184 2453 1037 2087 
Q 891 1722 891 1331 
Q 891 859 1127 628 
Q 1363 397 1844 397 
Q 2081 397 2348 469 
Q 2616 541 2906 684 
L 2797 116 
Q 2547 13 2283 -39 
Q 2019 -91 1741 -91 
Q 1044 -91 669 257 
Q 294 606 294 1253 
Q 294 1797 489 2255 
Q 684 2713 1069 3078 
Q 1331 3328 1684 3456 
Q 2038 3584 2456 3584 
Q 2700 3584 2940 3529 
Q 3181 3475 3431 3366 
z
" transform="scale(0.015625)"/>
      </defs>
      <use xlink:href="#DejaVuSans-43" transform="translate(0 0.015625)"/>
      <use xlink:href="#DejaVuSans-72" transform="translate(69.824219 0.015625)"/>
      <use xlink:href="#DejaVuSans-69" transform="translate(110.9375 0.015625)"/>
      <use xlink:href="#DejaVuSans-74" transform="translate(138.720703 0.015625)"/>
      <use xlink:href="#DejaVuSans-69" transform="translate(177.929688 0.015625)"/>
      <use xlink:href="#DejaVuSans-63" transform="translate(205.712891 0.015625)"/>
      <use xlink:href="#DejaVuSans-61" transform="translate(260.693359 0.015625)"/>
      <use xlink:href="#DejaVuSans-6c" transform="translate(321.972656 0.015625)"/>
      <use xlink:href="#DejaVuSans-20" transform="translate(349.755859 0.015625)"/>
      <use xlink:href="#DejaVuSans-70" transform="translate(381.542969 0.015625)"/>
      <use xlink:href="#DejaVuSans-65" transform="translate(445.019531 0.015625)"/>
      <use xlink:href="#DejaVuSans-72" transform="translate(506.542969 0.015625)"/>
      <use xlink:href="#DejaVuSans-69" transform="translate(547.65625 0.015625)"/>
      <use xlink:href="#DejaVuSans-6f" transform="translate(575.439453 0.015625)"/>
      <use xlink:href="#DejaVuSans-64" transform="translate(636.621094 0.015625)"/>
      <use xlink:href="#DejaVuSans-20" transform="translate(700.097656 0.015625)"/>
      <use xlink:href="#DejaVuSans-Oblique-54" transform="translate(731.884766 0.015625)"/>
      <use xlink:href="#DejaVuSans-Oblique-63" transform="translate(792.96875 -16.390625) scale(0.7)"/>
     </g>
    </g>
   </g>
   <g id="line2d_100">
    <path d="M 1211.539515 366.337127 
L 1213.056045 292.236709 
L 1214.572574 255.772987 
L 1216.089104 231.361227 
L 1217.605633 212.979487 
L 1219.122163 198.230222 
L 1220.638693 185.912322 
L 1222.155222 175.337618 
L 1223.671752 166.074825 
L 1225.188281 157.835669 
L 1226.704811 150.417954 
L 1228.22134 143.674338 
L 1229.73787 137.494157 
L 1232.770929 126.501182 
L 1235.803988 116.94771 
L 1238.837047 108.510896 
L 1241.870106 100.967353 
L 1244.903165 94.156053 
L 1247.936224 87.957231 
L 1250.969283 82.279515 
L 1254.002342 77.051727 
L 1257.035401 72.217393 
L 1260.06846 67.731277 
L 1263.101519 63.556555 
L 1266.134578 59.663158 
L 1269.167637 56.026327 
L 1273.717226 51.008597 
L 1278.266814 46.469136 
L 1282.816403 42.368581 
L 1287.365991 38.67974 
L 1291.91558 35.386177 
L 1296.465169 32.481607 
L 1299.498228 30.762874 
L 1302.531287 29.22249 
L 1305.564346 27.866785 
L 1308.597405 26.704832 
L 1311.630464 25.748892 
L 1314.663523 25.015016 
L 1317.696582 24.523853 
L 1320.729641 24.301768 
L 1323.7627 24.382356 
L 1326.795759 24.808563 
L 1329.828818 25.63569 
L 1331.345348 26.221294 
L 1332.861877 26.935758 
L 1334.378407 27.791717 
L 1335.894936 28.803951 
L 1337.411466 29.989566 
L 1338.927995 31.368749 
L 1340.444525 32.965365 
L 1341.961054 34.807887 
L 1343.477584 36.930724 
L 1344.994113 39.375662 
L 1346.510643 42.194395 
L 1348.027172 45.45156 
L 1349.543702 49.229611 
L 1351.060231 53.635629 
L 1352.576761 58.812298 
L 1354.09329 64.955353 
L 1355.60982 72.343332 
L 1357.126349 81.39187 
L 1358.642879 92.760934 
L 1360.159409 107.593434 
L 1361.675938 128.142181 
L 1363.192468 159.930682 
L 1364.708997 224.866762 
L 1364.708997 224.866762 
" clip-path="url(#p48f3cfe67a)" style="fill: none; stroke: #910a2c; stroke-width: 2.5; stroke-linecap: square"/>
   </g>
   <g id="patch_13">
    <path d="M 1045.456555 383.438895 
L 1045.456555 7.2 
" style="fill: none; stroke: #000000; stroke-width: 0.8; stroke-linejoin: miter; stroke-linecap: square"/>
   </g>
   <g id="patch_14">
    <path d="M 1426.886707 383.438895 
L 1426.886707 7.2 
" style="fill: none; stroke: #000000; stroke-width: 0.8; stroke-linejoin: miter; stroke-linecap: square"/>
   </g>
   <g id="patch_15">
    <path d="M 1045.456555 383.438895 
L 1426.886707 383.438895 
" style="fill: none; stroke: #000000; stroke-width: 0.8; stroke-linejoin: miter; stroke-linecap: square"/>
   </g>
   <g id="patch_16">
    <path d="M 1045.456555 7.2 
L 1426.886707 7.2 
" style="fill: none; stroke: #000000; stroke-width: 0.8; stroke-linejoin: miter; stroke-linecap: square"/>
   </g>
   <g id="legend_3">
    <g id="line2d_101">
     <path d="M 1059.856555 28.16 
L 1075.856555 28.16 
L 1091.856555 28.16 
" style="fill: none; stroke: #910a2c; stroke-width: 2.5; stroke-linecap: square"/>
    </g>
    <g id="text_52">
     <!-- $T_c(p)$ -->
     <g transform="translate(1104.656555 33.76) scale(0.16 -0.16)">
      <use xlink:href="#DejaVuSans-Oblique-54" transform="translate(0 0.125)"/>
      <use xlink:href="#DejaVuSans-Oblique-63" transform="translate(61.083984 -16.28125) scale(0.7)"/>
      <use xlink:href="#DejaVuSans-28" transform="translate(102.304688 0.125)"/>
      <use xlink:href="#DejaVuSans-Oblique-70" transform="translate(141.318359 0.125)"/>
      <use xlink:href="#DejaVuSans-29" transform="translate(204.794922 0.125)"/>
     </g>
    </g>
    <g id="PathCollection_5">
     <g>
      <use xlink:href="#m9d6c33f1c3" x="1075.856555" y="56.6" style="fill: #2a2a2a; stroke: #2a2a2a"/>
     </g>
    </g>
    <g id="text_53">
     <!-- $p_{\rm opt}^{T_c} \approx 0.722$ -->
     <g transform="translate(1104.656555 60.8) scale(0.16 -0.16)">
      <defs>
       <path id="DejaVuSans-37" d="M 525 4666 
L 3525 4666 
L 3525 4397 
L 1831 0 
L 1172 0 
L 2766 4134 
L 525 4134 
L 525 4666 
z
" transform="scale(0.015625)"/>
      </defs>
      <use xlink:href="#DejaVuSans-Oblique-70" transform="translate(0 0.475156)"/>
      <use xlink:href="#DejaVuSans-Oblique-54" transform="translate(68.126458 46.965625) scale(0.7)"/>
      <use xlink:href="#DejaVuSans-Oblique-63" transform="translate(110.885247 35.48125) scale(0.49)"/>
      <use xlink:href="#DejaVuSans-6f" transform="translate(63.476562 -26.868594) scale(0.7)"/>
      <use xlink:href="#DejaVuSans-70" transform="translate(106.303711 -26.868594) scale(0.7)"/>
      <use xlink:href="#DejaVuSans-74" transform="translate(150.737305 -26.868594) scale(0.7)"/>
      <use xlink:href="#DejaVuSans-2248" transform="translate(200.400391 0.475156)"/>
      <use xlink:href="#DejaVuSans-30" transform="translate(303.671875 0.475156)"/>
      <use xlink:href="#DejaVuSans-2e" transform="translate(367.294922 0.475156)"/>
      <use xlink:href="#DejaVuSans-37" transform="translate(391.332031 0.475156)"/>
      <use xlink:href="#DejaVuSans-32" transform="translate(454.955078 0.475156)"/>
      <use xlink:href="#DejaVuSans-32" transform="translate(518.578125 0.475156)"/>
     </g>
    </g>
   </g>
   <g id="line2d_102">
    <path d="M 1320.729641 383.438895 
L 1320.729641 7.2 
" clip-path="url(#p48f3cfe67a)" style="fill: none; stroke-dasharray: 2,3.3; stroke-dashoffset: 0; stroke: #2a2a2a; stroke-opacity: 0.9; stroke-width: 2"/>
   </g>
   <g id="PathCollection_6">
    <g clip-path="url(#p48f3cfe67a)">
     <use xlink:href="#m9d6c33f1c3" x="1320.729641" y="24.301768" style="fill: #2a2a2a; stroke: #2a2a2a"/>
    </g>
   </g>
  </g>
 </g>
 <defs>
  <clipPath id="p5d7916a061">
   <rect x="83.249063" y="7.2" width="381.430152" height="376.238895"/>
  </clipPath>
  <clipPath id="pf0d80e2ebd">
   <rect x="576.09359" y="7.2" width="381.430152" height="376.238895"/>
  </clipPath>
  <clipPath id="p48f3cfe67a">
   <rect x="1045.456555" y="7.2" width="381.430153" height="376.238895"/>
  </clipPath>
 </defs>
</svg>
