<?xml version="1.0" encoding="utf-8" standalone="no"?>
<!DOCTYPE svg PUBLIC "-//W3C//DTD SVG 1.1//EN"
  "http://www.w3.org/Graphics/SVG/1.1/DTD/svg11.dtd">
<svg xmlns:xlink="http://www.w3.org/1999/xlink" width="615.365pt" height="396.901pt" viewBox="0 0 615.365 396.901" xmlns="http://www.w3.org/2000/svg" version="1.1">
 <metadata>
  <rdf:RDF xmlns:dc="http://purl.org/dc/elements/1.1/" xmlns:cc="http://creativecommons.org/ns#" xmlns:rdf="http://www.w3.org/1999/02/22-rdf-syntax-ns#">
   <cc:Work>
    <dc:type rdf:resource="http://purl.org/dc/dcmitype/StillImage"/>
    <dc:date>2026-06-08T01:01:09.063515</dc:date>
    <dc:format>image/svg+xml</dc:format>
    <dc:creator>
     <cc:Agent>
      <dc:title>Matplotlib v3.10.9, https://matplotlib.org/</dc:title>
     </cc:Agent>
    </dc:creator>
   </cc:Work>
  </rdf:RDF>
 </metadata>
 <defs>
  <style type="text/css">*{stroke-linejoin: round; stroke-linecap: butt}</style>
 </defs>
 <g id="figure_1">
  <g id="patch_1">
   <path d="M 0 396.901 
L 615.365 396.901 
L 615.365 0 
L 0 0 
L 0 396.901 
z
" style="fill: none"/>
  </g>
  <g id="axes_1">
   <g id="patch_2">
    <path d="M 73.225 343.816 
L 608.165 343.816 
L 608.165 7.2 
L 73.225 7.2 
L 73.225 343.816 
z
" style="fill: none"/>
   </g>
   <g id="matplotlib.axis_1">
    <g id="xtick_1">
     <g id="line2d_1">
      <path d="M 143.581785 343.816 
L 143.581785 7.2 
" clip-path="url(#p5854238375)" style="fill: none; stroke-dasharray: 2.96,1.28; stroke-dashoffset: 0; stroke: #b0b0b0; stroke-opacity: 0.25; stroke-width: 0.8"/>
     </g>
     <g id="line2d_2">
      <defs>
       <path id="mfcebd1b07a" d="M 0 0 
L 0 3.5 
" style="stroke: #000000; stroke-width: 0.8"/>
      </defs>
      <g>
       <use xlink:href="#mfcebd1b07a" x="143.581785" y="343.816" style="stroke: #000000; stroke-width: 0.8"/>
      </g>
     </g>
     <g id="text_1">
      <!-- $\mathdefault{10^{-4}}$ -->
      <g transform="translate(124.781785 362.9735) scale(0.16 -0.16)">
       <defs>
        <path id="DejaVuSans-31" d="M 794 531 
L 1825 531 
L 1825 4091 
L 703 3866 
L 703 4441 
L 1819 4666 
L 2450 4666 
L 2450 531 
L 3481 531 
L 3481 0 
L 794 0 
L 794 531 
z
" transform="scale(0.015625)"/>
        <path id="DejaVuSans-30" d="M 2034 4250 
Q 1547 4250 1301 3770 
Q 1056 3291 1056 2328 
Q 1056 1369 1301 889 
Q 1547 409 2034 409 
Q 2525 409 2770 889 
Q 3016 1369 3016 2328 
Q 3016 3291 2770 3770 
Q 2525 4250 2034 4250 
z
M 2034 4750 
Q 2819 4750 3233 4129 
Q 3647 3509 3647 2328 
Q 3647 1150 3233 529 
Q 2819 -91 2034 -91 
Q 1250 -91 836 529 
Q 422 1150 422 2328 
Q 422 3509 836 4129 
Q 1250 4750 2034 4750 
z
" transform="scale(0.015625)"/>
        <path id="DejaVuSans-2212" d="M 678 2272 
L 4684 2272 
L 4684 1741 
L 678 1741 
L 678 2272 
z
" transform="scale(0.015625)"/>
        <path id="DejaVuSans-34" d="M 2419 4116 
L 825 1625 
L 2419 1625 
L 2419 4116 
z
M 2253 4666 
L 3047 4666 
L 3047 1625 
L 3713 1625 
L 3713 1100 
L 3047 1100 
L 3047 0 
L 2419 0 
L 2419 1100 
L 313 1100 
L 313 1709 
L 2253 4666 
z
" transform="scale(0.015625)"/>
       </defs>
       <use xlink:href="#DejaVuSans-31" transform="translate(0 0.684375)"/>
       <use xlink:href="#DejaVuSans-30" transform="translate(63.623047 0.684375)"/>
       <use xlink:href="#DejaVuSans-2212" transform="translate(128.203125 38.965625) scale(0.7)"/>
       <use xlink:href="#DejaVuSans-34" transform="translate(186.855469 38.965625) scale(0.7)"/>
      </g>
     </g>
    </g>
    <g id="xtick_2">
     <g id="line2d_3">
      <path d="M 231.635337 343.816 
L 231.635337 7.2 
" clip-path="url(#p5854238375)" style="fill: none; stroke-dasharray: 2.96,1.28; stroke-dashoffset: 0; stroke: #b0b0b0; stroke-opacity: 0.25; stroke-width: 0.8"/>
     </g>
     <g id="line2d_4">
      <g>
       <use xlink:href="#mfcebd1b07a" x="231.635337" y="343.816" style="stroke: #000000; stroke-width: 0.8"/>
      </g>
     </g>
     <g id="text_2">
      <!-- $\mathdefault{10^{-3}}$ -->
      <g transform="translate(212.835337 362.9735) scale(0.16 -0.16)">
       <defs>
        <path id="DejaVuSans-33" d="M 2597 2516 
Q 3050 2419 3304 2112 
Q 3559 1806 3559 1356 
Q 3559 666 3084 287 
Q 2609 -91 1734 -91 
Q 1441 -91 1130 -33 
Q 819 25 488 141 
L 488 750 
Q 750 597 1062 519 
Q 1375 441 1716 441 
Q 2309 441 2620 675 
Q 2931 909 2931 1356 
Q 2931 1769 2642 2001 
Q 2353 2234 1838 2234 
L 1294 2234 
L 1294 2753 
L 1863 2753 
Q 2328 2753 2575 2939 
Q 2822 3125 2822 3475 
Q 2822 3834 2567 4026 
Q 2313 4219 1838 4219 
Q 1578 4219 1281 4162 
Q 984 4106 628 3988 
L 628 4550 
Q 988 4650 1302 4700 
Q 1616 4750 1894 4750 
Q 2613 4750 3031 4423 
Q 3450 4097 3450 3541 
Q 3450 3153 3228 2886 
Q 3006 2619 2597 2516 
z
" transform="scale(0.015625)"/>
       </defs>
       <use xlink:href="#DejaVuSans-31" transform="translate(0 0.765625)"/>
       <use xlink:href="#DejaVuSans-30" transform="translate(63.623047 0.765625)"/>
       <use xlink:href="#DejaVuSans-2212" transform="translate(128.203125 39.046875) scale(0.7)"/>
       <use xlink:href="#DejaVuSans-33" transform="translate(186.855469 39.046875) scale(0.7)"/>
      </g>
     </g>
    </g>
    <g id="xtick_3">
     <g id="line2d_5">
      <path d="M 319.688889 343.816 
L 319.688889 7.2 
" clip-path="url(#p5854238375)" style="fill: none; stroke-dasharray: 2.96,1.28; stroke-dashoffset: 0; stroke: #b0b0b0; stroke-opacity: 0.25; stroke-width: 0.8"/>
     </g>
     <g id="line2d_6">
      <g>
       <use xlink:href="#mfcebd1b07a" x="319.688889" y="343.816" style="stroke: #000000; stroke-width: 0.8"/>
      </g>
     </g>
     <g id="text_3">
      <!-- $\mathdefault{10^{-2}}$ -->
      <g transform="translate(300.888889 362.9735) scale(0.16 -0.16)">
       <defs>
        <path id="DejaVuSans-32" d="M 1228 531 
L 3431 531 
L 3431 0 
L 469 0 
L 469 531 
Q 828 903 1448 1529 
Q 2069 2156 2228 2338 
Q 2531 2678 2651 2914 
Q 2772 3150 2772 3378 
Q 2772 3750 2511 3984 
Q 2250 4219 1831 4219 
Q 1534 4219 1204 4116 
Q 875 4013 500 3803 
L 500 4441 
Q 881 4594 1212 4672 
Q 1544 4750 1819 4750 
Q 2544 4750 2975 4387 
Q 3406 4025 3406 3419 
Q 3406 3131 3298 2873 
Q 3191 2616 2906 2266 
Q 2828 2175 2409 1742 
Q 1991 1309 1228 531 
z
" transform="scale(0.015625)"/>
       </defs>
       <use xlink:href="#DejaVuSans-31" transform="translate(0 0.765625)"/>
       <use xlink:href="#DejaVuSans-30" transform="translate(63.623047 0.765625)"/>
       <use xlink:href="#DejaVuSans-2212" transform="translate(128.203125 39.046875) scale(0.7)"/>
       <use xlink:href="#DejaVuSans-32" transform="translate(186.855469 39.046875) scale(0.7)"/>
      </g>
     </g>
    </g>
    <g id="xtick_4">
     <g id="line2d_7">
      <path d="M 407.742441 343.816 
L 407.742441 7.2 
" clip-path="url(#p5854238375)" style="fill: none; stroke-dasharray: 2.96,1.28; stroke-dashoffset: 0; stroke: #b0b0b0; stroke-opacity: 0.25; stroke-width: 0.8"/>
     </g>
     <g id="line2d_8">
      <g>
       <use xlink:href="#mfcebd1b07a" x="407.742441" y="343.816" style="stroke: #000000; stroke-width: 0.8"/>
      </g>
     </g>
     <g id="text_4">
      <!-- $\mathdefault{10^{-1}}$ -->
      <g transform="translate(388.942441 362.9735) scale(0.16 -0.16)">
       <use xlink:href="#DejaVuSans-31" transform="translate(0 0.684375)"/>
       <use xlink:href="#DejaVuSans-30" transform="translate(63.623047 0.684375)"/>
       <use xlink:href="#DejaVuSans-2212" transform="translate(128.203125 38.965625) scale(0.7)"/>
       <use xlink:href="#DejaVuSans-31" transform="translate(186.855469 38.965625) scale(0.7)"/>
      </g>
     </g>
    </g>
    <g id="xtick_5">
     <g id="line2d_9">
      <path d="M 495.795993 343.816 
L 495.795993 7.2 
" clip-path="url(#p5854238375)" style="fill: none; stroke-dasharray: 2.96,1.28; stroke-dashoffset: 0; stroke: #b0b0b0; stroke-opacity: 0.25; stroke-width: 0.8"/>
     </g>
     <g id="line2d_10">
      <g>
       <use xlink:href="#mfcebd1b07a" x="495.795993" y="343.816" style="stroke: #000000; stroke-width: 0.8"/>
      </g>
     </g>
     <g id="text_5">
      <!-- $\mathdefault{10^{0}}$ -->
      <g transform="translate(481.715993 362.9735) scale(0.16 -0.16)">
       <use xlink:href="#DejaVuSans-31" transform="translate(0 0.765625)"/>
       <use xlink:href="#DejaVuSans-30" transform="translate(63.623047 0.765625)"/>
       <use xlink:href="#DejaVuSans-30" transform="translate(128.203125 39.046875) scale(0.7)"/>
      </g>
     </g>
    </g>
    <g id="xtick_6">
     <g id="line2d_11">
      <path d="M 583.849545 343.816 
L 583.849545 7.2 
" clip-path="url(#p5854238375)" style="fill: none; stroke-dasharray: 2.96,1.28; stroke-dashoffset: 0; stroke: #b0b0b0; stroke-opacity: 0.25; stroke-width: 0.8"/>
     </g>
     <g id="line2d_12">
      <g>
       <use xlink:href="#mfcebd1b07a" x="583.849545" y="343.816" style="stroke: #000000; stroke-width: 0.8"/>
      </g>
     </g>
     <g id="text_6">
      <!-- $\mathdefault{10^{1}}$ -->
      <g transform="translate(569.769545 362.9735) scale(0.16 -0.16)">
       <use xlink:href="#DejaVuSans-31" transform="translate(0 0.684375)"/>
       <use xlink:href="#DejaVuSans-30" transform="translate(63.623047 0.684375)"/>
       <use xlink:href="#DejaVuSans-31" transform="translate(128.203125 38.965625) scale(0.7)"/>
      </g>
     </g>
    </g>
    <g id="xtick_7">
     <g id="line2d_13">
      <defs>
       <path id="m2a581c1907" d="M 0 0 
L 0 2 
" style="stroke: #000000; stroke-width: 0.6"/>
      </defs>
      <g>
       <use xlink:href="#m2a581c1907" x="82.034994" y="343.816" style="stroke: #000000; stroke-width: 0.6"/>
      </g>
     </g>
    </g>
    <g id="xtick_8">
     <g id="line2d_14">
      <g>
       <use xlink:href="#m2a581c1907" x="97.540455" y="343.816" style="stroke: #000000; stroke-width: 0.6"/>
      </g>
     </g>
    </g>
    <g id="xtick_9">
     <g id="line2d_15">
      <g>
       <use xlink:href="#m2a581c1907" x="108.541754" y="343.816" style="stroke: #000000; stroke-width: 0.6"/>
      </g>
     </g>
    </g>
    <g id="xtick_10">
     <g id="line2d_16">
      <g>
       <use xlink:href="#m2a581c1907" x="117.075025" y="343.816" style="stroke: #000000; stroke-width: 0.6"/>
      </g>
     </g>
    </g>
    <g id="xtick_11">
     <g id="line2d_17">
      <g>
       <use xlink:href="#m2a581c1907" x="124.047215" y="343.816" style="stroke: #000000; stroke-width: 0.6"/>
      </g>
     </g>
    </g>
    <g id="xtick_12">
     <g id="line2d_18">
      <g>
       <use xlink:href="#m2a581c1907" x="129.942118" y="343.816" style="stroke: #000000; stroke-width: 0.6"/>
      </g>
     </g>
    </g>
    <g id="xtick_13">
     <g id="line2d_19">
      <g>
       <use xlink:href="#m2a581c1907" x="135.048514" y="343.816" style="stroke: #000000; stroke-width: 0.6"/>
      </g>
     </g>
    </g>
    <g id="xtick_14">
     <g id="line2d_20">
      <g>
       <use xlink:href="#m2a581c1907" x="139.552676" y="343.816" style="stroke: #000000; stroke-width: 0.6"/>
      </g>
     </g>
    </g>
    <g id="xtick_15">
     <g id="line2d_21">
      <g>
       <use xlink:href="#m2a581c1907" x="170.088546" y="343.816" style="stroke: #000000; stroke-width: 0.6"/>
      </g>
     </g>
    </g>
    <g id="xtick_16">
     <g id="line2d_22">
      <g>
       <use xlink:href="#m2a581c1907" x="185.594007" y="343.816" style="stroke: #000000; stroke-width: 0.6"/>
      </g>
     </g>
    </g>
    <g id="xtick_17">
     <g id="line2d_23">
      <g>
       <use xlink:href="#m2a581c1907" x="196.595306" y="343.816" style="stroke: #000000; stroke-width: 0.6"/>
      </g>
     </g>
    </g>
    <g id="xtick_18">
     <g id="line2d_24">
      <g>
       <use xlink:href="#m2a581c1907" x="205.128577" y="343.816" style="stroke: #000000; stroke-width: 0.6"/>
      </g>
     </g>
    </g>
    <g id="xtick_19">
     <g id="line2d_25">
      <g>
       <use xlink:href="#m2a581c1907" x="212.100767" y="343.816" style="stroke: #000000; stroke-width: 0.6"/>
      </g>
     </g>
    </g>
    <g id="xtick_20">
     <g id="line2d_26">
      <g>
       <use xlink:href="#m2a581c1907" x="217.99567" y="343.816" style="stroke: #000000; stroke-width: 0.6"/>
      </g>
     </g>
    </g>
    <g id="xtick_21">
     <g id="line2d_27">
      <g>
       <use xlink:href="#m2a581c1907" x="223.102066" y="343.816" style="stroke: #000000; stroke-width: 0.6"/>
      </g>
     </g>
    </g>
    <g id="xtick_22">
     <g id="line2d_28">
      <g>
       <use xlink:href="#m2a581c1907" x="227.606228" y="343.816" style="stroke: #000000; stroke-width: 0.6"/>
      </g>
     </g>
    </g>
    <g id="xtick_23">
     <g id="line2d_29">
      <g>
       <use xlink:href="#m2a581c1907" x="258.142098" y="343.816" style="stroke: #000000; stroke-width: 0.6"/>
      </g>
     </g>
    </g>
    <g id="xtick_24">
     <g id="line2d_30">
      <g>
       <use xlink:href="#m2a581c1907" x="273.647559" y="343.816" style="stroke: #000000; stroke-width: 0.6"/>
      </g>
     </g>
    </g>
    <g id="xtick_25">
     <g id="line2d_31">
      <g>
       <use xlink:href="#m2a581c1907" x="284.648858" y="343.816" style="stroke: #000000; stroke-width: 0.6"/>
      </g>
     </g>
    </g>
    <g id="xtick_26">
     <g id="line2d_32">
      <g>
       <use xlink:href="#m2a581c1907" x="293.182129" y="343.816" style="stroke: #000000; stroke-width: 0.6"/>
      </g>
     </g>
    </g>
    <g id="xtick_27">
     <g id="line2d_33">
      <g>
       <use xlink:href="#m2a581c1907" x="300.154319" y="343.816" style="stroke: #000000; stroke-width: 0.6"/>
      </g>
     </g>
    </g>
    <g id="xtick_28">
     <g id="line2d_34">
      <g>
       <use xlink:href="#m2a581c1907" x="306.049222" y="343.816" style="stroke: #000000; stroke-width: 0.6"/>
      </g>
     </g>
    </g>
    <g id="xtick_29">
     <g id="line2d_35">
      <g>
       <use xlink:href="#m2a581c1907" x="311.155619" y="343.816" style="stroke: #000000; stroke-width: 0.6"/>
      </g>
     </g>
    </g>
    <g id="xtick_30">
     <g id="line2d_36">
      <g>
       <use xlink:href="#m2a581c1907" x="315.65978" y="343.816" style="stroke: #000000; stroke-width: 0.6"/>
      </g>
     </g>
    </g>
    <g id="xtick_31">
     <g id="line2d_37">
      <g>
       <use xlink:href="#m2a581c1907" x="346.19565" y="343.816" style="stroke: #000000; stroke-width: 0.6"/>
      </g>
     </g>
    </g>
    <g id="xtick_32">
     <g id="line2d_38">
      <g>
       <use xlink:href="#m2a581c1907" x="361.701111" y="343.816" style="stroke: #000000; stroke-width: 0.6"/>
      </g>
     </g>
    </g>
    <g id="xtick_33">
     <g id="line2d_39">
      <g>
       <use xlink:href="#m2a581c1907" x="372.70241" y="343.816" style="stroke: #000000; stroke-width: 0.6"/>
      </g>
     </g>
    </g>
    <g id="xtick_34">
     <g id="line2d_40">
      <g>
       <use xlink:href="#m2a581c1907" x="381.235681" y="343.816" style="stroke: #000000; stroke-width: 0.6"/>
      </g>
     </g>
    </g>
    <g id="xtick_35">
     <g id="line2d_41">
      <g>
       <use xlink:href="#m2a581c1907" x="388.207871" y="343.816" style="stroke: #000000; stroke-width: 0.6"/>
      </g>
     </g>
    </g>
    <g id="xtick_36">
     <g id="line2d_42">
      <g>
       <use xlink:href="#m2a581c1907" x="394.102774" y="343.816" style="stroke: #000000; stroke-width: 0.6"/>
      </g>
     </g>
    </g>
    <g id="xtick_37">
     <g id="line2d_43">
      <g>
       <use xlink:href="#m2a581c1907" x="399.209171" y="343.816" style="stroke: #000000; stroke-width: 0.6"/>
      </g>
     </g>
    </g>
    <g id="xtick_38">
     <g id="line2d_44">
      <g>
       <use xlink:href="#m2a581c1907" x="403.713332" y="343.816" style="stroke: #000000; stroke-width: 0.6"/>
      </g>
     </g>
    </g>
    <g id="xtick_39">
     <g id="line2d_45">
      <g>
       <use xlink:href="#m2a581c1907" x="434.249202" y="343.816" style="stroke: #000000; stroke-width: 0.6"/>
      </g>
     </g>
    </g>
    <g id="xtick_40">
     <g id="line2d_46">
      <g>
       <use xlink:href="#m2a581c1907" x="449.754663" y="343.816" style="stroke: #000000; stroke-width: 0.6"/>
      </g>
     </g>
    </g>
    <g id="xtick_41">
     <g id="line2d_47">
      <g>
       <use xlink:href="#m2a581c1907" x="460.755962" y="343.816" style="stroke: #000000; stroke-width: 0.6"/>
      </g>
     </g>
    </g>
    <g id="xtick_42">
     <g id="line2d_48">
      <g>
       <use xlink:href="#m2a581c1907" x="469.289233" y="343.816" style="stroke: #000000; stroke-width: 0.6"/>
      </g>
     </g>
    </g>
    <g id="xtick_43">
     <g id="line2d_49">
      <g>
       <use xlink:href="#m2a581c1907" x="476.261423" y="343.816" style="stroke: #000000; stroke-width: 0.6"/>
      </g>
     </g>
    </g>
    <g id="xtick_44">
     <g id="line2d_50">
      <g>
       <use xlink:href="#m2a581c1907" x="482.156326" y="343.816" style="stroke: #000000; stroke-width: 0.6"/>
      </g>
     </g>
    </g>
    <g id="xtick_45">
     <g id="line2d_51">
      <g>
       <use xlink:href="#m2a581c1907" x="487.262723" y="343.816" style="stroke: #000000; stroke-width: 0.6"/>
      </g>
     </g>
    </g>
    <g id="xtick_46">
     <g id="line2d_52">
      <g>
       <use xlink:href="#m2a581c1907" x="491.766884" y="343.816" style="stroke: #000000; stroke-width: 0.6"/>
      </g>
     </g>
    </g>
    <g id="xtick_47">
     <g id="line2d_53">
      <g>
       <use xlink:href="#m2a581c1907" x="522.302754" y="343.816" style="stroke: #000000; stroke-width: 0.6"/>
      </g>
     </g>
    </g>
    <g id="xtick_48">
     <g id="line2d_54">
      <g>
       <use xlink:href="#m2a581c1907" x="537.808215" y="343.816" style="stroke: #000000; stroke-width: 0.6"/>
      </g>
     </g>
    </g>
    <g id="xtick_49">
     <g id="line2d_55">
      <g>
       <use xlink:href="#m2a581c1907" x="548.809514" y="343.816" style="stroke: #000000; stroke-width: 0.6"/>
      </g>
     </g>
    </g>
    <g id="xtick_50">
     <g id="line2d_56">
      <g>
       <use xlink:href="#m2a581c1907" x="557.342785" y="343.816" style="stroke: #000000; stroke-width: 0.6"/>
      </g>
     </g>
    </g>
    <g id="xtick_51">
     <g id="line2d_57">
      <g>
       <use xlink:href="#m2a581c1907" x="564.314975" y="343.816" style="stroke: #000000; stroke-width: 0.6"/>
      </g>
     </g>
    </g>
    <g id="xtick_52">
     <g id="line2d_58">
      <g>
       <use xlink:href="#m2a581c1907" x="570.209878" y="343.816" style="stroke: #000000; stroke-width: 0.6"/>
      </g>
     </g>
    </g>
    <g id="xtick_53">
     <g id="line2d_59">
      <g>
       <use xlink:href="#m2a581c1907" x="575.316275" y="343.816" style="stroke: #000000; stroke-width: 0.6"/>
      </g>
     </g>
    </g>
    <g id="xtick_54">
     <g id="line2d_60">
      <g>
       <use xlink:href="#m2a581c1907" x="579.820436" y="343.816" style="stroke: #000000; stroke-width: 0.6"/>
      </g>
     </g>
    </g>
    <g id="text_7">
     <!-- Switching period $T$ -->
     <g transform="translate(247.795 385.501) scale(0.2 -0.2)">
      <defs>
       <path id="DejaVuSans-53" d="M 3425 4513 
L 3425 3897 
Q 3066 4069 2747 4153 
Q 2428 4238 2131 4238 
Q 1616 4238 1336 4038 
Q 1056 3838 1056 3469 
Q 1056 3159 1242 3001 
Q 1428 2844 1947 2747 
L 2328 2669 
Q 3034 2534 3370 2195 
Q 3706 1856 3706 1288 
Q 3706 609 3251 259 
Q 2797 -91 1919 -91 
Q 1588 -91 1214 -16 
Q 841 59 441 206 
L 441 856 
Q 825 641 1194 531 
Q 1563 422 1919 422 
Q 2459 422 2753 634 
Q 3047 847 3047 1241 
Q 3047 1584 2836 1778 
Q 2625 1972 2144 2069 
L 1759 2144 
Q 1053 2284 737 2584 
Q 422 2884 422 3419 
Q 422 4038 858 4394 
Q 1294 4750 2059 4750 
Q 2388 4750 2728 4690 
Q 3069 4631 3425 4513 
z
" transform="scale(0.015625)"/>
       <path id="DejaVuSans-77" d="M 269 3500 
L 844 3500 
L 1563 769 
L 2278 3500 
L 2956 3500 
L 3675 769 
L 4391 3500 
L 4966 3500 
L 4050 0 
L 3372 0 
L 2619 2869 
L 1863 0 
L 1184 0 
L 269 3500 
z
" transform="scale(0.015625)"/>
       <path id="DejaVuSans-69" d="M 603 3500 
L 1178 3500 
L 1178 0 
L 603 0 
L 603 3500 
z
M 603 4863 
L 1178 4863 
L 1178 4134 
L 603 4134 
L 603 4863 
z
" transform="scale(0.015625)"/>
       <path id="DejaVuSans-74" d="M 1172 4494 
L 1172 3500 
L 2356 3500 
L 2356 3053 
L 1172 3053 
L 1172 1153 
Q 1172 725 1289 603 
Q 1406 481 1766 481 
L 2356 481 
L 2356 0 
L 1766 0 
Q 1100 0 847 248 
Q 594 497 594 1153 
L 594 3053 
L 172 3053 
L 172 3500 
L 594 3500 
L 594 4494 
L 1172 4494 
z
" transform="scale(0.015625)"/>
       <path id="DejaVuSans-63" d="M 3122 3366 
L 3122 2828 
Q 2878 2963 2633 3030 
Q 2388 3097 2138 3097 
Q 1578 3097 1268 2742 
Q 959 2388 959 1747 
Q 959 1106 1268 751 
Q 1578 397 2138 397 
Q 2388 397 2633 464 
Q 2878 531 3122 666 
L 3122 134 
Q 2881 22 2623 -34 
Q 2366 -91 2075 -91 
Q 1284 -91 818 406 
Q 353 903 353 1747 
Q 353 2603 823 3093 
Q 1294 3584 2113 3584 
Q 2378 3584 2631 3529 
Q 2884 3475 3122 3366 
z
" transform="scale(0.015625)"/>
       <path id="DejaVuSans-68" d="M 3513 2113 
L 3513 0 
L 2938 0 
L 2938 2094 
Q 2938 2591 2744 2837 
Q 2550 3084 2163 3084 
Q 1697 3084 1428 2787 
Q 1159 2491 1159 1978 
L 1159 0 
L 581 0 
L 581 4863 
L 1159 4863 
L 1159 2956 
Q 1366 3272 1645 3428 
Q 1925 3584 2291 3584 
Q 2894 3584 3203 3211 
Q 3513 2838 3513 2113 
z
" transform="scale(0.015625)"/>
       <path id="DejaVuSans-6e" d="M 3513 2113 
L 3513 0 
L 2938 0 
L 2938 2094 
Q 2938 2591 2744 2837 
Q 2550 3084 2163 3084 
Q 1697 3084 1428 2787 
Q 1159 2491 1159 1978 
L 1159 0 
L 581 0 
L 581 3500 
L 1159 3500 
L 1159 2956 
Q 1366 3272 1645 3428 
Q 1925 3584 2291 3584 
Q 2894 3584 3203 3211 
Q 3513 2838 3513 2113 
z
" transform="scale(0.015625)"/>
       <path id="DejaVuSans-67" d="M 2906 1791 
Q 2906 2416 2648 2759 
Q 2391 3103 1925 3103 
Q 1463 3103 1205 2759 
Q 947 2416 947 1791 
Q 947 1169 1205 825 
Q 1463 481 1925 481 
Q 2391 481 2648 825 
Q 2906 1169 2906 1791 
z
M 3481 434 
Q 3481 -459 3084 -895 
Q 2688 -1331 1869 -1331 
Q 1566 -1331 1297 -1286 
Q 1028 -1241 775 -1147 
L 775 -588 
Q 1028 -725 1275 -790 
Q 1522 -856 1778 -856 
Q 2344 -856 2625 -561 
Q 2906 -266 2906 331 
L 2906 616 
Q 2728 306 2450 153 
Q 2172 0 1784 0 
Q 1141 0 747 490 
Q 353 981 353 1791 
Q 353 2603 747 3093 
Q 1141 3584 1784 3584 
Q 2172 3584 2450 3431 
Q 2728 3278 2906 2969 
L 2906 3500 
L 3481 3500 
L 3481 434 
z
" transform="scale(0.015625)"/>
       <path id="DejaVuSans-20" transform="scale(0.015625)"/>
       <path id="DejaVuSans-70" d="M 1159 525 
L 1159 -1331 
L 581 -1331 
L 581 3500 
L 1159 3500 
L 1159 2969 
Q 1341 3281 1617 3432 
Q 1894 3584 2278 3584 
Q 2916 3584 3314 3078 
Q 3713 2572 3713 1747 
Q 3713 922 3314 415 
Q 2916 -91 2278 -91 
Q 1894 -91 1617 61 
Q 1341 213 1159 525 
z
M 3116 1747 
Q 3116 2381 2855 2742 
Q 2594 3103 2138 3103 
Q 1681 3103 1420 2742 
Q 1159 2381 1159 1747 
Q 1159 1113 1420 752 
Q 1681 391 2138 391 
Q 2594 391 2855 752 
Q 3116 1113 3116 1747 
z
" transform="scale(0.015625)"/>
       <path id="DejaVuSans-65" d="M 3597 1894 
L 3597 1613 
L 953 1613 
Q 991 1019 1311 708 
Q 1631 397 2203 397 
Q 2534 397 2845 478 
Q 3156 559 3463 722 
L 3463 178 
Q 3153 47 2828 -22 
Q 2503 -91 2169 -91 
Q 1331 -91 842 396 
Q 353 884 353 1716 
Q 353 2575 817 3079 
Q 1281 3584 2069 3584 
Q 2775 3584 3186 3129 
Q 3597 2675 3597 1894 
z
M 3022 2063 
Q 3016 2534 2758 2815 
Q 2500 3097 2075 3097 
Q 1594 3097 1305 2825 
Q 1016 2553 972 2059 
L 3022 2063 
z
" transform="scale(0.015625)"/>
       <path id="DejaVuSans-72" d="M 2631 2963 
Q 2534 3019 2420 3045 
Q 2306 3072 2169 3072 
Q 1681 3072 1420 2755 
Q 1159 2438 1159 1844 
L 1159 0 
L 581 0 
L 581 3500 
L 1159 3500 
L 1159 2956 
Q 1341 3275 1631 3429 
Q 1922 3584 2338 3584 
Q 2397 3584 2469 3576 
Q 2541 3569 2628 3553 
L 2631 2963 
z
" transform="scale(0.015625)"/>
       <path id="DejaVuSans-6f" d="M 1959 3097 
Q 1497 3097 1228 2736 
Q 959 2375 959 1747 
Q 959 1119 1226 758 
Q 1494 397 1959 397 
Q 2419 397 2687 759 
Q 2956 1122 2956 1747 
Q 2956 2369 2687 2733 
Q 2419 3097 1959 3097 
z
M 1959 3584 
Q 2709 3584 3137 3096 
Q 3566 2609 3566 1747 
Q 3566 888 3137 398 
Q 2709 -91 1959 -91 
Q 1206 -91 779 398 
Q 353 888 353 1747 
Q 353 2609 779 3096 
Q 1206 3584 1959 3584 
z
" transform="scale(0.015625)"/>
       <path id="DejaVuSans-64" d="M 2906 2969 
L 2906 4863 
L 3481 4863 
L 3481 0 
L 2906 0 
L 2906 525 
Q 2725 213 2448 61 
Q 2172 -91 1784 -91 
Q 1150 -91 751 415 
Q 353 922 353 1747 
Q 353 2572 751 3078 
Q 1150 3584 1784 3584 
Q 2172 3584 2448 3432 
Q 2725 3281 2906 2969 
z
M 947 1747 
Q 947 1113 1208 752 
Q 1469 391 1925 391 
Q 2381 391 2643 752 
Q 2906 1113 2906 1747 
Q 2906 2381 2643 2742 
Q 2381 3103 1925 3103 
Q 1469 3103 1208 2742 
Q 947 2381 947 1747 
z
" transform="scale(0.015625)"/>
       <path id="DejaVuSans-Oblique-54" d="M 378 4666 
L 4325 4666 
L 4225 4134 
L 2559 4134 
L 1759 0 
L 1125 0 
L 1925 4134 
L 275 4134 
L 378 4666 
z
" transform="scale(0.015625)"/>
      </defs>
      <use xlink:href="#DejaVuSans-53" transform="translate(0 0.015625)"/>
      <use xlink:href="#DejaVuSans-77" transform="translate(63.476562 0.015625)"/>
      <use xlink:href="#DejaVuSans-69" transform="translate(145.263672 0.015625)"/>
      <use xlink:href="#DejaVuSans-74" transform="translate(173.046875 0.015625)"/>
      <use xlink:href="#DejaVuSans-63" transform="translate(212.255859 0.015625)"/>
      <use xlink:href="#DejaVuSans-68" transform="translate(267.236328 0.015625)"/>
      <use xlink:href="#DejaVuSans-69" transform="translate(330.615234 0.015625)"/>
      <use xlink:href="#DejaVuSans-6e" transform="translate(358.398438 0.015625)"/>
      <use xlink:href="#DejaVuSans-67" transform="translate(421.777344 0.015625)"/>
      <use xlink:href="#DejaVuSans-20" transform="translate(485.253906 0.015625)"/>
      <use xlink:href="#DejaVuSans-70" transform="translate(517.041016 0.015625)"/>
      <use xlink:href="#DejaVuSans-65" transform="translate(580.517578 0.015625)"/>
      <use xlink:href="#DejaVuSans-72" transform="translate(642.041016 0.015625)"/>
      <use xlink:href="#DejaVuSans-69" transform="translate(683.154297 0.015625)"/>
      <use xlink:href="#DejaVuSans-6f" transform="translate(710.9375 0.015625)"/>
      <use xlink:href="#DejaVuSans-64" transform="translate(772.119141 0.015625)"/>
      <use xlink:href="#DejaVuSans-20" transform="translate(835.595703 0.015625)"/>
      <use xlink:href="#DejaVuSans-Oblique-54" transform="translate(867.382812 0.015625)"/>
     </g>
    </g>
   </g>
   <g id="matplotlib.axis_2">
    <g id="ytick_1">
     <g id="line2d_61">
      <path d="M 73.225 328.515273 
L 608.165 328.515273 
" clip-path="url(#p5854238375)" style="fill: none; stroke-dasharray: 2.96,1.28; stroke-dashoffset: 0; stroke: #b0b0b0; stroke-opacity: 0.25; stroke-width: 0.8"/>
     </g>
     <g id="line2d_62">
      <defs>
       <path id="mdf955bbfad" d="M 0 0 
L -3.5 0 
" style="stroke: #000000; stroke-width: 0.8"/>
      </defs>
      <g>
       <use xlink:href="#mdf955bbfad" x="73.225" y="328.515273" style="stroke: #000000; stroke-width: 0.8"/>
      </g>
     </g>
     <g id="text_8">
      <!-- 0.00 -->
      <g transform="translate(30.6 334.594023) scale(0.16 -0.16)">
       <defs>
        <path id="DejaVuSans-2e" d="M 684 794 
L 1344 794 
L 1344 0 
L 684 0 
L 684 794 
z
" transform="scale(0.015625)"/>
       </defs>
       <use xlink:href="#DejaVuSans-30"/>
       <use xlink:href="#DejaVuSans-2e" transform="translate(63.623047 0)"/>
       <use xlink:href="#DejaVuSans-30" transform="translate(95.410156 0)"/>
       <use xlink:href="#DejaVuSans-30" transform="translate(159.033203 0)"/>
      </g>
     </g>
    </g>
    <g id="ytick_2">
     <g id="line2d_63">
      <path d="M 73.225 280.722126 
L 608.165 280.722126 
" clip-path="url(#p5854238375)" style="fill: none; stroke-dasharray: 2.96,1.28; stroke-dashoffset: 0; stroke: #b0b0b0; stroke-opacity: 0.25; stroke-width: 0.8"/>
     </g>
     <g id="line2d_64">
      <g>
       <use xlink:href="#mdf955bbfad" x="73.225" y="280.722126" style="stroke: #000000; stroke-width: 0.8"/>
      </g>
     </g>
     <g id="text_9">
      <!-- 0.02 -->
      <g transform="translate(30.6 286.800876) scale(0.16 -0.16)">
       <use xlink:href="#DejaVuSans-30"/>
       <use xlink:href="#DejaVuSans-2e" transform="translate(63.623047 0)"/>
       <use xlink:href="#DejaVuSans-30" transform="translate(95.410156 0)"/>
       <use xlink:href="#DejaVuSans-32" transform="translate(159.033203 0)"/>
      </g>
     </g>
    </g>
    <g id="ytick_3">
     <g id="line2d_65">
      <path d="M 73.225 232.92898 
L 608.165 232.92898 
" clip-path="url(#p5854238375)" style="fill: none; stroke-dasharray: 2.96,1.28; stroke-dashoffset: 0; stroke: #b0b0b0; stroke-opacity: 0.25; stroke-width: 0.8"/>
     </g>
     <g id="line2d_66">
      <g>
       <use xlink:href="#mdf955bbfad" x="73.225" y="232.92898" style="stroke: #000000; stroke-width: 0.8"/>
      </g>
     </g>
     <g id="text_10">
      <!-- 0.04 -->
      <g transform="translate(30.6 239.00773) scale(0.16 -0.16)">
       <use xlink:href="#DejaVuSans-30"/>
       <use xlink:href="#DejaVuSans-2e" transform="translate(63.623047 0)"/>
       <use xlink:href="#DejaVuSans-30" transform="translate(95.410156 0)"/>
       <use xlink:href="#DejaVuSans-34" transform="translate(159.033203 0)"/>
      </g>
     </g>
    </g>
    <g id="ytick_4">
     <g id="line2d_67">
      <path d="M 73.225 185.135833 
L 608.165 185.135833 
" clip-path="url(#p5854238375)" style="fill: none; stroke-dasharray: 2.96,1.28; stroke-dashoffset: 0; stroke: #b0b0b0; stroke-opacity: 0.25; stroke-width: 0.8"/>
     </g>
     <g id="line2d_68">
      <g>
       <use xlink:href="#mdf955bbfad" x="73.225" y="185.135833" style="stroke: #000000; stroke-width: 0.8"/>
      </g>
     </g>
     <g id="text_11">
      <!-- 0.06 -->
      <g transform="translate(30.6 191.214583) scale(0.16 -0.16)">
       <defs>
        <path id="DejaVuSans-36" d="M 2113 2584 
Q 1688 2584 1439 2293 
Q 1191 2003 1191 1497 
Q 1191 994 1439 701 
Q 1688 409 2113 409 
Q 2538 409 2786 701 
Q 3034 994 3034 1497 
Q 3034 2003 2786 2293 
Q 2538 2584 2113 2584 
z
M 3366 4563 
L 3366 3988 
Q 3128 4100 2886 4159 
Q 2644 4219 2406 4219 
Q 1781 4219 1451 3797 
Q 1122 3375 1075 2522 
Q 1259 2794 1537 2939 
Q 1816 3084 2150 3084 
Q 2853 3084 3261 2657 
Q 3669 2231 3669 1497 
Q 3669 778 3244 343 
Q 2819 -91 2113 -91 
Q 1303 -91 875 529 
Q 447 1150 447 2328 
Q 447 3434 972 4092 
Q 1497 4750 2381 4750 
Q 2619 4750 2861 4703 
Q 3103 4656 3366 4563 
z
" transform="scale(0.015625)"/>
       </defs>
       <use xlink:href="#DejaVuSans-30"/>
       <use xlink:href="#DejaVuSans-2e" transform="translate(63.623047 0)"/>
       <use xlink:href="#DejaVuSans-30" transform="translate(95.410156 0)"/>
       <use xlink:href="#DejaVuSans-36" transform="translate(159.033203 0)"/>
      </g>
     </g>
    </g>
    <g id="ytick_5">
     <g id="line2d_69">
      <path d="M 73.225 137.342686 
L 608.165 137.342686 
" clip-path="url(#p5854238375)" style="fill: none; stroke-dasharray: 2.96,1.28; stroke-dashoffset: 0; stroke: #b0b0b0; stroke-opacity: 0.25; stroke-width: 0.8"/>
     </g>
     <g id="line2d_70">
      <g>
       <use xlink:href="#mdf955bbfad" x="73.225" y="137.342686" style="stroke: #000000; stroke-width: 0.8"/>
      </g>
     </g>
     <g id="text_12">
      <!-- 0.08 -->
      <g transform="translate(30.6 143.421436) scale(0.16 -0.16)">
       <defs>
        <path id="DejaVuSans-38" d="M 2034 2216 
Q 1584 2216 1326 1975 
Q 1069 1734 1069 1313 
Q 1069 891 1326 650 
Q 1584 409 2034 409 
Q 2484 409 2743 651 
Q 3003 894 3003 1313 
Q 3003 1734 2745 1975 
Q 2488 2216 2034 2216 
z
M 1403 2484 
Q 997 2584 770 2862 
Q 544 3141 544 3541 
Q 544 4100 942 4425 
Q 1341 4750 2034 4750 
Q 2731 4750 3128 4425 
Q 3525 4100 3525 3541 
Q 3525 3141 3298 2862 
Q 3072 2584 2669 2484 
Q 3125 2378 3379 2068 
Q 3634 1759 3634 1313 
Q 3634 634 3220 271 
Q 2806 -91 2034 -91 
Q 1263 -91 848 271 
Q 434 634 434 1313 
Q 434 1759 690 2068 
Q 947 2378 1403 2484 
z
M 1172 3481 
Q 1172 3119 1398 2916 
Q 1625 2713 2034 2713 
Q 2441 2713 2670 2916 
Q 2900 3119 2900 3481 
Q 2900 3844 2670 4047 
Q 2441 4250 2034 4250 
Q 1625 4250 1398 4047 
Q 1172 3844 1172 3481 
z
" transform="scale(0.015625)"/>
       </defs>
       <use xlink:href="#DejaVuSans-30"/>
       <use xlink:href="#DejaVuSans-2e" transform="translate(63.623047 0)"/>
       <use xlink:href="#DejaVuSans-30" transform="translate(95.410156 0)"/>
       <use xlink:href="#DejaVuSans-38" transform="translate(159.033203 0)"/>
      </g>
     </g>
    </g>
    <g id="ytick_6">
     <g id="line2d_71">
      <path d="M 73.225 89.549539 
L 608.165 89.549539 
" clip-path="url(#p5854238375)" style="fill: none; stroke-dasharray: 2.96,1.28; stroke-dashoffset: 0; stroke: #b0b0b0; stroke-opacity: 0.25; stroke-width: 0.8"/>
     </g>
     <g id="line2d_72">
      <g>
       <use xlink:href="#mdf955bbfad" x="73.225" y="89.549539" style="stroke: #000000; stroke-width: 0.8"/>
      </g>
     </g>
     <g id="text_13">
      <!-- 0.10 -->
      <g transform="translate(30.6 95.628289) scale(0.16 -0.16)">
       <use xlink:href="#DejaVuSans-30"/>
       <use xlink:href="#DejaVuSans-2e" transform="translate(63.623047 0)"/>
       <use xlink:href="#DejaVuSans-31" transform="translate(95.410156 0)"/>
       <use xlink:href="#DejaVuSans-30" transform="translate(159.033203 0)"/>
      </g>
     </g>
    </g>
    <g id="ytick_7">
     <g id="line2d_73">
      <path d="M 73.225 41.756392 
L 608.165 41.756392 
" clip-path="url(#p5854238375)" style="fill: none; stroke-dasharray: 2.96,1.28; stroke-dashoffset: 0; stroke: #b0b0b0; stroke-opacity: 0.25; stroke-width: 0.8"/>
     </g>
     <g id="line2d_74">
      <g>
       <use xlink:href="#mdf955bbfad" x="73.225" y="41.756392" style="stroke: #000000; stroke-width: 0.8"/>
      </g>
     </g>
     <g id="text_14">
      <!-- 0.12 -->
      <g transform="translate(30.6 47.835142) scale(0.16 -0.16)">
       <use xlink:href="#DejaVuSans-30"/>
       <use xlink:href="#DejaVuSans-2e" transform="translate(63.623047 0)"/>
       <use xlink:href="#DejaVuSans-31" transform="translate(95.410156 0)"/>
       <use xlink:href="#DejaVuSans-32" transform="translate(159.033203 0)"/>
      </g>
     </g>
    </g>
    <g id="text_15">
     <!-- $y_{\max}$ on limit cycle -->
     <g transform="translate(22.4 266.808) rotate(-90) scale(0.2 -0.2)">
      <defs>
       <path id="DejaVuSans-Oblique-79" d="M 1588 -325 
Q 1188 -997 936 -1164 
Q 684 -1331 294 -1331 
L -159 -1331 
L -63 -850 
L 269 -850 
Q 509 -850 678 -719 
Q 847 -588 1056 -206 
L 1234 128 
L 459 3500 
L 1069 3500 
L 1650 819 
L 3256 3500 
L 3859 3500 
L 1588 -325 
z
" transform="scale(0.015625)"/>
       <path id="DejaVuSans-6d" d="M 3328 2828 
Q 3544 3216 3844 3400 
Q 4144 3584 4550 3584 
Q 5097 3584 5394 3201 
Q 5691 2819 5691 2113 
L 5691 0 
L 5113 0 
L 5113 2094 
Q 5113 2597 4934 2840 
Q 4756 3084 4391 3084 
Q 3944 3084 3684 2787 
Q 3425 2491 3425 1978 
L 3425 0 
L 2847 0 
L 2847 2094 
Q 2847 2600 2669 2842 
Q 2491 3084 2119 3084 
Q 1678 3084 1418 2786 
Q 1159 2488 1159 1978 
L 1159 0 
L 581 0 
L 581 3500 
L 1159 3500 
L 1159 2956 
Q 1356 3278 1631 3431 
Q 1906 3584 2284 3584 
Q 2666 3584 2933 3390 
Q 3200 3197 3328 2828 
z
" transform="scale(0.015625)"/>
       <path id="DejaVuSans-61" d="M 2194 1759 
Q 1497 1759 1228 1600 
Q 959 1441 959 1056 
Q 959 750 1161 570 
Q 1363 391 1709 391 
Q 2188 391 2477 730 
Q 2766 1069 2766 1631 
L 2766 1759 
L 2194 1759 
z
M 3341 1997 
L 3341 0 
L 2766 0 
L 2766 531 
Q 2569 213 2275 61 
Q 1981 -91 1556 -91 
Q 1019 -91 701 211 
Q 384 513 384 1019 
Q 384 1609 779 1909 
Q 1175 2209 1959 2209 
L 2766 2209 
L 2766 2266 
Q 2766 2663 2505 2880 
Q 2244 3097 1772 3097 
Q 1472 3097 1187 3025 
Q 903 2953 641 2809 
L 641 3341 
Q 956 3463 1253 3523 
Q 1550 3584 1831 3584 
Q 2591 3584 2966 3190 
Q 3341 2797 3341 1997 
z
" transform="scale(0.015625)"/>
       <path id="DejaVuSans-78" d="M 3513 3500 
L 2247 1797 
L 3578 0 
L 2900 0 
L 1881 1375 
L 863 0 
L 184 0 
L 1544 1831 
L 300 3500 
L 978 3500 
L 1906 2253 
L 2834 3500 
L 3513 3500 
z
" transform="scale(0.015625)"/>
       <path id="DejaVuSans-6c" d="M 603 4863 
L 1178 4863 
L 1178 0 
L 603 0 
L 603 4863 
z
" transform="scale(0.015625)"/>
       <path id="DejaVuSans-79" d="M 2059 -325 
Q 1816 -950 1584 -1140 
Q 1353 -1331 966 -1331 
L 506 -1331 
L 506 -850 
L 844 -850 
Q 1081 -850 1212 -737 
Q 1344 -625 1503 -206 
L 1606 56 
L 191 3500 
L 800 3500 
L 1894 763 
L 2988 3500 
L 3597 3500 
L 2059 -325 
z
" transform="scale(0.015625)"/>
      </defs>
      <use xlink:href="#DejaVuSans-Oblique-79" transform="translate(0 0.015625)"/>
      <use xlink:href="#DejaVuSans-6d" transform="translate(59.179688 -16.390625) scale(0.7)"/>
      <use xlink:href="#DejaVuSans-61" transform="translate(127.368164 -16.390625) scale(0.7)"/>
      <use xlink:href="#DejaVuSans-78" transform="translate(170.263672 -16.390625) scale(0.7)"/>
      <use xlink:href="#DejaVuSans-20" transform="translate(214.423828 0.015625)"/>
      <use xlink:href="#DejaVuSans-6f" transform="translate(246.210938 0.015625)"/>
      <use xlink:href="#DejaVuSans-6e" transform="translate(307.392578 0.015625)"/>
      <use xlink:href="#DejaVuSans-20" transform="translate(370.771484 0.015625)"/>
      <use xlink:href="#DejaVuSans-6c" transform="translate(402.558594 0.015625)"/>
      <use xlink:href="#DejaVuSans-69" transform="translate(430.341797 0.015625)"/>
      <use xlink:href="#DejaVuSans-6d" transform="translate(458.125 0.015625)"/>
      <use xlink:href="#DejaVuSans-69" transform="translate(555.537109 0.015625)"/>
      <use xlink:href="#DejaVuSans-74" transform="translate(583.320312 0.015625)"/>
      <use xlink:href="#DejaVuSans-20" transform="translate(622.529297 0.015625)"/>
      <use xlink:href="#DejaVuSans-63" transform="translate(654.316406 0.015625)"/>
      <use xlink:href="#DejaVuSans-79" transform="translate(709.296875 0.015625)"/>
      <use xlink:href="#DejaVuSans-63" transform="translate(768.476562 0.015625)"/>
      <use xlink:href="#DejaVuSans-6c" transform="translate(823.457031 0.015625)"/>
      <use xlink:href="#DejaVuSans-65" transform="translate(851.240234 0.015625)"/>
     </g>
    </g>
   </g>
   <g id="PathCollection_1"/>
   <g id="line2d_75">
    <path d="M 143.581785 328.51454 
L 148.028934 328.51454 
L 152.476084 328.51454 
L 156.923233 328.51454 
L 161.370382 328.51454 
L 165.817531 328.51454 
L 170.26468 328.51454 
L 174.711829 328.51454 
L 179.158978 328.51454 
L 183.606127 328.51454 
L 188.053276 328.51454 
L 192.500425 328.51454 
L 196.947574 328.51454 
L 201.394724 328.51454 
L 205.841873 328.51454 
L 210.289022 328.51454 
L 214.736171 328.51454 
L 219.18332 328.51454 
L 223.630469 328.51454 
L 228.077618 328.51454 
L 232.524767 328.514541 
L 236.971916 328.514541 
L 241.419065 328.514541 
L 245.866214 328.514541 
L 250.313364 328.514541 
L 254.760513 328.514541 
L 259.207662 328.514541 
L 263.654811 328.514541 
L 268.10196 328.514542 
L 272.549109 328.514542 
L 276.996258 328.514542 
L 281.443407 328.514542 
L 285.890556 328.514543 
L 290.337705 328.514543 
L 294.784854 328.514543 
L 299.232004 328.514544 
L 303.679153 328.514544 
L 308.126302 328.514545 
L 312.573451 328.514545 
L 317.0206 328.514546 
L 321.467749 328.514547 
L 325.914898 328.514548 
L 330.362047 328.514549 
L 334.809196 328.51455 
L 339.256345 328.514552 
L 343.703494 328.514553 
L 348.150644 328.514555 
L 352.597793 328.514558 
L 357.044942 328.51456 
L 361.492091 328.514563 
L 365.93924 328.514566 
L 370.386389 328.51457 
L 374.833538 328.514575 
L 379.280687 328.51458 
L 383.727836 328.514587 
L 388.174985 328.514594 
L 392.622134 328.514603 
L 397.069284 328.514613 
L 401.516433 328.514626 
L 405.963582 328.51464 
L 410.410731 328.514657 
L 414.85788 328.514677 
L 419.305029 328.5147 
L 423.752178 328.514727 
L 428.199327 328.514759 
L 432.646476 328.514795 
L 437.093625 328.514835 
L 441.540775 328.514882 
L 445.987924 328.514931 
L 450.435073 328.514983 
L 454.882222 328.515037 
L 459.329371 328.515089 
L 463.77652 328.515139 
L 468.223669 328.515182 
L 472.670818 328.515216 
L 477.117967 328.515241 
L 481.565116 328.515258 
L 486.012265 328.515267 
L 490.459415 328.515271 
L 494.906564 328.515273 
" clip-path="url(#p5854238375)" style="fill: none; stroke: #ff00ff; stroke-width: 2; stroke-linecap: square"/>
   </g>
   <g id="line2d_76">
    <path d="M 143.581785 107.468719 
L 148.028934 107.468292 
L 152.476084 107.46783 
L 156.923233 107.467369 
L 161.370382 107.466748 
L 165.817531 107.466096 
L 170.26468 107.465377 
L 174.711829 107.464576 
L 179.158978 107.463724 
L 183.606127 107.462714 
L 188.053276 107.461572 
L 192.500425 107.460286 
L 196.947574 107.458732 
L 201.394724 107.457103 
L 205.841873 107.455418 
L 210.289022 107.453216 
L 214.736171 107.451094 
L 219.18332 107.448343 
L 223.630469 107.445636 
L 228.077618 107.442128 
L 232.524767 107.438755 
L 236.971916 107.434332 
L 241.419065 107.429702 
L 245.866214 107.424504 
L 250.313364 107.419145 
L 254.760513 107.412119 
L 259.207662 107.404768 
L 263.654811 107.396517 
L 268.10196 107.387259 
L 272.549109 107.376871 
L 276.996258 107.366174 
L 281.443407 107.353221 
L 285.890556 107.338695 
L 290.337705 107.322409 
L 294.784854 107.302632 
L 299.232004 107.283696 
L 303.679153 107.258859 
L 308.126302 107.232958 
L 312.573451 107.206382 
L 317.0206 107.171517 
L 321.467749 107.135229 
L 325.914898 107.098092 
L 330.362047 107.049355 
L 334.809196 107.003095 
L 339.256345 106.947212 
L 343.703494 106.879505 
L 348.150644 106.815649 
L 352.597793 106.738619 
L 357.044942 106.653117 
L 361.492091 106.558372 
L 365.93924 106.443898 
L 370.386389 106.327088 
L 374.833538 106.198505 
L 379.280687 106.057395 
L 383.727836 105.918411 
L 388.174985 105.752263 
L 392.622134 105.553137 
L 397.069284 105.378813 
L 401.516433 105.148104 
L 405.963582 104.926853 
L 410.410731 104.695712 
L 414.85788 104.458126 
L 419.305029 104.21922 
L 423.752178 103.986351 
L 428.199327 103.816503 
L 432.646476 103.583746 
L 437.093625 103.44729 
L 441.540775 103.449977 
L 445.987924 103.434014 
L 450.435073 103.635772 
L 454.882222 104.135143 
L 459.329371 104.750458 
L 463.77652 105.937207 
L 468.223669 107.536643 
L 472.670818 109.796318 
L 477.117967 112.780315 
L 481.565116 117.100773 
L 486.012265 122.654874 
L 490.459415 129.889818 
L 494.906564 139.162243 
L 499.353713 150.707177 
L 503.800862 165.174783 
L 508.248011 182.851474 
L 512.69516 203.67211 
L 517.142309 227.710126 
L 521.589458 254.979216 
L 526.036607 285.008329 
L 530.483756 316.955887 
L 534.930905 328.508362 
" clip-path="url(#p5854238375)" style="fill: none; stroke: #aa55ff; stroke-width: 2; stroke-linecap: square"/>
   </g>
   <g id="line2d_77">
    <path d="M 143.581785 31.15257 
L 148.028934 31.208696 
L 152.476084 31.035367 
L 156.923233 31.203503 
L 161.370382 31.142459 
L 165.817531 31.180787 
L 170.26468 31.229964 
L 174.711829 31.220966 
L 179.158978 31.157621 
L 183.606127 31.124626 
L 188.053276 31.179699 
L 192.500425 31.172231 
L 196.947574 31.140247 
L 201.394724 31.15667 
L 205.841873 31.132893 
L 210.289022 31.113245 
L 214.736171 31.051182 
L 219.18332 30.848609 
L 223.630469 31.104092 
L 228.077618 31.09996 
L 232.524767 31.095826 
L 236.971916 31.090614 
L 241.419065 31.085063 
L 245.866214 31.078829 
L 250.313364 31.072353 
L 254.760513 31.063967 
L 259.207662 31.055141 
L 263.654811 31.045232 
L 268.10196 31.034107 
L 272.549109 31.021618 
L 276.996258 31.029032 
L 281.443407 31.013324 
L 285.890556 30.995695 
L 290.337705 30.975913 
L 294.784854 30.932153 
L 299.232004 30.928814 
L 303.679153 30.879229 
L 308.126302 30.847852 
L 312.573451 30.834437 
L 317.0206 30.773232 
L 321.467749 30.729036 
L 325.914898 30.701512 
L 330.362047 30.624067 
L 334.809196 30.584172 
L 339.256345 30.514814 
L 343.703494 30.41481 
L 348.150644 30.350518 
L 352.597793 30.253638 
L 357.044942 30.145486 
L 361.492091 30.024849 
L 365.93924 29.867118 
L 370.386389 29.717241 
L 374.833538 29.550614 
L 379.280687 29.365631 
L 383.727836 29.184945 
L 388.174985 28.958464 
L 392.622134 28.683502 
L 397.069284 28.433276 
L 401.516433 28.105556 
L 405.963582 27.774918 
L 410.410731 27.414979 
L 414.85788 27.025214 
L 419.305029 26.605864 
L 423.752178 26.158276 
L 428.199327 25.712703 
L 432.646476 25.191957 
L 437.093625 24.685981 
L 441.540775 24.205522 
L 445.987924 23.687496 
L 450.435073 23.23478 
L 454.882222 22.874451 
L 459.329371 22.584151 
L 463.77652 22.500727 
L 468.223669 22.644032 
L 472.670818 23.131175 
L 477.117967 24.101344 
L 481.565116 25.681189 
L 486.012265 28.110391 
L 490.459415 31.62875 
L 494.906564 36.539594 
L 499.353713 43.336551 
L 503.800862 52.183611 
L 508.248011 63.356865 
L 512.69516 77.670805 
L 517.142309 95.631034 
L 521.589458 116.720422 
L 526.036607 140.637134 
L 530.483756 168.591287 
L 534.930905 198.337502 
L 539.378055 229.514063 
L 543.825204 261.138019 
L 548.272353 292.283833 
L 552.719502 322.081495 
L 557.166651 328.51527 
" clip-path="url(#p5854238375)" style="fill: none; stroke: #639cff; stroke-width: 2; stroke-linecap: square"/>
   </g>
   <g id="line2d_78">
    <path d="M 143.581785 83.812047 
L 148.028934 83.811742 
L 152.476084 83.811426 
L 156.923233 83.811069 
L 161.370382 83.810658 
L 165.817531 83.810199 
L 170.26468 83.809692 
L 174.711829 83.809105 
L 179.158978 83.808502 
L 183.606127 83.807774 
L 188.053276 83.806963 
L 192.500425 83.806052 
L 196.947574 83.804972 
L 201.394724 83.803815 
L 205.841873 83.802583 
L 210.289022 83.801056 
L 214.736171 83.799499 
L 219.18332 83.797555 
L 223.630469 83.79561 
L 228.077618 83.793181 
L 232.524767 83.790704 
L 236.971916 83.787641 
L 241.419065 83.784349 
L 245.866214 83.780652 
L 250.313364 83.776711 
L 254.760513 83.771839 
L 259.207662 83.766604 
L 263.654811 83.760725 
L 268.10196 83.754125 
L 272.549109 83.746715 
L 276.996258 83.738818 
L 281.443407 83.729531 
L 285.890556 83.719105 
L 290.337705 83.707404 
L 294.784854 83.693599 
L 299.232004 83.679535 
L 303.679153 83.662151 
L 308.126302 83.643497 
L 312.573451 83.623642 
L 317.0206 83.599107 
L 321.467749 83.572796 
L 325.914898 83.544813 
L 330.362047 83.510247 
L 334.809196 83.475119 
L 339.256345 83.433876 
L 343.703494 83.385307 
L 348.150644 83.336033 
L 352.597793 83.278239 
L 357.044942 83.213632 
L 361.492091 83.141454 
L 365.93924 83.056632 
L 370.386389 82.96624 
L 374.833538 82.865506 
L 379.280687 82.753365 
L 383.727836 82.635352 
L 388.174985 82.497707 
L 392.622134 82.336796 
L 397.069284 82.176341 
L 401.516433 81.979612 
L 405.963582 81.773258 
L 410.410731 81.54674 
L 414.85788 81.29898 
L 419.305029 81.029151 
L 423.752178 80.736805 
L 428.199327 80.44173 
L 432.646476 80.085805 
L 437.093625 79.730076 
L 441.540775 79.384857 
L 445.987924 78.976358 
L 450.435073 78.59227 
L 454.882222 78.25272 
L 459.329371 77.870516 
L 463.77652 77.613029 
L 468.223669 77.398454 
L 472.670818 77.305575 
L 477.117967 77.340083 
L 481.565116 77.718682 
L 486.012265 78.386696 
L 490.459415 79.508811 
L 494.906564 81.23048 
L 499.353713 83.681187 
L 503.800862 87.179073 
L 508.248011 91.963526 
L 512.69516 98.227299 
L 517.142309 106.287585 
L 521.589458 116.481846 
L 526.036607 129.003016 
L 530.483756 143.96281 
L 534.930905 161.309017 
L 539.378055 180.774134 
L 543.825204 201.871966 
L 548.272353 223.942407 
L 552.719502 246.246378 
L 557.166651 268.065413 
L 561.6138 288.891698 
L 566.060949 308.306766 
L 570.508098 326.045992 
" clip-path="url(#p5854238375)" style="fill: none; stroke: #2ad5ff; stroke-width: 2; stroke-linecap: square"/>
   </g>
   <g id="line2d_79">
    <path d="M 143.581785 189.675439 
L 148.028934 189.675344 
L 152.476084 189.675245 
L 156.923233 189.675117 
L 161.370382 189.675 
L 165.817531 189.674855 
L 170.26468 189.674689 
L 174.711829 189.674502 
L 179.158978 189.674317 
L 183.606127 189.674078 
L 188.053276 189.673818 
L 192.500425 189.673529 
L 196.947574 189.673184 
L 201.394724 189.672815 
L 205.841873 189.672421 
L 210.289022 189.671935 
L 214.736171 189.671435 
L 219.18332 189.670813 
L 223.630469 189.670193 
L 228.077618 189.669421 
L 232.524767 189.668626 
L 236.971916 189.667653 
L 241.419065 189.666602 
L 245.866214 189.665422 
L 250.313364 189.664156 
L 254.760513 189.662608 
L 259.207662 189.660937 
L 263.654811 189.65906 
L 268.10196 189.656953 
L 272.549109 189.654587 
L 276.996258 189.652051 
L 281.443407 189.649083 
L 285.890556 189.645752 
L 290.337705 189.642013 
L 294.784854 189.637625 
L 299.232004 189.633106 
L 303.679153 189.62758 
L 308.126302 189.621621 
L 312.573451 189.615239 
L 317.0206 189.607438 
L 321.467749 189.599029 
L 325.914898 189.59003 
L 330.362047 189.579034 
L 334.809196 189.567731 
L 339.256345 189.554532 
L 343.703494 189.539071 
L 348.150644 189.523202 
L 352.597793 189.504687 
L 357.044942 189.48398 
L 361.492091 189.460837 
L 365.93924 189.433786 
L 370.386389 189.404788 
L 374.833538 189.37245 
L 379.280687 189.336421 
L 383.727836 189.298205 
L 388.174985 189.253859 
L 392.622134 189.202291 
L 397.069284 189.150105 
L 401.516433 189.086873 
L 405.963582 189.019999 
L 410.410731 188.946407 
L 414.85788 188.865673 
L 419.305029 188.77743 
L 423.752178 188.681399 
L 428.199327 188.582925 
L 432.646476 188.46562 
L 437.093625 188.346281 
L 441.540775 188.227483 
L 445.987924 188.088551 
L 450.435073 187.953433 
L 454.882222 187.827245 
L 459.329371 187.685769 
L 463.77652 187.574281 
L 468.223669 187.470063 
L 472.670818 187.394077 
L 477.117967 187.347681 
L 481.565116 187.388231 
L 486.012265 187.501363 
L 490.459415 187.731192 
L 494.906564 188.117417 
L 499.353713 188.698089 
L 503.800862 189.560036 
L 508.248011 190.773529 
L 512.69516 192.408818 
L 517.142309 194.577834 
L 521.589458 197.402119 
L 526.036607 200.989006 
L 530.483756 205.481294 
L 534.930905 210.955354 
L 539.378055 217.487335 
L 543.825204 225.092801 
L 548.272353 233.719392 
L 552.719502 243.239714 
L 557.166651 253.426337 
L 561.6138 264.128567 
L 566.060949 274.990166 
L 570.508098 285.793205 
L 574.955247 296.325901 
L 579.402396 306.415569 
L 583.849545 315.978818 
" clip-path="url(#p5854238375)" style="fill: none; stroke: #00ffff; stroke-width: 2; stroke-linecap: square"/>
   </g>
   <g id="patch_3">
    <path d="M 73.225 343.816 
L 73.225 7.2 
" style="fill: none; stroke: #000000; stroke-width: 0.8; stroke-linejoin: miter; stroke-linecap: square"/>
   </g>
   <g id="patch_4">
    <path d="M 608.165 343.816 
L 608.165 7.2 
" style="fill: none; stroke: #000000; stroke-width: 0.8; stroke-linejoin: miter; stroke-linecap: square"/>
   </g>
   <g id="patch_5">
    <path d="M 73.225 343.816 
L 608.165 343.816 
" style="fill: none; stroke: #000000; stroke-width: 0.8; stroke-linejoin: miter; stroke-linecap: square"/>
   </g>
   <g id="patch_6">
    <path d="M 73.225 7.2 
L 608.165 7.2 
" style="fill: none; stroke: #000000; stroke-width: 0.8; stroke-linejoin: miter; stroke-linecap: square"/>
   </g>
   <g id="PathCollection_2">
    <defs>
     <path id="m71d64e3775" d="M 0 -6.123724 
L -1.374862 -1.892335 
L -5.824008 -1.892335 
L -2.224573 0.722808 
L -3.599435 4.954197 
L -0 2.339054 
L 3.599435 4.954197 
L 2.224573 0.722808 
L 5.824008 -1.892335 
L 1.374862 -1.892335 
z
" style="stroke: #ff00ff"/>
    </defs>
    <g clip-path="url(#p5854238375)">
     <use xlink:href="#m71d64e3775" x="97.540455" y="328.47923" style="fill: #ff00ff; stroke: #ff00ff"/>
    </g>
   </g>
   <g id="PathCollection_3">
    <defs>
     <path id="mce4fde5497" d="M 0 -6.123724 
L -1.374862 -1.892335 
L -5.824008 -1.892335 
L -2.224573 0.722808 
L -3.599435 4.954197 
L -0 2.339054 
L 3.599435 4.954197 
L 2.224573 0.722808 
L 5.824008 -1.892335 
L 1.374862 -1.892335 
z
" style="stroke: #aa55ff"/>
    </defs>
    <g clip-path="url(#p5854238375)">
     <use xlink:href="#mce4fde5497" x="97.540455" y="107.471969" style="fill: #aa55ff; stroke: #aa55ff"/>
    </g>
   </g>
   <g id="PathCollection_4">
    <defs>
     <path id="m5a6d8e1482" d="M 0 -6.123724 
L -1.374862 -1.892335 
L -5.824008 -1.892335 
L -2.224573 0.722808 
L -3.599435 4.954197 
L -0 2.339054 
L 3.599435 4.954197 
L 2.224573 0.722808 
L 5.824008 -1.892335 
L 1.374862 -1.892335 
z
" style="stroke: #639cff"/>
    </defs>
    <g clip-path="url(#p5854238375)">
     <use xlink:href="#m5a6d8e1482" x="97.540455" y="31.141319" style="fill: #639cff; stroke: #639cff"/>
    </g>
   </g>
   <g id="PathCollection_5">
    <defs>
     <path id="m75d12b0807" d="M 0 -6.123724 
L -1.374862 -1.892335 
L -5.824008 -1.892335 
L -2.224573 0.722808 
L -3.599435 4.954197 
L -0 2.339054 
L 3.599435 4.954197 
L 2.224573 0.722808 
L 5.824008 -1.892335 
L 1.374862 -1.892335 
z
" style="stroke: #2ad5ff"/>
    </defs>
    <g clip-path="url(#p5854238375)">
     <use xlink:href="#m75d12b0807" x="97.540455" y="83.814361" style="fill: #2ad5ff; stroke: #2ad5ff"/>
    </g>
   </g>
   <g id="PathCollection_6">
    <defs>
     <path id="m1ec1757984" d="M 0 -6.123724 
L -1.374862 -1.892335 
L -5.824008 -1.892335 
L -2.224573 0.722808 
L -3.599435 4.954197 
L -0 2.339054 
L 3.599435 4.954197 
L 2.224573 0.722808 
L 5.824008 -1.892335 
L 1.374862 -1.892335 
z
" style="stroke: #00ffff"/>
    </defs>
    <g clip-path="url(#p5854238375)">
     <use xlink:href="#m1ec1757984" x="97.540455" y="189.676182" style="fill: #00ffff; stroke: #00ffff"/>
    </g>
   </g>
   <g id="legend_1">
    <g id="line2d_80">
     <path d="M 87.625 202.866 
L 103.625 202.866 
L 119.625 202.866 
" style="fill: none; stroke: #ff00ff; stroke-width: 2; stroke-linecap: square"/>
    </g>
    <g id="text_16">
     <!-- $p=0.3$ -->
     <g transform="translate(132.425 208.466) scale(0.16 -0.16)">
      <defs>
       <path id="DejaVuSans-Oblique-70" d="M 3175 2156 
Q 3175 2616 2975 2859 
Q 2775 3103 2400 3103 
Q 2144 3103 1911 2972 
Q 1678 2841 1497 2591 
Q 1319 2344 1212 1994 
Q 1106 1644 1106 1300 
Q 1106 863 1306 627 
Q 1506 391 1875 391 
Q 2147 391 2380 519 
Q 2613 647 2778 891 
Q 2956 1147 3065 1494 
Q 3175 1841 3175 2156 
z
M 1394 2969 
Q 1625 3272 1939 3428 
Q 2253 3584 2638 3584 
Q 3175 3584 3472 3232 
Q 3769 2881 3769 2247 
Q 3769 1728 3584 1258 
Q 3400 788 3053 416 
Q 2822 169 2531 39 
Q 2241 -91 1919 -91 
Q 1547 -91 1294 64 
Q 1041 219 916 525 
L 556 -1331 
L -19 -1331 
L 922 3500 
L 1497 3500 
L 1394 2969 
z
" transform="scale(0.015625)"/>
       <path id="DejaVuSans-3d" d="M 678 2906 
L 4684 2906 
L 4684 2381 
L 678 2381 
L 678 2906 
z
M 678 1631 
L 4684 1631 
L 4684 1100 
L 678 1100 
L 678 1631 
z
" transform="scale(0.015625)"/>
      </defs>
      <use xlink:href="#DejaVuSans-Oblique-70" transform="translate(0 0.78125)"/>
      <use xlink:href="#DejaVuSans-3d" transform="translate(82.958984 0.78125)"/>
      <use xlink:href="#DejaVuSans-30" transform="translate(186.230469 0.78125)"/>
      <use xlink:href="#DejaVuSans-2e" transform="translate(249.853516 0.78125)"/>
      <use xlink:href="#DejaVuSans-33" transform="translate(281.640625 0.78125)"/>
     </g>
    </g>
    <g id="line2d_81">
     <path d="M 87.625 226.3835 
L 103.625 226.3835 
L 119.625 226.3835 
" style="fill: none; stroke: #aa55ff; stroke-width: 2; stroke-linecap: square"/>
    </g>
    <g id="text_17">
     <!-- $p=0.5$ -->
     <g transform="translate(132.425 231.9835) scale(0.16 -0.16)">
      <defs>
       <path id="DejaVuSans-35" d="M 691 4666 
L 3169 4666 
L 3169 4134 
L 1269 4134 
L 1269 2991 
Q 1406 3038 1543 3061 
Q 1681 3084 1819 3084 
Q 2600 3084 3056 2656 
Q 3513 2228 3513 1497 
Q 3513 744 3044 326 
Q 2575 -91 1722 -91 
Q 1428 -91 1123 -41 
Q 819 9 494 109 
L 494 744 
Q 775 591 1075 516 
Q 1375 441 1709 441 
Q 2250 441 2565 725 
Q 2881 1009 2881 1497 
Q 2881 1984 2565 2268 
Q 2250 2553 1709 2553 
Q 1456 2553 1204 2497 
Q 953 2441 691 2322 
L 691 4666 
z
" transform="scale(0.015625)"/>
      </defs>
      <use xlink:href="#DejaVuSans-Oblique-70" transform="translate(0 0.78125)"/>
      <use xlink:href="#DejaVuSans-3d" transform="translate(82.958984 0.78125)"/>
      <use xlink:href="#DejaVuSans-30" transform="translate(186.230469 0.78125)"/>
      <use xlink:href="#DejaVuSans-2e" transform="translate(249.853516 0.78125)"/>
      <use xlink:href="#DejaVuSans-35" transform="translate(281.640625 0.78125)"/>
     </g>
    </g>
    <g id="line2d_82">
     <path d="M 87.625 249.901 
L 103.625 249.901 
L 119.625 249.901 
" style="fill: none; stroke: #639cff; stroke-width: 2; stroke-linecap: square"/>
    </g>
    <g id="text_18">
     <!-- $p=0.667$ -->
     <g transform="translate(132.425 255.501) scale(0.16 -0.16)">
      <defs>
       <path id="DejaVuSans-37" d="M 525 4666 
L 3525 4666 
L 3525 4397 
L 1831 0 
L 1172 0 
L 2766 4134 
L 525 4134 
L 525 4666 
z
" transform="scale(0.015625)"/>
      </defs>
      <use xlink:href="#DejaVuSans-Oblique-70" transform="translate(0 0.78125)"/>
      <use xlink:href="#DejaVuSans-3d" transform="translate(82.958984 0.78125)"/>
      <use xlink:href="#DejaVuSans-30" transform="translate(186.230469 0.78125)"/>
      <use xlink:href="#DejaVuSans-2e" transform="translate(249.853516 0.78125)"/>
      <use xlink:href="#DejaVuSans-36" transform="translate(281.640625 0.78125)"/>
      <use xlink:href="#DejaVuSans-36" transform="translate(345.263672 0.78125)"/>
      <use xlink:href="#DejaVuSans-37" transform="translate(408.886719 0.78125)"/>
     </g>
    </g>
    <g id="line2d_83">
     <path d="M 87.625 273.4185 
L 103.625 273.4185 
L 119.625 273.4185 
" style="fill: none; stroke: #2ad5ff; stroke-width: 2; stroke-linecap: square"/>
    </g>
    <g id="text_19">
     <!-- $p=0.8$ -->
     <g transform="translate(132.425 279.0185) scale(0.16 -0.16)">
      <use xlink:href="#DejaVuSans-Oblique-70" transform="translate(0 0.78125)"/>
      <use xlink:href="#DejaVuSans-3d" transform="translate(82.958984 0.78125)"/>
      <use xlink:href="#DejaVuSans-30" transform="translate(186.230469 0.78125)"/>
      <use xlink:href="#DejaVuSans-2e" transform="translate(249.853516 0.78125)"/>
      <use xlink:href="#DejaVuSans-38" transform="translate(279.015625 0.78125)"/>
     </g>
    </g>
    <g id="line2d_84">
     <path d="M 87.625 296.936 
L 103.625 296.936 
L 119.625 296.936 
" style="fill: none; stroke: #00ffff; stroke-width: 2; stroke-linecap: square"/>
    </g>
    <g id="text_20">
     <!-- $p=0.9$ -->
     <g transform="translate(132.425 302.536) scale(0.16 -0.16)">
      <defs>
       <path id="DejaVuSans-39" d="M 703 97 
L 703 672 
Q 941 559 1184 500 
Q 1428 441 1663 441 
Q 2288 441 2617 861 
Q 2947 1281 2994 2138 
Q 2813 1869 2534 1725 
Q 2256 1581 1919 1581 
Q 1219 1581 811 2004 
Q 403 2428 403 3163 
Q 403 3881 828 4315 
Q 1253 4750 1959 4750 
Q 2769 4750 3195 4129 
Q 3622 3509 3622 2328 
Q 3622 1225 3098 567 
Q 2575 -91 1691 -91 
Q 1453 -91 1209 -44 
Q 966 3 703 97 
z
M 1959 2075 
Q 2384 2075 2632 2365 
Q 2881 2656 2881 3163 
Q 2881 3666 2632 3958 
Q 2384 4250 1959 4250 
Q 1534 4250 1286 3958 
Q 1038 3666 1038 3163 
Q 1038 2656 1286 2365 
Q 1534 2075 1959 2075 
z
" transform="scale(0.015625)"/>
      </defs>
      <use xlink:href="#DejaVuSans-Oblique-70" transform="translate(0 0.78125)"/>
      <use xlink:href="#DejaVuSans-3d" transform="translate(82.958984 0.78125)"/>
      <use xlink:href="#DejaVuSans-30" transform="translate(186.230469 0.78125)"/>
      <use xlink:href="#DejaVuSans-2e" transform="translate(249.853516 0.78125)"/>
      <use xlink:href="#DejaVuSans-39" transform="translate(281.640625 0.78125)"/>
     </g>
    </g>
    <g id="PathCollection_7">
     <defs>
      <path id="m4a997402ab" d="M 0 -6.123724 
L -1.374862 -1.892335 
L -5.824008 -1.892335 
L -2.224573 0.722808 
L -3.599435 4.954197 
L -0 2.339054 
L 3.599435 4.954197 
L 2.224573 0.722808 
L 5.824008 -1.892335 
L 1.374862 -1.892335 
z
" style="stroke: #808080"/>
     </defs>
     <g>
      <use xlink:href="#m4a997402ab" x="103.625" y="321.856" style="fill: #808080; stroke: #808080"/>
     </g>
    </g>
    <g id="text_21">
     <!-- $T\to 0$ (averaged ODE) -->
     <g transform="translate(132.425 326.056) scale(0.16 -0.16)">
      <defs>
       <path id="DejaVuSans-2192" d="M 5050 2147 
L 5050 1866 
L 3822 638 
L 3447 1013 
L 4175 1741 
L 366 1741 
L 366 2272 
L 4175 2272 
L 3447 3000 
L 3822 3375 
L 5050 2147 
z
" transform="scale(0.015625)"/>
       <path id="DejaVuSans-28" d="M 1984 4856 
Q 1566 4138 1362 3434 
Q 1159 2731 1159 2009 
Q 1159 1288 1364 580 
Q 1569 -128 1984 -844 
L 1484 -844 
Q 1016 -109 783 600 
Q 550 1309 550 2009 
Q 550 2706 781 3412 
Q 1013 4119 1484 4856 
L 1984 4856 
z
" transform="scale(0.015625)"/>
       <path id="DejaVuSans-76" d="M 191 3500 
L 800 3500 
L 1894 563 
L 2988 3500 
L 3597 3500 
L 2284 0 
L 1503 0 
L 191 3500 
z
" transform="scale(0.015625)"/>
       <path id="DejaVuSans-4f" d="M 2522 4238 
Q 1834 4238 1429 3725 
Q 1025 3213 1025 2328 
Q 1025 1447 1429 934 
Q 1834 422 2522 422 
Q 3209 422 3611 934 
Q 4013 1447 4013 2328 
Q 4013 3213 3611 3725 
Q 3209 4238 2522 4238 
z
M 2522 4750 
Q 3503 4750 4090 4092 
Q 4678 3434 4678 2328 
Q 4678 1225 4090 567 
Q 3503 -91 2522 -91 
Q 1538 -91 948 565 
Q 359 1222 359 2328 
Q 359 3434 948 4092 
Q 1538 4750 2522 4750 
z
" transform="scale(0.015625)"/>
       <path id="DejaVuSans-44" d="M 1259 4147 
L 1259 519 
L 2022 519 
Q 2988 519 3436 956 
Q 3884 1394 3884 2338 
Q 3884 3275 3436 3711 
Q 2988 4147 2022 4147 
L 1259 4147 
z
M 628 4666 
L 1925 4666 
Q 3281 4666 3915 4102 
Q 4550 3538 4550 2338 
Q 4550 1131 3912 565 
Q 3275 0 1925 0 
L 628 0 
L 628 4666 
z
" transform="scale(0.015625)"/>
       <path id="DejaVuSans-45" d="M 628 4666 
L 3578 4666 
L 3578 4134 
L 1259 4134 
L 1259 2753 
L 3481 2753 
L 3481 2222 
L 1259 2222 
L 1259 531 
L 3634 531 
L 3634 0 
L 628 0 
L 628 4666 
z
" transform="scale(0.015625)"/>
       <path id="DejaVuSans-29" d="M 513 4856 
L 1013 4856 
Q 1481 4119 1714 3412 
Q 1947 2706 1947 2009 
Q 1947 1309 1714 600 
Q 1481 -109 1013 -844 
L 513 -844 
Q 928 -128 1133 580 
Q 1338 1288 1338 2009 
Q 1338 2731 1133 3434 
Q 928 4138 513 4856 
z
" transform="scale(0.015625)"/>
      </defs>
      <use xlink:href="#DejaVuSans-Oblique-54" transform="translate(0 0.015625)"/>
      <use xlink:href="#DejaVuSans-2192" transform="translate(80.566406 0.015625)"/>
      <use xlink:href="#DejaVuSans-30" transform="translate(183.837891 0.015625)"/>
      <use xlink:href="#DejaVuSans-20" transform="translate(247.460938 0.015625)"/>
      <use xlink:href="#DejaVuSans-28" transform="translate(279.248047 0.015625)"/>
      <use xlink:href="#DejaVuSans-61" transform="translate(318.261719 0.015625)"/>
      <use xlink:href="#DejaVuSans-76" transform="translate(379.541016 0.015625)"/>
      <use xlink:href="#DejaVuSans-65" transform="translate(438.720703 0.015625)"/>
      <use xlink:href="#DejaVuSans-72" transform="translate(500.244141 0.015625)"/>
      <use xlink:href="#DejaVuSans-61" transform="translate(541.357422 0.015625)"/>
      <use xlink:href="#DejaVuSans-67" transform="translate(602.636719 0.015625)"/>
      <use xlink:href="#DejaVuSans-65" transform="translate(666.113281 0.015625)"/>
      <use xlink:href="#DejaVuSans-64" transform="translate(727.636719 0.015625)"/>
      <use xlink:href="#DejaVuSans-20" transform="translate(791.113281 0.015625)"/>
      <use xlink:href="#DejaVuSans-4f" transform="translate(822.900391 0.015625)"/>
      <use xlink:href="#DejaVuSans-44" transform="translate(901.611328 0.015625)"/>
      <use xlink:href="#DejaVuSans-45" transform="translate(978.613281 0.015625)"/>
      <use xlink:href="#DejaVuSans-29" transform="translate(1041.796875 0.015625)"/>
     </g>
    </g>
   </g>
  </g>
 </g>
 <defs>
  <clipPath id="p5854238375">
   <rect x="73.225" y="7.2" width="534.94" height="336.616"/>
  </clipPath>
 </defs>
</svg>
