<?xml version="1.0" encoding="utf-8" standalone="no"?>
<!DOCTYPE svg PUBLIC "-//W3C//DTD SVG 1.1//EN"
  "http://www.w3.org/Graphics/SVG/1.1/DTD/svg11.dtd">
<svg xmlns:xlink="http://www.w3.org/1999/xlink" width="615.988125pt" height="413.657812pt" viewBox="0 0 615.988125 413.657812" xmlns="http://www.w3.org/2000/svg" version="1.1">
 <metadata>
  <rdf:RDF xmlns:dc="http://purl.org/dc/elements/1.1/" xmlns:cc="http://creativecommons.org/ns#" xmlns:rdf="http://www.w3.org/1999/02/22-rdf-syntax-ns#">
   <cc:Work>
    <dc:type rdf:resource="http://purl.org/dc/dcmitype/StillImage"/>
    <dc:date>2026-06-24T19:53:57.731573</dc:date>
    <dc:format>image/svg+xml</dc:format>
    <dc:creator>
     <cc:Agent>
      <dc:title>Matplotlib v3.10.9, https://matplotlib.org/</dc:title>
     </cc:Agent>
    </dc:creator>
   </cc:Work>
  </rdf:RDF>
 </metadata>
 <defs>
  <style type="text/css">*{stroke-linejoin: round; stroke-linecap: butt}</style>
 </defs>
 <g id="figure_1">
  <g id="patch_1">
   <path d="M 0 413.657812 
L 615.988125 413.657812 
L 615.988125 0 
L 0 0 
z
" style="fill: #ffffff"/>
  </g>
  <g id="axes_1">
   <g id="patch_2">
    <path d="M 93.863125 347.438437 
L 596.063125 347.438437 
L 596.063125 14.798437 
L 93.863125 14.798437 
z
" style="fill: #ffffff"/>
   </g>
   <g id="matplotlib.axis_1">
    <g id="xtick_1">
     <g id="line2d_1">
      <defs>
       <path id="m78d74b4503" d="M 0 0 
L 0 7 
" style="stroke: #000000; stroke-width: 1.4"/>
      </defs>
      <g>
       <use xlink:href="#m78d74b4503" x="93.863125" y="347.438437" style="stroke: #000000; stroke-width: 1.4"/>
      </g>
     </g>
     <g id="text_1">
      <!-- 0 -->
      <g transform="translate(87.500625 373.135312) scale(0.2 -0.2)">
       <defs>
        <path id="DejaVuSans-30" d="M 2034 4250 
Q 1547 4250 1301 3770 
Q 1056 3291 1056 2328 
Q 1056 1369 1301 889 
Q 1547 409 2034 409 
Q 2525 409 2770 889 
Q 3016 1369 3016 2328 
Q 3016 3291 2770 3770 
Q 2525 4250 2034 4250 
z
M 2034 4750 
Q 2819 4750 3233 4129 
Q 3647 3509 3647 2328 
Q 3647 1150 3233 529 
Q 2819 -91 2034 -91 
Q 1250 -91 836 529 
Q 422 1150 422 2328 
Q 422 3509 836 4129 
Q 1250 4750 2034 4750 
z
" transform="scale(0.015625)"/>
       </defs>
       <use xlink:href="#DejaVuSans-30"/>
      </g>
     </g>
    </g>
    <g id="xtick_2">
     <g id="line2d_2">
      <g>
       <use xlink:href="#m78d74b4503" x="177.563125" y="347.438437" style="stroke: #000000; stroke-width: 1.4"/>
      </g>
     </g>
     <g id="text_2">
      <!-- 10 -->
      <g transform="translate(164.838125 373.135312) scale(0.2 -0.2)">
       <defs>
        <path id="DejaVuSans-31" d="M 794 531 
L 1825 531 
L 1825 4091 
L 703 3866 
L 703 4441 
L 1819 4666 
L 2450 4666 
L 2450 531 
L 3481 531 
L 3481 0 
L 794 0 
L 794 531 
z
" transform="scale(0.015625)"/>
       </defs>
       <use xlink:href="#DejaVuSans-31"/>
       <use xlink:href="#DejaVuSans-30" transform="translate(63.623047 0)"/>
      </g>
     </g>
    </g>
    <g id="xtick_3">
     <g id="line2d_3">
      <g>
       <use xlink:href="#m78d74b4503" x="261.263125" y="347.438437" style="stroke: #000000; stroke-width: 1.4"/>
      </g>
     </g>
     <g id="text_3">
      <!-- 20 -->
      <g transform="translate(248.538125 373.135312) scale(0.2 -0.2)">
       <defs>
        <path id="DejaVuSans-32" d="M 1228 531 
L 3431 531 
L 3431 0 
L 469 0 
L 469 531 
Q 828 903 1448 1529 
Q 2069 2156 2228 2338 
Q 2531 2678 2651 2914 
Q 2772 3150 2772 3378 
Q 2772 3750 2511 3984 
Q 2250 4219 1831 4219 
Q 1534 4219 1204 4116 
Q 875 4013 500 3803 
L 500 4441 
Q 881 4594 1212 4672 
Q 1544 4750 1819 4750 
Q 2544 4750 2975 4387 
Q 3406 4025 3406 3419 
Q 3406 3131 3298 2873 
Q 3191 2616 2906 2266 
Q 2828 2175 2409 1742 
Q 1991 1309 1228 531 
z
" transform="scale(0.015625)"/>
       </defs>
       <use xlink:href="#DejaVuSans-32"/>
       <use xlink:href="#DejaVuSans-30" transform="translate(63.623047 0)"/>
      </g>
     </g>
    </g>
    <g id="xtick_4">
     <g id="line2d_4">
      <g>
       <use xlink:href="#m78d74b4503" x="344.963125" y="347.438437" style="stroke: #000000; stroke-width: 1.4"/>
      </g>
     </g>
     <g id="text_4">
      <!-- 30 -->
      <g transform="translate(332.238125 373.135312) scale(0.2 -0.2)">
       <defs>
        <path id="DejaVuSans-33" d="M 2597 2516 
Q 3050 2419 3304 2112 
Q 3559 1806 3559 1356 
Q 3559 666 3084 287 
Q 2609 -91 1734 -91 
Q 1441 -91 1130 -33 
Q 819 25 488 141 
L 488 750 
Q 750 597 1062 519 
Q 1375 441 1716 441 
Q 2309 441 2620 675 
Q 2931 909 2931 1356 
Q 2931 1769 2642 2001 
Q 2353 2234 1838 2234 
L 1294 2234 
L 1294 2753 
L 1863 2753 
Q 2328 2753 2575 2939 
Q 2822 3125 2822 3475 
Q 2822 3834 2567 4026 
Q 2313 4219 1838 4219 
Q 1578 4219 1281 4162 
Q 984 4106 628 3988 
L 628 4550 
Q 988 4650 1302 4700 
Q 1616 4750 1894 4750 
Q 2613 4750 3031 4423 
Q 3450 4097 3450 3541 
Q 3450 3153 3228 2886 
Q 3006 2619 2597 2516 
z
" transform="scale(0.015625)"/>
       </defs>
       <use xlink:href="#DejaVuSans-33"/>
       <use xlink:href="#DejaVuSans-30" transform="translate(63.623047 0)"/>
      </g>
     </g>
    </g>
    <g id="xtick_5">
     <g id="line2d_5">
      <g>
       <use xlink:href="#m78d74b4503" x="428.663125" y="347.438437" style="stroke: #000000; stroke-width: 1.4"/>
      </g>
     </g>
     <g id="text_5">
      <!-- 40 -->
      <g transform="translate(415.938125 373.135312) scale(0.2 -0.2)">
       <defs>
        <path id="DejaVuSans-34" d="M 2419 4116 
L 825 1625 
L 2419 1625 
L 2419 4116 
z
M 2253 4666 
L 3047 4666 
L 3047 1625 
L 3713 1625 
L 3713 1100 
L 3047 1100 
L 3047 0 
L 2419 0 
L 2419 1100 
L 313 1100 
L 313 1709 
L 2253 4666 
z
" transform="scale(0.015625)"/>
       </defs>
       <use xlink:href="#DejaVuSans-34"/>
       <use xlink:href="#DejaVuSans-30" transform="translate(63.623047 0)"/>
      </g>
     </g>
    </g>
    <g id="xtick_6">
     <g id="line2d_6">
      <g>
       <use xlink:href="#m78d74b4503" x="512.363125" y="347.438437" style="stroke: #000000; stroke-width: 1.4"/>
      </g>
     </g>
     <g id="text_6">
      <!-- 50 -->
      <g transform="translate(499.638125 373.135312) scale(0.2 -0.2)">
       <defs>
        <path id="DejaVuSans-35" d="M 691 4666 
L 3169 4666 
L 3169 4134 
L 1269 4134 
L 1269 2991 
Q 1406 3038 1543 3061 
Q 1681 3084 1819 3084 
Q 2600 3084 3056 2656 
Q 3513 2228 3513 1497 
Q 3513 744 3044 326 
Q 2575 -91 1722 -91 
Q 1428 -91 1123 -41 
Q 819 9 494 109 
L 494 744 
Q 775 591 1075 516 
Q 1375 441 1709 441 
Q 2250 441 2565 725 
Q 2881 1009 2881 1497 
Q 2881 1984 2565 2268 
Q 2250 2553 1709 2553 
Q 1456 2553 1204 2497 
Q 953 2441 691 2322 
L 691 4666 
z
" transform="scale(0.015625)"/>
       </defs>
       <use xlink:href="#DejaVuSans-35"/>
       <use xlink:href="#DejaVuSans-30" transform="translate(63.623047 0)"/>
      </g>
     </g>
    </g>
    <g id="xtick_7">
     <g id="line2d_7">
      <g>
       <use xlink:href="#m78d74b4503" x="596.063125" y="347.438437" style="stroke: #000000; stroke-width: 1.4"/>
      </g>
     </g>
     <g id="text_7">
      <!-- 60 -->
      <g transform="translate(583.338125 373.135312) scale(0.2 -0.2)">
       <defs>
        <path id="DejaVuSans-36" d="M 2113 2584 
Q 1688 2584 1439 2293 
Q 1191 2003 1191 1497 
Q 1191 994 1439 701 
Q 1688 409 2113 409 
Q 2538 409 2786 701 
Q 3034 994 3034 1497 
Q 3034 2003 2786 2293 
Q 2538 2584 2113 2584 
z
M 3366 4563 
L 3366 3988 
Q 3128 4100 2886 4159 
Q 2644 4219 2406 4219 
Q 1781 4219 1451 3797 
Q 1122 3375 1075 2522 
Q 1259 2794 1537 2939 
Q 1816 3084 2150 3084 
Q 2853 3084 3261 2657 
Q 3669 2231 3669 1497 
Q 3669 778 3244 343 
Q 2819 -91 2113 -91 
Q 1303 -91 875 529 
Q 447 1150 447 2328 
Q 447 3434 972 4092 
Q 1497 4750 2381 4750 
Q 2619 4750 2861 4703 
Q 3103 4656 3366 4563 
z
" transform="scale(0.015625)"/>
       </defs>
       <use xlink:href="#DejaVuSans-36"/>
       <use xlink:href="#DejaVuSans-30" transform="translate(63.623047 0)"/>
      </g>
     </g>
    </g>
    <g id="text_8">
     <!-- time -->
     <g transform="translate(315.593281 401.050625) scale(0.26 -0.26)">
      <defs>
       <path id="DejaVuSans-74" d="M 1172 4494 
L 1172 3500 
L 2356 3500 
L 2356 3053 
L 1172 3053 
L 1172 1153 
Q 1172 725 1289 603 
Q 1406 481 1766 481 
L 2356 481 
L 2356 0 
L 1766 0 
Q 1100 0 847 248 
Q 594 497 594 1153 
L 594 3053 
L 172 3053 
L 172 3500 
L 594 3500 
L 594 4494 
L 1172 4494 
z
" transform="scale(0.015625)"/>
       <path id="DejaVuSans-69" d="M 603 3500 
L 1178 3500 
L 1178 0 
L 603 0 
L 603 3500 
z
M 603 4863 
L 1178 4863 
L 1178 4134 
L 603 4134 
L 603 4863 
z
" transform="scale(0.015625)"/>
       <path id="DejaVuSans-6d" d="M 3328 2828 
Q 3544 3216 3844 3400 
Q 4144 3584 4550 3584 
Q 5097 3584 5394 3201 
Q 5691 2819 5691 2113 
L 5691 0 
L 5113 0 
L 5113 2094 
Q 5113 2597 4934 2840 
Q 4756 3084 4391 3084 
Q 3944 3084 3684 2787 
Q 3425 2491 3425 1978 
L 3425 0 
L 2847 0 
L 2847 2094 
Q 2847 2600 2669 2842 
Q 2491 3084 2119 3084 
Q 1678 3084 1418 2786 
Q 1159 2488 1159 1978 
L 1159 0 
L 581 0 
L 581 3500 
L 1159 3500 
L 1159 2956 
Q 1356 3278 1631 3431 
Q 1906 3584 2284 3584 
Q 2666 3584 2933 3390 
Q 3200 3197 3328 2828 
z
" transform="scale(0.015625)"/>
       <path id="DejaVuSans-65" d="M 3597 1894 
L 3597 1613 
L 953 1613 
Q 991 1019 1311 708 
Q 1631 397 2203 397 
Q 2534 397 2845 478 
Q 3156 559 3463 722 
L 3463 178 
Q 3153 47 2828 -22 
Q 2503 -91 2169 -91 
Q 1331 -91 842 396 
Q 353 884 353 1716 
Q 353 2575 817 3079 
Q 1281 3584 2069 3584 
Q 2775 3584 3186 3129 
Q 3597 2675 3597 1894 
z
M 3022 2063 
Q 3016 2534 2758 2815 
Q 2500 3097 2075 3097 
Q 1594 3097 1305 2825 
Q 1016 2553 972 2059 
L 3022 2063 
z
" transform="scale(0.015625)"/>
      </defs>
      <use xlink:href="#DejaVuSans-74"/>
      <use xlink:href="#DejaVuSans-69" transform="translate(39.208984 0)"/>
      <use xlink:href="#DejaVuSans-6d" transform="translate(66.992188 0)"/>
      <use xlink:href="#DejaVuSans-65" transform="translate(164.404297 0)"/>
     </g>
    </g>
   </g>
   <g id="matplotlib.axis_2">
    <g id="ytick_1">
     <g id="line2d_8">
      <defs>
       <path id="m154d27a033" d="M 0 0 
L -7 0 
" style="stroke: #000000; stroke-width: 1.4"/>
      </defs>
      <g>
       <use xlink:href="#m154d27a033" x="93.863125" y="347.438437" style="stroke: #000000; stroke-width: 1.4"/>
      </g>
     </g>
     <g id="text_9">
      <!-- $\mathdefault{10^{-6}}$ -->
      <g transform="translate(36.363125 355.036875) scale(0.2 -0.2)">
       <defs>
        <path id="DejaVuSans-2212" d="M 678 2272 
L 4684 2272 
L 4684 1741 
L 678 1741 
L 678 2272 
z
" transform="scale(0.015625)"/>
       </defs>
       <use xlink:href="#DejaVuSans-31" transform="translate(0 0.765625)"/>
       <use xlink:href="#DejaVuSans-30" transform="translate(63.623047 0.765625)"/>
       <use xlink:href="#DejaVuSans-2212" transform="translate(128.203125 39.046875) scale(0.7)"/>
       <use xlink:href="#DejaVuSans-36" transform="translate(186.855469 39.046875) scale(0.7)"/>
      </g>
     </g>
    </g>
    <g id="ytick_2">
     <g id="line2d_9">
      <g>
       <use xlink:href="#m154d27a033" x="93.863125" y="291.998437" style="stroke: #000000; stroke-width: 1.4"/>
      </g>
     </g>
     <g id="text_10">
      <!-- $\mathdefault{10^{-5}}$ -->
      <g transform="translate(36.363125 299.596875) scale(0.2 -0.2)">
       <use xlink:href="#DejaVuSans-31" transform="translate(0 0.684375)"/>
       <use xlink:href="#DejaVuSans-30" transform="translate(63.623047 0.684375)"/>
       <use xlink:href="#DejaVuSans-2212" transform="translate(128.203125 38.965625) scale(0.7)"/>
       <use xlink:href="#DejaVuSans-35" transform="translate(186.855469 38.965625) scale(0.7)"/>
      </g>
     </g>
    </g>
    <g id="ytick_3">
     <g id="line2d_10">
      <g>
       <use xlink:href="#m154d27a033" x="93.863125" y="236.558437" style="stroke: #000000; stroke-width: 1.4"/>
      </g>
     </g>
     <g id="text_11">
      <!-- $\mathdefault{10^{-4}}$ -->
      <g transform="translate(36.363125 244.156875) scale(0.2 -0.2)">
       <use xlink:href="#DejaVuSans-31" transform="translate(0 0.684375)"/>
       <use xlink:href="#DejaVuSans-30" transform="translate(63.623047 0.684375)"/>
       <use xlink:href="#DejaVuSans-2212" transform="translate(128.203125 38.965625) scale(0.7)"/>
       <use xlink:href="#DejaVuSans-34" transform="translate(186.855469 38.965625) scale(0.7)"/>
      </g>
     </g>
    </g>
    <g id="ytick_4">
     <g id="line2d_11">
      <g>
       <use xlink:href="#m154d27a033" x="93.863125" y="181.118437" style="stroke: #000000; stroke-width: 1.4"/>
      </g>
     </g>
     <g id="text_12">
      <!-- $\mathdefault{10^{-3}}$ -->
      <g transform="translate(36.363125 188.716875) scale(0.2 -0.2)">
       <use xlink:href="#DejaVuSans-31" transform="translate(0 0.765625)"/>
       <use xlink:href="#DejaVuSans-30" transform="translate(63.623047 0.765625)"/>
       <use xlink:href="#DejaVuSans-2212" transform="translate(128.203125 39.046875) scale(0.7)"/>
       <use xlink:href="#DejaVuSans-33" transform="translate(186.855469 39.046875) scale(0.7)"/>
      </g>
     </g>
    </g>
    <g id="ytick_5">
     <g id="line2d_12">
      <g>
       <use xlink:href="#m154d27a033" x="93.863125" y="125.678437" style="stroke: #000000; stroke-width: 1.4"/>
      </g>
     </g>
     <g id="text_13">
      <!-- $\mathdefault{10^{-2}}$ -->
      <g transform="translate(36.363125 133.276875) scale(0.2 -0.2)">
       <use xlink:href="#DejaVuSans-31" transform="translate(0 0.765625)"/>
       <use xlink:href="#DejaVuSans-30" transform="translate(63.623047 0.765625)"/>
       <use xlink:href="#DejaVuSans-2212" transform="translate(128.203125 39.046875) scale(0.7)"/>
       <use xlink:href="#DejaVuSans-32" transform="translate(186.855469 39.046875) scale(0.7)"/>
      </g>
     </g>
    </g>
    <g id="ytick_6">
     <g id="line2d_13">
      <g>
       <use xlink:href="#m154d27a033" x="93.863125" y="70.238437" style="stroke: #000000; stroke-width: 1.4"/>
      </g>
     </g>
     <g id="text_14">
      <!-- $\mathdefault{10^{-1}}$ -->
      <g transform="translate(36.363125 77.836875) scale(0.2 -0.2)">
       <use xlink:href="#DejaVuSans-31" transform="translate(0 0.684375)"/>
       <use xlink:href="#DejaVuSans-30" transform="translate(63.623047 0.684375)"/>
       <use xlink:href="#DejaVuSans-2212" transform="translate(128.203125 38.965625) scale(0.7)"/>
       <use xlink:href="#DejaVuSans-31" transform="translate(186.855469 38.965625) scale(0.7)"/>
      </g>
     </g>
    </g>
    <g id="ytick_7">
     <g id="line2d_14">
      <g>
       <use xlink:href="#m154d27a033" x="93.863125" y="14.798437" style="stroke: #000000; stroke-width: 1.4"/>
      </g>
     </g>
     <g id="text_15">
      <!-- $\mathdefault{10^{0}}$ -->
      <g transform="translate(48.163125 22.396875) scale(0.2 -0.2)">
       <use xlink:href="#DejaVuSans-31" transform="translate(0 0.765625)"/>
       <use xlink:href="#DejaVuSans-30" transform="translate(63.623047 0.765625)"/>
       <use xlink:href="#DejaVuSans-30" transform="translate(128.203125 39.046875) scale(0.7)"/>
      </g>
     </g>
    </g>
    <g id="ytick_8">
     <g id="line2d_15">
      <defs>
       <path id="m21eecce25b" d="M 0 0 
L -2 0 
" style="stroke: #000000; stroke-width: 0.6"/>
      </defs>
      <g>
       <use xlink:href="#m21eecce25b" x="93.863125" y="330.749335" style="stroke: #000000; stroke-width: 0.6"/>
      </g>
     </g>
    </g>
    <g id="ytick_9">
     <g id="line2d_16">
      <g>
       <use xlink:href="#m21eecce25b" x="93.863125" y="320.986835" style="stroke: #000000; stroke-width: 0.6"/>
      </g>
     </g>
    </g>
    <g id="ytick_10">
     <g id="line2d_17">
      <g>
       <use xlink:href="#m21eecce25b" x="93.863125" y="314.060232" style="stroke: #000000; stroke-width: 0.6"/>
      </g>
     </g>
    </g>
    <g id="ytick_11">
     <g id="line2d_18">
      <g>
       <use xlink:href="#m21eecce25b" x="93.863125" y="308.68754" style="stroke: #000000; stroke-width: 0.6"/>
      </g>
     </g>
    </g>
    <g id="ytick_12">
     <g id="line2d_19">
      <g>
       <use xlink:href="#m21eecce25b" x="93.863125" y="304.297732" style="stroke: #000000; stroke-width: 0.6"/>
      </g>
     </g>
    </g>
    <g id="ytick_13">
     <g id="line2d_20">
      <g>
       <use xlink:href="#m21eecce25b" x="93.863125" y="300.586202" style="stroke: #000000; stroke-width: 0.6"/>
      </g>
     </g>
    </g>
    <g id="ytick_14">
     <g id="line2d_21">
      <g>
       <use xlink:href="#m21eecce25b" x="93.863125" y="297.371129" style="stroke: #000000; stroke-width: 0.6"/>
      </g>
     </g>
    </g>
    <g id="ytick_15">
     <g id="line2d_22">
      <g>
       <use xlink:href="#m21eecce25b" x="93.863125" y="294.535233" style="stroke: #000000; stroke-width: 0.6"/>
      </g>
     </g>
    </g>
    <g id="ytick_16">
     <g id="line2d_23">
      <g>
       <use xlink:href="#m21eecce25b" x="93.863125" y="275.309335" style="stroke: #000000; stroke-width: 0.6"/>
      </g>
     </g>
    </g>
    <g id="ytick_17">
     <g id="line2d_24">
      <g>
       <use xlink:href="#m21eecce25b" x="93.863125" y="265.546835" style="stroke: #000000; stroke-width: 0.6"/>
      </g>
     </g>
    </g>
    <g id="ytick_18">
     <g id="line2d_25">
      <g>
       <use xlink:href="#m21eecce25b" x="93.863125" y="258.620232" style="stroke: #000000; stroke-width: 0.6"/>
      </g>
     </g>
    </g>
    <g id="ytick_19">
     <g id="line2d_26">
      <g>
       <use xlink:href="#m21eecce25b" x="93.863125" y="253.24754" style="stroke: #000000; stroke-width: 0.6"/>
      </g>
     </g>
    </g>
    <g id="ytick_20">
     <g id="line2d_27">
      <g>
       <use xlink:href="#m21eecce25b" x="93.863125" y="248.857732" style="stroke: #000000; stroke-width: 0.6"/>
      </g>
     </g>
    </g>
    <g id="ytick_21">
     <g id="line2d_28">
      <g>
       <use xlink:href="#m21eecce25b" x="93.863125" y="245.146202" style="stroke: #000000; stroke-width: 0.6"/>
      </g>
     </g>
    </g>
    <g id="ytick_22">
     <g id="line2d_29">
      <g>
       <use xlink:href="#m21eecce25b" x="93.863125" y="241.931129" style="stroke: #000000; stroke-width: 0.6"/>
      </g>
     </g>
    </g>
    <g id="ytick_23">
     <g id="line2d_30">
      <g>
       <use xlink:href="#m21eecce25b" x="93.863125" y="239.095233" style="stroke: #000000; stroke-width: 0.6"/>
      </g>
     </g>
    </g>
    <g id="ytick_24">
     <g id="line2d_31">
      <g>
       <use xlink:href="#m21eecce25b" x="93.863125" y="219.869335" style="stroke: #000000; stroke-width: 0.6"/>
      </g>
     </g>
    </g>
    <g id="ytick_25">
     <g id="line2d_32">
      <g>
       <use xlink:href="#m21eecce25b" x="93.863125" y="210.106835" style="stroke: #000000; stroke-width: 0.6"/>
      </g>
     </g>
    </g>
    <g id="ytick_26">
     <g id="line2d_33">
      <g>
       <use xlink:href="#m21eecce25b" x="93.863125" y="203.180232" style="stroke: #000000; stroke-width: 0.6"/>
      </g>
     </g>
    </g>
    <g id="ytick_27">
     <g id="line2d_34">
      <g>
       <use xlink:href="#m21eecce25b" x="93.863125" y="197.80754" style="stroke: #000000; stroke-width: 0.6"/>
      </g>
     </g>
    </g>
    <g id="ytick_28">
     <g id="line2d_35">
      <g>
       <use xlink:href="#m21eecce25b" x="93.863125" y="193.417732" style="stroke: #000000; stroke-width: 0.6"/>
      </g>
     </g>
    </g>
    <g id="ytick_29">
     <g id="line2d_36">
      <g>
       <use xlink:href="#m21eecce25b" x="93.863125" y="189.706202" style="stroke: #000000; stroke-width: 0.6"/>
      </g>
     </g>
    </g>
    <g id="ytick_30">
     <g id="line2d_37">
      <g>
       <use xlink:href="#m21eecce25b" x="93.863125" y="186.491129" style="stroke: #000000; stroke-width: 0.6"/>
      </g>
     </g>
    </g>
    <g id="ytick_31">
     <g id="line2d_38">
      <g>
       <use xlink:href="#m21eecce25b" x="93.863125" y="183.655233" style="stroke: #000000; stroke-width: 0.6"/>
      </g>
     </g>
    </g>
    <g id="ytick_32">
     <g id="line2d_39">
      <g>
       <use xlink:href="#m21eecce25b" x="93.863125" y="164.429335" style="stroke: #000000; stroke-width: 0.6"/>
      </g>
     </g>
    </g>
    <g id="ytick_33">
     <g id="line2d_40">
      <g>
       <use xlink:href="#m21eecce25b" x="93.863125" y="154.666835" style="stroke: #000000; stroke-width: 0.6"/>
      </g>
     </g>
    </g>
    <g id="ytick_34">
     <g id="line2d_41">
      <g>
       <use xlink:href="#m21eecce25b" x="93.863125" y="147.740232" style="stroke: #000000; stroke-width: 0.6"/>
      </g>
     </g>
    </g>
    <g id="ytick_35">
     <g id="line2d_42">
      <g>
       <use xlink:href="#m21eecce25b" x="93.863125" y="142.36754" style="stroke: #000000; stroke-width: 0.6"/>
      </g>
     </g>
    </g>
    <g id="ytick_36">
     <g id="line2d_43">
      <g>
       <use xlink:href="#m21eecce25b" x="93.863125" y="137.977732" style="stroke: #000000; stroke-width: 0.6"/>
      </g>
     </g>
    </g>
    <g id="ytick_37">
     <g id="line2d_44">
      <g>
       <use xlink:href="#m21eecce25b" x="93.863125" y="134.266202" style="stroke: #000000; stroke-width: 0.6"/>
      </g>
     </g>
    </g>
    <g id="ytick_38">
     <g id="line2d_45">
      <g>
       <use xlink:href="#m21eecce25b" x="93.863125" y="131.051129" style="stroke: #000000; stroke-width: 0.6"/>
      </g>
     </g>
    </g>
    <g id="ytick_39">
     <g id="line2d_46">
      <g>
       <use xlink:href="#m21eecce25b" x="93.863125" y="128.215233" style="stroke: #000000; stroke-width: 0.6"/>
      </g>
     </g>
    </g>
    <g id="ytick_40">
     <g id="line2d_47">
      <g>
       <use xlink:href="#m21eecce25b" x="93.863125" y="108.989335" style="stroke: #000000; stroke-width: 0.6"/>
      </g>
     </g>
    </g>
    <g id="ytick_41">
     <g id="line2d_48">
      <g>
       <use xlink:href="#m21eecce25b" x="93.863125" y="99.226835" style="stroke: #000000; stroke-width: 0.6"/>
      </g>
     </g>
    </g>
    <g id="ytick_42">
     <g id="line2d_49">
      <g>
       <use xlink:href="#m21eecce25b" x="93.863125" y="92.300232" style="stroke: #000000; stroke-width: 0.6"/>
      </g>
     </g>
    </g>
    <g id="ytick_43">
     <g id="line2d_50">
      <g>
       <use xlink:href="#m21eecce25b" x="93.863125" y="86.92754" style="stroke: #000000; stroke-width: 0.6"/>
      </g>
     </g>
    </g>
    <g id="ytick_44">
     <g id="line2d_51">
      <g>
       <use xlink:href="#m21eecce25b" x="93.863125" y="82.537732" style="stroke: #000000; stroke-width: 0.6"/>
      </g>
     </g>
    </g>
    <g id="ytick_45">
     <g id="line2d_52">
      <g>
       <use xlink:href="#m21eecce25b" x="93.863125" y="78.826202" style="stroke: #000000; stroke-width: 0.6"/>
      </g>
     </g>
    </g>
    <g id="ytick_46">
     <g id="line2d_53">
      <g>
       <use xlink:href="#m21eecce25b" x="93.863125" y="75.611129" style="stroke: #000000; stroke-width: 0.6"/>
      </g>
     </g>
    </g>
    <g id="ytick_47">
     <g id="line2d_54">
      <g>
       <use xlink:href="#m21eecce25b" x="93.863125" y="72.775233" style="stroke: #000000; stroke-width: 0.6"/>
      </g>
     </g>
    </g>
    <g id="ytick_48">
     <g id="line2d_55">
      <g>
       <use xlink:href="#m21eecce25b" x="93.863125" y="53.549335" style="stroke: #000000; stroke-width: 0.6"/>
      </g>
     </g>
    </g>
    <g id="ytick_49">
     <g id="line2d_56">
      <g>
       <use xlink:href="#m21eecce25b" x="93.863125" y="43.786835" style="stroke: #000000; stroke-width: 0.6"/>
      </g>
     </g>
    </g>
    <g id="ytick_50">
     <g id="line2d_57">
      <g>
       <use xlink:href="#m21eecce25b" x="93.863125" y="36.860232" style="stroke: #000000; stroke-width: 0.6"/>
      </g>
     </g>
    </g>
    <g id="ytick_51">
     <g id="line2d_58">
      <g>
       <use xlink:href="#m21eecce25b" x="93.863125" y="31.48754" style="stroke: #000000; stroke-width: 0.6"/>
      </g>
     </g>
    </g>
    <g id="ytick_52">
     <g id="line2d_59">
      <g>
       <use xlink:href="#m21eecce25b" x="93.863125" y="27.097732" style="stroke: #000000; stroke-width: 0.6"/>
      </g>
     </g>
    </g>
    <g id="ytick_53">
     <g id="line2d_60">
      <g>
       <use xlink:href="#m21eecce25b" x="93.863125" y="23.386202" style="stroke: #000000; stroke-width: 0.6"/>
      </g>
     </g>
    </g>
    <g id="ytick_54">
     <g id="line2d_61">
      <g>
       <use xlink:href="#m21eecce25b" x="93.863125" y="20.171129" style="stroke: #000000; stroke-width: 0.6"/>
      </g>
     </g>
    </g>
    <g id="ytick_55">
     <g id="line2d_62">
      <g>
       <use xlink:href="#m21eecce25b" x="93.863125" y="17.335233" style="stroke: #000000; stroke-width: 0.6"/>
      </g>
     </g>
    </g>
    <g id="text_16">
     <!-- infected cells  $I$ -->
     <g transform="translate(26.955938 279.528437) rotate(-90) scale(0.26 -0.26)">
      <defs>
       <path id="DejaVuSans-6e" d="M 3513 2113 
L 3513 0 
L 2938 0 
L 2938 2094 
Q 2938 2591 2744 2837 
Q 2550 3084 2163 3084 
Q 1697 3084 1428 2787 
Q 1159 2491 1159 1978 
L 1159 0 
L 581 0 
L 581 3500 
L 1159 3500 
L 1159 2956 
Q 1366 3272 1645 3428 
Q 1925 3584 2291 3584 
Q 2894 3584 3203 3211 
Q 3513 2838 3513 2113 
z
" transform="scale(0.015625)"/>
       <path id="DejaVuSans-66" d="M 2375 4863 
L 2375 4384 
L 1825 4384 
Q 1516 4384 1395 4259 
Q 1275 4134 1275 3809 
L 1275 3500 
L 2222 3500 
L 2222 3053 
L 1275 3053 
L 1275 0 
L 697 0 
L 697 3053 
L 147 3053 
L 147 3500 
L 697 3500 
L 697 3744 
Q 697 4328 969 4595 
Q 1241 4863 1831 4863 
L 2375 4863 
z
" transform="scale(0.015625)"/>
       <path id="DejaVuSans-63" d="M 3122 3366 
L 3122 2828 
Q 2878 2963 2633 3030 
Q 2388 3097 2138 3097 
Q 1578 3097 1268 2742 
Q 959 2388 959 1747 
Q 959 1106 1268 751 
Q 1578 397 2138 397 
Q 2388 397 2633 464 
Q 2878 531 3122 666 
L 3122 134 
Q 2881 22 2623 -34 
Q 2366 -91 2075 -91 
Q 1284 -91 818 406 
Q 353 903 353 1747 
Q 353 2603 823 3093 
Q 1294 3584 2113 3584 
Q 2378 3584 2631 3529 
Q 2884 3475 3122 3366 
z
" transform="scale(0.015625)"/>
       <path id="DejaVuSans-64" d="M 2906 2969 
L 2906 4863 
L 3481 4863 
L 3481 0 
L 2906 0 
L 2906 525 
Q 2725 213 2448 61 
Q 2172 -91 1784 -91 
Q 1150 -91 751 415 
Q 353 922 353 1747 
Q 353 2572 751 3078 
Q 1150 3584 1784 3584 
Q 2172 3584 2448 3432 
Q 2725 3281 2906 2969 
z
M 947 1747 
Q 947 1113 1208 752 
Q 1469 391 1925 391 
Q 2381 391 2643 752 
Q 2906 1113 2906 1747 
Q 2906 2381 2643 2742 
Q 2381 3103 1925 3103 
Q 1469 3103 1208 2742 
Q 947 2381 947 1747 
z
" transform="scale(0.015625)"/>
       <path id="DejaVuSans-20" transform="scale(0.015625)"/>
       <path id="DejaVuSans-6c" d="M 603 4863 
L 1178 4863 
L 1178 0 
L 603 0 
L 603 4863 
z
" transform="scale(0.015625)"/>
       <path id="DejaVuSans-73" d="M 2834 3397 
L 2834 2853 
Q 2591 2978 2328 3040 
Q 2066 3103 1784 3103 
Q 1356 3103 1142 2972 
Q 928 2841 928 2578 
Q 928 2378 1081 2264 
Q 1234 2150 1697 2047 
L 1894 2003 
Q 2506 1872 2764 1633 
Q 3022 1394 3022 966 
Q 3022 478 2636 193 
Q 2250 -91 1575 -91 
Q 1294 -91 989 -36 
Q 684 19 347 128 
L 347 722 
Q 666 556 975 473 
Q 1284 391 1588 391 
Q 1994 391 2212 530 
Q 2431 669 2431 922 
Q 2431 1156 2273 1281 
Q 2116 1406 1581 1522 
L 1381 1569 
Q 847 1681 609 1914 
Q 372 2147 372 2553 
Q 372 3047 722 3315 
Q 1072 3584 1716 3584 
Q 2034 3584 2315 3537 
Q 2597 3491 2834 3397 
z
" transform="scale(0.015625)"/>
       <path id="DejaVuSans-Oblique-49" d="M 1081 4666 
L 1716 4666 
L 806 0 
L 172 0 
L 1081 4666 
z
" transform="scale(0.015625)"/>
      </defs>
      <use xlink:href="#DejaVuSans-69" transform="translate(0 0.015625)"/>
      <use xlink:href="#DejaVuSans-6e" transform="translate(27.783203 0.015625)"/>
      <use xlink:href="#DejaVuSans-66" transform="translate(91.162109 0.015625)"/>
      <use xlink:href="#DejaVuSans-65" transform="translate(126.367188 0.015625)"/>
      <use xlink:href="#DejaVuSans-63" transform="translate(187.890625 0.015625)"/>
      <use xlink:href="#DejaVuSans-74" transform="translate(242.871094 0.015625)"/>
      <use xlink:href="#DejaVuSans-65" transform="translate(282.080078 0.015625)"/>
      <use xlink:href="#DejaVuSans-64" transform="translate(343.603516 0.015625)"/>
      <use xlink:href="#DejaVuSans-20" transform="translate(407.080078 0.015625)"/>
      <use xlink:href="#DejaVuSans-63" transform="translate(438.867188 0.015625)"/>
      <use xlink:href="#DejaVuSans-65" transform="translate(493.847656 0.015625)"/>
      <use xlink:href="#DejaVuSans-6c" transform="translate(555.371094 0.015625)"/>
      <use xlink:href="#DejaVuSans-6c" transform="translate(583.154297 0.015625)"/>
      <use xlink:href="#DejaVuSans-73" transform="translate(610.9375 0.015625)"/>
      <use xlink:href="#DejaVuSans-20" transform="translate(663.037109 0.015625)"/>
      <use xlink:href="#DejaVuSans-20" transform="translate(694.824219 0.015625)"/>
      <use xlink:href="#DejaVuSans-Oblique-49" transform="translate(726.611328 0.015625)"/>
     </g>
    </g>
   </g>
   <g id="line2d_63">
    <path d="M 93.863125 86.92754 
L 95.705139 101.785627 
L 97.547153 114.823203 
L 99.389167 126.376622 
L 101.398637 137.61384 
L 103.575562 148.507981 
L 105.919944 159.081804 
L 108.431781 169.394943 
L 111.27853 180.140409 
L 114.627647 191.866904 
L 118.47913 204.523821 
L 123.335349 219.689835 
L 129.866126 239.307439 
L 139.913475 268.706718 
L 161.012908 329.602034 
L 190.574804 414.657812 
L 190.574804 414.657812 
" clip-path="url(#p4ed43c4e49)" style="fill: none; stroke: #1b6ca8; stroke-width: 2.8; stroke-linecap: square"/>
   </g>
   <g id="line2d_64">
    <path d="M 93.863125 86.92754 
L 95.035316 60.260979 
L 96.040051 42.462478 
L 96.87733 31.751931 
L 97.547153 25.935747 
L 98.04952 23.025576 
L 98.551888 21.163641 
L 99.054255 20.148571 
L 99.389167 19.846866 
L 99.724079 19.785815 
L 100.05899 19.92186 
L 100.561358 20.416427 
L 101.231181 21.470986 
L 102.235916 23.584941 
L 103.743018 27.359288 
L 113.957823 54.058282 
L 117.139484 61.354736 
L 120.321144 68.078534 
L 123.502805 74.261055 
L 126.684465 79.947846 
L 129.866126 85.190499 
L 133.215242 90.28694 
L 136.731815 95.234991 
L 140.415843 100.041525 
L 144.434782 104.916453 
L 148.788634 109.840223 
L 153.477396 114.806181 
L 158.668527 119.97999 
L 164.52948 125.501203 
L 171.227713 131.493049 
L 178.763225 137.930392 
L 187.638383 145.211681 
L 198.1881 153.567928 
L 210.914742 163.355581 
L 226.990501 175.42619 
L 248.25739 191.101028 
L 279.236716 213.635002 
L 333.659857 252.906961 
L 507.981364 378.303386 
L 558.532806 414.657812 
L 558.532806 414.657812 
" clip-path="url(#p4ed43c4e49)" style="fill: none; stroke: #c0392b; stroke-width: 2.8; stroke-linecap: square"/>
   </g>
   <g id="line2d_65">
    <path d="M 93.863125 86.92754 
L 94.700125 93.928669 
L 95.537125 72.146048 
L 95.580048 72.524129 
L 96.374125 79.308951 
L 96.395587 78.734459 
L 97.211125 58.532632 
L 97.232587 58.728242 
L 98.048125 65.946645 
L 98.069587 65.404468 
L 98.885125 46.6979 
L 98.906587 46.902972 
L 99.722125 54.479055 
L 99.743587 53.983734 
L 100.559125 37.337983 
L 101.396125 45.590785 
L 101.417587 45.154837 
L 102.233125 30.939137 
L 103.070125 39.698187 
L 103.091587 39.324886 
L 103.84274 28.243838 
L 103.907125 27.47595 
L 103.950048 27.961238 
L 104.744125 36.680178 
L 104.765587 36.360999 
L 105.473817 27.476164 
L 105.581125 26.406472 
L 105.624048 26.909435 
L 106.418125 35.933989 
L 106.439587 35.653454 
L 107.147817 27.888007 
L 107.255125 26.958507 
L 107.298048 27.472306 
L 108.092125 36.681276 
L 108.135048 36.168468 
L 108.843279 29.098607 
L 108.929125 28.415126 
L 108.972048 28.934205 
L 109.766125 38.23073 
L 109.809048 37.738833 
L 110.53874 30.73697 
L 110.603125 30.239303 
L 110.646048 30.759808 
L 111.440125 40.077408 
L 111.483048 39.589696 
L 112.234202 32.412542 
L 112.277125 32.07826 
L 112.320048 32.5978 
L 113.114125 41.8956 
L 113.157048 41.401906 
L 113.908202 34.070136 
L 113.951125 33.724585 
L 113.994048 34.241851 
L 114.788125 43.497723 
L 114.831048 42.992639 
L 115.603663 35.253136 
L 115.625125 35.074228 
L 115.668048 35.588653 
L 116.462125 44.793362 
L 116.505048 44.274734 
L 117.299125 36.092885 
L 118.136125 45.757199 
L 118.157587 45.490127 
L 118.973125 36.791296 
L 119.810125 46.405584 
L 119.831587 46.132377 
L 120.647125 37.20739 
L 121.484125 46.779614 
L 121.505587 46.501287 
L 122.321125 37.393362 
L 123.158125 46.932871 
L 123.179587 46.650591 
L 123.995125 37.406289 
L 124.832125 46.922535 
L 124.853587 46.637472 
L 125.669125 37.301452 
L 126.506125 46.803101 
L 126.527587 46.516318 
L 127.343125 37.12784 
L 128.180125 46.622213 
L 128.201587 46.334601 
L 129.017125 36.925509 
L 129.854125 46.418298 
L 129.875587 46.130544 
L 130.691125 36.72449 
L 131.528125 46.219707 
L 131.549587 45.932291 
L 132.365125 36.544956 
L 133.202125 46.045062 
L 133.223587 45.758273 
L 134.039125 36.398306 
L 134.876125 45.904454 
L 134.897587 45.618421 
L 135.713125 36.288806 
L 136.550125 45.801143 
L 136.571587 45.515876 
L 137.387125 36.215464 
L 138.224125 45.733445 
L 138.245587 45.448869 
L 139.061125 36.173854 
L 139.898125 45.696528 
L 139.919587 45.412523 
L 140.735125 36.15772 
L 141.572125 45.683964 
L 141.593587 45.400389 
L 142.409125 36.16024 
L 143.246125 45.688935 
L 143.267587 45.405652 
L 144.083125 36.17493 
L 144.920125 45.705075 
L 144.941587 45.421962 
L 145.757125 36.19621 
L 146.594125 45.726989 
L 146.615587 45.443947 
L 147.431125 36.21968 
L 148.268125 45.750484 
L 148.289587 45.467439 
L 149.105125 36.242183 
L 149.942125 45.772604 
L 149.963587 45.489508 
L 150.779125 36.261718 
L 151.616125 45.791523 
L 151.637587 45.508349 
L 152.453125 36.277256 
L 153.290125 45.806354 
L 153.311587 45.523091 
L 154.127125 36.288525 
L 154.964125 45.816927 
L 154.985587 45.533579 
L 155.801125 36.295782 
L 156.638125 45.823569 
L 156.659587 45.540145 
L 157.475125 36.299615 
L 158.312125 45.826903 
L 158.333587 45.543419 
L 159.149125 36.300767 
L 159.986125 45.827686 
L 160.007587 45.544158 
L 160.823125 36.300012 
L 161.660125 45.826686 
L 161.681587 45.543128 
L 162.497125 36.298063 
L 163.334125 45.8246 
L 163.355587 45.541026 
L 164.171125 36.295518 
L 165.008125 45.822004 
L 165.029587 45.538425 
L 165.845125 36.292837 
L 166.682125 45.819336 
L 166.703587 45.535759 
L 167.519125 36.290344 
L 168.356125 45.816896 
L 168.377587 45.533326 
L 169.193125 36.288232 
L 170.030125 45.814859 
L 170.051587 45.531298 
L 170.867125 36.286594 
L 171.704125 45.813302 
L 171.725587 45.529751 
L 172.541125 36.285439 
L 173.378125 45.812225 
L 173.399587 45.528684 
L 174.215125 36.284728 
L 175.052125 45.81158 
L 175.073587 45.528048 
L 175.889125 36.284385 
L 176.726125 45.81129 
L 176.747587 45.527764 
L 177.563125 36.284323 
L 178.400125 45.811267 
L 178.421587 45.527745 
L 179.237125 36.284456 
L 180.074125 45.811424 
L 180.095587 45.527905 
L 180.911125 36.284704 
L 181.748125 45.811684 
L 181.769587 45.528167 
L 182.585125 36.285004 
L 183.422125 45.811988 
L 183.443587 45.528471 
L 184.259125 36.285307 
L 185.096125 45.812288 
L 185.117587 45.528771 
L 185.933125 36.285582 
L 186.770125 45.812555 
L 186.791587 45.529037 
L 187.607125 36.285808 
L 188.444125 45.812773 
L 188.465587 45.529254 
L 189.281125 36.28598 
L 190.118125 45.812935 
L 190.139587 45.529415 
L 190.955125 36.286097 
L 191.792125 45.813044 
L 191.813587 45.529522 
L 192.629125 36.286165 
L 193.466125 45.813105 
L 193.487587 45.529582 
L 194.303125 36.286194 
L 195.140125 45.813128 
L 195.161587 45.529605 
L 195.977125 36.286194 
L 196.814125 45.813124 
L 196.835587 45.529601 
L 197.651125 36.286174 
L 198.488125 45.813102 
L 198.509587 45.529578 
L 199.325125 36.286144 
L 200.162125 45.81307 
L 200.183587 45.529546 
L 200.999125 36.286109 
L 201.836125 45.813035 
L 201.857587 45.529511 
L 202.673125 36.286075 
L 203.510125 45.813002 
L 203.531587 45.529478 
L 204.347125 36.286045 
L 205.184125 45.812973 
L 205.205587 45.529449 
L 206.021125 36.286021 
L 206.858125 45.81295 
L 206.879587 45.529426 
L 207.695125 36.286003 
L 208.532125 45.812933 
L 208.553587 45.529409 
L 209.369125 36.285991 
L 210.206125 45.812922 
L 210.227587 45.529399 
L 211.043125 36.285985 
L 211.880125 45.812917 
L 211.901587 45.529393 
L 212.717125 36.285982 
L 213.554125 45.812915 
L 213.575587 45.529392 
L 214.391125 36.285983 
L 215.228125 45.812916 
L 215.249587 45.529393 
L 216.065125 36.285986 
L 216.902125 45.812919 
L 216.923587 45.529396 
L 217.739125 36.28599 
L 218.576125 45.812923 
L 218.597587 45.529399 
L 219.413125 36.285994 
L 220.250125 45.812927 
L 220.271587 45.529403 
L 221.087125 36.285997 
L 221.924125 45.81293 
L 221.945587 45.529407 
L 222.761125 36.286001 
L 223.598125 45.812934 
L 223.619587 45.52941 
L 224.435125 36.286003 
L 225.272125 45.812936 
L 225.293587 45.529413 
L 226.109125 36.286005 
L 226.946125 45.812938 
L 226.967587 45.529414 
L 227.783125 36.286006 
L 228.620125 45.812939 
L 228.641587 45.529415 
L 229.457125 36.286007 
L 230.294125 45.812939 
L 230.315587 45.529416 
L 231.131125 36.286007 
L 231.968125 45.812939 
L 231.989587 45.529416 
L 232.805125 36.286007 
L 233.642125 45.812939 
L 233.663587 45.529416 
L 234.479125 36.286006 
L 235.316125 45.812939 
L 235.337587 45.529415 
L 236.153125 36.286006 
L 236.990125 45.812938 
L 237.011587 45.529415 
L 237.827125 36.286005 
L 238.664125 45.812938 
L 238.685587 45.529415 
L 239.501125 36.286005 
L 240.338125 45.812938 
L 240.359587 45.529414 
L 241.175125 36.286005 
L 242.012125 45.812937 
L 242.033587 45.529414 
L 242.849125 36.286004 
L 243.686125 45.812937 
L 243.707587 45.529414 
L 244.523125 36.286004 
L 245.360125 45.812937 
L 245.381587 45.529413 
L 246.197125 36.286004 
L 247.034125 45.812937 
L 247.055587 45.529413 
L 247.871125 36.286004 
L 248.708125 45.812937 
L 248.729587 45.529413 
L 249.545125 36.286004 
L 250.382125 45.812937 
L 250.403587 45.529413 
L 251.219125 36.286004 
L 252.056125 45.812937 
L 252.077587 45.529413 
L 252.893125 36.286004 
L 253.730125 45.812937 
L 253.751587 45.529413 
L 254.567125 36.286004 
L 255.404125 45.812937 
L 255.425587 45.529413 
L 256.241125 36.286004 
L 257.078125 45.812937 
L 257.099587 45.529413 
L 257.915125 36.286004 
L 258.752125 45.812937 
L 258.773587 45.529413 
L 259.589125 36.286004 
L 260.426125 45.812937 
L 260.447587 45.529414 
L 261.263125 36.286004 
L 262.100125 45.812937 
L 262.121587 45.529414 
L 262.937125 36.286004 
L 263.774125 45.812937 
L 263.795587 45.529414 
L 264.611125 36.286004 
L 265.448125 45.812937 
L 265.469587 45.529414 
L 266.285125 36.286004 
L 267.122125 45.812937 
L 267.143587 45.529414 
L 267.959125 36.286004 
L 268.796125 45.812937 
L 268.817587 45.529414 
L 269.633125 36.286004 
L 270.470125 45.812937 
L 270.491587 45.529414 
L 271.307125 36.286004 
L 272.144125 45.812937 
L 272.165587 45.529414 
L 272.981125 36.286004 
L 273.818125 45.812937 
L 273.839587 45.529414 
L 274.655125 36.286004 
L 275.492125 45.812937 
L 275.513587 45.529414 
L 276.329125 36.286004 
L 277.166125 45.812937 
L 277.187587 45.529414 
L 278.003125 36.286004 
L 278.840125 45.812937 
L 278.861587 45.529414 
L 279.677125 36.286004 
L 280.514125 45.812937 
L 280.535587 45.529414 
L 281.351125 36.286004 
L 282.188125 45.812937 
L 282.209587 45.529414 
L 283.025125 36.286004 
L 283.862125 45.812937 
L 283.883587 45.529414 
L 284.699125 36.286004 
L 285.536125 45.812937 
L 285.557587 45.529414 
L 286.373125 36.286004 
L 287.210125 45.812937 
L 287.231587 45.529414 
L 288.047125 36.286004 
L 288.884125 45.812937 
L 288.905587 45.529414 
L 289.721125 36.286004 
L 290.558125 45.812937 
L 290.579587 45.529414 
L 291.395125 36.286004 
L 292.232125 45.812937 
L 292.253587 45.529414 
L 293.069125 36.286004 
L 293.906125 45.812937 
L 293.927587 45.529414 
L 294.743125 36.286004 
L 295.580125 45.812937 
L 295.601587 45.529414 
L 296.417125 36.286004 
L 297.254125 45.812937 
L 297.275587 45.529414 
L 298.091125 36.286004 
L 298.928125 45.812937 
L 298.949587 45.529414 
L 299.765125 36.286004 
L 300.602125 45.812937 
L 300.623587 45.529414 
L 301.439125 36.286004 
L 302.276125 45.812937 
L 302.297587 45.529414 
L 303.113125 36.286004 
L 303.950125 45.812937 
L 303.971587 45.529414 
L 304.787125 36.286004 
L 305.624125 45.812937 
L 305.645587 45.529414 
L 306.461125 36.286004 
L 307.298125 45.812937 
L 307.319587 45.529414 
L 308.135125 36.286004 
L 308.972125 45.812937 
L 308.993587 45.529414 
L 309.809125 36.286004 
L 310.646125 45.812937 
L 310.667587 45.529414 
L 311.483125 36.286004 
L 312.320125 45.812937 
L 312.341587 45.529414 
L 313.157125 36.286004 
L 313.994125 45.812937 
L 314.015587 45.529414 
L 314.831125 36.286004 
L 315.668125 45.812937 
L 315.689587 45.529414 
L 316.505125 36.286004 
L 317.342125 45.812937 
L 317.363587 45.529414 
L 318.179125 36.286004 
L 319.016125 45.812937 
L 319.037587 45.529414 
L 319.853125 36.286004 
L 320.690125 45.812937 
L 320.711587 45.529414 
L 321.527125 36.286004 
L 322.364125 45.812937 
L 322.385587 45.529414 
L 323.201125 36.286004 
L 324.038125 45.812937 
L 324.059587 45.529414 
L 324.875125 36.286004 
L 325.712125 45.812937 
L 325.733587 45.529414 
L 326.549125 36.286004 
L 327.386125 45.812937 
L 327.407587 45.529414 
L 328.223125 36.286004 
L 329.060125 45.812937 
L 329.081587 45.529414 
L 329.897125 36.286004 
L 330.734125 45.812937 
L 330.755587 45.529414 
L 331.571125 36.286004 
L 332.408125 45.812937 
L 332.429587 45.529414 
L 333.245125 36.286004 
L 334.082125 45.812937 
L 334.103587 45.529414 
L 334.919125 36.286004 
L 335.756125 45.812937 
L 335.777587 45.529414 
L 336.593125 36.286004 
L 337.430125 45.812937 
L 337.451587 45.529414 
L 338.267125 36.286004 
L 339.104125 45.812937 
L 339.125587 45.529414 
L 339.941125 36.286004 
L 340.778125 45.812937 
L 340.799587 45.529414 
L 341.615125 36.286004 
L 342.452125 45.812937 
L 342.473587 45.529414 
L 343.289125 36.286004 
L 344.126125 45.812937 
L 344.147587 45.529414 
L 344.963125 36.286004 
L 345.800125 45.812937 
L 345.821587 45.529414 
L 346.637125 36.286004 
L 347.474125 45.812937 
L 347.495587 45.529414 
L 348.311125 36.286004 
L 349.148125 45.812937 
L 349.169587 45.529414 
L 349.985125 36.286004 
L 350.822125 45.812937 
L 350.843587 45.529414 
L 351.659125 36.286004 
L 352.496125 45.812937 
L 352.517587 45.529414 
L 353.333125 36.286004 
L 354.170125 45.812937 
L 354.191587 45.529414 
L 355.007125 36.286004 
L 355.844125 45.812937 
L 355.865587 45.529414 
L 356.681125 36.286004 
L 357.518125 45.812937 
L 357.539587 45.529414 
L 358.355125 36.286004 
L 359.192125 45.812937 
L 359.213587 45.529414 
L 360.029125 36.286004 
L 360.866125 45.812937 
L 360.887587 45.529414 
L 361.703125 36.286004 
L 362.540125 45.812937 
L 362.561587 45.529414 
L 363.377125 36.286004 
L 364.214125 45.812937 
L 364.235587 45.529414 
L 365.051125 36.286004 
L 365.888125 45.812937 
L 365.909587 45.529414 
L 366.725125 36.286004 
L 367.562125 45.812937 
L 367.583587 45.529414 
L 368.399125 36.286004 
L 369.236125 45.812937 
L 369.257587 45.529414 
L 370.073125 36.286004 
L 370.910125 45.812937 
L 370.931587 45.529414 
L 371.747125 36.286004 
L 372.584125 45.812937 
L 372.605587 45.529414 
L 373.421125 36.286004 
L 374.258125 45.812937 
L 374.279587 45.529414 
L 375.095125 36.286004 
L 375.932125 45.812937 
L 375.953587 45.529414 
L 376.769125 36.286004 
L 377.606125 45.812937 
L 377.627587 45.529414 
L 378.443125 36.286004 
L 379.280125 45.812937 
L 379.301587 45.529414 
L 380.117125 36.286004 
L 380.954125 45.812937 
L 380.975587 45.529414 
L 381.791125 36.286004 
L 382.628125 45.812937 
L 382.649587 45.529414 
L 383.465125 36.286004 
L 384.302125 45.812937 
L 384.323587 45.529414 
L 385.139125 36.286004 
L 385.976125 45.812937 
L 385.997587 45.529414 
L 386.813125 36.286004 
L 387.650125 45.812937 
L 387.671587 45.529414 
L 388.487125 36.286004 
L 389.324125 45.812937 
L 389.345587 45.529414 
L 390.161125 36.286004 
L 390.998125 45.812937 
L 391.019587 45.529414 
L 391.835125 36.286004 
L 392.672125 45.812937 
L 392.693587 45.529414 
L 393.509125 36.286004 
L 394.346125 45.812937 
L 394.367587 45.529414 
L 395.183125 36.286004 
L 396.020125 45.812937 
L 396.041587 45.529414 
L 396.857125 36.286004 
L 397.694125 45.812937 
L 397.715587 45.529414 
L 398.531125 36.286004 
L 399.368125 45.812937 
L 399.389587 45.529414 
L 400.205125 36.286004 
L 401.042125 45.812937 
L 401.063587 45.529414 
L 401.879125 36.286004 
L 402.716125 45.812937 
L 402.737587 45.529414 
L 403.553125 36.286004 
L 404.390125 45.812937 
L 404.411587 45.529414 
L 405.227125 36.286004 
L 406.064125 45.812937 
L 406.085587 45.529414 
L 406.901125 36.286004 
L 407.738125 45.812937 
L 407.759587 45.529414 
L 408.575125 36.286004 
L 409.412125 45.812937 
L 409.433587 45.529414 
L 410.249125 36.286004 
L 411.086125 45.812937 
L 411.107587 45.529414 
L 411.923125 36.286004 
L 412.760125 45.812937 
L 412.781587 45.529414 
L 413.597125 36.286004 
L 414.434125 45.812937 
L 414.455587 45.529414 
L 415.271125 36.286004 
L 416.108125 45.812937 
L 416.129587 45.529414 
L 416.945125 36.286004 
L 417.782125 45.812937 
L 417.803587 45.529414 
L 418.619125 36.286004 
L 419.456125 45.812937 
L 419.477587 45.529414 
L 420.293125 36.286004 
L 421.130125 45.812937 
L 421.151587 45.529414 
L 421.967125 36.286004 
L 422.804125 45.812937 
L 422.825587 45.529414 
L 423.641125 36.286004 
L 424.478125 45.812937 
L 424.499587 45.529414 
L 425.315125 36.286004 
L 426.152125 45.812937 
L 426.173587 45.529414 
L 426.989125 36.286004 
L 427.826125 45.812937 
L 427.847587 45.529414 
L 428.663125 36.286004 
L 429.500125 45.812937 
L 429.521587 45.529414 
L 430.337125 36.286004 
L 431.174125 45.812937 
L 431.195587 45.529414 
L 432.011125 36.286004 
L 432.848125 45.812937 
L 432.869587 45.529414 
L 433.685125 36.286004 
L 434.522125 45.812937 
L 434.543587 45.529414 
L 435.359125 36.286004 
L 436.196125 45.812937 
L 436.217587 45.529414 
L 437.033125 36.286004 
L 437.870125 45.812937 
L 437.891587 45.529414 
L 438.707125 36.286004 
L 439.544125 45.812937 
L 439.565587 45.529414 
L 440.381125 36.286004 
L 441.218125 45.812937 
L 441.239587 45.529414 
L 442.055125 36.286004 
L 442.892125 45.812937 
L 442.913587 45.529414 
L 443.729125 36.286004 
L 444.566125 45.812937 
L 444.587587 45.529414 
L 445.403125 36.286004 
L 446.240125 45.812937 
L 446.261587 45.529414 
L 447.077125 36.286004 
L 447.914125 45.812937 
L 447.935587 45.529414 
L 448.751125 36.286004 
L 449.588125 45.812937 
L 449.609587 45.529414 
L 450.425125 36.286004 
L 451.262125 45.812937 
L 451.283587 45.529414 
L 452.099125 36.286004 
L 452.936125 45.812937 
L 452.957587 45.529414 
L 453.773125 36.286004 
L 454.610125 45.812937 
L 454.631587 45.529414 
L 455.447125 36.286004 
L 456.284125 45.812937 
L 456.305587 45.529414 
L 457.121125 36.286004 
L 457.958125 45.812937 
L 457.979587 45.529414 
L 458.795125 36.286004 
L 459.632125 45.812937 
L 459.653587 45.529414 
L 460.469125 36.286004 
L 461.306125 45.812937 
L 461.327587 45.529414 
L 462.143125 36.286004 
L 462.980125 45.812937 
L 463.001587 45.529414 
L 463.817125 36.286004 
L 464.654125 45.812937 
L 464.675587 45.529414 
L 465.491125 36.286004 
L 466.328125 45.812937 
L 466.349587 45.529414 
L 467.165125 36.286004 
L 468.002125 45.812937 
L 468.023587 45.529414 
L 468.839125 36.286004 
L 469.676125 45.812937 
L 469.697587 45.529414 
L 470.513125 36.286004 
L 471.350125 45.812937 
L 471.371587 45.529414 
L 472.187125 36.286004 
L 473.024125 45.812937 
L 473.045587 45.529414 
L 473.861125 36.286004 
L 474.698125 45.812937 
L 474.719587 45.529414 
L 475.535125 36.286004 
L 476.372125 45.812937 
L 476.393587 45.529414 
L 477.209125 36.286004 
L 478.046125 45.812937 
L 478.067587 45.529414 
L 478.883125 36.286004 
L 479.720125 45.812937 
L 479.741587 45.529414 
L 480.557125 36.286004 
L 481.394125 45.812937 
L 481.415587 45.529414 
L 482.231125 36.286004 
L 483.068125 45.812937 
L 483.089587 45.529414 
L 483.905125 36.286004 
L 484.742125 45.812937 
L 484.763587 45.529414 
L 485.579125 36.286004 
L 486.416125 45.812937 
L 486.437587 45.529414 
L 487.253125 36.286004 
L 488.090125 45.812937 
L 488.111587 45.529414 
L 488.927125 36.286004 
L 489.764125 45.812937 
L 489.785587 45.529414 
L 490.601125 36.286004 
L 491.438125 45.812937 
L 491.459587 45.529414 
L 492.275125 36.286004 
L 493.112125 45.812937 
L 493.133587 45.529414 
L 493.949125 36.286004 
L 494.786125 45.812937 
L 494.807587 45.529414 
L 495.623125 36.286004 
L 496.460125 45.812937 
L 496.481587 45.529414 
L 497.297125 36.286004 
L 498.134125 45.812937 
L 498.155587 45.529414 
L 498.971125 36.286004 
L 499.808125 45.812937 
L 499.829587 45.529414 
L 500.645125 36.286004 
L 501.482125 45.812937 
L 501.503587 45.529414 
L 502.319125 36.286004 
L 503.156125 45.812937 
L 503.177587 45.529414 
L 503.993125 36.286004 
L 504.830125 45.812937 
L 504.851587 45.529414 
L 505.667125 36.286004 
L 506.504125 45.812937 
L 506.525587 45.529414 
L 507.341125 36.286004 
L 508.178125 45.812937 
L 508.199587 45.529414 
L 509.015125 36.286004 
L 509.852125 45.812937 
L 509.873587 45.529414 
L 510.689125 36.286004 
L 511.526125 45.812937 
L 511.547587 45.529414 
L 512.363125 36.286004 
L 513.200125 45.812937 
L 513.221587 45.529414 
L 514.037125 36.286004 
L 514.874125 45.812937 
L 514.895587 45.529414 
L 515.711125 36.286004 
L 516.548125 45.812937 
L 516.569587 45.529414 
L 517.385125 36.286004 
L 518.222125 45.812937 
L 518.243587 45.529414 
L 519.059125 36.286004 
L 519.896125 45.812937 
L 519.917587 45.529414 
L 520.733125 36.286004 
L 521.570125 45.812937 
L 521.591587 45.529414 
L 522.407125 36.286004 
L 523.244125 45.812937 
L 523.265587 45.529414 
L 524.081125 36.286004 
L 524.918125 45.812937 
L 524.939587 45.529414 
L 525.755125 36.286004 
L 526.592125 45.812937 
L 526.613587 45.529414 
L 527.429125 36.286004 
L 528.266125 45.812937 
L 528.287587 45.529414 
L 529.103125 36.286004 
L 529.940125 45.812937 
L 529.961587 45.529414 
L 530.777125 36.286004 
L 531.614125 45.812937 
L 531.635587 45.529414 
L 532.451125 36.286004 
L 533.288125 45.812937 
L 533.309587 45.529414 
L 534.125125 36.286004 
L 534.962125 45.812937 
L 534.983587 45.529414 
L 535.799125 36.286004 
L 536.636125 45.812937 
L 536.657587 45.529414 
L 537.473125 36.286004 
L 538.310125 45.812937 
L 538.331587 45.529414 
L 539.147125 36.286004 
L 539.984125 45.812937 
L 540.005587 45.529414 
L 540.821125 36.286004 
L 541.658125 45.812937 
L 541.679587 45.529414 
L 542.495125 36.286004 
L 543.332125 45.812937 
L 543.353587 45.529414 
L 544.169125 36.286004 
L 545.006125 45.812937 
L 545.027587 45.529414 
L 545.843125 36.286004 
L 546.680125 45.812937 
L 546.701587 45.529414 
L 547.517125 36.286004 
L 548.354125 45.812937 
L 548.375587 45.529414 
L 549.191125 36.286004 
L 550.028125 45.812937 
L 550.049587 45.529414 
L 550.865125 36.286004 
L 551.702125 45.812937 
L 551.723587 45.529414 
L 552.539125 36.286004 
L 553.376125 45.812937 
L 553.397587 45.529414 
L 554.213125 36.286004 
L 555.050125 45.812937 
L 555.071587 45.529414 
L 555.887125 36.286004 
L 556.724125 45.812937 
L 556.745587 45.529414 
L 557.561125 36.286004 
L 558.398125 45.812937 
L 558.419587 45.529414 
L 559.235125 36.286004 
L 560.072125 45.812937 
L 560.093587 45.529414 
L 560.909125 36.286004 
L 561.746125 45.812937 
L 561.767587 45.529414 
L 562.583125 36.286004 
L 563.420125 45.812937 
L 563.441587 45.529414 
L 564.257125 36.286004 
L 565.094125 45.812937 
L 565.115587 45.529414 
L 565.931125 36.286004 
L 566.768125 45.812937 
L 566.789587 45.529414 
L 567.605125 36.286004 
L 568.442125 45.812937 
L 568.463587 45.529414 
L 569.279125 36.286004 
L 570.116125 45.812937 
L 570.137587 45.529414 
L 570.953125 36.286004 
L 571.790125 45.812937 
L 571.811587 45.529414 
L 572.627125 36.286004 
L 573.464125 45.812937 
L 573.485587 45.529414 
L 574.301125 36.286004 
L 575.138125 45.812937 
L 575.159587 45.529414 
L 575.975125 36.286004 
L 576.812125 45.812937 
L 576.833587 45.529414 
L 577.649125 36.286004 
L 578.486125 45.812937 
L 578.507587 45.529414 
L 579.323125 36.286004 
L 580.160125 45.812937 
L 580.181587 45.529414 
L 580.997125 36.286004 
L 581.834125 45.812937 
L 581.855587 45.529414 
L 582.671125 36.286004 
L 583.508125 45.812937 
L 583.529587 45.529414 
L 584.345125 36.286004 
L 585.182125 45.812937 
L 585.203587 45.529414 
L 586.019125 36.286004 
L 586.856125 45.812937 
L 586.877587 45.529414 
L 587.693125 36.286004 
L 588.530125 45.812937 
L 588.551587 45.529414 
L 589.367125 36.286004 
L 590.204125 45.812937 
L 590.225587 45.529414 
L 591.041125 36.286004 
L 591.878125 45.812937 
L 591.899587 45.529414 
L 592.715125 36.286004 
L 593.552125 45.812937 
L 593.573587 45.529414 
L 594.389125 36.286004 
L 595.226125 45.812937 
L 595.247587 45.529414 
L 596.063125 36.286004 
L 596.063125 36.286004 
" clip-path="url(#p4ed43c4e49)" style="fill: none; stroke: #2e7d32; stroke-width: 2.8; stroke-linecap: square"/>
   </g>
   <g id="patch_3">
    <path d="M 93.863125 347.438437 
L 93.863125 14.798437 
" style="fill: none; stroke: #000000; stroke-width: 1.4; stroke-linejoin: miter; stroke-linecap: square"/>
   </g>
   <g id="patch_4">
    <path d="M 596.063125 347.438437 
L 596.063125 14.798437 
" style="fill: none; stroke: #000000; stroke-width: 1.4; stroke-linejoin: miter; stroke-linecap: square"/>
   </g>
   <g id="patch_5">
    <path d="M 93.863125 347.438437 
L 596.063125 347.438437 
" style="fill: none; stroke: #000000; stroke-width: 1.4; stroke-linejoin: miter; stroke-linecap: square"/>
   </g>
   <g id="patch_6">
    <path d="M 93.863125 14.798437 
L 596.063125 14.798437 
" style="fill: none; stroke: #000000; stroke-width: 1.4; stroke-linejoin: miter; stroke-linecap: square"/>
   </g>
   <g id="legend_1">
    <g id="line2d_66">
     <path d="M 110.063125 265.718437 
L 128.063125 265.718437 
L 146.063125 265.718437 
" style="fill: none; stroke: #1b6ca8; stroke-width: 2.8; stroke-linecap: square"/>
    </g>
    <g id="text_17">
     <!-- drug 1 only  ($R_0{=}0.8$) -->
     <g transform="translate(160.463125 272.018438) scale(0.18 -0.18)">
      <defs>
       <path id="DejaVuSans-72" d="M 2631 2963 
Q 2534 3019 2420 3045 
Q 2306 3072 2169 3072 
Q 1681 3072 1420 2755 
Q 1159 2438 1159 1844 
L 1159 0 
L 581 0 
L 581 3500 
L 1159 3500 
L 1159 2956 
Q 1341 3275 1631 3429 
Q 1922 3584 2338 3584 
Q 2397 3584 2469 3576 
Q 2541 3569 2628 3553 
L 2631 2963 
z
" transform="scale(0.015625)"/>
       <path id="DejaVuSans-75" d="M 544 1381 
L 544 3500 
L 1119 3500 
L 1119 1403 
Q 1119 906 1312 657 
Q 1506 409 1894 409 
Q 2359 409 2629 706 
Q 2900 1003 2900 1516 
L 2900 3500 
L 3475 3500 
L 3475 0 
L 2900 0 
L 2900 538 
Q 2691 219 2414 64 
Q 2138 -91 1772 -91 
Q 1169 -91 856 284 
Q 544 659 544 1381 
z
M 1991 3584 
L 1991 3584 
z
" transform="scale(0.015625)"/>
       <path id="DejaVuSans-67" d="M 2906 1791 
Q 2906 2416 2648 2759 
Q 2391 3103 1925 3103 
Q 1463 3103 1205 2759 
Q 947 2416 947 1791 
Q 947 1169 1205 825 
Q 1463 481 1925 481 
Q 2391 481 2648 825 
Q 2906 1169 2906 1791 
z
M 3481 434 
Q 3481 -459 3084 -895 
Q 2688 -1331 1869 -1331 
Q 1566 -1331 1297 -1286 
Q 1028 -1241 775 -1147 
L 775 -588 
Q 1028 -725 1275 -790 
Q 1522 -856 1778 -856 
Q 2344 -856 2625 -561 
Q 2906 -266 2906 331 
L 2906 616 
Q 2728 306 2450 153 
Q 2172 0 1784 0 
Q 1141 0 747 490 
Q 353 981 353 1791 
Q 353 2603 747 3093 
Q 1141 3584 1784 3584 
Q 2172 3584 2450 3431 
Q 2728 3278 2906 2969 
L 2906 3500 
L 3481 3500 
L 3481 434 
z
" transform="scale(0.015625)"/>
       <path id="DejaVuSans-6f" d="M 1959 3097 
Q 1497 3097 1228 2736 
Q 959 2375 959 1747 
Q 959 1119 1226 758 
Q 1494 397 1959 397 
Q 2419 397 2687 759 
Q 2956 1122 2956 1747 
Q 2956 2369 2687 2733 
Q 2419 3097 1959 3097 
z
M 1959 3584 
Q 2709 3584 3137 3096 
Q 3566 2609 3566 1747 
Q 3566 888 3137 398 
Q 2709 -91 1959 -91 
Q 1206 -91 779 398 
Q 353 888 353 1747 
Q 353 2609 779 3096 
Q 1206 3584 1959 3584 
z
" transform="scale(0.015625)"/>
       <path id="DejaVuSans-79" d="M 2059 -325 
Q 1816 -950 1584 -1140 
Q 1353 -1331 966 -1331 
L 506 -1331 
L 506 -850 
L 844 -850 
Q 1081 -850 1212 -737 
Q 1344 -625 1503 -206 
L 1606 56 
L 191 3500 
L 800 3500 
L 1894 763 
L 2988 3500 
L 3597 3500 
L 2059 -325 
z
" transform="scale(0.015625)"/>
       <path id="DejaVuSans-28" d="M 1984 4856 
Q 1566 4138 1362 3434 
Q 1159 2731 1159 2009 
Q 1159 1288 1364 580 
Q 1569 -128 1984 -844 
L 1484 -844 
Q 1016 -109 783 600 
Q 550 1309 550 2009 
Q 550 2706 781 3412 
Q 1013 4119 1484 4856 
L 1984 4856 
z
" transform="scale(0.015625)"/>
       <path id="DejaVuSans-Oblique-52" d="M 1613 4147 
L 1294 2491 
L 2106 2491 
Q 2584 2491 2879 2755 
Q 3175 3019 3175 3444 
Q 3175 3784 2976 3965 
Q 2778 4147 2406 4147 
L 1613 4147 
z
M 2772 2241 
Q 2972 2194 3105 2009 
Q 3238 1825 3413 1275 
L 3809 0 
L 3144 0 
L 2778 1197 
Q 2638 1659 2453 1815 
Q 2269 1972 1888 1972 
L 1191 1972 
L 806 0 
L 172 0 
L 1081 4666 
L 2503 4666 
Q 3150 4666 3495 4373 
Q 3841 4081 3841 3531 
Q 3841 3044 3547 2687 
Q 3253 2331 2772 2241 
z
" transform="scale(0.015625)"/>
       <path id="DejaVuSans-3d" d="M 678 2906 
L 4684 2906 
L 4684 2381 
L 678 2381 
L 678 2906 
z
M 678 1631 
L 4684 1631 
L 4684 1100 
L 678 1100 
L 678 1631 
z
" transform="scale(0.015625)"/>
       <path id="DejaVuSans-2e" d="M 684 794 
L 1344 794 
L 1344 0 
L 684 0 
L 684 794 
z
" transform="scale(0.015625)"/>
       <path id="DejaVuSans-38" d="M 2034 2216 
Q 1584 2216 1326 1975 
Q 1069 1734 1069 1313 
Q 1069 891 1326 650 
Q 1584 409 2034 409 
Q 2484 409 2743 651 
Q 3003 894 3003 1313 
Q 3003 1734 2745 1975 
Q 2488 2216 2034 2216 
z
M 1403 2484 
Q 997 2584 770 2862 
Q 544 3141 544 3541 
Q 544 4100 942 4425 
Q 1341 4750 2034 4750 
Q 2731 4750 3128 4425 
Q 3525 4100 3525 3541 
Q 3525 3141 3298 2862 
Q 3072 2584 2669 2484 
Q 3125 2378 3379 2068 
Q 3634 1759 3634 1313 
Q 3634 634 3220 271 
Q 2806 -91 2034 -91 
Q 1263 -91 848 271 
Q 434 634 434 1313 
Q 434 1759 690 2068 
Q 947 2378 1403 2484 
z
M 1172 3481 
Q 1172 3119 1398 2916 
Q 1625 2713 2034 2713 
Q 2441 2713 2670 2916 
Q 2900 3119 2900 3481 
Q 2900 3844 2670 4047 
Q 2441 4250 2034 4250 
Q 1625 4250 1398 4047 
Q 1172 3844 1172 3481 
z
" transform="scale(0.015625)"/>
       <path id="DejaVuSans-29" d="M 513 4856 
L 1013 4856 
Q 1481 4119 1714 3412 
Q 1947 2706 1947 2009 
Q 1947 1309 1714 600 
Q 1481 -109 1013 -844 
L 513 -844 
Q 928 -128 1133 580 
Q 1338 1288 1338 2009 
Q 1338 2731 1133 3434 
Q 928 4138 513 4856 
z
" transform="scale(0.015625)"/>
      </defs>
      <use xlink:href="#DejaVuSans-64" transform="translate(0 0.015625)"/>
      <use xlink:href="#DejaVuSans-72" transform="translate(63.476562 0.015625)"/>
      <use xlink:href="#DejaVuSans-75" transform="translate(104.589844 0.015625)"/>
      <use xlink:href="#DejaVuSans-67" transform="translate(167.96875 0.015625)"/>
      <use xlink:href="#DejaVuSans-20" transform="translate(231.445312 0.015625)"/>
      <use xlink:href="#DejaVuSans-31" transform="translate(263.232422 0.015625)"/>
      <use xlink:href="#DejaVuSans-20" transform="translate(326.855469 0.015625)"/>
      <use xlink:href="#DejaVuSans-6f" transform="translate(358.642578 0.015625)"/>
      <use xlink:href="#DejaVuSans-6e" transform="translate(419.824219 0.015625)"/>
      <use xlink:href="#DejaVuSans-6c" transform="translate(483.203125 0.015625)"/>
      <use xlink:href="#DejaVuSans-79" transform="translate(510.986328 0.015625)"/>
      <use xlink:href="#DejaVuSans-20" transform="translate(570.166016 0.015625)"/>
      <use xlink:href="#DejaVuSans-20" transform="translate(601.953125 0.015625)"/>
      <use xlink:href="#DejaVuSans-28" transform="translate(633.740234 0.015625)"/>
      <use xlink:href="#DejaVuSans-Oblique-52" transform="translate(672.753906 0.015625)"/>
      <use xlink:href="#DejaVuSans-30" transform="translate(742.236328 -16.390625) scale(0.7)"/>
      <use xlink:href="#DejaVuSans-3d" transform="translate(808.989258 0.015625)"/>
      <use xlink:href="#DejaVuSans-30" transform="translate(912.260742 0.015625)"/>
      <use xlink:href="#DejaVuSans-2e" transform="translate(975.883789 0.015625)"/>
      <use xlink:href="#DejaVuSans-38" transform="translate(1005.045898 0.015625)"/>
      <use xlink:href="#DejaVuSans-29" transform="translate(1068.668945 0.015625)"/>
     </g>
    </g>
    <g id="line2d_67">
     <path d="M 110.063125 292.178437 
L 128.063125 292.178437 
L 146.063125 292.178437 
" style="fill: none; stroke: #c0392b; stroke-width: 2.8; stroke-linecap: square"/>
    </g>
    <g id="text_18">
     <!-- drug 2 only  ($R_0{=}0.8$) -->
     <g transform="translate(160.463125 298.478437) scale(0.18 -0.18)">
      <use xlink:href="#DejaVuSans-64" transform="translate(0 0.015625)"/>
      <use xlink:href="#DejaVuSans-72" transform="translate(63.476562 0.015625)"/>
      <use xlink:href="#DejaVuSans-75" transform="translate(104.589844 0.015625)"/>
      <use xlink:href="#DejaVuSans-67" transform="translate(167.96875 0.015625)"/>
      <use xlink:href="#DejaVuSans-20" transform="translate(231.445312 0.015625)"/>
      <use xlink:href="#DejaVuSans-32" transform="translate(263.232422 0.015625)"/>
      <use xlink:href="#DejaVuSans-20" transform="translate(326.855469 0.015625)"/>
      <use xlink:href="#DejaVuSans-6f" transform="translate(358.642578 0.015625)"/>
      <use xlink:href="#DejaVuSans-6e" transform="translate(419.824219 0.015625)"/>
      <use xlink:href="#DejaVuSans-6c" transform="translate(483.203125 0.015625)"/>
      <use xlink:href="#DejaVuSans-79" transform="translate(510.986328 0.015625)"/>
      <use xlink:href="#DejaVuSans-20" transform="translate(570.166016 0.015625)"/>
      <use xlink:href="#DejaVuSans-20" transform="translate(601.953125 0.015625)"/>
      <use xlink:href="#DejaVuSans-28" transform="translate(633.740234 0.015625)"/>
      <use xlink:href="#DejaVuSans-Oblique-52" transform="translate(672.753906 0.015625)"/>
      <use xlink:href="#DejaVuSans-30" transform="translate(742.236328 -16.390625) scale(0.7)"/>
      <use xlink:href="#DejaVuSans-3d" transform="translate(808.989258 0.015625)"/>
      <use xlink:href="#DejaVuSans-30" transform="translate(912.260742 0.015625)"/>
      <use xlink:href="#DejaVuSans-2e" transform="translate(975.883789 0.015625)"/>
      <use xlink:href="#DejaVuSans-38" transform="translate(1005.045898 0.015625)"/>
      <use xlink:href="#DejaVuSans-29" transform="translate(1068.668945 0.015625)"/>
     </g>
    </g>
    <g id="line2d_68">
     <path d="M 110.063125 321.195 
L 128.063125 321.195 
L 146.063125 321.195 
" style="fill: none; stroke: #2e7d32; stroke-width: 2.8; stroke-linecap: square"/>
    </g>
    <g id="text_19">
     <!-- fast switch  ($\bar R_0{\approx}2$) -->
     <g transform="translate(160.463125 327.495) scale(0.18 -0.18)">
      <defs>
       <path id="DejaVuSans-61" d="M 2194 1759 
Q 1497 1759 1228 1600 
Q 959 1441 959 1056 
Q 959 750 1161 570 
Q 1363 391 1709 391 
Q 2188 391 2477 730 
Q 2766 1069 2766 1631 
L 2766 1759 
L 2194 1759 
z
M 3341 1997 
L 3341 0 
L 2766 0 
L 2766 531 
Q 2569 213 2275 61 
Q 1981 -91 1556 -91 
Q 1019 -91 701 211 
Q 384 513 384 1019 
Q 384 1609 779 1909 
Q 1175 2209 1959 2209 
L 2766 2209 
L 2766 2266 
Q 2766 2663 2505 2880 
Q 2244 3097 1772 3097 
Q 1472 3097 1187 3025 
Q 903 2953 641 2809 
L 641 3341 
Q 956 3463 1253 3523 
Q 1550 3584 1831 3584 
Q 2591 3584 2966 3190 
Q 3341 2797 3341 1997 
z
" transform="scale(0.015625)"/>
       <path id="DejaVuSans-77" d="M 269 3500 
L 844 3500 
L 1563 769 
L 2278 3500 
L 2956 3500 
L 3675 769 
L 4391 3500 
L 4966 3500 
L 4050 0 
L 3372 0 
L 2619 2869 
L 1863 0 
L 1184 0 
L 269 3500 
z
" transform="scale(0.015625)"/>
       <path id="DejaVuSans-68" d="M 3513 2113 
L 3513 0 
L 2938 0 
L 2938 2094 
Q 2938 2591 2744 2837 
Q 2550 3084 2163 3084 
Q 1697 3084 1428 2787 
Q 1159 2491 1159 1978 
L 1159 0 
L 581 0 
L 581 4863 
L 1159 4863 
L 1159 2956 
Q 1366 3272 1645 3428 
Q 1925 3584 2291 3584 
Q 2894 3584 3203 3211 
Q 3513 2838 3513 2113 
z
" transform="scale(0.015625)"/>
       <path id="DejaVuSans-304" d="M -2518 4769 
L -650 4769 
L -650 4306 
L -2518 4306 
L -2518 4769 
z
" transform="scale(0.015625)"/>
       <path id="DejaVuSans-2248" d="M 4684 1947 
L 4684 1388 
Q 4356 1144 4076 1036 
Q 3797 928 3494 928 
Q 3150 928 2694 1113 
Q 2663 1125 2641 1134 
Q 2622 1141 2575 1159 
Q 2091 1350 1797 1350 
Q 1522 1350 1253 1231 
Q 984 1113 678 850 
L 678 1409 
Q 1006 1653 1286 1761 
Q 1566 1869 1869 1869 
Q 2213 1869 2672 1684 
Q 2706 1669 2722 1663 
Q 2741 1656 2788 1638 
Q 3272 1447 3566 1447 
Q 3834 1447 4098 1564 
Q 4363 1681 4684 1947 
z
M 4684 3163 
L 4684 2606 
Q 4356 2359 4076 2251 
Q 3797 2144 3494 2144 
Q 3150 2144 2694 2328 
Q 2663 2341 2641 2350 
Q 2622 2356 2575 2375 
Q 2091 2566 1797 2566 
Q 1522 2566 1253 2447 
Q 984 2328 678 2069 
L 678 2625 
Q 1006 2869 1286 2976 
Q 1566 3084 1869 3084 
Q 2213 3084 2672 2900 
Q 2703 2888 2719 2881 
Q 2741 2872 2788 2853 
Q 3272 2663 3566 2663 
Q 3834 2663 4098 2780 
Q 4363 2897 4684 3163 
z
" transform="scale(0.015625)"/>
      </defs>
      <use xlink:href="#DejaVuSans-66" transform="translate(0 0.359375)"/>
      <use xlink:href="#DejaVuSans-61" transform="translate(35.205078 0.359375)"/>
      <use xlink:href="#DejaVuSans-73" transform="translate(96.484375 0.359375)"/>
      <use xlink:href="#DejaVuSans-74" transform="translate(148.583984 0.359375)"/>
      <use xlink:href="#DejaVuSans-20" transform="translate(187.792969 0.359375)"/>
      <use xlink:href="#DejaVuSans-73" transform="translate(219.580078 0.359375)"/>
      <use xlink:href="#DejaVuSans-77" transform="translate(271.679688 0.359375)"/>
      <use xlink:href="#DejaVuSans-69" transform="translate(353.466797 0.359375)"/>
      <use xlink:href="#DejaVuSans-74" transform="translate(381.25 0.359375)"/>
      <use xlink:href="#DejaVuSans-63" transform="translate(420.458984 0.359375)"/>
      <use xlink:href="#DejaVuSans-68" transform="translate(475.439453 0.359375)"/>
      <use xlink:href="#DejaVuSans-20" transform="translate(538.818359 0.359375)"/>
      <use xlink:href="#DejaVuSans-20" transform="translate(570.605469 0.359375)"/>
      <use xlink:href="#DejaVuSans-28" transform="translate(602.392578 0.359375)"/>
      <use xlink:href="#DejaVuSans-304" transform="translate(702.078125 18.484375)"/>
      <use xlink:href="#DejaVuSans-Oblique-52" transform="translate(641.40625 0.359375)"/>
      <use xlink:href="#DejaVuSans-30" transform="translate(711.845703 -16.046875) scale(0.7)"/>
      <use xlink:href="#DejaVuSans-2248" transform="translate(778.598633 0.359375)"/>
      <use xlink:href="#DejaVuSans-32" transform="translate(881.870117 0.359375)"/>
      <use xlink:href="#DejaVuSans-29" transform="translate(945.493164 0.359375)"/>
     </g>
    </g>
   </g>
  </g>
 </g>
 <defs>
  <clipPath id="p4ed43c4e49">
   <rect x="93.863125" y="14.798437" width="502.2" height="332.64"/>
  </clipPath>
 </defs>
</svg>
