<?xml version="1.0" encoding="utf-8" standalone="no"?>
<!DOCTYPE svg PUBLIC "-//W3C//DTD SVG 1.1//EN"
  "http://www.w3.org/Graphics/SVG/1.1/DTD/svg11.dtd">
<svg xmlns:xlink="http://www.w3.org/1999/xlink" width="1512pt" height="403.2pt" viewBox="0 0 1512 403.2" xmlns="http://www.w3.org/2000/svg" version="1.1">
 <metadata>
  <rdf:RDF xmlns:dc="http://purl.org/dc/elements/1.1/" xmlns:cc="http://creativecommons.org/ns#" xmlns:rdf="http://www.w3.org/1999/02/22-rdf-syntax-ns#">
   <cc:Work>
    <dc:type rdf:resource="http://purl.org/dc/dcmitype/StillImage"/>
    <dc:date>2026-06-25T14:25:14.814380</dc:date>
    <dc:format>image/svg+xml</dc:format>
    <dc:creator>
     <cc:Agent>
      <dc:title>Matplotlib v3.10.9, https://matplotlib.org/</dc:title>
     </cc:Agent>
    </dc:creator>
   </cc:Work>
  </rdf:RDF>
 </metadata>
 <defs>
  <style type="text/css">*{stroke-linejoin: round; stroke-linecap: butt}</style>
 </defs>
 <g id="figure_1">
  <g id="patch_1">
   <path d="M 0 403.2 
L 1512 403.2 
L 1512 0 
L 0 0 
L 0 403.2 
z
" style="fill: none"/>
  </g>
  <g id="axes_1">
   <g id="patch_2">
    <path d="M 72.298678 349.826323 
L 516.546747 349.826323 
L 516.546747 28.20024 
L 72.298678 28.20024 
z
" style="fill: #ffffff"/>
   </g>
   <g id="patch_3">
    <path d="M 181.283345 349.826323 
L 439.871959 349.826323 
L 439.871959 28.20024 
L 181.283345 28.20024 
z
" clip-path="url(#p297664a403)" style="fill: #faefc4; opacity: 0.85"/>
   </g>
   <g id="line2d_1">
    <path d="M 88.453153 349.826323 
L 88.453153 28.20024 
" clip-path="url(#p297664a403)" style="fill: none; stroke-dasharray: 0.9,1.485; stroke-dashoffset: 0; stroke: #cccccc; stroke-width: 0.9"/>
   </g>
   <g id="line2d_2">
    <path d="M 492.315034 349.826323 
L 492.315034 28.20024 
" clip-path="url(#p297664a403)" style="fill: none; stroke-dasharray: 0.9,1.485; stroke-dashoffset: 0; stroke: #cccccc; stroke-width: 0.9"/>
   </g>
   <g id="matplotlib.axis_1">
    <g id="xtick_1">
     <g id="line2d_3">
      <defs>
       <path id="m87a12ae949" d="M 0 0 
L 0 5 
" style="stroke: #000000; stroke-width: 1.1"/>
      </defs>
      <g>
       <use xlink:href="#m87a12ae949" x="88.453153" y="349.826323" style="stroke: #000000; stroke-width: 1.1"/>
      </g>
     </g>
     <g id="text_1">
      <!-- 1.0 -->
      <g transform="translate(76.525809 369.723979) scale(0.15 -0.15)">
       <defs>
        <path id="DejaVuSans-31" d="M 794 531 
L 1825 531 
L 1825 4091 
L 703 3866 
L 703 4441 
L 1819 4666 
L 2450 4666 
L 2450 531 
L 3481 531 
L 3481 0 
L 794 0 
L 794 531 
z
" transform="scale(0.015625)"/>
        <path id="DejaVuSans-2e" d="M 684 794 
L 1344 794 
L 1344 0 
L 684 0 
L 684 794 
z
" transform="scale(0.015625)"/>
        <path id="DejaVuSans-30" d="M 2034 4250 
Q 1547 4250 1301 3770 
Q 1056 3291 1056 2328 
Q 1056 1369 1301 889 
Q 1547 409 2034 409 
Q 2525 409 2770 889 
Q 3016 1369 3016 2328 
Q 3016 3291 2770 3770 
Q 2525 4250 2034 4250 
z
M 2034 4750 
Q 2819 4750 3233 4129 
Q 3647 3509 3647 2328 
Q 3647 1150 3233 529 
Q 2819 -91 2034 -91 
Q 1250 -91 836 529 
Q 422 1150 422 2328 
Q 422 3509 836 4129 
Q 1250 4750 2034 4750 
z
" transform="scale(0.015625)"/>
       </defs>
       <use xlink:href="#DejaVuSans-31"/>
       <use xlink:href="#DejaVuSans-2e" transform="translate(63.623047 0)"/>
       <use xlink:href="#DejaVuSans-30" transform="translate(95.410156 0)"/>
      </g>
     </g>
    </g>
    <g id="xtick_2">
     <g id="line2d_4">
      <g>
       <use xlink:href="#m87a12ae949" x="169.225529" y="349.826323" style="stroke: #000000; stroke-width: 1.1"/>
      </g>
     </g>
     <g id="text_2">
      <!-- 1.2 -->
      <g transform="translate(157.298185 369.723979) scale(0.15 -0.15)">
       <defs>
        <path id="DejaVuSans-32" d="M 1228 531 
L 3431 531 
L 3431 0 
L 469 0 
L 469 531 
Q 828 903 1448 1529 
Q 2069 2156 2228 2338 
Q 2531 2678 2651 2914 
Q 2772 3150 2772 3378 
Q 2772 3750 2511 3984 
Q 2250 4219 1831 4219 
Q 1534 4219 1204 4116 
Q 875 4013 500 3803 
L 500 4441 
Q 881 4594 1212 4672 
Q 1544 4750 1819 4750 
Q 2544 4750 2975 4387 
Q 3406 4025 3406 3419 
Q 3406 3131 3298 2873 
Q 3191 2616 2906 2266 
Q 2828 2175 2409 1742 
Q 1991 1309 1228 531 
z
" transform="scale(0.015625)"/>
       </defs>
       <use xlink:href="#DejaVuSans-31"/>
       <use xlink:href="#DejaVuSans-2e" transform="translate(63.623047 0)"/>
       <use xlink:href="#DejaVuSans-32" transform="translate(95.410156 0)"/>
      </g>
     </g>
    </g>
    <g id="xtick_3">
     <g id="line2d_5">
      <g>
       <use xlink:href="#m87a12ae949" x="249.997905" y="349.826323" style="stroke: #000000; stroke-width: 1.1"/>
      </g>
     </g>
     <g id="text_3">
      <!-- 1.4 -->
      <g transform="translate(238.070561 369.723979) scale(0.15 -0.15)">
       <defs>
        <path id="DejaVuSans-34" d="M 2419 4116 
L 825 1625 
L 2419 1625 
L 2419 4116 
z
M 2253 4666 
L 3047 4666 
L 3047 1625 
L 3713 1625 
L 3713 1100 
L 3047 1100 
L 3047 0 
L 2419 0 
L 2419 1100 
L 313 1100 
L 313 1709 
L 2253 4666 
z
" transform="scale(0.015625)"/>
       </defs>
       <use xlink:href="#DejaVuSans-31"/>
       <use xlink:href="#DejaVuSans-2e" transform="translate(63.623047 0)"/>
       <use xlink:href="#DejaVuSans-34" transform="translate(95.410156 0)"/>
      </g>
     </g>
    </g>
    <g id="xtick_4">
     <g id="line2d_6">
      <g>
       <use xlink:href="#m87a12ae949" x="330.770281" y="349.826323" style="stroke: #000000; stroke-width: 1.1"/>
      </g>
     </g>
     <g id="text_4">
      <!-- 1.6 -->
      <g transform="translate(318.842938 369.723979) scale(0.15 -0.15)">
       <defs>
        <path id="DejaVuSans-36" d="M 2113 2584 
Q 1688 2584 1439 2293 
Q 1191 2003 1191 1497 
Q 1191 994 1439 701 
Q 1688 409 2113 409 
Q 2538 409 2786 701 
Q 3034 994 3034 1497 
Q 3034 2003 2786 2293 
Q 2538 2584 2113 2584 
z
M 3366 4563 
L 3366 3988 
Q 3128 4100 2886 4159 
Q 2644 4219 2406 4219 
Q 1781 4219 1451 3797 
Q 1122 3375 1075 2522 
Q 1259 2794 1537 2939 
Q 1816 3084 2150 3084 
Q 2853 3084 3261 2657 
Q 3669 2231 3669 1497 
Q 3669 778 3244 343 
Q 2819 -91 2113 -91 
Q 1303 -91 875 529 
Q 447 1150 447 2328 
Q 447 3434 972 4092 
Q 1497 4750 2381 4750 
Q 2619 4750 2861 4703 
Q 3103 4656 3366 4563 
z
" transform="scale(0.015625)"/>
       </defs>
       <use xlink:href="#DejaVuSans-31"/>
       <use xlink:href="#DejaVuSans-2e" transform="translate(63.623047 0)"/>
       <use xlink:href="#DejaVuSans-36" transform="translate(95.410156 0)"/>
      </g>
     </g>
    </g>
    <g id="xtick_5">
     <g id="line2d_7">
      <g>
       <use xlink:href="#m87a12ae949" x="411.542658" y="349.826323" style="stroke: #000000; stroke-width: 1.1"/>
      </g>
     </g>
     <g id="text_5">
      <!-- 1.8 -->
      <g transform="translate(399.615314 369.723979) scale(0.15 -0.15)">
       <defs>
        <path id="DejaVuSans-38" d="M 2034 2216 
Q 1584 2216 1326 1975 
Q 1069 1734 1069 1313 
Q 1069 891 1326 650 
Q 1584 409 2034 409 
Q 2484 409 2743 651 
Q 3003 894 3003 1313 
Q 3003 1734 2745 1975 
Q 2488 2216 2034 2216 
z
M 1403 2484 
Q 997 2584 770 2862 
Q 544 3141 544 3541 
Q 544 4100 942 4425 
Q 1341 4750 2034 4750 
Q 2731 4750 3128 4425 
Q 3525 4100 3525 3541 
Q 3525 3141 3298 2862 
Q 3072 2584 2669 2484 
Q 3125 2378 3379 2068 
Q 3634 1759 3634 1313 
Q 3634 634 3220 271 
Q 2806 -91 2034 -91 
Q 1263 -91 848 271 
Q 434 634 434 1313 
Q 434 1759 690 2068 
Q 947 2378 1403 2484 
z
M 1172 3481 
Q 1172 3119 1398 2916 
Q 1625 2713 2034 2713 
Q 2441 2713 2670 2916 
Q 2900 3119 2900 3481 
Q 2900 3844 2670 4047 
Q 2441 4250 2034 4250 
Q 1625 4250 1398 4047 
Q 1172 3844 1172 3481 
z
" transform="scale(0.015625)"/>
       </defs>
       <use xlink:href="#DejaVuSans-31"/>
       <use xlink:href="#DejaVuSans-2e" transform="translate(63.623047 0)"/>
       <use xlink:href="#DejaVuSans-38" transform="translate(95.410156 0)"/>
      </g>
     </g>
    </g>
    <g id="xtick_6">
     <g id="line2d_8">
      <g>
       <use xlink:href="#m87a12ae949" x="492.315034" y="349.826323" style="stroke: #000000; stroke-width: 1.1"/>
      </g>
     </g>
     <g id="text_6">
      <!-- 2.0 -->
      <g transform="translate(480.38769 369.723979) scale(0.15 -0.15)">
       <use xlink:href="#DejaVuSans-32"/>
       <use xlink:href="#DejaVuSans-2e" transform="translate(63.623047 0)"/>
       <use xlink:href="#DejaVuSans-30" transform="translate(95.410156 0)"/>
      </g>
     </g>
    </g>
    <g id="text_7">
     <!-- Prey  $x$ -->
     <g transform="translate(259.922712 395.99976) scale(0.2 -0.2)">
      <defs>
       <path id="DejaVuSans-50" d="M 1259 4147 
L 1259 2394 
L 2053 2394 
Q 2494 2394 2734 2622 
Q 2975 2850 2975 3272 
Q 2975 3691 2734 3919 
Q 2494 4147 2053 4147 
L 1259 4147 
z
M 628 4666 
L 2053 4666 
Q 2838 4666 3239 4311 
Q 3641 3956 3641 3272 
Q 3641 2581 3239 2228 
Q 2838 1875 2053 1875 
L 1259 1875 
L 1259 0 
L 628 0 
L 628 4666 
z
" transform="scale(0.015625)"/>
       <path id="DejaVuSans-72" d="M 2631 2963 
Q 2534 3019 2420 3045 
Q 2306 3072 2169 3072 
Q 1681 3072 1420 2755 
Q 1159 2438 1159 1844 
L 1159 0 
L 581 0 
L 581 3500 
L 1159 3500 
L 1159 2956 
Q 1341 3275 1631 3429 
Q 1922 3584 2338 3584 
Q 2397 3584 2469 3576 
Q 2541 3569 2628 3553 
L 2631 2963 
z
" transform="scale(0.015625)"/>
       <path id="DejaVuSans-65" d="M 3597 1894 
L 3597 1613 
L 953 1613 
Q 991 1019 1311 708 
Q 1631 397 2203 397 
Q 2534 397 2845 478 
Q 3156 559 3463 722 
L 3463 178 
Q 3153 47 2828 -22 
Q 2503 -91 2169 -91 
Q 1331 -91 842 396 
Q 353 884 353 1716 
Q 353 2575 817 3079 
Q 1281 3584 2069 3584 
Q 2775 3584 3186 3129 
Q 3597 2675 3597 1894 
z
M 3022 2063 
Q 3016 2534 2758 2815 
Q 2500 3097 2075 3097 
Q 1594 3097 1305 2825 
Q 1016 2553 972 2059 
L 3022 2063 
z
" transform="scale(0.015625)"/>
       <path id="DejaVuSans-79" d="M 2059 -325 
Q 1816 -950 1584 -1140 
Q 1353 -1331 966 -1331 
L 506 -1331 
L 506 -850 
L 844 -850 
Q 1081 -850 1212 -737 
Q 1344 -625 1503 -206 
L 1606 56 
L 191 3500 
L 800 3500 
L 1894 763 
L 2988 3500 
L 3597 3500 
L 2059 -325 
z
" transform="scale(0.015625)"/>
       <path id="DejaVuSans-20" transform="scale(0.015625)"/>
       <path id="DejaVuSans-Oblique-78" d="M 3841 3500 
L 2234 1784 
L 3219 0 
L 2559 0 
L 1819 1388 
L 531 0 
L -166 0 
L 1556 1844 
L 641 3500 
L 1300 3500 
L 1972 2234 
L 3144 3500 
L 3841 3500 
z
" transform="scale(0.015625)"/>
      </defs>
      <use xlink:href="#DejaVuSans-50" transform="translate(0 0.09375)"/>
      <use xlink:href="#DejaVuSans-72" transform="translate(60.302734 0.09375)"/>
      <use xlink:href="#DejaVuSans-65" transform="translate(101.416016 0.09375)"/>
      <use xlink:href="#DejaVuSans-79" transform="translate(162.939453 0.09375)"/>
      <use xlink:href="#DejaVuSans-20" transform="translate(222.119141 0.09375)"/>
      <use xlink:href="#DejaVuSans-20" transform="translate(253.90625 0.09375)"/>
      <use xlink:href="#DejaVuSans-Oblique-78" transform="translate(285.693359 0.09375)"/>
     </g>
    </g>
   </g>
   <g id="matplotlib.axis_2">
    <g id="ytick_1">
     <g id="line2d_9">
      <defs>
       <path id="m37f35a83eb" d="M 0 0 
L -5 0 
" style="stroke: #000000; stroke-width: 1.1"/>
      </defs>
      <g>
       <use xlink:href="#m37f35a83eb" x="72.298678" y="339.373143" style="stroke: #000000; stroke-width: 1.1"/>
      </g>
     </g>
     <g id="text_8">
      <!-- 0.00 -->
      <g transform="translate(30.40024 345.071971) scale(0.15 -0.15)">
       <use xlink:href="#DejaVuSans-30"/>
       <use xlink:href="#DejaVuSans-2e" transform="translate(63.623047 0)"/>
       <use xlink:href="#DejaVuSans-30" transform="translate(95.410156 0)"/>
       <use xlink:href="#DejaVuSans-30" transform="translate(159.033203 0)"/>
      </g>
     </g>
    </g>
    <g id="ytick_2">
     <g id="line2d_10">
      <g>
       <use xlink:href="#m37f35a83eb" x="72.298678" y="287.107248" style="stroke: #000000; stroke-width: 1.1"/>
      </g>
     </g>
     <g id="text_9">
      <!-- 0.02 -->
      <g transform="translate(30.40024 292.806076) scale(0.15 -0.15)">
       <use xlink:href="#DejaVuSans-30"/>
       <use xlink:href="#DejaVuSans-2e" transform="translate(63.623047 0)"/>
       <use xlink:href="#DejaVuSans-30" transform="translate(95.410156 0)"/>
       <use xlink:href="#DejaVuSans-32" transform="translate(159.033203 0)"/>
      </g>
     </g>
    </g>
    <g id="ytick_3">
     <g id="line2d_11">
      <g>
       <use xlink:href="#m37f35a83eb" x="72.298678" y="234.841352" style="stroke: #000000; stroke-width: 1.1"/>
      </g>
     </g>
     <g id="text_10">
      <!-- 0.04 -->
      <g transform="translate(30.40024 240.54018) scale(0.15 -0.15)">
       <use xlink:href="#DejaVuSans-30"/>
       <use xlink:href="#DejaVuSans-2e" transform="translate(63.623047 0)"/>
       <use xlink:href="#DejaVuSans-30" transform="translate(95.410156 0)"/>
       <use xlink:href="#DejaVuSans-34" transform="translate(159.033203 0)"/>
      </g>
     </g>
    </g>
    <g id="ytick_4">
     <g id="line2d_12">
      <g>
       <use xlink:href="#m37f35a83eb" x="72.298678" y="182.575456" style="stroke: #000000; stroke-width: 1.1"/>
      </g>
     </g>
     <g id="text_11">
      <!-- 0.06 -->
      <g transform="translate(30.40024 188.274284) scale(0.15 -0.15)">
       <use xlink:href="#DejaVuSans-30"/>
       <use xlink:href="#DejaVuSans-2e" transform="translate(63.623047 0)"/>
       <use xlink:href="#DejaVuSans-30" transform="translate(95.410156 0)"/>
       <use xlink:href="#DejaVuSans-36" transform="translate(159.033203 0)"/>
      </g>
     </g>
    </g>
    <g id="ytick_5">
     <g id="line2d_13">
      <g>
       <use xlink:href="#m37f35a83eb" x="72.298678" y="130.30956" style="stroke: #000000; stroke-width: 1.1"/>
      </g>
     </g>
     <g id="text_12">
      <!-- 0.08 -->
      <g transform="translate(30.40024 136.008388) scale(0.15 -0.15)">
       <use xlink:href="#DejaVuSans-30"/>
       <use xlink:href="#DejaVuSans-2e" transform="translate(63.623047 0)"/>
       <use xlink:href="#DejaVuSans-30" transform="translate(95.410156 0)"/>
       <use xlink:href="#DejaVuSans-38" transform="translate(159.033203 0)"/>
      </g>
     </g>
    </g>
    <g id="ytick_6">
     <g id="line2d_14">
      <g>
       <use xlink:href="#m37f35a83eb" x="72.298678" y="78.043664" style="stroke: #000000; stroke-width: 1.1"/>
      </g>
     </g>
     <g id="text_13">
      <!-- 0.10 -->
      <g transform="translate(30.40024 83.742492) scale(0.15 -0.15)">
       <use xlink:href="#DejaVuSans-30"/>
       <use xlink:href="#DejaVuSans-2e" transform="translate(63.623047 0)"/>
       <use xlink:href="#DejaVuSans-31" transform="translate(95.410156 0)"/>
       <use xlink:href="#DejaVuSans-30" transform="translate(159.033203 0)"/>
      </g>
     </g>
    </g>
    <g id="text_14">
     <!-- Predator  $y$ -->
     <g transform="translate(18.20024 244.213281) rotate(-90) scale(0.2 -0.2)">
      <defs>
       <path id="DejaVuSans-64" d="M 2906 2969 
L 2906 4863 
L 3481 4863 
L 3481 0 
L 2906 0 
L 2906 525 
Q 2725 213 2448 61 
Q 2172 -91 1784 -91 
Q 1150 -91 751 415 
Q 353 922 353 1747 
Q 353 2572 751 3078 
Q 1150 3584 1784 3584 
Q 2172 3584 2448 3432 
Q 2725 3281 2906 2969 
z
M 947 1747 
Q 947 1113 1208 752 
Q 1469 391 1925 391 
Q 2381 391 2643 752 
Q 2906 1113 2906 1747 
Q 2906 2381 2643 2742 
Q 2381 3103 1925 3103 
Q 1469 3103 1208 2742 
Q 947 2381 947 1747 
z
" transform="scale(0.015625)"/>
       <path id="DejaVuSans-61" d="M 2194 1759 
Q 1497 1759 1228 1600 
Q 959 1441 959 1056 
Q 959 750 1161 570 
Q 1363 391 1709 391 
Q 2188 391 2477 730 
Q 2766 1069 2766 1631 
L 2766 1759 
L 2194 1759 
z
M 3341 1997 
L 3341 0 
L 2766 0 
L 2766 531 
Q 2569 213 2275 61 
Q 1981 -91 1556 -91 
Q 1019 -91 701 211 
Q 384 513 384 1019 
Q 384 1609 779 1909 
Q 1175 2209 1959 2209 
L 2766 2209 
L 2766 2266 
Q 2766 2663 2505 2880 
Q 2244 3097 1772 3097 
Q 1472 3097 1187 3025 
Q 903 2953 641 2809 
L 641 3341 
Q 956 3463 1253 3523 
Q 1550 3584 1831 3584 
Q 2591 3584 2966 3190 
Q 3341 2797 3341 1997 
z
" transform="scale(0.015625)"/>
       <path id="DejaVuSans-74" d="M 1172 4494 
L 1172 3500 
L 2356 3500 
L 2356 3053 
L 1172 3053 
L 1172 1153 
Q 1172 725 1289 603 
Q 1406 481 1766 481 
L 2356 481 
L 2356 0 
L 1766 0 
Q 1100 0 847 248 
Q 594 497 594 1153 
L 594 3053 
L 172 3053 
L 172 3500 
L 594 3500 
L 594 4494 
L 1172 4494 
z
" transform="scale(0.015625)"/>
       <path id="DejaVuSans-6f" d="M 1959 3097 
Q 1497 3097 1228 2736 
Q 959 2375 959 1747 
Q 959 1119 1226 758 
Q 1494 397 1959 397 
Q 2419 397 2687 759 
Q 2956 1122 2956 1747 
Q 2956 2369 2687 2733 
Q 2419 3097 1959 3097 
z
M 1959 3584 
Q 2709 3584 3137 3096 
Q 3566 2609 3566 1747 
Q 3566 888 3137 398 
Q 2709 -91 1959 -91 
Q 1206 -91 779 398 
Q 353 888 353 1747 
Q 353 2609 779 3096 
Q 1206 3584 1959 3584 
z
" transform="scale(0.015625)"/>
       <path id="DejaVuSans-Oblique-79" d="M 1588 -325 
Q 1188 -997 936 -1164 
Q 684 -1331 294 -1331 
L -159 -1331 
L -63 -850 
L 269 -850 
Q 509 -850 678 -719 
Q 847 -588 1056 -206 
L 1234 128 
L 459 3500 
L 1069 3500 
L 1650 819 
L 3256 3500 
L 3859 3500 
L 1588 -325 
z
" transform="scale(0.015625)"/>
      </defs>
      <use xlink:href="#DejaVuSans-50" transform="translate(0 0.015625)"/>
      <use xlink:href="#DejaVuSans-72" transform="translate(60.302734 0.015625)"/>
      <use xlink:href="#DejaVuSans-65" transform="translate(101.416016 0.015625)"/>
      <use xlink:href="#DejaVuSans-64" transform="translate(162.939453 0.015625)"/>
      <use xlink:href="#DejaVuSans-61" transform="translate(226.416016 0.015625)"/>
      <use xlink:href="#DejaVuSans-74" transform="translate(287.695312 0.015625)"/>
      <use xlink:href="#DejaVuSans-6f" transform="translate(326.904297 0.015625)"/>
      <use xlink:href="#DejaVuSans-72" transform="translate(388.085938 0.015625)"/>
      <use xlink:href="#DejaVuSans-20" transform="translate(429.199219 0.015625)"/>
      <use xlink:href="#DejaVuSans-20" transform="translate(460.986328 0.015625)"/>
      <use xlink:href="#DejaVuSans-Oblique-79" transform="translate(492.773438 0.015625)"/>
     </g>
    </g>
   </g>
   <g id="line2d_15">
    <path d="M 181.283345 349.826323 
L 181.283345 28.20024 
" clip-path="url(#p297664a403)" style="fill: none; stroke-dasharray: 8,4.8; stroke-dashoffset: 0; stroke: #e0c233; stroke-width: 1.6"/>
   </g>
   <g id="line2d_16">
    <path d="M 439.871959 349.826323 
L 439.871959 28.20024 
" clip-path="url(#p297664a403)" style="fill: none; stroke-dasharray: 8,4.8; stroke-dashoffset: 0; stroke: #e0c233; stroke-width: 1.6"/>
   </g>
   <g id="patch_4">
    <path d="M 72.298678 349.826322 
L 72.298678 28.20024 
" style="fill: none; stroke: #000000; stroke-width: 1.2; stroke-linejoin: miter; stroke-linecap: square"/>
   </g>
   <g id="patch_5">
    <path d="M 72.298677 349.826323 
L 516.546747 349.826323 
" style="fill: none; stroke: #000000; stroke-width: 1.2; stroke-linejoin: miter; stroke-linecap: square"/>
   </g>
   <g id="line2d_17">
    <path d="M 117.757973 339.373143 
L 492.080738 339.373143 
" clip-path="url(#p297664a403)" style="fill: none; stroke: #2d4f73; stroke-opacity: 0.9; stroke-width: 2.4; stroke-linecap: round"/>
   </g>
   <g id="line2d_18">
    <path d="M 101.017531 339.373143 
L 486.115064 339.373143 
" clip-path="url(#p297664a403)" style="fill: none; stroke: #5a0f11; stroke-opacity: 0.9; stroke-width: 2.4; stroke-linecap: round"/>
   </g>
   <g id="text_15">
    <!-- (a)  $\gamma_2=2.1$ -->
    <g transform="translate(235.222712 18.20024) scale(0.2 -0.2)">
     <defs>
      <path id="DejaVuSans-28" d="M 1984 4856 
Q 1566 4138 1362 3434 
Q 1159 2731 1159 2009 
Q 1159 1288 1364 580 
Q 1569 -128 1984 -844 
L 1484 -844 
Q 1016 -109 783 600 
Q 550 1309 550 2009 
Q 550 2706 781 3412 
Q 1013 4119 1484 4856 
L 1984 4856 
z
" transform="scale(0.015625)"/>
      <path id="DejaVuSans-29" d="M 513 4856 
L 1013 4856 
Q 1481 4119 1714 3412 
Q 1947 2706 1947 2009 
Q 1947 1309 1714 600 
Q 1481 -109 1013 -844 
L 513 -844 
Q 928 -128 1133 580 
Q 1338 1288 1338 2009 
Q 1338 2731 1133 3434 
Q 928 4138 513 4856 
z
" transform="scale(0.015625)"/>
      <path id="DejaVuSans-Oblique-3b3" d="M 1491 2950 
L 1838 788 
L 3456 3500 
L 4066 3500 
L 1972 0 
L 1713 -1331 
L 1138 -1331 
L 1397 0 
L 988 2613 
Q 925 3006 628 3006 
L 475 3006 
L 569 3500 
L 788 3500 
Q 1403 3500 1491 2950 
z
" transform="scale(0.015625)"/>
      <path id="DejaVuSans-3d" d="M 678 2906 
L 4684 2906 
L 4684 2381 
L 678 2381 
L 678 2906 
z
M 678 1631 
L 4684 1631 
L 4684 1100 
L 678 1100 
L 678 1631 
z
" transform="scale(0.015625)"/>
     </defs>
     <use xlink:href="#DejaVuSans-28" transform="translate(0 0.125)"/>
     <use xlink:href="#DejaVuSans-61" transform="translate(39.013672 0.125)"/>
     <use xlink:href="#DejaVuSans-29" transform="translate(100.292969 0.125)"/>
     <use xlink:href="#DejaVuSans-20" transform="translate(139.306641 0.125)"/>
     <use xlink:href="#DejaVuSans-20" transform="translate(171.09375 0.125)"/>
     <use xlink:href="#DejaVuSans-Oblique-3b3" transform="translate(202.880859 0.125)"/>
     <use xlink:href="#DejaVuSans-32" transform="translate(262.060547 -16.28125) scale(0.7)"/>
     <use xlink:href="#DejaVuSans-3d" transform="translate(328.813477 0.125)"/>
     <use xlink:href="#DejaVuSans-32" transform="translate(432.084961 0.125)"/>
     <use xlink:href="#DejaVuSans-2e" transform="translate(495.708008 0.125)"/>
     <use xlink:href="#DejaVuSans-31" transform="translate(527.495117 0.125)"/>
    </g>
   </g>
   <g id="line2d_19">
    <path d="M 476.837257 272.895298 
L 437.975878 269.936787 
L 400.490387 266.860112 
L 363.871835 263.630878 
L 327.473043 260.197052 
L 289.514147 256.389512 
L 242.50395 251.433025 
L 193.351912 246.291484 
L 172.979205 244.387429 
L 168.269948 243.989779 
L 171.845822 244.393706 
L 199.179633 247.350748 
L 228.751139 250.321745 
L 261.034685 253.33882 
L 297.457012 256.513918 
L 341.080784 260.083536 
L 436.288915 267.786433 
L 452.829192 269.402012 
L 463.660821 270.669562 
L 471.030465 271.742508 
L 476.118217 272.695609 
L 477.095431 272.913787 
L 476.524626 272.872391 
L 437.707211 269.915533 
L 400.261307 266.840608 
L 363.678754 263.613252 
L 327.313129 260.18148 
L 289.386051 256.37631 
L 242.318812 251.413239 
L 193.351912 246.291484 
L 172.979205 244.387429 
L 168.269948 243.989779 
L 171.845822 244.393706 
L 199.179633 247.350748 
L 228.751139 250.321745 
L 261.034685 253.33882 
L 297.457012 256.513918 
L 341.080784 260.083536 
L 436.288915 267.786433 
L 452.829192 269.402012 
L 463.660821 270.669562 
L 471.030465 271.742508 
L 476.118217 272.695609 
L 477.095431 272.913787 
L 476.524626 272.872391 
L 437.707211 269.915533 
L 400.261307 266.840608 
L 363.678754 263.613252 
L 327.313129 260.18148 
L 289.386051 256.37631 
L 242.318812 251.413239 
L 193.351912 246.291484 
L 172.979205 244.387429 
L 168.269948 243.989779 
L 171.845822 244.393706 
L 199.179633 247.350748 
L 228.751139 250.321745 
L 261.034685 253.33882 
L 297.457012 256.513918 
L 341.080784 260.083536 
L 436.288915 267.786433 
L 452.829192 269.402012 
L 463.660821 270.669562 
L 471.030465 271.742508 
L 476.118217 272.695609 
L 477.095431 272.913787 
L 476.524626 272.872391 
L 437.707211 269.915533 
L 400.261307 266.840608 
L 363.678754 263.613252 
L 327.313129 260.18148 
L 289.386051 256.37631 
L 242.318812 251.413239 
L 193.351912 246.291484 
L 172.979205 244.387429 
L 168.269948 243.989779 
L 171.845822 244.393706 
L 199.179633 247.350748 
L 228.751139 250.321745 
L 261.034685 253.33882 
L 297.457012 256.513918 
L 341.080784 260.083536 
L 436.288915 267.786433 
L 452.829192 269.402012 
L 463.660821 270.669562 
L 471.030465 271.742508 
L 476.118217 272.695609 
L 477.095431 272.913787 
L 476.524626 272.872391 
L 437.707211 269.915533 
L 400.261307 266.840608 
L 363.678754 263.613252 
L 327.313129 260.18148 
L 289.386051 256.37631 
L 242.318812 251.413239 
L 193.351912 246.291484 
L 172.979205 244.387429 
L 168.269948 243.989779 
L 171.845822 244.393706 
L 199.179633 247.350748 
L 228.751139 250.321745 
L 261.034685 253.33882 
L 297.457012 256.513918 
L 341.080784 260.083536 
L 436.288915 267.786433 
L 452.829192 269.402012 
L 463.660821 270.669562 
L 471.030465 271.742508 
L 476.118217 272.695609 
L 477.095431 272.913787 
L 476.524626 272.872391 
L 437.707211 269.915533 
L 400.261307 266.840608 
L 363.678754 263.613252 
L 327.313129 260.18148 
L 289.386051 256.37631 
L 242.318812 251.413239 
L 193.351912 246.291484 
L 172.979205 244.387429 
L 168.269948 243.989779 
L 171.845822 244.393706 
L 199.179633 247.350748 
L 228.751139 250.321745 
L 261.034685 253.33882 
L 297.457012 256.513918 
L 341.080784 260.083536 
L 436.288915 267.786433 
L 452.829192 269.402012 
L 463.660821 270.669562 
L 471.030465 271.742508 
L 476.118217 272.695609 
L 477.095431 272.913787 
L 476.524626 272.872391 
L 437.707211 269.915533 
L 400.261307 266.840608 
L 363.678754 263.613252 
L 327.313129 260.18148 
L 289.386051 256.37631 
L 242.318812 251.413239 
L 193.351912 246.291484 
L 172.979205 244.387429 
L 168.269948 243.989779 
L 171.845822 244.393706 
L 199.179633 247.350748 
L 228.751139 250.321745 
L 261.034685 253.33882 
L 297.457012 256.513918 
L 341.080784 260.083536 
L 436.288915 267.786433 
L 452.829192 269.402012 
L 463.660821 270.669562 
L 471.030465 271.742508 
L 476.118217 272.695609 
L 477.095431 272.913787 
L 476.524626 272.872391 
L 437.707211 269.915533 
L 400.261307 266.840608 
L 363.678754 263.613252 
L 327.313129 260.18148 
L 289.386051 256.37631 
L 242.318812 251.413239 
L 193.351912 246.291484 
L 172.979205 244.387429 
L 168.269948 243.989779 
L 171.845822 244.393706 
L 199.179633 247.350748 
L 228.751139 250.321745 
L 261.034685 253.33882 
L 297.457012 256.513918 
L 341.080784 260.083536 
L 436.288915 267.786433 
L 452.829192 269.402012 
L 463.660821 270.669562 
L 471.030465 271.742508 
L 476.118217 272.695609 
L 477.095431 272.913787 
L 476.524626 272.872391 
L 437.707211 269.915533 
L 400.261307 266.840608 
L 363.678754 263.613252 
L 327.313129 260.18148 
L 289.386051 256.37631 
L 242.318812 251.413239 
L 193.351912 246.291484 
L 172.979205 244.387429 
L 168.269948 243.989779 
L 171.845822 244.393706 
L 199.179633 247.350748 
L 228.751139 250.321745 
L 261.034685 253.33882 
L 297.457012 256.513918 
L 341.080784 260.083536 
L 436.288915 267.786433 
L 452.829192 269.402012 
L 463.660821 270.669562 
L 471.030465 271.742508 
L 476.118217 272.695609 
L 477.095431 272.913787 
L 476.524626 272.872391 
L 437.707211 269.915533 
L 400.261307 266.840608 
L 363.678754 263.613252 
L 327.313129 260.18148 
L 289.386051 256.37631 
L 242.318812 251.413239 
L 193.351912 246.291484 
L 172.979205 244.387429 
L 168.269948 243.989779 
L 171.845822 244.393706 
L 199.179633 247.350748 
L 228.751139 250.321745 
L 261.034685 253.33882 
L 297.457012 256.513918 
L 341.080784 260.083536 
L 436.288915 267.786433 
L 452.829192 269.402012 
L 463.660821 270.669562 
L 471.030465 271.742508 
L 476.118217 272.695609 
L 477.095431 272.913787 
L 476.524626 272.872391 
L 437.707211 269.915533 
L 400.261307 266.840608 
L 363.678754 263.613252 
L 327.313129 260.18148 
L 289.386051 256.37631 
L 242.318812 251.413239 
L 193.351912 246.291484 
L 172.979205 244.387429 
L 168.269948 243.989779 
L 171.845822 244.393706 
L 199.179633 247.350748 
L 228.751139 250.321745 
L 261.034685 253.33882 
L 297.457012 256.513918 
L 341.080784 260.083536 
L 436.288915 267.786433 
L 452.829192 269.402012 
L 463.660821 270.669562 
L 471.030465 271.742508 
L 476.118217 272.695609 
L 477.095431 272.913787 
L 476.524626 272.872391 
L 437.707211 269.915533 
L 400.261307 266.840608 
L 363.678754 263.613252 
L 327.313129 260.18148 
L 289.386051 256.37631 
L 242.318812 251.413239 
L 193.351912 246.291484 
L 172.979205 244.387429 
L 168.269948 243.989779 
L 171.845822 244.393706 
L 199.179633 247.350748 
L 228.751139 250.321745 
L 261.034685 253.33882 
L 297.457012 256.513918 
L 341.080784 260.083536 
L 436.288915 267.786433 
L 452.829192 269.402012 
L 463.660821 270.669562 
L 471.030465 271.742508 
L 476.118217 272.695609 
L 477.095431 272.913787 
L 476.524626 272.872391 
L 437.707211 269.915533 
L 400.261307 266.840608 
L 363.678754 263.613252 
L 327.313129 260.18148 
L 289.386051 256.37631 
L 242.318812 251.413239 
L 193.351912 246.291484 
L 172.979205 244.387429 
L 168.269948 243.989779 
L 171.845822 244.393706 
L 199.179633 247.350748 
L 228.751139 250.321745 
L 261.034685 253.33882 
L 297.457012 256.513918 
L 341.080784 260.083536 
L 436.288915 267.786433 
L 452.829192 269.402012 
L 463.660821 270.669562 
L 471.030465 271.742508 
L 476.118217 272.695609 
L 477.095431 272.913787 
L 476.524626 272.872391 
L 437.707211 269.915533 
L 400.261307 266.840608 
L 363.678754 263.613252 
L 327.313129 260.18148 
L 289.386051 256.37631 
L 242.318812 251.413239 
L 193.351912 246.291484 
L 172.979205 244.387429 
L 168.269948 243.989779 
L 171.845822 244.393706 
L 199.179633 247.350748 
L 228.751139 250.321745 
L 261.034685 253.33882 
L 297.457012 256.513918 
L 341.080784 260.083536 
L 436.288915 267.786433 
L 452.829192 269.402012 
L 463.660821 270.669562 
L 471.030465 271.742508 
L 476.118217 272.695609 
L 477.095431 272.913787 
L 477.095431 272.913787 
" clip-path="url(#p297664a403)" style="fill: none; stroke: #547aa5; stroke-opacity: 0.92; stroke-width: 1.8; stroke-linecap: square"/>
   </g>
   <g id="line2d_20">
    <path d="M 429.54617 162.096754 
L 403.753696 156.974721 
L 378.067526 151.647992 
L 351.90574 145.994599 
L 324.72364 139.890954 
L 294.59794 132.891518 
L 248.213751 121.844459 
L 228.474012 117.180683 
L 234.749139 118.750661 
L 255.705257 123.84038 
L 278.337908 129.103708 
L 303.468036 134.713289 
L 333.22756 141.118015 
L 412.668407 158.074355 
L 426.87293 161.421773 
L 429.760827 162.137753 
L 427.920143 161.780539 
L 402.047215 156.627821 
L 376.323592 151.278215 
L 350.168115 145.611206 
L 322.869796 139.466802 
L 292.453703 132.385713 
L 228.474012 117.180683 
L 249.937866 122.461859 
L 271.994387 127.650654 
L 296.368471 133.150332 
L 324.345148 139.227459 
L 365.127731 147.829103 
L 400.835686 155.434873 
L 418.569857 159.435288 
L 429.760827 162.137753 
L 429.274433 162.043971 
L 403.50916 156.925072 
L 377.630262 151.555373 
L 351.518346 145.909207 
L 324.216276 139.774966 
L 294.023574 132.756114 
L 246.070393 121.334109 
L 228.474012 117.180683 
L 235.011177 118.815729 
L 255.95401 123.899476 
L 278.570376 129.15665 
L 303.680068 134.759728 
L 333.412192 141.157161 
L 412.478835 158.031209 
L 426.796874 161.403113 
L 429.760827 162.137753 
L 427.920143 161.780539 
L 402.047215 156.627821 
L 376.323592 151.278215 
L 350.168115 145.611206 
L 322.869796 139.466802 
L 292.453703 132.385713 
L 228.474012 117.180683 
L 249.937866 122.461859 
L 271.994387 127.650654 
L 296.368471 133.150332 
L 324.345148 139.227459 
L 365.127731 147.829103 
L 400.835686 155.434873 
L 418.569857 159.435288 
L 429.760827 162.137753 
L 429.274433 162.043971 
L 403.50916 156.925072 
L 377.630262 151.555373 
L 351.518346 145.909207 
L 324.216276 139.774966 
L 294.023574 132.756114 
L 246.070393 121.334109 
L 228.474012 117.180683 
L 235.011177 118.815729 
L 255.95401 123.899476 
L 278.570376 129.15665 
L 303.680068 134.759728 
L 333.412192 141.157161 
L 412.478835 158.031209 
L 426.796874 161.403113 
L 429.760827 162.137753 
L 427.920143 161.780539 
L 402.047215 156.627821 
L 376.323592 151.278215 
L 350.168115 145.611206 
L 322.869796 139.466802 
L 292.453703 132.385713 
L 228.474012 117.180683 
L 249.937866 122.461859 
L 271.994387 127.650654 
L 296.368471 133.150332 
L 324.345148 139.227459 
L 365.127731 147.829103 
L 400.835686 155.434873 
L 418.569857 159.435288 
L 429.760827 162.137753 
L 429.274433 162.043971 
L 403.50916 156.925072 
L 377.630262 151.555373 
L 351.518346 145.909207 
L 324.216276 139.774966 
L 294.023574 132.756114 
L 246.070393 121.334109 
L 228.474012 117.180683 
L 235.011177 118.815729 
L 255.95401 123.899476 
L 278.570376 129.15665 
L 303.680068 134.759728 
L 333.412192 141.157161 
L 412.478835 158.031209 
L 426.796874 161.403113 
L 429.760827 162.137753 
L 427.920143 161.780539 
L 402.047215 156.627821 
L 376.323592 151.278215 
L 350.168115 145.611206 
L 322.869796 139.466802 
L 292.453703 132.385713 
L 228.474012 117.180683 
L 249.937866 122.461859 
L 271.994387 127.650654 
L 296.368471 133.150332 
L 324.345148 139.227459 
L 365.127731 147.829103 
L 400.835686 155.434873 
L 418.569857 159.435288 
L 429.760827 162.137753 
L 429.274433 162.043971 
L 403.50916 156.925072 
L 377.630262 151.555373 
L 351.518346 145.909207 
L 324.216276 139.774966 
L 294.023574 132.756114 
L 246.070393 121.334109 
L 228.474012 117.180683 
L 235.011177 118.815729 
L 255.95401 123.899476 
L 278.570376 129.15665 
L 303.680068 134.759728 
L 333.412192 141.157161 
L 412.478835 158.031209 
L 426.796874 161.403113 
L 429.760827 162.137753 
L 427.920143 161.780539 
L 402.047215 156.627821 
L 376.323592 151.278215 
L 350.168115 145.611206 
L 322.869796 139.466802 
L 292.453703 132.385713 
L 228.474012 117.180683 
L 249.937866 122.461859 
L 271.994387 127.650654 
L 296.368471 133.150332 
L 324.345148 139.227459 
L 365.127731 147.829103 
L 400.835686 155.434873 
L 418.569857 159.435288 
L 429.760827 162.137753 
L 429.274433 162.043971 
L 403.50916 156.925072 
L 377.630262 151.555373 
L 351.518346 145.909207 
L 324.216276 139.774966 
L 294.023574 132.756114 
L 246.070393 121.334109 
L 228.474012 117.180683 
L 235.011177 118.815729 
L 255.95401 123.899476 
L 278.570376 129.15665 
L 303.680068 134.759728 
L 333.412192 141.157161 
L 412.478835 158.031209 
L 426.796874 161.403113 
L 429.760827 162.137753 
L 427.920143 161.780539 
L 402.047215 156.627821 
L 376.323592 151.278215 
L 350.168115 145.611206 
L 322.869796 139.466802 
L 292.453703 132.385713 
L 228.474012 117.180683 
L 249.937866 122.461859 
L 271.994387 127.650654 
L 296.368471 133.150332 
L 324.345148 139.227459 
L 365.127731 147.829103 
L 400.835686 155.434873 
L 418.569857 159.435288 
L 429.760827 162.137753 
L 429.274433 162.043971 
L 403.50916 156.925072 
L 377.630262 151.555373 
L 351.518346 145.909207 
L 324.216276 139.774966 
L 294.023574 132.756114 
L 246.070393 121.334109 
L 228.474012 117.180683 
L 235.011177 118.815729 
L 255.95401 123.899476 
L 278.570376 129.15665 
L 303.680068 134.759728 
L 333.412192 141.157161 
L 412.478835 158.031209 
L 426.796874 161.403113 
L 429.760827 162.137753 
L 427.920143 161.780539 
L 402.047215 156.627821 
L 376.323592 151.278215 
L 350.168115 145.611206 
L 322.869796 139.466802 
L 292.453703 132.385713 
L 228.474012 117.180683 
L 249.937866 122.461859 
L 271.994387 127.650654 
L 296.368471 133.150332 
L 324.345148 139.227459 
L 365.127731 147.829103 
L 400.835686 155.434873 
L 418.569857 159.435288 
L 429.760827 162.137753 
L 429.760827 162.137753 
" clip-path="url(#p297664a403)" style="fill: none; stroke: #7aa3c0; stroke-opacity: 0.92; stroke-width: 1.8; stroke-linecap: square"/>
   </g>
   <g id="line2d_21">
    <path d="M 385.117541 109.724912 
L 360.465153 103.374407 
L 334.815103 96.534318 
L 306.735864 88.810324 
L 275.664946 80.062391 
L 316.349707 91.376684 
L 348.957351 100.092186 
L 385.289021 109.767915 
L 379.426945 108.279351 
L 354.557815 101.819338 
L 328.51524 94.821035 
L 299.437623 86.769946 
L 275.664946 80.062391 
L 314.180337 90.788507 
L 345.636418 99.211807 
L 385.289021 109.767915 
L 378.529419 108.050226 
L 353.75557 101.607191 
L 327.631164 94.579631 
L 298.374925 86.47193 
L 275.664946 80.062391 
L 313.783571 90.680783 
L 345.132337 99.078102 
L 385.289021 109.767915 
L 378.529419 108.050226 
L 353.75557 101.607191 
L 327.631164 94.579631 
L 298.374925 86.47193 
L 275.664946 80.062391 
L 313.783571 90.680783 
L 345.132337 99.078102 
L 385.289021 109.767915 
L 378.529419 108.050226 
L 353.75557 101.607191 
L 327.631164 94.579631 
L 298.374925 86.47193 
L 275.664946 80.062391 
L 313.783571 90.680783 
L 345.132337 99.078102 
L 385.289021 109.767915 
L 378.529419 108.050226 
L 353.75557 101.607191 
L 327.631164 94.579631 
L 298.374925 86.47193 
L 275.664946 80.062391 
L 313.783571 90.680783 
L 345.132337 99.078102 
L 385.289021 109.767915 
L 378.529419 108.050226 
L 353.75557 101.607191 
L 327.631164 94.579631 
L 298.374925 86.47193 
L 275.664946 80.062391 
L 313.783571 90.680783 
L 345.132337 99.078102 
L 385.289021 109.767915 
L 378.529419 108.050226 
L 353.75557 101.607191 
L 327.631164 94.579631 
L 298.374925 86.47193 
L 275.664946 80.062391 
L 313.783571 90.680783 
L 345.132337 99.078102 
L 385.289021 109.767915 
L 378.529419 108.050226 
L 353.75557 101.607191 
L 327.631164 94.579631 
L 298.374925 86.47193 
L 275.664946 80.062391 
L 313.783571 90.680783 
L 345.132337 99.078102 
L 385.289021 109.767915 
L 378.529419 108.050226 
L 353.75557 101.607191 
L 327.631164 94.579631 
L 298.374925 86.47193 
L 275.664946 80.062391 
L 313.783571 90.680783 
L 345.132337 99.078102 
L 385.289021 109.767915 
L 378.529419 108.050226 
L 353.75557 101.607191 
L 327.631164 94.579631 
L 298.374925 86.47193 
L 275.664946 80.062391 
L 313.783571 90.680783 
L 345.132337 99.078102 
L 385.289021 109.767915 
L 378.529419 108.050226 
L 353.75557 101.607191 
L 327.631164 94.579631 
L 298.374925 86.47193 
L 275.664946 80.062391 
L 313.783571 90.680783 
L 345.132337 99.078102 
L 385.289021 109.767915 
L 378.529419 108.050226 
L 353.75557 101.607191 
L 327.631164 94.579631 
L 298.374925 86.47193 
L 275.664946 80.062391 
L 313.783571 90.680783 
L 345.132337 99.078102 
L 385.289021 109.767915 
L 378.529419 108.050226 
L 353.75557 101.607191 
L 327.631164 94.579631 
L 298.374925 86.47193 
L 275.664946 80.062391 
L 313.783571 90.680783 
L 345.132337 99.078102 
L 385.289021 109.767915 
L 385.289021 109.767915 
" clip-path="url(#p297664a403)" style="fill: none; stroke: #b8cfe0; stroke-opacity: 0.92; stroke-width: 1.8; stroke-linecap: square"/>
   </g>
   <g id="line2d_22">
    <path d="M 430.509618 266.605063 
L 393.851556 263.439442 
L 358.033194 260.123549 
L 322.107327 256.573894 
L 284.142879 252.595327 
L 233.12446 246.998934 
L 193.459436 242.727954 
L 173.455549 240.79258 
L 158.688204 239.578508 
L 146.904754 238.825623 
L 137.149286 238.419135 
L 128.928546 238.292988 
L 128.756034 238.292986 
L 129.325681 238.36705 
L 153.234597 241.337399 
L 178.765489 244.282701 
L 206.41718 247.245753 
L 236.419858 250.233991 
L 269.628715 253.312826 
L 307.086324 256.556285 
L 353.963089 260.378205 
L 429.290588 266.496055 
L 430.713445 266.621961 
L 355.233171 259.8549 
L 319.174797 256.274506 
L 280.825803 252.238059 
L 224.376015 246.034639 
L 190.835151 242.460975 
L 171.631288 240.630306 
L 157.254421 239.474804 
L 145.72983 238.764691 
L 136.177836 238.392537 
L 128.756034 238.292986 
L 147.682431 240.667049 
L 172.749291 243.607977 
L 199.753832 246.551408 
L 229.289048 249.543063 
L 261.525141 252.581168 
L 297.884281 255.778525 
L 341.419237 259.373489 
L 430.713445 266.621961 
L 399.03547 263.900911 
L 363.17357 260.61318 
L 327.31691 257.102248 
L 289.831545 253.204773 
L 243.464645 248.142691 
L 194.248451 242.808822 
L 173.991119 240.840774 
L 159.091527 239.608206 
L 147.244446 238.843781 
L 137.438225 238.427588 
L 129.176033 238.293201 
L 128.756034 238.292986 
L 129.325681 238.36705 
L 153.234597 241.337399 
L 178.765489 244.282701 
L 206.41718 247.245753 
L 236.419858 250.233991 
L 269.628715 253.312826 
L 307.086324 256.556285 
L 353.963089 260.378205 
L 429.290588 266.496055 
L 430.713445 266.621961 
L 355.233171 259.8549 
L 319.174797 256.274506 
L 280.825803 252.238059 
L 224.376015 246.034639 
L 190.835151 242.460975 
L 171.631288 240.630306 
L 157.254421 239.474804 
L 145.72983 238.764691 
L 136.177836 238.392537 
L 128.756034 238.292986 
L 147.682431 240.667049 
L 172.749291 243.607977 
L 199.753832 246.551408 
L 229.289048 249.543063 
L 261.525141 252.581168 
L 297.884281 255.778525 
L 341.419237 259.373489 
L 430.713445 266.621961 
L 399.03547 263.900911 
L 363.17357 260.61318 
L 327.31691 257.102248 
L 289.831545 253.204773 
L 243.464645 248.142691 
L 194.248451 242.808822 
L 173.991119 240.840774 
L 159.091527 239.608206 
L 147.244446 238.843781 
L 137.438225 238.427588 
L 129.176033 238.293201 
L 128.756034 238.292986 
L 129.325681 238.36705 
L 153.234597 241.337399 
L 178.765489 244.282701 
L 206.41718 247.245753 
L 236.419858 250.233991 
L 269.628715 253.312826 
L 307.086324 256.556285 
L 353.963089 260.378205 
L 429.290588 266.496055 
L 430.713445 266.621961 
L 355.233171 259.8549 
L 319.174797 256.274506 
L 280.825803 252.238059 
L 224.376015 246.034639 
L 190.835151 242.460975 
L 171.631288 240.630306 
L 157.254421 239.474804 
L 145.72983 238.764691 
L 136.177836 238.392537 
L 128.756034 238.292986 
L 147.682431 240.667049 
L 172.749291 243.607977 
L 199.753832 246.551408 
L 229.289048 249.543063 
L 261.525141 252.581168 
L 297.884281 255.778525 
L 341.419237 259.373489 
L 430.713445 266.621961 
L 399.03547 263.900911 
L 363.17357 260.61318 
L 327.31691 257.102248 
L 289.831545 253.204773 
L 243.464645 248.142691 
L 194.248451 242.808822 
L 173.991119 240.840774 
L 159.091527 239.608206 
L 147.244446 238.843781 
L 137.438225 238.427588 
L 129.176033 238.293201 
L 128.756034 238.292986 
L 129.325681 238.36705 
L 153.234597 241.337399 
L 178.765489 244.282701 
L 206.41718 247.245753 
L 236.419858 250.233991 
L 269.628715 253.312826 
L 307.086324 256.556285 
L 353.963089 260.378205 
L 429.290588 266.496055 
L 430.713445 266.621961 
L 355.233171 259.8549 
L 319.174797 256.274506 
L 280.825803 252.238059 
L 224.376015 246.034639 
L 190.835151 242.460975 
L 171.631288 240.630306 
L 157.254421 239.474804 
L 145.72983 238.764691 
L 136.177836 238.392537 
L 128.756034 238.292986 
L 147.682431 240.667049 
L 172.749291 243.607977 
L 199.753832 246.551408 
L 229.289048 249.543063 
L 261.525141 252.581168 
L 297.884281 255.778525 
L 341.419237 259.373489 
L 430.713445 266.621961 
L 399.03547 263.900911 
L 363.17357 260.61318 
L 327.31691 257.102248 
L 289.831545 253.204773 
L 243.464645 248.142691 
L 194.248451 242.808822 
L 173.991119 240.840774 
L 159.091527 239.608206 
L 147.244446 238.843781 
L 137.438225 238.427588 
L 129.176033 238.293201 
L 128.756034 238.292986 
L 129.325681 238.36705 
L 153.234597 241.337399 
L 178.765489 244.282701 
L 206.41718 247.245753 
L 236.419858 250.233991 
L 269.628715 253.312826 
L 307.086324 256.556285 
L 353.963089 260.378205 
L 429.290588 266.496055 
L 430.713445 266.621961 
L 355.233171 259.8549 
L 319.174797 256.274506 
L 280.825803 252.238059 
L 224.376015 246.034639 
L 190.835151 242.460975 
L 171.631288 240.630306 
L 157.254421 239.474804 
L 145.72983 238.764691 
L 136.177836 238.392537 
L 128.756034 238.292986 
L 147.682431 240.667049 
L 172.749291 243.607977 
L 199.753832 246.551408 
L 229.289048 249.543063 
L 261.525141 252.581168 
L 297.884281 255.778525 
L 341.419237 259.373489 
L 430.713445 266.621961 
L 399.03547 263.900911 
L 363.17357 260.61318 
L 327.31691 257.102248 
L 289.831545 253.204773 
L 243.464645 248.142691 
L 194.248451 242.808822 
L 173.991119 240.840774 
L 159.091527 239.608206 
L 147.244446 238.843781 
L 137.438225 238.427588 
L 129.176033 238.293201 
L 128.756034 238.292986 
L 129.325681 238.36705 
L 153.234597 241.337399 
L 178.765489 244.282701 
L 206.41718 247.245753 
L 236.419858 250.233991 
L 269.628715 253.312826 
L 307.086324 256.556285 
L 353.963089 260.378205 
L 429.290588 266.496055 
L 430.713445 266.621961 
L 355.233171 259.8549 
L 319.174797 256.274506 
L 280.825803 252.238059 
L 224.376015 246.034639 
L 190.835151 242.460975 
L 171.631288 240.630306 
L 157.254421 239.474804 
L 145.72983 238.764691 
L 136.177836 238.392537 
L 128.756034 238.292986 
L 147.682431 240.667049 
L 172.749291 243.607977 
L 199.753832 246.551408 
L 229.289048 249.543063 
L 261.525141 252.581168 
L 297.884281 255.778525 
L 341.419237 259.373489 
L 430.713445 266.621961 
L 399.03547 263.900911 
L 363.17357 260.61318 
L 327.31691 257.102248 
L 289.831545 253.204773 
L 243.464645 248.142691 
L 194.248451 242.808822 
L 173.991119 240.840774 
L 159.091527 239.608206 
L 147.244446 238.843781 
L 137.438225 238.427588 
L 129.176033 238.293201 
L 128.756034 238.292986 
L 129.325681 238.36705 
L 153.234597 241.337399 
L 178.765489 244.282701 
L 206.41718 247.245753 
L 236.419858 250.233991 
L 269.628715 253.312826 
L 307.086324 256.556285 
L 353.963089 260.378205 
L 429.290588 266.496055 
L 430.713445 266.621961 
L 355.233171 259.8549 
L 319.174797 256.274506 
L 280.825803 252.238059 
L 224.376015 246.034639 
L 190.835151 242.460975 
L 171.631288 240.630306 
L 157.254421 239.474804 
L 145.72983 238.764691 
L 136.177836 238.392537 
L 128.756034 238.292986 
L 147.682431 240.667049 
L 172.749291 243.607977 
L 199.753832 246.551408 
L 229.289048 249.543063 
L 261.525141 252.581168 
L 297.884281 255.778525 
L 341.419237 259.373489 
L 430.713445 266.621961 
L 430.713445 266.621961 
" clip-path="url(#p297664a403)" style="fill: none; stroke: #901a1e; stroke-opacity: 0.92; stroke-width: 1.8; stroke-linecap: square"/>
   </g>
   <g id="line2d_23">
    <path d="M 349.757349 184.721531 
L 320.793536 179.391872 
L 289.083982 173.324354 
L 240.385227 163.737979 
L 209.815563 157.833572 
L 191.53111 154.521457 
L 177.404499 152.181319 
L 171.006863 151.212322 
L 171.834985 151.401686 
L 191.090212 155.667872 
L 211.496172 159.957798 
L 233.056099 164.262081 
L 256.431148 168.698019 
L 281.721987 173.267585 
L 310.158165 178.174112 
L 345.176909 183.977533 
L 349.885335 184.745072 
L 343.649916 183.61644 
L 314.424766 178.19107 
L 281.534812 171.851334 
L 201.201686 156.242418 
L 185.058311 153.419383 
L 172.143184 151.379493 
L 171.006863 151.212322 
L 172.130234 151.46883 
L 191.378132 155.729991 
L 211.774732 160.014842 
L 233.589725 164.365897 
L 256.935322 168.791312 
L 282.42292 173.391237 
L 310.997826 178.315904 
L 346.234592 184.150119 
L 349.885335 184.745072 
L 343.649916 183.61644 
L 314.424766 178.19107 
L 281.534812 171.851334 
L 201.201686 156.242418 
L 185.058311 153.419383 
L 172.143184 151.379493 
L 171.006863 151.212322 
L 172.130234 151.46883 
L 191.378132 155.729991 
L 211.774732 160.014842 
L 233.589725 164.365897 
L 256.935322 168.791312 
L 282.42292 173.391237 
L 310.997826 178.315904 
L 346.234592 184.150119 
L 349.885335 184.745072 
L 343.649916 183.61644 
L 314.424766 178.19107 
L 281.534812 171.851334 
L 201.201686 156.242418 
L 185.058311 153.419383 
L 172.143184 151.379493 
L 171.006863 151.212322 
L 172.130234 151.46883 
L 191.378132 155.729991 
L 211.774732 160.014842 
L 233.589725 164.365897 
L 256.935322 168.791312 
L 282.42292 173.391237 
L 310.997826 178.315904 
L 346.234592 184.150119 
L 349.885335 184.745072 
L 343.649916 183.61644 
L 314.424766 178.19107 
L 281.534812 171.851334 
L 201.201686 156.242418 
L 185.058311 153.419383 
L 172.143184 151.379493 
L 171.006863 151.212322 
L 172.130234 151.46883 
L 191.378132 155.729991 
L 211.774732 160.014842 
L 233.589725 164.365897 
L 256.935322 168.791312 
L 282.42292 173.391237 
L 310.997826 178.315904 
L 346.234592 184.150119 
L 349.885335 184.745072 
L 343.649916 183.61644 
L 314.424766 178.19107 
L 281.534812 171.851334 
L 201.201686 156.242418 
L 185.058311 153.419383 
L 172.143184 151.379493 
L 171.006863 151.212322 
L 172.130234 151.46883 
L 191.378132 155.729991 
L 211.774732 160.014842 
L 233.589725 164.365897 
L 256.935322 168.791312 
L 282.42292 173.391237 
L 310.997826 178.315904 
L 346.234592 184.150119 
L 349.885335 184.745072 
L 343.649916 183.61644 
L 314.424766 178.19107 
L 281.534812 171.851334 
L 201.201686 156.242418 
L 185.058311 153.419383 
L 172.143184 151.379493 
L 171.006863 151.212322 
L 172.130234 151.46883 
L 191.378132 155.729991 
L 211.774732 160.014842 
L 233.589725 164.365897 
L 256.935322 168.791312 
L 282.42292 173.391237 
L 310.997826 178.315904 
L 346.234592 184.150119 
L 349.885335 184.745072 
L 343.649916 183.61644 
L 314.424766 178.19107 
L 281.534812 171.851334 
L 201.201686 156.242418 
L 185.058311 153.419383 
L 172.143184 151.379493 
L 171.006863 151.212322 
L 172.130234 151.46883 
L 191.378132 155.729991 
L 211.774732 160.014842 
L 233.589725 164.365897 
L 256.935322 168.791312 
L 282.42292 173.391237 
L 310.997826 178.315904 
L 346.234592 184.150119 
L 349.885335 184.745072 
L 343.649916 183.61644 
L 314.424766 178.19107 
L 281.534812 171.851334 
L 201.201686 156.242418 
L 185.058311 153.419383 
L 172.143184 151.379493 
L 171.006863 151.212322 
L 172.130234 151.46883 
L 191.378132 155.729991 
L 211.774732 160.014842 
L 233.589725 164.365897 
L 256.935322 168.791312 
L 282.42292 173.391237 
L 310.997826 178.315904 
L 346.234592 184.150119 
L 349.885335 184.745072 
L 343.649916 183.61644 
L 314.424766 178.19107 
L 281.534812 171.851334 
L 201.201686 156.242418 
L 185.058311 153.419383 
L 172.143184 151.379493 
L 171.006863 151.212322 
L 172.130234 151.46883 
L 191.378132 155.729991 
L 211.774732 160.014842 
L 233.589725 164.365897 
L 256.935322 168.791312 
L 282.42292 173.391237 
L 310.997826 178.315904 
L 346.234592 184.150119 
L 349.885335 184.745072 
L 343.649916 183.61644 
L 314.424766 178.19107 
L 281.534812 171.851334 
L 201.201686 156.242418 
L 185.058311 153.419383 
L 172.143184 151.379493 
L 171.006863 151.212322 
L 172.130234 151.46883 
L 191.378132 155.729991 
L 211.774732 160.014842 
L 233.589725 164.365897 
L 256.935322 168.791312 
L 282.42292 173.391237 
L 310.997826 178.315904 
L 346.234592 184.150119 
L 349.885335 184.745072 
L 343.649916 183.61644 
L 314.424766 178.19107 
L 281.534812 171.851334 
L 201.201686 156.242418 
L 185.058311 153.419383 
L 172.143184 151.379493 
L 171.006863 151.212322 
L 172.130234 151.46883 
L 191.378132 155.729991 
L 211.774732 160.014842 
L 233.589725 164.365897 
L 256.935322 168.791312 
L 282.42292 173.391237 
L 310.997826 178.315904 
L 346.234592 184.150119 
L 349.885335 184.745072 
L 343.649916 183.61644 
L 314.424766 178.19107 
L 281.534812 171.851334 
L 201.201686 156.242418 
L 185.058311 153.419383 
L 172.143184 151.379493 
L 171.006863 151.212322 
L 172.130234 151.46883 
L 191.378132 155.729991 
L 211.774732 160.014842 
L 233.589725 164.365897 
L 256.935322 168.791312 
L 282.42292 173.391237 
L 310.997826 178.315904 
L 346.234592 184.150119 
L 349.885335 184.745072 
L 343.649916 183.61644 
L 314.424766 178.19107 
L 281.534812 171.851334 
L 201.201686 156.242418 
L 185.058311 153.419383 
L 172.143184 151.379493 
L 171.006863 151.212322 
L 172.130234 151.46883 
L 191.378132 155.729991 
L 211.774732 160.014842 
L 233.589725 164.365897 
L 256.935322 168.791312 
L 282.42292 173.391237 
L 310.997826 178.315904 
L 346.234592 184.150119 
L 349.885335 184.745072 
L 349.885335 184.745072 
" clip-path="url(#p297664a403)" style="fill: none; stroke: #b84042; stroke-opacity: 0.92; stroke-width: 1.8; stroke-linecap: square"/>
   </g>
   <g id="line2d_24">
    <path d="M 299.535179 150.506396 
L 261.0854 142.003 
L 217.88597 132.487475 
L 206.099929 130.004864 
L 208.545983 130.597372 
L 228.447533 135.285845 
L 249.838288 140.092626 
L 272.750609 145.010562 
L 298.09765 150.219333 
L 299.621014 150.525748 
L 293.211345 149.122591 
L 247.770251 139.037201 
L 215.772366 132.036255 
L 206.099929 130.004864 
L 208.823693 130.664361 
L 228.714736 135.347309 
L 250.092461 140.148423 
L 272.988832 145.060574 
L 298.315824 150.263259 
L 299.621014 150.525748 
L 293.211345 149.122591 
L 247.770251 139.037201 
L 215.772366 132.036255 
L 206.099929 130.004864 
L 208.823693 130.664361 
L 228.714736 135.347309 
L 250.092461 140.148423 
L 272.988832 145.060574 
L 298.315824 150.263259 
L 299.621014 150.525748 
L 293.211345 149.122591 
L 247.770251 139.037201 
L 215.772366 132.036255 
L 206.099929 130.004864 
L 208.823693 130.664361 
L 228.714736 135.347309 
L 250.092461 140.148423 
L 272.988832 145.060574 
L 298.315824 150.263259 
L 299.621014 150.525748 
L 293.211345 149.122591 
L 247.770251 139.037201 
L 215.772366 132.036255 
L 206.099929 130.004864 
L 208.823693 130.664361 
L 228.714736 135.347309 
L 250.092461 140.148423 
L 272.988832 145.060574 
L 298.315824 150.263259 
L 299.621014 150.525748 
L 293.211345 149.122591 
L 247.770251 139.037201 
L 215.772366 132.036255 
L 206.099929 130.004864 
L 208.823693 130.664361 
L 228.714736 135.347309 
L 250.092461 140.148423 
L 272.988832 145.060574 
L 298.315824 150.263259 
L 299.621014 150.525748 
L 293.211345 149.122591 
L 247.770251 139.037201 
L 215.772366 132.036255 
L 206.099929 130.004864 
L 208.823693 130.664361 
L 228.714736 135.347309 
L 250.092461 140.148423 
L 272.988832 145.060574 
L 298.315824 150.263259 
L 299.621014 150.525748 
L 293.211345 149.122591 
L 247.770251 139.037201 
L 215.772366 132.036255 
L 206.099929 130.004864 
L 208.823693 130.664361 
L 228.714736 135.347309 
L 250.092461 140.148423 
L 272.988832 145.060574 
L 298.315824 150.263259 
L 299.621014 150.525748 
L 293.211345 149.122591 
L 247.770251 139.037201 
L 215.772366 132.036255 
L 206.099929 130.004864 
L 208.823693 130.664361 
L 228.714736 135.347309 
L 250.092461 140.148423 
L 272.988832 145.060574 
L 298.315824 150.263259 
L 299.621014 150.525748 
L 293.211345 149.122591 
L 247.770251 139.037201 
L 215.772366 132.036255 
L 206.099929 130.004864 
L 208.823693 130.664361 
L 228.714736 135.347309 
L 250.092461 140.148423 
L 272.988832 145.060574 
L 298.315824 150.263259 
L 299.621014 150.525748 
L 293.211345 149.122591 
L 247.770251 139.037201 
L 215.772366 132.036255 
L 206.099929 130.004864 
L 208.823693 130.664361 
L 228.714736 135.347309 
L 250.092461 140.148423 
L 272.988832 145.060574 
L 298.315824 150.263259 
L 299.621014 150.525748 
L 293.211345 149.122591 
L 247.770251 139.037201 
L 215.772366 132.036255 
L 206.099929 130.004864 
L 208.823693 130.664361 
L 228.714736 135.347309 
L 250.092461 140.148423 
L 272.988832 145.060574 
L 298.315824 150.263259 
L 299.621014 150.525748 
L 293.211345 149.122591 
L 247.770251 139.037201 
L 215.772366 132.036255 
L 206.099929 130.004864 
L 208.823693 130.664361 
L 228.714736 135.347309 
L 250.092461 140.148423 
L 272.988832 145.060574 
L 298.315824 150.263259 
L 299.621014 150.525748 
L 293.211345 149.122591 
L 247.770251 139.037201 
L 215.772366 132.036255 
L 206.099929 130.004864 
L 208.823693 130.664361 
L 228.714736 135.347309 
L 250.092461 140.148423 
L 272.988832 145.060574 
L 298.315824 150.263259 
L 299.621014 150.525748 
L 299.621014 150.525748 
" clip-path="url(#p297664a403)" style="fill: none; stroke: #d9888a; stroke-opacity: 0.92; stroke-width: 1.8; stroke-linecap: square"/>
   </g>
   <g id="PathCollection_1">
    <defs>
     <path id="m2c4a49cff2" d="M 0 3.162278 
C 0.838646 3.162278 1.643056 2.82908 2.236068 2.236068 
C 2.82908 1.643056 3.162278 0.838646 3.162278 0 
C 3.162278 -0.838646 2.82908 -1.643056 2.236068 -2.236068 
C 1.643056 -2.82908 0.838646 -3.162278 0 -3.162278 
C -0.838646 -3.162278 -1.643056 -2.82908 -2.236068 -2.236068 
C -2.82908 -1.643056 -3.162278 -0.838646 -3.162278 0 
C -3.162278 0.838646 -2.82908 1.643056 -2.236068 2.236068 
C -1.643056 2.82908 -0.838646 3.162278 0 3.162278 
z
" style="stroke: #222222"/>
    </defs>
    <g>
     <use xlink:href="#m2c4a49cff2" x="88.453153" y="339.373143" style="fill: #222222; stroke: #222222"/>
    </g>
   </g>
   <g id="PathCollection_2">
    <g>
     <use xlink:href="#m2c4a49cff2" x="492.315034" y="339.373143" style="fill: #222222; stroke: #222222"/>
    </g>
   </g>
  </g>
  <g id="axes_2">
   <g id="patch_6">
    <path d="M 568.525184 349.826323 
L 1012.773253 349.826323 
L 1012.773253 28.20024 
L 568.525184 28.20024 
z
" style="fill: #ffffff"/>
   </g>
   <g id="patch_7">
    <path d="M 711.869192 349.826323 
L 841.15845 349.826323 
L 841.15845 28.20024 
L 711.869192 28.20024 
z
" clip-path="url(#p09095d17a8)" style="fill: #faefc4; opacity: 0.85"/>
   </g>
   <g id="line2d_25">
    <path d="M 584.679659 349.826323 
L 584.679659 28.20024 
" clip-path="url(#p09095d17a8)" style="fill: none; stroke-dasharray: 0.9,1.485; stroke-dashoffset: 0; stroke: #cccccc; stroke-width: 0.9"/>
   </g>
   <g id="line2d_26">
    <path d="M 988.54154 349.826323 
L 988.54154 28.20024 
" clip-path="url(#p09095d17a8)" style="fill: none; stroke-dasharray: 0.9,1.485; stroke-dashoffset: 0; stroke: #cccccc; stroke-width: 0.9"/>
   </g>
   <g id="matplotlib.axis_3">
    <g id="xtick_7">
     <g id="line2d_27">
      <g>
       <use xlink:href="#m87a12ae949" x="584.679659" y="349.826323" style="stroke: #000000; stroke-width: 1.1"/>
      </g>
     </g>
     <g id="text_16">
      <!-- 1.0 -->
      <g transform="translate(572.752316 369.723979) scale(0.15 -0.15)">
       <use xlink:href="#DejaVuSans-31"/>
       <use xlink:href="#DejaVuSans-2e" transform="translate(63.623047 0)"/>
       <use xlink:href="#DejaVuSans-30" transform="translate(95.410156 0)"/>
      </g>
     </g>
    </g>
    <g id="xtick_8">
     <g id="line2d_28">
      <g>
       <use xlink:href="#m87a12ae949" x="665.452036" y="349.826323" style="stroke: #000000; stroke-width: 1.1"/>
      </g>
     </g>
     <g id="text_17">
      <!-- 1.2 -->
      <g transform="translate(653.524692 369.723979) scale(0.15 -0.15)">
       <use xlink:href="#DejaVuSans-31"/>
       <use xlink:href="#DejaVuSans-2e" transform="translate(63.623047 0)"/>
       <use xlink:href="#DejaVuSans-32" transform="translate(95.410156 0)"/>
      </g>
     </g>
    </g>
    <g id="xtick_9">
     <g id="line2d_29">
      <g>
       <use xlink:href="#m87a12ae949" x="746.224412" y="349.826323" style="stroke: #000000; stroke-width: 1.1"/>
      </g>
     </g>
     <g id="text_18">
      <!-- 1.4 -->
      <g transform="translate(734.297068 369.723979) scale(0.15 -0.15)">
       <use xlink:href="#DejaVuSans-31"/>
       <use xlink:href="#DejaVuSans-2e" transform="translate(63.623047 0)"/>
       <use xlink:href="#DejaVuSans-34" transform="translate(95.410156 0)"/>
      </g>
     </g>
    </g>
    <g id="xtick_10">
     <g id="line2d_30">
      <g>
       <use xlink:href="#m87a12ae949" x="826.996788" y="349.826323" style="stroke: #000000; stroke-width: 1.1"/>
      </g>
     </g>
     <g id="text_19">
      <!-- 1.6 -->
      <g transform="translate(815.069444 369.723979) scale(0.15 -0.15)">
       <use xlink:href="#DejaVuSans-31"/>
       <use xlink:href="#DejaVuSans-2e" transform="translate(63.623047 0)"/>
       <use xlink:href="#DejaVuSans-36" transform="translate(95.410156 0)"/>
      </g>
     </g>
    </g>
    <g id="xtick_11">
     <g id="line2d_31">
      <g>
       <use xlink:href="#m87a12ae949" x="907.769164" y="349.826323" style="stroke: #000000; stroke-width: 1.1"/>
      </g>
     </g>
     <g id="text_20">
      <!-- 1.8 -->
      <g transform="translate(895.841821 369.723979) scale(0.15 -0.15)">
       <use xlink:href="#DejaVuSans-31"/>
       <use xlink:href="#DejaVuSans-2e" transform="translate(63.623047 0)"/>
       <use xlink:href="#DejaVuSans-38" transform="translate(95.410156 0)"/>
      </g>
     </g>
    </g>
    <g id="xtick_12">
     <g id="line2d_32">
      <g>
       <use xlink:href="#m87a12ae949" x="988.54154" y="349.826323" style="stroke: #000000; stroke-width: 1.1"/>
      </g>
     </g>
     <g id="text_21">
      <!-- 2.0 -->
      <g transform="translate(976.614197 369.723979) scale(0.15 -0.15)">
       <use xlink:href="#DejaVuSans-32"/>
       <use xlink:href="#DejaVuSans-2e" transform="translate(63.623047 0)"/>
       <use xlink:href="#DejaVuSans-30" transform="translate(95.410156 0)"/>
      </g>
     </g>
    </g>
    <g id="text_22">
     <!-- Prey  $x$ -->
     <g transform="translate(756.149219 395.99976) scale(0.2 -0.2)">
      <use xlink:href="#DejaVuSans-50" transform="translate(0 0.09375)"/>
      <use xlink:href="#DejaVuSans-72" transform="translate(60.302734 0.09375)"/>
      <use xlink:href="#DejaVuSans-65" transform="translate(101.416016 0.09375)"/>
      <use xlink:href="#DejaVuSans-79" transform="translate(162.939453 0.09375)"/>
      <use xlink:href="#DejaVuSans-20" transform="translate(222.119141 0.09375)"/>
      <use xlink:href="#DejaVuSans-20" transform="translate(253.90625 0.09375)"/>
      <use xlink:href="#DejaVuSans-Oblique-78" transform="translate(285.693359 0.09375)"/>
     </g>
    </g>
   </g>
   <g id="matplotlib.axis_4">
    <g id="ytick_7">
     <g id="line2d_33">
      <g>
       <use xlink:href="#m37f35a83eb" x="568.525184" y="339.373143" style="stroke: #000000; stroke-width: 1.1"/>
      </g>
     </g>
     <g id="text_23">
      <!-- 0.00 -->
      <g transform="translate(526.626747 345.071971) scale(0.15 -0.15)">
       <use xlink:href="#DejaVuSans-30"/>
       <use xlink:href="#DejaVuSans-2e" transform="translate(63.623047 0)"/>
       <use xlink:href="#DejaVuSans-30" transform="translate(95.410156 0)"/>
       <use xlink:href="#DejaVuSans-30" transform="translate(159.033203 0)"/>
      </g>
     </g>
    </g>
    <g id="ytick_8">
     <g id="line2d_34">
      <g>
       <use xlink:href="#m37f35a83eb" x="568.525184" y="287.107248" style="stroke: #000000; stroke-width: 1.1"/>
      </g>
     </g>
     <g id="text_24">
      <!-- 0.02 -->
      <g transform="translate(526.626747 292.806076) scale(0.15 -0.15)">
       <use xlink:href="#DejaVuSans-30"/>
       <use xlink:href="#DejaVuSans-2e" transform="translate(63.623047 0)"/>
       <use xlink:href="#DejaVuSans-30" transform="translate(95.410156 0)"/>
       <use xlink:href="#DejaVuSans-32" transform="translate(159.033203 0)"/>
      </g>
     </g>
    </g>
    <g id="ytick_9">
     <g id="line2d_35">
      <g>
       <use xlink:href="#m37f35a83eb" x="568.525184" y="234.841352" style="stroke: #000000; stroke-width: 1.1"/>
      </g>
     </g>
     <g id="text_25">
      <!-- 0.04 -->
      <g transform="translate(526.626747 240.54018) scale(0.15 -0.15)">
       <use xlink:href="#DejaVuSans-30"/>
       <use xlink:href="#DejaVuSans-2e" transform="translate(63.623047 0)"/>
       <use xlink:href="#DejaVuSans-30" transform="translate(95.410156 0)"/>
       <use xlink:href="#DejaVuSans-34" transform="translate(159.033203 0)"/>
      </g>
     </g>
    </g>
    <g id="ytick_10">
     <g id="line2d_36">
      <g>
       <use xlink:href="#m37f35a83eb" x="568.525184" y="182.575456" style="stroke: #000000; stroke-width: 1.1"/>
      </g>
     </g>
     <g id="text_26">
      <!-- 0.06 -->
      <g transform="translate(526.626747 188.274284) scale(0.15 -0.15)">
       <use xlink:href="#DejaVuSans-30"/>
       <use xlink:href="#DejaVuSans-2e" transform="translate(63.623047 0)"/>
       <use xlink:href="#DejaVuSans-30" transform="translate(95.410156 0)"/>
       <use xlink:href="#DejaVuSans-36" transform="translate(159.033203 0)"/>
      </g>
     </g>
    </g>
    <g id="ytick_11">
     <g id="line2d_37">
      <g>
       <use xlink:href="#m37f35a83eb" x="568.525184" y="130.30956" style="stroke: #000000; stroke-width: 1.1"/>
      </g>
     </g>
     <g id="text_27">
      <!-- 0.08 -->
      <g transform="translate(526.626747 136.008388) scale(0.15 -0.15)">
       <use xlink:href="#DejaVuSans-30"/>
       <use xlink:href="#DejaVuSans-2e" transform="translate(63.623047 0)"/>
       <use xlink:href="#DejaVuSans-30" transform="translate(95.410156 0)"/>
       <use xlink:href="#DejaVuSans-38" transform="translate(159.033203 0)"/>
      </g>
     </g>
    </g>
    <g id="ytick_12">
     <g id="line2d_38">
      <g>
       <use xlink:href="#m37f35a83eb" x="568.525184" y="78.043664" style="stroke: #000000; stroke-width: 1.1"/>
      </g>
     </g>
     <g id="text_28">
      <!-- 0.10 -->
      <g transform="translate(526.626747 83.742492) scale(0.15 -0.15)">
       <use xlink:href="#DejaVuSans-30"/>
       <use xlink:href="#DejaVuSans-2e" transform="translate(63.623047 0)"/>
       <use xlink:href="#DejaVuSans-31" transform="translate(95.410156 0)"/>
       <use xlink:href="#DejaVuSans-30" transform="translate(159.033203 0)"/>
      </g>
     </g>
    </g>
   </g>
   <g id="line2d_39">
    <path d="M 711.869192 349.826323 
L 711.869192 28.20024 
" clip-path="url(#p09095d17a8)" style="fill: none; stroke-dasharray: 8,4.8; stroke-dashoffset: 0; stroke: #e0c233; stroke-width: 1.6"/>
   </g>
   <g id="line2d_40">
    <path d="M 841.15845 349.826323 
L 841.15845 28.20024 
" clip-path="url(#p09095d17a8)" style="fill: none; stroke-dasharray: 8,4.8; stroke-dashoffset: 0; stroke: #e0c233; stroke-width: 1.6"/>
   </g>
   <g id="patch_8">
    <path d="M 568.525184 349.826322 
L 568.525184 28.20024 
" style="fill: none; stroke: #000000; stroke-width: 1.2; stroke-linejoin: miter; stroke-linecap: square"/>
   </g>
   <g id="patch_9">
    <path d="M 568.525184 349.826323 
L 1012.773253 349.826323 
" style="fill: none; stroke: #000000; stroke-width: 1.2; stroke-linejoin: miter; stroke-linecap: square"/>
   </g>
   <g id="line2d_41">
    <path d="M 613.984479 339.373143 
L 988.307245 339.373143 
" clip-path="url(#p09095d17a8)" style="fill: none; stroke: #2d4f73; stroke-opacity: 0.9; stroke-width: 2.4; stroke-linecap: round"/>
   </g>
   <g id="line2d_42">
    <path d="M 674.420478 339.373143 
L 979.232551 339.373143 
" clip-path="url(#p09095d17a8)" style="fill: none; stroke: #547aa5; stroke-opacity: 0.9; stroke-width: 2.4; stroke-linecap: round"/>
   </g>
   <g id="line2d_43">
    <path d="M 746.206201 339.373143 
L 944.241808 339.373143 
" clip-path="url(#p09095d17a8)" style="fill: none; stroke: #7aa3c0; stroke-opacity: 0.9; stroke-width: 2.4; stroke-linecap: round"/>
   </g>
   <g id="line2d_44">
    <path d="M 797.412093 339.373143 
L 905.831185 339.373143 
" clip-path="url(#p09095d17a8)" style="fill: none; stroke: #b8cfe0; stroke-opacity: 0.9; stroke-width: 2.4; stroke-linecap: round"/>
   </g>
   <g id="line2d_45">
    <path d="M 597.244037 339.373143 
L 982.341571 339.373143 
" clip-path="url(#p09095d17a8)" style="fill: none; stroke: #5a0f11; stroke-opacity: 0.9; stroke-width: 2.4; stroke-linecap: round"/>
   </g>
   <g id="line2d_46">
    <path d="M 636.99713 339.373143 
L 935.749333 339.373143 
" clip-path="url(#p09095d17a8)" style="fill: none; stroke: #901a1e; stroke-opacity: 0.9; stroke-width: 2.4; stroke-linecap: round"/>
   </g>
   <g id="text_29">
    <!-- (b)  $\gamma_2=2.25$ -->
    <g transform="translate(725.449219 18.20024) scale(0.2 -0.2)">
     <defs>
      <path id="DejaVuSans-62" d="M 3116 1747 
Q 3116 2381 2855 2742 
Q 2594 3103 2138 3103 
Q 1681 3103 1420 2742 
Q 1159 2381 1159 1747 
Q 1159 1113 1420 752 
Q 1681 391 2138 391 
Q 2594 391 2855 752 
Q 3116 1113 3116 1747 
z
M 1159 2969 
Q 1341 3281 1617 3432 
Q 1894 3584 2278 3584 
Q 2916 3584 3314 3078 
Q 3713 2572 3713 1747 
Q 3713 922 3314 415 
Q 2916 -91 2278 -91 
Q 1894 -91 1617 61 
Q 1341 213 1159 525 
L 1159 0 
L 581 0 
L 581 4863 
L 1159 4863 
L 1159 2969 
z
" transform="scale(0.015625)"/>
      <path id="DejaVuSans-35" d="M 691 4666 
L 3169 4666 
L 3169 4134 
L 1269 4134 
L 1269 2991 
Q 1406 3038 1543 3061 
Q 1681 3084 1819 3084 
Q 2600 3084 3056 2656 
Q 3513 2228 3513 1497 
Q 3513 744 3044 326 
Q 2575 -91 1722 -91 
Q 1428 -91 1123 -41 
Q 819 9 494 109 
L 494 744 
Q 775 591 1075 516 
Q 1375 441 1709 441 
Q 2250 441 2565 725 
Q 2881 1009 2881 1497 
Q 2881 1984 2565 2268 
Q 2250 2553 1709 2553 
Q 1456 2553 1204 2497 
Q 953 2441 691 2322 
L 691 4666 
z
" transform="scale(0.015625)"/>
     </defs>
     <use xlink:href="#DejaVuSans-28" transform="translate(0 0.015625)"/>
     <use xlink:href="#DejaVuSans-62" transform="translate(39.013672 0.015625)"/>
     <use xlink:href="#DejaVuSans-29" transform="translate(102.490234 0.015625)"/>
     <use xlink:href="#DejaVuSans-20" transform="translate(141.503906 0.015625)"/>
     <use xlink:href="#DejaVuSans-20" transform="translate(173.291016 0.015625)"/>
     <use xlink:href="#DejaVuSans-Oblique-3b3" transform="translate(205.078125 0.015625)"/>
     <use xlink:href="#DejaVuSans-32" transform="translate(264.257812 -16.390625) scale(0.7)"/>
     <use xlink:href="#DejaVuSans-3d" transform="translate(331.010742 0.015625)"/>
     <use xlink:href="#DejaVuSans-32" transform="translate(434.282227 0.015625)"/>
     <use xlink:href="#DejaVuSans-2e" transform="translate(497.905273 0.015625)"/>
     <use xlink:href="#DejaVuSans-32" transform="translate(524.192383 0.015625)"/>
     <use xlink:href="#DejaVuSans-35" transform="translate(587.81543 0.015625)"/>
    </g>
   </g>
   <g id="line2d_47">
    <path d="M 863.993811 322.927197 
L 791.570991 321.338239 
L 700.158033 319.08339 
L 685.924464 318.737165 
L 830.04478 322.184688 
L 864.12503 322.929829 
L 747.33773 320.266208 
L 685.924464 318.737165 
L 819.904211 321.96263 
L 864.12503 322.929829 
L 744.853037 320.204269 
L 685.924464 318.737165 
L 818.629956 321.934648 
L 864.12503 322.929829 
L 744.398182 320.192916 
L 685.924464 318.737165 
L 818.416889 321.929967 
L 864.12503 322.929829 
L 744.398182 320.192916 
L 685.924464 318.737165 
L 818.416889 321.929967 
L 864.12503 322.929829 
L 744.398182 320.192916 
L 685.924464 318.737165 
L 818.416889 321.929967 
L 864.12503 322.929829 
L 744.398182 320.192916 
L 685.924464 318.737165 
L 818.416889 321.929967 
L 864.12503 322.929829 
L 744.398182 320.192916 
L 685.924464 318.737165 
L 818.416889 321.929967 
L 864.12503 322.929829 
L 744.398182 320.192916 
L 685.924464 318.737165 
L 818.416889 321.929967 
L 864.12503 322.929829 
L 744.398182 320.192916 
L 685.924464 318.737165 
L 818.416889 321.929967 
L 864.12503 322.929829 
L 744.398182 320.192916 
L 685.924464 318.737165 
L 818.416889 321.929967 
L 864.12503 322.929829 
L 744.398182 320.192916 
L 685.924464 318.737165 
L 818.416889 321.929967 
L 864.12503 322.929829 
L 744.398182 320.192916 
L 685.924464 318.737165 
L 818.416889 321.929967 
L 864.12503 322.929829 
L 744.398182 320.192916 
L 685.924464 318.737165 
L 818.416889 321.929967 
L 864.12503 322.929829 
L 864.12503 322.929829 
" clip-path="url(#p09095d17a8)" style="fill: none; stroke: #b84042; stroke-opacity: 0.92; stroke-width: 1.8; stroke-linecap: square"/>
   </g>
   <g id="line2d_48">
    <path d="M 814.065491 295.918132 
L 764.21978 293.068542 
L 720.509883 290.441937 
L 814.153181 295.922938 
L 814.153181 295.922938 
" clip-path="url(#p09095d17a8)" style="fill: none; stroke: #d9888a; stroke-opacity: 0.92; stroke-width: 1.8; stroke-linecap: square"/>
   </g>
   <g id="PathCollection_3">
    <g>
     <use xlink:href="#m2c4a49cff2" x="584.679659" y="339.373143" style="fill: #222222; stroke: #222222"/>
    </g>
   </g>
   <g id="PathCollection_4">
    <g>
     <use xlink:href="#m2c4a49cff2" x="988.54154" y="339.373143" style="fill: #222222; stroke: #222222"/>
    </g>
   </g>
  </g>
  <g id="axes_3">
   <g id="patch_10">
    <path d="M 1064.751691 349.826323 
L 1508.99976 349.826323 
L 1508.99976 28.20024 
L 1064.751691 28.20024 
z
" style="fill: #ffffff"/>
   </g>
   <g id="line2d_49">
    <path d="M 1080.906166 349.826323 
L 1080.906166 28.20024 
" clip-path="url(#p37b16bf242)" style="fill: none; stroke-dasharray: 0.9,1.485; stroke-dashoffset: 0; stroke: #cccccc; stroke-width: 0.9"/>
   </g>
   <g id="line2d_50">
    <path d="M 1484.768047 349.826323 
L 1484.768047 28.20024 
" clip-path="url(#p37b16bf242)" style="fill: none; stroke-dasharray: 0.9,1.485; stroke-dashoffset: 0; stroke: #cccccc; stroke-width: 0.9"/>
   </g>
   <g id="matplotlib.axis_5">
    <g id="xtick_13">
     <g id="line2d_51">
      <g>
       <use xlink:href="#m87a12ae949" x="1080.906166" y="349.826323" style="stroke: #000000; stroke-width: 1.1"/>
      </g>
     </g>
     <g id="text_30">
      <!-- 1.0 -->
      <g transform="translate(1068.978822 369.723979) scale(0.15 -0.15)">
       <use xlink:href="#DejaVuSans-31"/>
       <use xlink:href="#DejaVuSans-2e" transform="translate(63.623047 0)"/>
       <use xlink:href="#DejaVuSans-30" transform="translate(95.410156 0)"/>
      </g>
     </g>
    </g>
    <g id="xtick_14">
     <g id="line2d_52">
      <g>
       <use xlink:href="#m87a12ae949" x="1161.678542" y="349.826323" style="stroke: #000000; stroke-width: 1.1"/>
      </g>
     </g>
     <g id="text_31">
      <!-- 1.2 -->
      <g transform="translate(1149.751199 369.723979) scale(0.15 -0.15)">
       <use xlink:href="#DejaVuSans-31"/>
       <use xlink:href="#DejaVuSans-2e" transform="translate(63.623047 0)"/>
       <use xlink:href="#DejaVuSans-32" transform="translate(95.410156 0)"/>
      </g>
     </g>
    </g>
    <g id="xtick_15">
     <g id="line2d_53">
      <g>
       <use xlink:href="#m87a12ae949" x="1242.450919" y="349.826323" style="stroke: #000000; stroke-width: 1.1"/>
      </g>
     </g>
     <g id="text_32">
      <!-- 1.4 -->
      <g transform="translate(1230.523575 369.723979) scale(0.15 -0.15)">
       <use xlink:href="#DejaVuSans-31"/>
       <use xlink:href="#DejaVuSans-2e" transform="translate(63.623047 0)"/>
       <use xlink:href="#DejaVuSans-34" transform="translate(95.410156 0)"/>
      </g>
     </g>
    </g>
    <g id="xtick_16">
     <g id="line2d_54">
      <g>
       <use xlink:href="#m87a12ae949" x="1323.223295" y="349.826323" style="stroke: #000000; stroke-width: 1.1"/>
      </g>
     </g>
     <g id="text_33">
      <!-- 1.6 -->
      <g transform="translate(1311.295951 369.723979) scale(0.15 -0.15)">
       <use xlink:href="#DejaVuSans-31"/>
       <use xlink:href="#DejaVuSans-2e" transform="translate(63.623047 0)"/>
       <use xlink:href="#DejaVuSans-36" transform="translate(95.410156 0)"/>
      </g>
     </g>
    </g>
    <g id="xtick_17">
     <g id="line2d_55">
      <g>
       <use xlink:href="#m87a12ae949" x="1403.995671" y="349.826323" style="stroke: #000000; stroke-width: 1.1"/>
      </g>
     </g>
     <g id="text_34">
      <!-- 1.8 -->
      <g transform="translate(1392.068327 369.723979) scale(0.15 -0.15)">
       <use xlink:href="#DejaVuSans-31"/>
       <use xlink:href="#DejaVuSans-2e" transform="translate(63.623047 0)"/>
       <use xlink:href="#DejaVuSans-38" transform="translate(95.410156 0)"/>
      </g>
     </g>
    </g>
    <g id="xtick_18">
     <g id="line2d_56">
      <g>
       <use xlink:href="#m87a12ae949" x="1484.768047" y="349.826323" style="stroke: #000000; stroke-width: 1.1"/>
      </g>
     </g>
     <g id="text_35">
      <!-- 2.0 -->
      <g transform="translate(1472.840703 369.723979) scale(0.15 -0.15)">
       <use xlink:href="#DejaVuSans-32"/>
       <use xlink:href="#DejaVuSans-2e" transform="translate(63.623047 0)"/>
       <use xlink:href="#DejaVuSans-30" transform="translate(95.410156 0)"/>
      </g>
     </g>
    </g>
    <g id="text_36">
     <!-- Prey  $x$ -->
     <g transform="translate(1252.375725 395.99976) scale(0.2 -0.2)">
      <use xlink:href="#DejaVuSans-50" transform="translate(0 0.09375)"/>
      <use xlink:href="#DejaVuSans-72" transform="translate(60.302734 0.09375)"/>
      <use xlink:href="#DejaVuSans-65" transform="translate(101.416016 0.09375)"/>
      <use xlink:href="#DejaVuSans-79" transform="translate(162.939453 0.09375)"/>
      <use xlink:href="#DejaVuSans-20" transform="translate(222.119141 0.09375)"/>
      <use xlink:href="#DejaVuSans-20" transform="translate(253.90625 0.09375)"/>
      <use xlink:href="#DejaVuSans-Oblique-78" transform="translate(285.693359 0.09375)"/>
     </g>
    </g>
   </g>
   <g id="matplotlib.axis_6">
    <g id="ytick_13">
     <g id="line2d_57">
      <g>
       <use xlink:href="#m37f35a83eb" x="1064.751691" y="339.373143" style="stroke: #000000; stroke-width: 1.1"/>
      </g>
     </g>
     <g id="text_37">
      <!-- 0.00 -->
      <g transform="translate(1022.853253 345.071971) scale(0.15 -0.15)">
       <use xlink:href="#DejaVuSans-30"/>
       <use xlink:href="#DejaVuSans-2e" transform="translate(63.623047 0)"/>
       <use xlink:href="#DejaVuSans-30" transform="translate(95.410156 0)"/>
       <use xlink:href="#DejaVuSans-30" transform="translate(159.033203 0)"/>
      </g>
     </g>
    </g>
    <g id="ytick_14">
     <g id="line2d_58">
      <g>
       <use xlink:href="#m37f35a83eb" x="1064.751691" y="287.107248" style="stroke: #000000; stroke-width: 1.1"/>
      </g>
     </g>
     <g id="text_38">
      <!-- 0.02 -->
      <g transform="translate(1022.853253 292.806076) scale(0.15 -0.15)">
       <use xlink:href="#DejaVuSans-30"/>
       <use xlink:href="#DejaVuSans-2e" transform="translate(63.623047 0)"/>
       <use xlink:href="#DejaVuSans-30" transform="translate(95.410156 0)"/>
       <use xlink:href="#DejaVuSans-32" transform="translate(159.033203 0)"/>
      </g>
     </g>
    </g>
    <g id="ytick_15">
     <g id="line2d_59">
      <g>
       <use xlink:href="#m37f35a83eb" x="1064.751691" y="234.841352" style="stroke: #000000; stroke-width: 1.1"/>
      </g>
     </g>
     <g id="text_39">
      <!-- 0.04 -->
      <g transform="translate(1022.853253 240.54018) scale(0.15 -0.15)">
       <use xlink:href="#DejaVuSans-30"/>
       <use xlink:href="#DejaVuSans-2e" transform="translate(63.623047 0)"/>
       <use xlink:href="#DejaVuSans-30" transform="translate(95.410156 0)"/>
       <use xlink:href="#DejaVuSans-34" transform="translate(159.033203 0)"/>
      </g>
     </g>
    </g>
    <g id="ytick_16">
     <g id="line2d_60">
      <g>
       <use xlink:href="#m37f35a83eb" x="1064.751691" y="182.575456" style="stroke: #000000; stroke-width: 1.1"/>
      </g>
     </g>
     <g id="text_40">
      <!-- 0.06 -->
      <g transform="translate(1022.853253 188.274284) scale(0.15 -0.15)">
       <use xlink:href="#DejaVuSans-30"/>
       <use xlink:href="#DejaVuSans-2e" transform="translate(63.623047 0)"/>
       <use xlink:href="#DejaVuSans-30" transform="translate(95.410156 0)"/>
       <use xlink:href="#DejaVuSans-36" transform="translate(159.033203 0)"/>
      </g>
     </g>
    </g>
    <g id="ytick_17">
     <g id="line2d_61">
      <g>
       <use xlink:href="#m37f35a83eb" x="1064.751691" y="130.30956" style="stroke: #000000; stroke-width: 1.1"/>
      </g>
     </g>
     <g id="text_41">
      <!-- 0.08 -->
      <g transform="translate(1022.853253 136.008388) scale(0.15 -0.15)">
       <use xlink:href="#DejaVuSans-30"/>
       <use xlink:href="#DejaVuSans-2e" transform="translate(63.623047 0)"/>
       <use xlink:href="#DejaVuSans-30" transform="translate(95.410156 0)"/>
       <use xlink:href="#DejaVuSans-38" transform="translate(159.033203 0)"/>
      </g>
     </g>
    </g>
    <g id="ytick_18">
     <g id="line2d_62">
      <g>
       <use xlink:href="#m37f35a83eb" x="1064.751691" y="78.043664" style="stroke: #000000; stroke-width: 1.1"/>
      </g>
     </g>
     <g id="text_42">
      <!-- 0.10 -->
      <g transform="translate(1022.853253 83.742492) scale(0.15 -0.15)">
       <use xlink:href="#DejaVuSans-30"/>
       <use xlink:href="#DejaVuSans-2e" transform="translate(63.623047 0)"/>
       <use xlink:href="#DejaVuSans-31" transform="translate(95.410156 0)"/>
       <use xlink:href="#DejaVuSans-30" transform="translate(159.033203 0)"/>
      </g>
     </g>
    </g>
   </g>
   <g id="patch_11">
    <path d="M 1064.751691 349.826322 
L 1064.751691 28.20024 
" style="fill: none; stroke: #000000; stroke-width: 1.2; stroke-linejoin: miter; stroke-linecap: square"/>
   </g>
   <g id="patch_12">
    <path d="M 1064.751691 349.826323 
L 1508.99976 349.826323 
" style="fill: none; stroke: #000000; stroke-width: 1.2; stroke-linejoin: miter; stroke-linecap: square"/>
   </g>
   <g id="line2d_63">
    <path d="M 1110.210986 339.373143 
L 1484.533751 339.373143 
" clip-path="url(#p37b16bf242)" style="fill: none; stroke: #2d4f73; stroke-opacity: 0.9; stroke-width: 2.4; stroke-linecap: round"/>
   </g>
   <g id="line2d_64">
    <path d="M 1170.646985 339.373143 
L 1475.459058 339.373143 
" clip-path="url(#p37b16bf242)" style="fill: none; stroke: #547aa5; stroke-opacity: 0.9; stroke-width: 2.4; stroke-linecap: round"/>
   </g>
   <g id="line2d_65">
    <path d="M 1242.432708 339.373143 
L 1440.468315 339.373143 
" clip-path="url(#p37b16bf242)" style="fill: none; stroke: #7aa3c0; stroke-opacity: 0.9; stroke-width: 2.4; stroke-linecap: round"/>
   </g>
   <g id="line2d_66">
    <path d="M 1293.638599 339.373143 
L 1402.057692 339.373143 
" clip-path="url(#p37b16bf242)" style="fill: none; stroke: #b8cfe0; stroke-opacity: 0.9; stroke-width: 2.4; stroke-linecap: round"/>
   </g>
   <g id="line2d_67">
    <path d="M 1093.470544 339.373143 
L 1478.568078 339.373143 
" clip-path="url(#p37b16bf242)" style="fill: none; stroke: #5a0f11; stroke-opacity: 0.9; stroke-width: 2.4; stroke-linecap: round"/>
   </g>
   <g id="line2d_68">
    <path d="M 1133.223637 339.373143 
L 1431.97584 339.373143 
" clip-path="url(#p37b16bf242)" style="fill: none; stroke: #901a1e; stroke-opacity: 0.9; stroke-width: 2.4; stroke-linecap: round"/>
   </g>
   <g id="line2d_69">
    <path d="M 1184.432372 339.373143 
L 1362.520194 339.373143 
" clip-path="url(#p37b16bf242)" style="fill: none; stroke: #b84042; stroke-opacity: 0.9; stroke-width: 2.4; stroke-linecap: round"/>
   </g>
   <g id="line2d_70">
    <path d="M 1222.247097 339.373143 
L 1315.890321 339.373143 
" clip-path="url(#p37b16bf242)" style="fill: none; stroke: #d9888a; stroke-opacity: 0.9; stroke-width: 2.4; stroke-linecap: round"/>
   </g>
   <g id="text_43">
    <!-- (c)  $\gamma_2=2.4$ -->
    <g transform="translate(1228.375725 18.20024) scale(0.2 -0.2)">
     <defs>
      <path id="DejaVuSans-63" d="M 3122 3366 
L 3122 2828 
Q 2878 2963 2633 3030 
Q 2388 3097 2138 3097 
Q 1578 3097 1268 2742 
Q 959 2388 959 1747 
Q 959 1106 1268 751 
Q 1578 397 2138 397 
Q 2388 397 2633 464 
Q 2878 531 3122 666 
L 3122 134 
Q 2881 22 2623 -34 
Q 2366 -91 2075 -91 
Q 1284 -91 818 406 
Q 353 903 353 1747 
Q 353 2603 823 3093 
Q 1294 3584 2113 3584 
Q 2378 3584 2631 3529 
Q 2884 3475 3122 3366 
z
" transform="scale(0.015625)"/>
     </defs>
     <use xlink:href="#DejaVuSans-28" transform="translate(0 0.125)"/>
     <use xlink:href="#DejaVuSans-63" transform="translate(39.013672 0.125)"/>
     <use xlink:href="#DejaVuSans-29" transform="translate(93.994141 0.125)"/>
     <use xlink:href="#DejaVuSans-20" transform="translate(133.007812 0.125)"/>
     <use xlink:href="#DejaVuSans-20" transform="translate(164.794922 0.125)"/>
     <use xlink:href="#DejaVuSans-Oblique-3b3" transform="translate(196.582031 0.125)"/>
     <use xlink:href="#DejaVuSans-32" transform="translate(255.761719 -16.28125) scale(0.7)"/>
     <use xlink:href="#DejaVuSans-3d" transform="translate(322.514648 0.125)"/>
     <use xlink:href="#DejaVuSans-32" transform="translate(425.786133 0.125)"/>
     <use xlink:href="#DejaVuSans-2e" transform="translate(489.40918 0.125)"/>
     <use xlink:href="#DejaVuSans-34" transform="translate(521.196289 0.125)"/>
    </g>
   </g>
   <g id="legend_1">
    <g id="patch_13">
     <path d="M 1176.89976 119.390865 
L 1498.49976 119.390865 
Q 1501.49976 119.390865 1501.49976 116.390865 
L 1501.49976 38.70024 
Q 1501.49976 35.70024 1498.49976 35.70024 
L 1176.89976 35.70024 
Q 1173.89976 35.70024 1173.89976 38.70024 
L 1173.89976 116.390865 
Q 1173.89976 119.390865 1176.89976 119.390865 
z
" style="fill: #ffffff; opacity: 0.95; stroke: #dddddd; stroke-linejoin: miter"/>
    </g>
    <g id="line2d_71">
     <path d="M 1179.89976 47.847896 
L 1193.39976 47.847896 
L 1206.89976 47.847896 
" style="fill: none; stroke: #2d4f73; stroke-width: 2.5; stroke-linecap: square"/>
    </g>
    <g id="text_44">
     <!-- $T=4.0,\ p=0.5$ -->
     <g transform="translate(1214.39976 53.097896) scale(0.15 -0.15)">
      <defs>
       <path id="DejaVuSans-Oblique-54" d="M 378 4666 
L 4325 4666 
L 4225 4134 
L 2559 4134 
L 1759 0 
L 1125 0 
L 1925 4134 
L 275 4134 
L 378 4666 
z
" transform="scale(0.015625)"/>
       <path id="DejaVuSans-2c" d="M 750 794 
L 1409 794 
L 1409 256 
L 897 -744 
L 494 -744 
L 750 256 
L 750 794 
z
" transform="scale(0.015625)"/>
       <path id="DejaVuSans-Oblique-70" d="M 3175 2156 
Q 3175 2616 2975 2859 
Q 2775 3103 2400 3103 
Q 2144 3103 1911 2972 
Q 1678 2841 1497 2591 
Q 1319 2344 1212 1994 
Q 1106 1644 1106 1300 
Q 1106 863 1306 627 
Q 1506 391 1875 391 
Q 2147 391 2380 519 
Q 2613 647 2778 891 
Q 2956 1147 3065 1494 
Q 3175 1841 3175 2156 
z
M 1394 2969 
Q 1625 3272 1939 3428 
Q 2253 3584 2638 3584 
Q 3175 3584 3472 3232 
Q 3769 2881 3769 2247 
Q 3769 1728 3584 1258 
Q 3400 788 3053 416 
Q 2822 169 2531 39 
Q 2241 -91 1919 -91 
Q 1547 -91 1294 64 
Q 1041 219 916 525 
L 556 -1331 
L -19 -1331 
L 922 3500 
L 1497 3500 
L 1394 2969 
z
" transform="scale(0.015625)"/>
      </defs>
      <use xlink:href="#DejaVuSans-Oblique-54" transform="translate(0 0.78125)"/>
      <use xlink:href="#DejaVuSans-3d" transform="translate(80.566406 0.78125)"/>
      <use xlink:href="#DejaVuSans-34" transform="translate(183.837891 0.78125)"/>
      <use xlink:href="#DejaVuSans-2e" transform="translate(247.460938 0.78125)"/>
      <use xlink:href="#DejaVuSans-30" transform="translate(279.248047 0.78125)"/>
      <use xlink:href="#DejaVuSans-2c" transform="translate(342.871094 0.78125)"/>
      <use xlink:href="#DejaVuSans-Oblique-70" transform="translate(426.611003 0.78125)"/>
      <use xlink:href="#DejaVuSans-3d" transform="translate(509.569988 0.78125)"/>
      <use xlink:href="#DejaVuSans-30" transform="translate(612.841472 0.78125)"/>
      <use xlink:href="#DejaVuSans-2e" transform="translate(676.464519 0.78125)"/>
      <use xlink:href="#DejaVuSans-35" transform="translate(708.251628 0.78125)"/>
     </g>
    </g>
    <g id="line2d_72">
     <path d="M 1179.89976 66.895552 
L 1193.39976 66.895552 
L 1206.89976 66.895552 
" style="fill: none; stroke: #5a0f11; stroke-width: 2.5; stroke-linecap: square"/>
    </g>
    <g id="text_45">
     <!-- $T=4.0,\ p=0.7$ -->
     <g transform="translate(1214.39976 72.145552) scale(0.15 -0.15)">
      <defs>
       <path id="DejaVuSans-37" d="M 525 4666 
L 3525 4666 
L 3525 4397 
L 1831 0 
L 1172 0 
L 2766 4134 
L 525 4134 
L 525 4666 
z
" transform="scale(0.015625)"/>
      </defs>
      <use xlink:href="#DejaVuSans-Oblique-54" transform="translate(0 0.78125)"/>
      <use xlink:href="#DejaVuSans-3d" transform="translate(80.566406 0.78125)"/>
      <use xlink:href="#DejaVuSans-34" transform="translate(183.837891 0.78125)"/>
      <use xlink:href="#DejaVuSans-2e" transform="translate(247.460938 0.78125)"/>
      <use xlink:href="#DejaVuSans-30" transform="translate(279.248047 0.78125)"/>
      <use xlink:href="#DejaVuSans-2c" transform="translate(342.871094 0.78125)"/>
      <use xlink:href="#DejaVuSans-Oblique-70" transform="translate(426.611003 0.78125)"/>
      <use xlink:href="#DejaVuSans-3d" transform="translate(509.569988 0.78125)"/>
      <use xlink:href="#DejaVuSans-30" transform="translate(612.841472 0.78125)"/>
      <use xlink:href="#DejaVuSans-2e" transform="translate(676.464519 0.78125)"/>
      <use xlink:href="#DejaVuSans-37" transform="translate(700.501628 0.78125)"/>
     </g>
    </g>
    <g id="line2d_73">
     <path d="M 1179.89976 85.943209 
L 1193.39976 85.943209 
L 1206.89976 85.943209 
" style="fill: none; stroke: #547aa5; stroke-width: 2.5; stroke-linecap: square"/>
    </g>
    <g id="text_46">
     <!-- $T=2.0,\ p=0.5$ -->
     <g transform="translate(1214.39976 91.193209) scale(0.15 -0.15)">
      <use xlink:href="#DejaVuSans-Oblique-54" transform="translate(0 0.78125)"/>
      <use xlink:href="#DejaVuSans-3d" transform="translate(80.566406 0.78125)"/>
      <use xlink:href="#DejaVuSans-32" transform="translate(183.837891 0.78125)"/>
      <use xlink:href="#DejaVuSans-2e" transform="translate(247.460938 0.78125)"/>
      <use xlink:href="#DejaVuSans-30" transform="translate(279.248047 0.78125)"/>
      <use xlink:href="#DejaVuSans-2c" transform="translate(342.871094 0.78125)"/>
      <use xlink:href="#DejaVuSans-Oblique-70" transform="translate(426.611003 0.78125)"/>
      <use xlink:href="#DejaVuSans-3d" transform="translate(509.569988 0.78125)"/>
      <use xlink:href="#DejaVuSans-30" transform="translate(612.841472 0.78125)"/>
      <use xlink:href="#DejaVuSans-2e" transform="translate(676.464519 0.78125)"/>
      <use xlink:href="#DejaVuSans-35" transform="translate(708.251628 0.78125)"/>
     </g>
    </g>
    <g id="line2d_74">
     <path d="M 1179.89976 104.990865 
L 1193.39976 104.990865 
L 1206.89976 104.990865 
" style="fill: none; stroke: #901a1e; stroke-width: 2.5; stroke-linecap: square"/>
    </g>
    <g id="text_47">
     <!-- $T=2.0,\ p=0.7$ -->
     <g transform="translate(1214.39976 110.240865) scale(0.15 -0.15)">
      <use xlink:href="#DejaVuSans-Oblique-54" transform="translate(0 0.78125)"/>
      <use xlink:href="#DejaVuSans-3d" transform="translate(80.566406 0.78125)"/>
      <use xlink:href="#DejaVuSans-32" transform="translate(183.837891 0.78125)"/>
      <use xlink:href="#DejaVuSans-2e" transform="translate(247.460938 0.78125)"/>
      <use xlink:href="#DejaVuSans-30" transform="translate(279.248047 0.78125)"/>
      <use xlink:href="#DejaVuSans-2c" transform="translate(342.871094 0.78125)"/>
      <use xlink:href="#DejaVuSans-Oblique-70" transform="translate(426.611003 0.78125)"/>
      <use xlink:href="#DejaVuSans-3d" transform="translate(509.569988 0.78125)"/>
      <use xlink:href="#DejaVuSans-30" transform="translate(612.841472 0.78125)"/>
      <use xlink:href="#DejaVuSans-2e" transform="translate(676.464519 0.78125)"/>
      <use xlink:href="#DejaVuSans-37" transform="translate(700.501628 0.78125)"/>
     </g>
    </g>
    <g id="line2d_75">
     <path d="M 1345.19976 47.847896 
L 1358.69976 47.847896 
L 1372.19976 47.847896 
" style="fill: none; stroke: #7aa3c0; stroke-width: 2.5; stroke-linecap: square"/>
    </g>
    <g id="text_48">
     <!-- $T=1.0,\ p=0.5$ -->
     <g transform="translate(1379.69976 53.097896) scale(0.15 -0.15)">
      <use xlink:href="#DejaVuSans-Oblique-54" transform="translate(0 0.78125)"/>
      <use xlink:href="#DejaVuSans-3d" transform="translate(80.566406 0.78125)"/>
      <use xlink:href="#DejaVuSans-31" transform="translate(183.837891 0.78125)"/>
      <use xlink:href="#DejaVuSans-2e" transform="translate(247.460938 0.78125)"/>
      <use xlink:href="#DejaVuSans-30" transform="translate(279.248047 0.78125)"/>
      <use xlink:href="#DejaVuSans-2c" transform="translate(342.871094 0.78125)"/>
      <use xlink:href="#DejaVuSans-Oblique-70" transform="translate(426.611003 0.78125)"/>
      <use xlink:href="#DejaVuSans-3d" transform="translate(509.569988 0.78125)"/>
      <use xlink:href="#DejaVuSans-30" transform="translate(612.841472 0.78125)"/>
      <use xlink:href="#DejaVuSans-2e" transform="translate(676.464519 0.78125)"/>
      <use xlink:href="#DejaVuSans-35" transform="translate(708.251628 0.78125)"/>
     </g>
    </g>
    <g id="line2d_76">
     <path d="M 1345.19976 66.895552 
L 1358.69976 66.895552 
L 1372.19976 66.895552 
" style="fill: none; stroke: #b84042; stroke-width: 2.5; stroke-linecap: square"/>
    </g>
    <g id="text_49">
     <!-- $T=1.0,\ p=0.7$ -->
     <g transform="translate(1379.69976 72.145552) scale(0.15 -0.15)">
      <use xlink:href="#DejaVuSans-Oblique-54" transform="translate(0 0.78125)"/>
      <use xlink:href="#DejaVuSans-3d" transform="translate(80.566406 0.78125)"/>
      <use xlink:href="#DejaVuSans-31" transform="translate(183.837891 0.78125)"/>
      <use xlink:href="#DejaVuSans-2e" transform="translate(247.460938 0.78125)"/>
      <use xlink:href="#DejaVuSans-30" transform="translate(279.248047 0.78125)"/>
      <use xlink:href="#DejaVuSans-2c" transform="translate(342.871094 0.78125)"/>
      <use xlink:href="#DejaVuSans-Oblique-70" transform="translate(426.611003 0.78125)"/>
      <use xlink:href="#DejaVuSans-3d" transform="translate(509.569988 0.78125)"/>
      <use xlink:href="#DejaVuSans-30" transform="translate(612.841472 0.78125)"/>
      <use xlink:href="#DejaVuSans-2e" transform="translate(676.464519 0.78125)"/>
      <use xlink:href="#DejaVuSans-37" transform="translate(700.501628 0.78125)"/>
     </g>
    </g>
    <g id="line2d_77">
     <path d="M 1345.19976 85.943209 
L 1358.69976 85.943209 
L 1372.19976 85.943209 
" style="fill: none; stroke: #b8cfe0; stroke-width: 2.5; stroke-linecap: square"/>
    </g>
    <g id="text_50">
     <!-- $T=0.5,\ p=0.5$ -->
     <g transform="translate(1379.69976 91.193209) scale(0.15 -0.15)">
      <use xlink:href="#DejaVuSans-Oblique-54" transform="translate(0 0.78125)"/>
      <use xlink:href="#DejaVuSans-3d" transform="translate(80.566406 0.78125)"/>
      <use xlink:href="#DejaVuSans-30" transform="translate(183.837891 0.78125)"/>
      <use xlink:href="#DejaVuSans-2e" transform="translate(247.460938 0.78125)"/>
      <use xlink:href="#DejaVuSans-35" transform="translate(279.248047 0.78125)"/>
      <use xlink:href="#DejaVuSans-2c" transform="translate(342.871094 0.78125)"/>
      <use xlink:href="#DejaVuSans-Oblique-70" transform="translate(426.611003 0.78125)"/>
      <use xlink:href="#DejaVuSans-3d" transform="translate(509.569988 0.78125)"/>
      <use xlink:href="#DejaVuSans-30" transform="translate(612.841472 0.78125)"/>
      <use xlink:href="#DejaVuSans-2e" transform="translate(676.464519 0.78125)"/>
      <use xlink:href="#DejaVuSans-35" transform="translate(708.251628 0.78125)"/>
     </g>
    </g>
    <g id="line2d_78">
     <path d="M 1345.19976 104.990865 
L 1358.69976 104.990865 
L 1372.19976 104.990865 
" style="fill: none; stroke: #d9888a; stroke-width: 2.5; stroke-linecap: square"/>
    </g>
    <g id="text_51">
     <!-- $T=0.5,\ p=0.7$ -->
     <g transform="translate(1379.69976 110.240865) scale(0.15 -0.15)">
      <use xlink:href="#DejaVuSans-Oblique-54" transform="translate(0 0.78125)"/>
      <use xlink:href="#DejaVuSans-3d" transform="translate(80.566406 0.78125)"/>
      <use xlink:href="#DejaVuSans-30" transform="translate(183.837891 0.78125)"/>
      <use xlink:href="#DejaVuSans-2e" transform="translate(247.460938 0.78125)"/>
      <use xlink:href="#DejaVuSans-35" transform="translate(279.248047 0.78125)"/>
      <use xlink:href="#DejaVuSans-2c" transform="translate(342.871094 0.78125)"/>
      <use xlink:href="#DejaVuSans-Oblique-70" transform="translate(426.611003 0.78125)"/>
      <use xlink:href="#DejaVuSans-3d" transform="translate(509.569988 0.78125)"/>
      <use xlink:href="#DejaVuSans-30" transform="translate(612.841472 0.78125)"/>
      <use xlink:href="#DejaVuSans-2e" transform="translate(676.464519 0.78125)"/>
      <use xlink:href="#DejaVuSans-37" transform="translate(700.501628 0.78125)"/>
     </g>
    </g>
   </g>
   <g id="PathCollection_5">
    <g>
     <use xlink:href="#m2c4a49cff2" x="1080.906166" y="339.373143" style="fill: #222222; stroke: #222222"/>
    </g>
   </g>
   <g id="PathCollection_6">
    <g>
     <use xlink:href="#m2c4a49cff2" x="1484.768047" y="339.373143" style="fill: #222222; stroke: #222222"/>
    </g>
   </g>
  </g>
 </g>
 <defs>
  <clipPath id="p297664a403">
   <rect x="72.298678" y="28.20024" width="444.248069" height="321.626083"/>
  </clipPath>
  <clipPath id="p09095d17a8">
   <rect x="568.525184" y="28.20024" width="444.248069" height="321.626083"/>
  </clipPath>
  <clipPath id="p37b16bf242">
   <rect x="1064.751691" y="28.20024" width="444.248069" height="321.626083"/>
  </clipPath>
 </defs>
</svg>
